<?xml version="1.0" encoding="utf-8"?>
<!-- Generator: Adobe Illustrator 25.0.0, SVG Export Plug-In . SVG Version: 6.00 Build 0)  -->
<svg version="1.1" id="Layer_1" xmlns="http://www.w3.org/2000/svg" xmlns:xlink="http://www.w3.org/1999/xlink" x="0px" y="0px"
	 viewBox="0 0 112 112.9" style="enable-background:new 0 0 112 112.9;" xml:space="preserve">
<style type="text/css">
	.st0{fill:#62755E;}
	.st1{fill:#B2BAA4;}
	.st2{fill:#879277;}
</style>
<g>
	<g>
		<g>
			<path class="st0" d="M96,107.2c0,0-22.1,2.1-40.4-31.7c-0.8-1.4-2.7-1.7-3.9-0.6c-4.2,4.2-12.4,15-14,36.3l0,0
				c-0.3-0.5-8.7-15-2.2-29.9c5.3-12,10.6-17.4,13-24.8c0.3-0.9-0.5-1.7-1.4-1.5c-10.9,2.9-21.9,7.1-28.9,16
				c1.1-8.9,9.7-16.3,17.1-20.4c6.2-3.5,12.8-5.6,19.8-7.2c8-1.9,15.1-5,20.4-11.4c6.1-7.3,9.1-17.1,10.5-26.4
				c3,10.7,1.1,23.3-5.3,32.4c-3.2,4.5-7.3,8-12,10.4c-1.2,0.6-1.9,1.8-1.9,3.1c-0.2,6.4,0.4,20,7.1,30.8C83,96.7,91,104.3,96,107.2
				z"/>
			<circle class="st0" cx="55.1" cy="30.7" r="9.5"/>
		</g>
		<path class="st1" d="M81.1,4.8c-13.3-0.5-27.7,1.3-39.3,8.3c-11.3,6.8-17.6,18.2-20.9,30.7c-1.7,6.5-2.3,13.1-3.3,19.7
			c-2.9-14.7-2-29.9,6.3-42.8C30.4,10.5,41.8,4.2,53.5,2.3C62.6,0.8,72.5,1.4,81.1,4.8z"/>
		<path class="st2" d="M86,5.5c-2,37.6-21.4,38.3-34,53.7c-16.9,20.6-14.2,52.1-14.2,52.1c-0.3-0.5-8.7-15-2.2-29.9
			c5.2-12.1,10.5-17.5,12.9-24.9c0.3-0.9-0.5-1.7-1.4-1.5c-10.9,2.9-21.9,7.1-28.9,16c1.1-8.9,9.7-16.3,17.1-20.4
			c6.2-3.5,12.8-5.6,19.8-7.2c8-1.9,15.1-5,20.4-11.4C81.6,24.6,84.6,14.8,86,5.5z"/>
	</g>
</g>
</svg>
