<svg xmlns="http://www.w3.org/2000/svg" xml:space="preserve" id="Layer_1" x="0" y="0" version="1.1" viewBox="0 0 512 112.9"><style>.st0{fill:#62755e}</style><path d="M80.9 107.7S58.8 109.8 40.5 76c-.8-1.4-2.7-1.7-3.9-.6-4.2 4.2-12.4 15-14 36.3-.3-.5-8.7-15-2.2-29.9 5.3-12 10.6-17.4 13-24.8.3-.9-.5-1.7-1.4-1.5-10.9 2.9-21.9 7.1-28.9 16 1.1-8.9 9.7-16.3 17.1-20.4 6.2-3.5 12.8-5.6 19.8-7.2 8-1.9 15.1-5 20.4-11.4 6.1-7.3 9.1-17.1 10.5-26.4 3 10.7 1.1 23.3-5.3 32.4-3.2 4.5-7.3 8-12 10.4-1.2.6-1.9 1.8-1.9 3.1-.2 6.4.4 20 7.1 30.8 9.1 14.4 17.1 22 22.1 24.9" class="st0"/><circle cx="40" cy="31.2" r="9.5" class="st0"/><path d="M66 5.3c-13.3-.5-27.7 1.3-39.3 8.3C15.4 20.4 9.1 31.8 5.8 44.3 4.1 50.8 3.5 57.4 2.5 64-.4 49.3.5 34.1 8.8 21.2 15.3 11 26.7 4.7 38.4 2.8c9.1-1.5 19-.9 27.6 2.5" style="fill:#b2baa4"/><path d="M70.9 6c-2 37.6-21.4 38.3-34 53.7-16.9 20.6-14.2 52.1-14.2 52.1-.3-.5-8.7-15-2.2-29.9C25.7 69.8 31 64.4 33.4 57c.3-.9-.5-1.7-1.4-1.5-10.9 2.9-21.9 7.1-28.9 16 1.1-8.9 9.7-16.3 17.1-20.4 6.2-3.5 12.8-5.6 19.8-7.2 8-1.9 15.1-5 20.4-11.4 6.1-7.4 9.1-17.2 10.5-26.5" style="fill:#879277"/><text class="st0" style="font-family:&quot;WoresPaintRegular&quot;;font-size:49.1007px" transform="translate(107.887 73.64)">It’s Vaccine Time</text></svg>