<?xml version="1.0" encoding="utf-8"?>
<!-- Generator: Adobe Illustrator 25.0.0, SVG Export Plug-In . SVG Version: 6.00 Build 0)  -->
<svg version="1.1" id="Layer_1" xmlns="http://www.w3.org/2000/svg" xmlns:xlink="http://www.w3.org/1999/xlink" x="0px" y="0px"
	 viewBox="0 0 400.4 400.4" style="enable-background:new 0 0 400.4 400.4;" xml:space="preserve">
<style type="text/css">
	.st0{fill:#FFFFFF;}
	.st1{fill:#CE4B3B;}
	.st2{fill:#B8362A;}
	.st3{fill:none;stroke:#0D0807;stroke-linecap:round;stroke-linejoin:round;stroke-miterlimit:10;}
	.st4{fill:#711522;}
	.st5{fill:#5B0D19;}
	.st6{fill:#005284;}
	.st7{fill:#083557;}
</style>
<g id="Layer_1">
	
		<image style="overflow:visible;opacity:0.47;" width="351" height="396" xlink:href="458184A9.png"  transform="matrix(1 0 0 1 27.4961 4.8961)">
	</image>
	<g>
		<g>
			<g>
				<g>
					<path class="st0" d="M279.3,286.5c-0.5-1.5-1-3.1-1.7-4.6c-1.4-3.2-5.3-12.7-14.5-16.3c0.3-0.8,0.5-1.6,0.7-2.4
						c2.3-8.6,1.8-16,1.5-18.1c0-0.3-0.1-0.9-0.1-1.5c-0.7-7.9-2.6-15.7-5.8-23.1c-0.9-2.1-2-4.3-3.2-6.6c-1.8-3.6-3.9-7-6.2-10.2
						c5.8-6,10.4-13.3,13.3-21.2c3.3-8.9,4.2-18.2,2.6-26.9c-0.1-0.8-0.3-1.6-0.5-2.4c0-0.2-0.1-0.3-0.1-0.5c-0.2-0.6-0.4-1.3-0.6-2
						c0-0.1-0.1-0.1-0.1-0.2c-0.3-0.7-0.5-1.4-0.9-2.1c-5-11-15.2-17-26.2-15.6c0-0.2-0.1-0.3-0.1-0.5s-0.1-0.4-0.1-0.6l0.1-0.2
						c0.2-0.3,0.4-0.5,0.5-0.8c0.2-0.3,0.5-0.7,0.7-1l0.2-0.3c0.2-0.3,0.4-0.6,0.5-0.9c0.2-0.4,0.4-0.7,0.6-1.1l0.1-0.2
						c0.2-0.3,0.4-0.7,0.6-1c0.2-0.4,0.4-0.8,0.6-1.3c0.2-0.4,0.3-0.7,0.5-1.1c0.2-0.4,0.4-0.8,0.5-1.3c0.2-0.4,0.3-0.8,0.5-1.2
						s0.3-0.8,0.4-1.3c0.1-0.4,0.3-0.8,0.4-1.2l0.3-1.2c0.1-0.3,0.1-0.5,0.2-0.8c1.6-5.6,1.8-11.3,0.7-17c0-0.3-0.1-0.6-0.2-0.9
						l-0.6-2.7c-0.3-1.1-0.7-2.1-1.3-3.2c-0.2-0.4-0.4-0.7-0.6-1s-0.4-0.6-0.6-0.8c0.2-0.2,0.3-0.5,0.5-0.7c0.7-1.1,1.5-2.3,2.3-3.6
						c3.3-1.7,5.6-4.1,6.7-5.1l3.5-3.6c1.8-1.8,6.6-6.6,5.7-14.2c-0.8-6.4-5.2-11.4-11.2-12.7c-0.2,0-0.4-0.1-0.6-0.1
						c-2.2-3.9-5.9-6.3-10.1-6.9c-1.2-2.9-3-5.5-5.3-7.5c-3.7-3.2-8.4-4.7-13.3-4c-0.4-0.1-0.7-0.1-1.1-0.1h-2.1
						c-1.7-3.9-4.5-7.3-8.3-9.3c-2.6-1.5-5.7-2.2-8.8-2.3c-1.3-0.3-2.7-0.3-4.1-0.2c-1.3-1.5-2.8-2.9-4.7-4
						c-4.2-2.5-9.2-3.1-13.6-1.8c-4.1-3.4-10-4.2-15-1.7c-0.7-0.3-1.4-0.6-2.2-0.8c-2.9-0.8-6.1-0.7-8.9,0.3
						c-1.3-0.6-2.7-1.1-4.3-1.3c-6.9-1-13.3,3.2-15.2,9.9c-0.4,1.2-0.6,2.5-0.9,3.7c-1.7-3.6-4.7-6.3-8.5-7.7
						c-5.3-1.9-9.8-0.2-11.6,0.4c-1.1,0.4-2.2,0.9-3.3,1.4c-1.8,0.8-3.6,1.8-5.4,3c-1.2,0.8-2.4,1.6-3.5,2.5
						c-3.2-0.6-6.4-0.1-9.2,1.5c-1.6,0.9-3.7,2.5-5.3,5.1c-0.7,1.1-1.2,2.3-1.5,3.6c-0.2,0.5-0.3,1.1-0.4,1.6
						c-5.2,0.8-9.7,4.4-11.4,9.7c-0.5,1.5-0.7,3-0.8,4.3c-1.4,0.7-2.7,1.6-3.8,2.8c-2,2.1-3.2,4.8-3.5,7.6c-5.4,1.1-10.2,4.3-13,9.1
						c-2.4,4.2-3.2,9.1-2.1,13.6v0.1c-0.1,0-0.2,0.1-0.3,0.1c-5,1.5-9.2,5-11.5,9.5c-2.6,5.1-2.5,10.8,0.4,15.9
						c1.4,4.1,4.1,6.9,5.6,8.5l0.4,0.4c1.7,1.8,3.4,3.6,5.1,5.3c0.9,0.9,1.8,1.7,2.7,2.6l2.7,2.4c0.4,0.3,0.7,0.6,1.1,0.9l0.1,0.1
						c1,0.9,2.2,2,3.6,3c0.9,0.7,1.7,1.2,2.5,1.7c1,0.6,2,1.1,3.1,1.4c0,2.8,0.4,5.7,1.2,8.5c-6.1,3.2-11.2,8.6-14,15.4
						c-0.6,1.5-1.1,3.2-1.5,4.9c-0.2,0.9-0.4,1.9-0.6,3.1c0,0.2-0.1,0.4-0.1,0.5c-0.2,1.8-0.4,3.7-0.4,5.6v0.6c0,0.8,0,1.7,0.1,2.5
						c0.3,6.1,1.2,11.3,2.7,15.9c3.1,9,8.9,17.2,17,23.6c1.3,1,2.7,2,4.1,3c-1.7,3.6-3.2,7.3-4.4,11.2c-0.8,2.4-1.5,4.8-2,7.1
						c-1.8,7.9-2.4,15.8-1.7,23.7c0,0.7,0.1,1.2,0.1,1.5c0.1,2.1,0.8,9.5,4.6,17.6c0.7,1.5,1.5,3,2.3,4.3c-1.8,0.8-3.5,2-4.8,3.6
						c-3.3,3.9-4.4,8-5.2,11l-0.2,0.7c-0.7,2.5-1.3,5-1.8,7.5l-2.1,8.7c-0.6,2.5-1.3,5.6-1.3,9.1c0,7.3,3,13.5,8.3,16.9
						c2.7,1.8,5.8,2.6,9,2.6c1.3,0,2.6-0.2,3.9-0.5c1.8,2,4.1,3.4,6.7,4.1c2.4,0.6,4.9,0.6,7.3-0.1c0.5,0.5,1.1,1,1.8,1.5
						s1.4,0.9,2.2,1.3c2,1,4.2,1.5,6.5,1.5h0.7c1.3-0.1,2.5-0.3,3.7-0.6c1.1,1.1,2.4,2.1,3.8,2.9c0.7,0.4,1.4,0.8,2.2,1.2
						c0.7,0.3,1.5,0.6,2.3,0.9c2,0.7,4.2,1,6.3,1h0.8c2.4-0.1,4.7-0.6,7-1.5c1.1-0.5,2.2-1,3.2-1.6c0.4,0.3,0.8,0.6,1.3,0.8
						c0.6,0.4,1.3,0.7,2,1c2.6,1.2,5.4,1.8,8.1,1.8c0.7,0,1.3,0,2-0.1c1.6-0.2,3.3-0.6,4.8-1.1c3.2,1.4,6.4,1.7,8.5,1.7h2.5
						c0.9,0,1.7-0.1,2.6-0.1l1.4-0.1h0.1c0.7,0,1.5-0.1,2.2-0.1c0.6-0.1,1.3-0.2,1.9-0.3c1.1-0.2,2.2-0.6,3.2-1.1
						c0.4-0.2,0.8-0.4,1.1-0.6c1.1,0.3,2.3,0.4,3.4,0.4c0.7,0,1.3,0,2-0.1c1.7-0.2,3.4-0.8,4.9-1.6c0.4-0.2,0.8-0.5,1.2-0.7
						c2,1,4.2,1.5,6.4,1.5c3,0,6-1,8.5-2.7c1.5,0.6,3.1,0.9,4.7,0.9c1.1,0,2.2-0.1,3.3-0.4c0.8-0.2,1.6-0.5,2.3-0.9
						c1-0.4,1.8-1,2.6-1.6c0.5-0.4,1-0.9,1.4-1.3c2.1,0.8,4.4,1.1,6.7,0.8c3.4-0.4,6.5-2,8.8-4.4c0.4-0.4,0.8-0.9,1.1-1.4
						c4.5-0.2,8.9-2.6,11.4-6.7c0.1,0,0.3,0.1,0.4,0.1c1,0.2,2,0.2,3,0.2h1c2.3-0.1,4.5-0.6,6.7-1.5c2.9-1.2,5.5-3,7.6-5.3
						c1.1-1.2,2.1-2.6,3-4c0.6-0.1,1.2-0.2,1.7-0.3c1.5-0.4,2.9-1,4.1-1.8c2-1.3,3.6-3,4.8-4.9c4.2-4.4,6.9-10.7,7.8-18.2
						c0.2-1.8,0.3-3.7,0.2-5.5C281,293.4,280.4,289.9,279.3,286.5"/>
					<path class="st1" d="M254.2,157.6c-1.3-7.4-7.3-14.4-15.4-13.1c-4.2,0.7-7.7,3.4-10.5,6.6c-0.7,0.8-1.4,1.7-2.1,2.7
						c-11.4-28.1-37.1-47.6-67.1-47.6c-32.7,0-60.4,23.3-69.8,55.5c-0.5-1.3-1.2-2.5-2.1-3.6c-2.1-2.6-5.5-4.3-8.8-4.8
						c-7.6-1.1-14.8,4.1-17.5,11c-1.5,3.8-1.8,8-1.6,12.1c0.2,4.3,0.8,8.6,2.1,12.6c2.4,7.2,7.2,13.4,13.1,18.1
						c3.6,2.9,7.5,5.2,11.7,7.1c1.6,0.7,3.3,1.5,5,2.1c10.9,29.1,37.2,49.7,67.9,49.7c34.9,0,64.1-26.6,71.5-62.2
						c1.1-0.5,2.2-1.2,3.2-1.9c2.7-1.8,5.3-3.9,7.6-6.3c4.7-4.9,8.4-10.7,10.7-17.1C254.5,171.7,255.4,164.4,254.2,157.6"/>
					<path class="st2" d="M221.4,204.3c-2.8-3-6.1-5.5-9.9-7.3c-3.6-1.7-7.3-2.2-11.1-2.4c-1,0.9-2.2,1.6-3.2,2.5
						c-1.2,1.1-2.3,2.2-3.3,3.4c-2.1,2.5-3.8,5.4-5,8.4c-2.1,5.6-2.5,12-0.4,17.6c1.1,3,2.6,5.8,3.4,8.9c0.7,2.7,0.7,5.4,0,8
						c-1.2,4.6-4,8.4-6.4,12.5c-1,1.7-1.9,3.4-2.6,5.3c20.8-7.8,37.4-25.5,45-48C226.2,210.1,224.1,207,221.4,204.3 M138.3,251.5
						c-2.1-2-3.7-4.6-4.5-7.4c-1.5-5.8,1.4-11.2,1.8-16.9c0.4-5.6-1.9-10.9-5.4-15.1c-1.7-2-3.7-3.9-5.7-5.6c-1-0.9-2.1-1.7-3.2-2.6
						c-0.6-0.5-1.1-0.9-1.5-1.5c-2.8-0.1-5.6,0.3-8.3,1.6c-7.6,3.5-13.4,10.6-18,17.5c10.4,22.7,30.4,39.2,54.1,43.3
						c-1-2.6-2.1-5-3.6-7.3C142.5,255.1,140.2,253.4,138.3,251.5 M92,189c-0.3-2.3-0.7-4.6-1.2-6.9c-0.3,0.1-0.5,0-0.6-0.3
						c-0.8-4.3-2.2-8.5-5-12c-4.1-5.1-10.9-10.6-17.8-8.4c-3,0.9-5.4,3.1-7.5,5.6c-0.7,2.9-0.8,6-0.6,9c0.2,4.3,0.8,8.6,2.1,12.6
						c2.4,7.2,7.2,13.4,13.1,18.1c3.6,2.9,7.5,5.2,11.7,7.1c1.1,0.5,2.1,0.9,3.2,1.4c0.3-1,0.6-2.1,0.9-3.1c1-3.8,1.8-7.8,2.3-11.7
						C92.4,196.7,92.4,192.8,92,189 M159.1,106c-31.7,0-58.8,22-69,52.7c0.2,0.6,0.3,1.2,0.5,1.8c1.5,5.2,2.6,10.5,3.5,15.8
						c0.1,0.7-0.1,1.3-0.6,1.7c0.1,0.2,0.2,0.5,0.2,0.7c0.2,0.6,0.3,1.2,0.4,1.8c2.1-1.1,4-2.7,5.1-4.8c0.9-1.8,1.3-4,1.8-6
						c0.5-2.2,1.1-4.3,2.2-6.3c1.3-2.4,3.2-4.2,5.5-5.7c2-1.3,4.1-2.3,6-3.8c1.9-1.4,3.1-3.2,4.1-5.3c1.8-3.6,3.5-8.2,7.9-9
						s9.1,1.2,13.3-0.6s7-5.6,10.9-7.9c3.6-2.1,7.9-2.1,11.6-0.1c3.4,1.9,5.8,5.1,8.5,7.8c1.4,1.4,3,2.8,4.9,3.5
						c2.9,1,6,1.3,9.1,1.1c3-0.2,6-0.7,9-1.1c1.6-0.2,3.2-0.5,4.8-0.5c0.6-0.3,1.2-0.6,1.8-0.8c0.1-0.1,0.3-0.2,0.4-0.2
						c0.4-0.2,0.8-0.3,1.2-0.5c0.1,0,0.1,0,0.2-0.1c0.1,0,0.1-0.1,0.2-0.1c0.9-0.3,1.8-0.7,2.7-1c0.9-0.3,1.9-0.6,2.9-0.7
						c0.2,0,0.4,0,0.5,0.1c0.3-0.1,0.6-0.1,0.9-0.2c0.3,0,0.6,0,0.9,0.1c1.9-0.9,3.8-1.7,5.8-2.5C203,117.8,182.4,106,159.1,106
						 M254.2,157.6c-0.4-2-1.1-4-2.1-5.8c-1-0.2-2-0.5-3.1-0.5c-1.9,0-3.8,0.5-5.6,1.1c-3.9,1.5-7.3,4.2-10.1,7.2
						c-0.2,0.2-0.3,0.4-0.5,0.5c-1.1,2.4-2.2,4.8-3.1,7.2c-2.9,7.6-4.8,15.7-4.1,23.9c0,0.4,0.1,0.9,0.2,1.3
						c0.9,3.8,2.6,7.3,6.1,9.4c0.2,0.1,0.5,0.3,0.7,0.4c0.4-0.3,0.9-0.5,1.3-0.8c2.7-1.8,5.3-3.9,7.6-6.3
						c4.7-4.9,8.4-10.7,10.7-17.1C254.5,171.7,255.4,164.4,254.2,157.6"/>
					<path class="st3" d="M227.9,179.2c0.3-6.6,2.4-13.2,5.9-18.8c1.9-3.1,4.4-6,7.6-7.7s7.3-2.1,10.5-0.2"/>
					<path class="st3" d="M236.1,189.4c5-4.9,6.8-12.9,4.3-19.4c-0.8-2-5.7-4.7-9.1-4.7 M87.9,177c-1.3-3.1-2.7-6.2-4.6-9
						c-1.9-2.8-4.5-5.2-7.6-6.4c-3.9-1.5-8.6-0.9-12,1.6"/>
					<path class="st3" d="M86.9,195.2c-1.9,0.4-3.8-0.7-5.3-2.1c-5.2-5-6.9-13.4-3.9-20.1c1.1-2.3,3-4.7,5.6-4.7 M175.1,158
						c-0.4,4.4,3.3,8.8,7.8,9.2c4.4,0.4,8.8-3.4,9.1-7.8 M118.1,169.1c1.7,3.3,5.4,5.6,9.1,5.5c3.7-0.1,7.4-2.6,8.5-6.2
						c0.4-1.3,0.5-2.6,0.5-3.9c0-1.6-0.2-3.2-0.6-4.8 M147.7,186.6c0.9-4,3.9-7.4,7.6-9.1c3.7-1.7,8.1-1.7,12-0.3c2.8,1,5.6,3.1,6,6
						 M130.5,204c8,6.3,19,7.8,29.1,5.9c10-1.9,19.2-6.8,27.8-12.3"/>
					<path class="st3" d="M182.9,192.4c2.3,1.4,4.5,3.2,5.7,5.5c1.4,2.7,1.5,5.9,1.5,8.9 M133.2,199c0-0.3-0.5-0.2-0.7,0.1
						c-3.1,4-5.1,8.9-5.6,14"/>
					<path class="st4" d="M225.6,134.3c-0.3-1.6-0.6-3.3-1-4.9c-0.1-0.4-0.2-0.7-0.3-1c7.5-7.6,10.9-19,8.1-29.4
						c-0.1-0.2-0.1-0.4-0.2-0.6c-0.1,0.4-0.3,0.8-0.5,1.1c-2.3,4.4-9.1,6.1-13.4,4c-2.5-1.1-4.5-3-6.4-4.9c-2.1-2.1-4.1-4.2-6-6.5
						c-7.4-8.4-14.2-17.5-23.9-23.4c-17.6-10.7-41-11.3-59-1.2c-5.1,2.9-10.1,6.8-13,12c-2.7,4.9-2.7,10.2-2.1,15.5
						c-6.1-1.2-12.9,0.7-17,5.5c-4.3,5-5.2,11.9-3,17.9c-6.4,1.2-11.8,7-13,13.6c-1.5,8.6,3.2,16.9,9.3,22.7c0,2,0.4,4,0.9,5.9
						c1.3,4.8,4,9.2,6.6,13.4c1.6,2.6,5.3,0.8,4.8-2c-0.9-4.9-2.2-10.8,0.5-15.4c2.6-4.3,7.9-4.2,11.8-6.7
						c7.3-4.7,10.1-13.1,9.4-21.3c1.8,1.7,4.1,3,6.2,3.8c5.2,2,10.9,1.7,16-0.6c8.2-3.7,14.3-15,24.5-12c5.6,1.7,9.9,6.1,14.4,9.7
						c4.4,3.4,9.2,5.9,14.7,7.1c6,1.3,12.3,1,18.1-0.8c1.5,1,3,1.9,4.1,3.5c1.4,2.2,2.1,4.7,2.9,7.2c1.6,5,3,10.3,3.6,15.6
						c0.1,1.1,0.7,2,1.9,2.1c1,0.1,2.2-0.5,2.4-1.5c1.1-6.3,1.1-12.8,0.4-19.2C226.7,140.5,226.2,137.4,225.6,134.3"/>
					<path class="st5" d="M213,135.2c1-0.5,2-1,3-1.6c0.6-0.4,1.2-0.7,1.7-1.1c2.1-2.2,4.8-4,7.4-5.5c0.2-0.1,0.4-0.1,0.5-0.2
						c6.5-7.5,9.4-18.2,6.8-27.9c-0.1-0.2-0.1-0.4-0.2-0.6c-0.1,0.4-0.3,0.8-0.5,1.1c-1.2,2.3-3.7,3.8-6.4,4.5
						c-1.3,2.5-3.2,4.8-5.2,6.7c-4.4,4.1-10.3,7.4-16.4,7.9c-7.7,0.6-13.2-4.6-18.9-8.8c-3.3-2.4-6.8-4.6-10.5-6.5
						c-3.8-2-7.9-3.7-12.1-4c-3.3-0.2-6.8,0.2-9.8,1.8c-2.3,1.3-4.3,3.1-6.1,5c-3.7,3.8-7.6,8.1-13.1,9.1c-3.4,0.6-6.8,0-10.1-0.9
						c-3.5-0.9-7-2.2-10.7-1.4c-3.6,0.7-7.3,2.9-9.3,6c-1.7,2.7-2.1,5.9-2.3,9.1c-0.2,3.2,0.2,6.6-0.8,9.7c-1.1,3.3-3.6,5.7-6.6,7.3
						c-2.1,1.1-4.4,1.6-6.6,2.6c-2.3,1-3.7,3.2-5,5.2c0.7,0.8,1.4,1.5,2.2,2.2c0,2,0.4,4,0.9,5.9c1.3,4.8,4,9.2,6.6,13.4
						c1.6,2.6,5.3,0.8,4.8-2c-0.9-4.9-2.2-10.8,0.5-15.4c2.6-4.3,7.9-4.2,11.8-6.7c7.3-4.7,10.1-13.1,9.4-21.3
						c1.8,1.7,4.1,3,6.2,3.8c5.2,2,10.9,1.7,16-0.6c8.2-3.7,14.3-15,24.5-12c5.6,1.7,9.9,6.1,14.4,9.7c4.4,3.4,9.2,5.9,14.7,7.1
						c5.6,1.2,11.5,1,17-0.5C211.5,135.9,212.3,135.6,213,135.2"/>
					<path class="st4" d="M125.7,145.7c-1.3,0.2-2.5,0.5-3.6,0.8c-3.5,1-6.7,2.9-9.4,5.3c-1.3,1.2-2.7,2.6-3.4,4.3
						c-0.8,1.8-0.4,4.1,1.2,5.3c1.8,1.5,4,0.7,5.8-0.4c1.8-1.2,3.6-2.3,5.4-3.3c4-2.3,8.1-4.3,12.3-6c1.7-0.7,2.2-2.5,1-4
						C132.8,145.1,129.1,145,125.7,145.7 M182.9,139.7c1.3-0.1,2.6,0,3.7,0.1c3.6,0.3,7.1,1.6,10.2,3.5c1.5,0.9,3.2,2,4.2,3.6
						c1.1,1.7,1.2,3.9-0.2,5.5c-1.5,1.8-3.8,1.4-5.8,0.7c-2-0.8-3.9-1.6-5.9-2.2c-4.3-1.5-8.7-2.7-13.2-3.6c-1.9-0.4-2.6-2-1.8-3.7
						C175.7,140.4,179.4,139.7,182.9,139.7"/>
					<path class="st3" d="M232,98.2c4.4,12-1.3,22.9-8.7,29.8c-6.5,6-15.5,8.9-24.3,8.5s-17.4-3.9-24.2-9.4
						c-4.5-3.6-9.1-8.3-14.9-8.1c-6.4,0.3-10.6,6.4-15.7,10.1c-8.1,5.9-20.3,5.8-27.9-0.7c0.1-0.1,0.2,0.4,0.3,0.3
						c-0.6-0.6-0.9-1.4-0.9-2.3c0-0.5,0.1-1,0.4-1.3c0.7-0.7,1.9-0.2,2.4,0.6c0.4,0.8,0.3,1.9,0.2,2.8c-0.6,4.4-1.6,8.8-3.5,12.8
						s-4.9,7.6-8.8,9.7c-3.4,1.8-7.7,2.7-9.9,5.9c-1.5,2.2-1.7,5-1.4,7.6s1,5.2,1,7.8"/>
					<path class="st1" d="M134.2,260.7c-2.3-3-5.4-5.2-8.1-7.7c-2.6-2.4-4.5-5.2-4.1-8.9c0.4-3.5,2.3-6.6,3.6-9.9
						c4.1-10.5,3.4-27-6.1-34.6c-6.4-5.1-14.5-2.1-20.1,2.6c-11,9.2-19.7,24.1-23,37.9c-2.2,9.4-2.4,19.5,0.1,28.9
						c1.2,4.5,3.1,8.9,6.1,12.6s6.8,6.4,11,8.4c8.6,4.1,19.4,6.4,28.4,2.4c7.8-3.5,13.8-10.3,15.2-18.8
						C137.9,269,137.1,264.4,134.2,260.7"/>
					<path class="st3" d="M135.4,262.6c-1.4-3.4-12.1-11.9-12.1-11.9c-2.8-2.4-1.4-6.5-1.4-6.5c8.4-17.9,5.2-30.7,5.2-30.7
						c-4.4-22.4-21.9-14.9-21.9-14.9C70.1,220,75,261.8,75,261.8s0.7,20.5,18.5,28.3"/>
					<path class="st3" d="M112.8,197.1c-6.5,4.9-11.6,11.5-15.5,18.6s-6.8,14.7-9.7,22.3 M118.8,198.9
						c-11.4,10.9-16.2,26.9-19.9,42.2 M123.6,203.8c-7.7,11.1-10.6,24.9-13.3,38.2"/>
					<path class="st1" d="M195.1,255.4c1.8-3.3,4.4-6,6.7-8.9c2.2-2.8,3.6-5.9,2.5-9.5c-1-3.4-3.4-6.1-5.2-9.1c-5.8-9.6-8-26,0-35.2
						c5.4-6.1,13.9-4.6,20.3-0.9c12.4,7.2,23.6,20.3,29.2,33.4c3.8,8.9,5.7,18.8,4.9,28.5c-0.4,4.6-1.5,9.3-3.8,13.4
						s-5.6,7.5-9.4,10.2c-7.7,5.5-18,9.7-27.5,7.2c-8.3-2.1-15.3-7.7-18.2-15.9C192.9,264.2,192.8,259.5,195.1,255.4"/>
					<path class="st3" d="M194.2,257.4c0.8-3.6,9.9-13.8,9.9-13.8c2.3-2.9,0.2-6.7,0.2-6.7c-11.4-16.2-10.4-29.4-10.4-29.4
						c0.4-22.8,19-18.5,19-18.5c38.3,15.2,40.7,57.1,40.7,57.1s2.8,20.3-13.3,31.1"/>
					<path class="st3" d="M205.1,189c7.3,3.7,13.4,9.3,18.5,15.6s9.3,13.3,13.4,20.3 M199.6,191.8c13.1,8.8,20.5,23.7,26.9,38.1
						 M195.7,197.5c9.5,9.6,14.7,22.7,19.7,35.3"/>
					<path class="st6" d="M151.9,277.5c0.8,0.1,1.6,0.2,2.4-0.1c1.1-0.4,1.8-1.1,2-2.3c0.2-1.1-0.4-2.2-1.3-2.8
						c-1.3-0.8-3.3-0.7-4.8-0.7h-3.9c-1.4,0.1-2.9,0.1-4.4,0.4c-0.8,0.2-1.5,0.4-2.1,0.8c-0.8,0.5-1.6,1.8-1,2.7
						c0.6,0.9,1.2,1.2,2.1,1.5c0.7,0.2,1.4,0.3,2.2,0.2h1.6c-0.2,0.9-0.3,1.9-0.4,2.8c-0.2,2.1-0.3,4.3-0.4,6.4
						c-0.2,4.1-0.4,8.3-1.1,12.4H140c-1.6,0.1-3.6,0.1-4.7,1.3c-0.5,0.6-0.8,1.7-0.3,2.4c1.1,1.4,2.6,1.6,4.2,1.9
						c1.5,0.3,3.1,0.3,4.7,0.5c1.4,0.1,2.8,0.1,4.2,0.2c1.4,0.1,2.9,0.3,4.2,0.2c1.2-0.1,2.5-0.8,2.8-2.2c0.1-0.6,0.1-1,0-1.6
						c-0.1-0.9-1.2-1.9-2-2c-1.4-0.2-2.9-0.3-4.4-0.3c0.1-0.7,0.1-1.5,0.2-2.2c0.1-1,0.2-2,0.3-3.1c0.2-2.3,0.3-4.6,0.5-6.9
						c0.1-2.2,0.1-4.4,0.1-6.6c0-1-0.1-2-0.3-3h0.4C150.8,277.5,151.3,277.5,151.9,277.5 M166.4,273.1c-0.5-1.2-1.7-1.9-2.9-1.2
						c-0.8,0.5-1.6,1.3-2.1,2.1l-0.6,0.9c-0.1,0.1-0.2,0.3-0.3,0.4c-0.1,0.1-0.2,0.3-0.3,0.4c-0.3,0.3-0.4,0.6-0.6,0.9
						c0-0.1,0-0.1-0.1,0.1l-0.6,0.9l-0.6,0.9c-0.3,0.5-0.4,1-0.5,1.6c-0.4,1-0.8,2-0.8,3.1c0,1.2,1.5,1.8,2.3,1
						c0.6-0.6,1.1-1.2,1.7-1.8c0.4-0.2,0.8-0.4,1.2-0.8c0.3-0.2,0.5-0.5,0.7-0.8l0.4-0.4c0.1-0.1,0.4-0.3,0.4-0.4
						c-0.5,0.4-0.4,0.3,0.2-0.2c0.2-0.2,0.4-0.5,0.5-0.7c0.1-0.1,0.2-0.3,0.3-0.4c0.4-0.6,0.9-1.2,1.2-1.9c0.3-0.6,0.5-1.4,0.5-2.1
						C166.6,274.2,166.6,273.6,166.4,273.1 M195.3,295c-0.4-2.7-0.8-5.4-1.3-8.1c-1-5.4-2.3-10.7-3.8-16c-0.8-2.9-4.6-2.6-5.6,0
						c-1.4,3.9-2.8,7.9-4.1,11.9c-0.7-1.2-1.4-2.3-2.2-3.4c-1-1.4-2-2.7-3.2-4c-1.2-1.2-2.6-3-4.5-2.8c-1,0.1-1.6,0.7-1.7,1.7v0.3
						c-0.9,1.8-1,4.5-1,6.4c-0.1,2.6,0,5.1,0,7.7v7.4c0,2.5-0.4,5.7,0.8,7.9c0.9,1.7,3.7,1.7,4.6,0c1.2-2.3,0.7-5.6,0.7-8.2
						c-0.1-2.5-0.2-5-0.3-7.4c-0.1-2.3-0.2-4.7-0.4-7c0.2,0.3,0.5,0.7,0.7,1c1.9,2.7,3.4,5.6,4.8,8.7c1,2.3,4.3,1.3,4.9-0.6
						c1-3,2-6.1,3.1-9.1c0.5,2.3,1,4.6,1.4,6.9c0.5,2.5,0.9,5.1,1.2,7.6c0.4,2.7,0.2,6.1,2.6,7.9c0.7,0.5,2,0.3,2.6-0.3
						C196.7,301.1,195.7,297.6,195.3,295 M88.2,301.6c-0.6-1.2-2.1-1.4-3.1-0.9c-1.4,0.7-1.9,2.2-2.5,3.6c-0.5,1.3-1,2.5-1.5,3.8
						c-1,2.4-2,4.8-3.1,7.2c-1.1,2.4-2.3,4.9-3.5,7.3c-0.6,1.2-1.2,2.3-1.8,3.5c0,0-0.2,0.3-0.3,0.5c-0.1-0.7-0.2-1.6-0.2-1.8
						c0-1.2,0.3-2.3,0.5-3.5c0.6-2.7,1.3-5.4,1.9-8.1c0.6-2.7,1.3-5.5,1.8-8.2c0.6-2.8,1.4-5.5,0.7-8.3c-0.3-1.1-1.9-1.7-2.7-0.7
						c-1.8,2.1-2.3,4.5-2.9,7.1c-0.7,2.5-1.2,4.9-1.8,7.4c-0.6,2.6-1.2,5.1-1.8,7.7c-0.5,2.3-1.2,4.7-1.2,7.1s0.6,5.4,2.8,6.9
						c2.1,1.4,5,0.6,6.6-1.2c1.6-1.7,2.6-4,3.6-6c1.2-2.2,2.3-4.5,3.4-6.8c1.2-2.6,2.3-5.2,3.4-7.9
						C87.5,307.6,89.5,304.3,88.2,301.6 M106.3,322.6c0.8-5.2,1.7-10.9,0.7-16.1c-0.5-2.5-1.9-5.7-5.1-5.1c-2.2,0.5-4,2.7-5.3,4.4
						c-2.9,3.8-4.8,8.6-6.9,12.9c-1.3,2.8-2.7,5.6-3.7,8.5c-0.9,2.4-2.9,6.3-1.4,8.7c0.5,0.8,1.4,1,2.3,0.6c1.4-0.7,2.1-2.5,2.7-3.9
						c0.6-1.4,1.1-2.8,1.7-4.2c0.5-1.1,0.9-2.1,1.4-3.2c0.3,0.1,0.6,0.3,0.9,0.4c0.6,0.2,1.2,0.3,1.7,0.4c1.3,0.3,2.6,0.4,3.9,0.4h1
						c-0.7,3.5-1.6,7-2.6,10.5c-1,3.4,4.2,4.9,5.3,1.5c1.2-4.2,2.2-8.5,3-12.8c0.2-0.3,0.4-0.6,0.5-0.9c0.2-0.6,0.1-1.1-0.1-1.7
						L106.3,322.6z M99,321.2c-1,0-2.1-0.1-3.1-0.2c-0.2,0-0.4-0.1-0.7-0.1s-0.3,0,0,0c-0.2,0-0.3,0-0.5-0.1
						c0.1-0.3,0.3-0.6,0.4-0.9c1.3-2.6,2.5-5.3,3.9-7.9c0.6-1.1,1.3-2.2,2-3.2c0.1-0.2,0.4-0.4,0.6-0.7c0,0.2,0.1,0.3,0.1,0.5
						c0.2,1.3,0.1,2.6,0.1,3.9c-0.1,2.8-0.4,5.6-0.8,8.4v0.2C100.3,321.1,99.6,321.2,99,321.2 M117.7,319.4c0.8-2.2,1.8-4.5,3.2-6.5
						c0.6-0.8,1.9-2.1,2.6-0.8c0.4,0.7,0.5,1.7,0.6,2.5c0.2,1.3,0.5,2.5,1.1,3.7c0.7,1.4,2.9,1.1,3.3-0.4c1.1-4.2,0.1-11-5.1-11.6
						c-5.5-0.6-8.4,5.5-10.3,9.6c-2.2,4.8-3.4,10.1-3.7,15.3c-0.3,5,0.9,10.4,5.4,13.2c2.4,1.5,5.3,1.7,7.9,0.6
						c1.3-0.5,2.6-1.3,3.5-2.5c0.9-1.1,1.2-2.3,1.6-3.6c0.3-0.8-0.6-1.8-1.5-1.5s-1.9,0.6-2.8,1c-1,0.4-1.9,1.1-2.9,1.4
						c-1.5,0.5-2.8,0-3.9-1.2c-2.8-3.2-1.7-8.8-0.9-12.5C116.2,324,116.9,321.7,117.7,319.4 M149.4,337.9c-0.1-0.8-1.1-1-1.7-0.7
						c-1.9,0.8-3.2,2.2-4.9,3.2c-1.2,0.7-2.6,0.1-3.4-1c-2.2-2.8-2.1-7.6-1.8-11c0.3-3.9,1.6-7.7,3.6-11c0.4-0.7,1.3-2.6,2.3-2.1
						c0.6,0.3,0.7,1.3,0.8,1.8c0.3,1,0.3,2,0.9,2.9c0.4,0.7,1.3,0.8,1.9,0.3c1.6-1.5,1.9-4.4,1.1-6.4c-0.8-2.3-2.7-4-5.2-4
						c-4.8-0.1-7.5,6.1-9,9.8c-1.7,4.3-2.4,9-2,13.6c0.4,4.7,1.6,10.1,6.4,12.2c2.6,1.2,5.4,0.9,7.7-0.8
						C148.4,343.1,149.8,340.7,149.4,337.9 M167.1,342.7c-0.6-0.9-1.5-1.4-2.6-1.4c-0.5,0-0.9,0-1.4,0.1c0-1.4,0-2.8-0.1-4.2
						c-0.1-2.7-0.2-5.3-0.3-8c-0.1-2.7-0.2-5.3-0.3-8c-0.1-1.4-0.1-2.8-0.2-4.2v-0.6c0.5,0.1,1,0.3,1.5,0.3c1.1,0,2.1-0.7,2.6-1.7
						c0.4-0.9,0.3-2.3-0.5-3c-0.5-0.4-0.9-0.7-1.6-0.9c-0.2-0.1-0.5-0.2-0.7-0.2c-0.4-0.1-0.9-0.2-1.3-0.3c-1.1-0.2-2.3-0.4-3.4-0.4
						c-1.2,0-2.3,0.1-3.4,0.2c-0.4,0.1-0.9,0.1-1.3,0.3c-0.2,0.1-0.5,0.2-0.7,0.3c-0.3,0.1-0.6,0.3-0.8,0.4h-0.2l-0.3,0.3
						c-0.1,0-0.1,0.1-0.2,0.1h0.1c-0.6,0.6-1,1.6-0.7,2.5c0.3,1.1,1.3,1.8,2.4,1.9h0.4c0.4,0,0.6-0.1,0.7-0.1h-0.3
						c0.2-0.1,0.4,0,0.6-0.1c0.4,0,0.7-0.1,1.1-0.1h0.2c0.5,0,0.9-0.1,1.4-0.1v21.4c0,1.4,0.1,2.8,0.1,4.2v0.5l-2.4,0.3
						c-1.3,0.3-2.6,0.8-3.2,2c-0.1,0.2-0.2,0.6,0,0.8c1.5,2.1,4.7,1.8,7.1,1.7c1.2,0,2.3-0.1,3.5-0.2c1.6-0.1,3.7,0.1,4.5-1.6
						C167.4,344.2,167.5,343.4,167.1,342.7 M193.9,334.8c0-2.8-0.1-5.7-0.3-8.5c-0.1-2.8-0.3-5.6-0.6-8.3c-0.1-1.5-0.3-2.9-0.4-4.4
						c-0.2-1.5-0.2-3.2-0.6-4.6c-0.9-2.9-5.2-2.4-5.3,0.6c-0.1,2.5,0.5,5.2,0.7,7.8l0.6,8.1c0.1,2.3,0.2,4.6,0.3,7
						c-1.1-2.6-2.3-5.2-3.6-7.7c-1.3-2.5-2.7-5.1-4.1-7.5c-0.7-1.2-1.5-2.4-2.3-3.6c-0.8-1.1-1.8-2.4-3-3.1
						c-0.5-0.4-1.1-0.7-1.7-0.5c-2.3,1.2-1.9,5-1.9,7.1c0,2.8,0.1,5.7,0.2,8.5s0.3,5.7,0.4,8.5s-0.1,5.9,0.5,8.7
						c0.3,1.3,1.6,2.1,2.9,1.9c1.4-0.2,2.2-1.2,2.3-2.6c0.2-1.5,0-3-0.1-4.5c-0.1-1.4-0.1-2.8-0.2-4.2c-0.1-3-0.2-6-0.4-9
						c-0.1-0.9-0.1-1.7-0.2-2.6c1,2,2,4,2.9,6.1c1.2,2.7,2.5,5.3,3.7,8c1.1,2.5,2.1,5.1,4.1,7.1c1.2,1.3,3.5,1.1,4.4-0.5
						C193.6,340.2,193.9,337.5,193.9,334.8 M220.4,332.9c-0.2-1.5-0.4-3-0.7-4.5c-0.5-3-1.1-6-1.8-9s-1.5-5.9-2.4-8.8
						c-0.8-2.7-1.6-5.7-3.7-7.8c-2.1-2.2-5.5-3.1-8.3-1.7c-2.3,1.1-3.6,3.5-4.4,5.8c-1.8,5.7-1.9,12.2-1.4,18.1
						c0.3,3.5,0.8,7,1.5,10.5c0.3,1.6,0.7,3.5,1.6,4.9c0.5,0.8,1.8,2.2,2.8,1.4c1.9-1.5,1.3-4.6,1.1-6.7c-0.2-2.1-0.4-4.1-0.6-6.2
						c0.3-0.1,0.6-0.1,0.9-0.2c1.2-0.3,2.4-0.5,3.6-0.8s2.4-0.6,3.6-0.8c0.2-0.1,0.5-0.1,0.8-0.2c0.2,1,0.4,1.9,0.5,2.9
						c0.2,1.4,0.4,2.8,0.6,4.3c0.3,1.8,0.5,3.3,2.1,4.3c0.9,0.6,2.3,0.4,3-0.3C220.8,336.5,220.6,334.8,220.4,332.9 M206.4,322.8
						c-0.8,0.2-1.7,0.5-2.5,0.8c-0.2-3.8-0.1-7.6,0.7-11.3c0.2-1.1,0.4-2.2,0.8-3.2c0.3-0.9,0.4-1.4,0.9-2c0,0.1,0.2-0.1,0.3-0.2
						c0.1,0,0.2,0,0.1-0.1c0.5,0.2,0.9,0.4,1.3,1c1.2,1.8,1.6,4.2,2.2,6.2c0.7,2.5,1.4,5.1,2,7.6c-0.5,0.1-0.9,0.2-1.3,0.3
						C209.2,322.1,207.8,322.4,206.4,322.8 M230.8,327.2c-0.3-1.4-0.6-2.7-0.9-4.1c-0.6-2.7-1.2-5.5-1.7-8.2
						c-0.6-2.7-1.1-5.5-1.6-8.2c-0.3-1.5-0.5-3.4-1.2-5c0.1,0,0.3-0.1,0.4-0.1c1.2-0.4,2.6-0.5,3.8-1.1c2-1.1,1.5-4.1-0.6-4.8
						c-1.4-0.5-3.1,0.1-4.5,0.5c-1.3,0.5-2.6,1-3.8,1.6c-0.5,0.3-1.1,0.5-1.6,0.8c-0.3,0.1-0.6,0.3-0.9,0.4
						c-0.2,0.1-0.9,0.4-0.3,0.2c-0.4,0.2-0.9,0.3-1.3,0.6c-0.1,0.1-0.2,0.1-0.4,0.2c-0.3,0.1-0.9,0.5-0.4,0.3
						c-1.1,0.6-1.9,1.9-1.2,3.1c0.9,1.5,3.2,1.4,4.6,0.9c0.4-0.1,0.7-0.3,1-0.4c0.1,1.3,0.4,2.7,0.6,3.9c0.4,2.9,1,5.7,1.6,8.5
						c0.6,2.7,1.1,5.5,1.7,8.2c0.3,1.4,0.6,2.7,0.9,4.1c0.4,1.6,0.7,3.2,2.2,4.1c1.1,0.7,2.6,0.3,3.3-0.8
						C231.5,330.3,231.2,328.8,230.8,327.2 M253,314.4c-0.6-1.2-2.1-2.5-3.4-1.3c-1.1,1-1.2,2.9-1.7,4.2c-0.4,1.1-1,2.1-1.9,2.7
						c-0.4,0.3-1.1,0.7-1.6,0.7s-0.7-0.1-1.1-0.4c-1.1-0.9-1.6-2.3-2-3.6c-0.7-2-1.1-4-1.3-6c0.6-0.3,1.1-0.6,1.6-0.9s1.1-0.7,1.6-1
						c0.4-0.3,0.9-0.6,1.3-1c0.4-0.3,0.8-0.7,1-1.2c0.6-1,0.5-2.5-0.4-3.3c-0.3-0.3-0.8-0.6-1.2-0.7c-0.7-0.2-1.4,0-2.1,0.2
						c-0.7,0.3-1.3,0.9-1.9,1.3c-0.1,0.1-0.2,0.2-0.3,0.2v-1c0-2.3,0.2-4.5,0.1-6.8c0-0.9-0.1-1.8,0.6-2.5c0.3-0.3,0.6-0.4,0.9-0.6
						c0.4-0.3,0.6-0.7,0.9-1c0.5-0.4,0.4-1.2,0-1.6c-1.2-1.6-3.1-1.2-4.5-0.1c-1.6,1.2-2.4,3-2.8,4.9c-0.5,2-0.5,4.2-0.6,6.2
						c-0.1,2.1-0.1,4.2,0,6.3c0.2,4.1,0.8,8.2,2.3,11.9c1.4,3.3,4.2,6.6,8.1,6.4c4-0.2,7-3.1,8.5-6.6
						C253.6,318.1,253.8,316,253,314.4 M266.7,286.5c-1.6-3.9-4.2-8.9-8.6-10.1c-2.5-0.7-4.8,0.1-6.7,1.6c-1.3,0.9-2.5,2.1-2.7,3.5
						c-1.8,1.5-0.2,5.3,0.4,7c1,2.8,2.1,5.7,3,8.5c1,2.8,1.9,5.6,2.8,8.3c0.5,1.5,1,2.9,1.5,4.4s0.8,3.2,1.8,4.5
						c0.7,1,1.8,1.6,3.1,1.3c1.1-0.3,1.9-1.2,2-2.3c0.1-0.1,0.2-0.1,0.3-0.2c3.6-3,5.1-7.9,5.6-12.3
						C269.6,295.9,268.6,291,266.7,286.5 M263.3,300.8c-0.3,2-1,3.9-1.8,5.7c-0.3-0.8-0.5-1.6-0.8-2.4c-1-2.9-2.1-5.7-3.1-8.5
						c-1.1-2.7-2.1-5.5-3.2-8.2c-0.6-1.4-1.1-3-1.9-4.3c0,0,0-0.1-0.1-0.1c0.5-0.3,1.1-0.6,1.6-0.8c1.3-0.7,2.3-1.1,3.6-0.2
						c1.2,0.9,2,2.3,2.7,3.6c0.9,1.6,1.6,3.3,2.1,5C263.3,293.9,263.8,297.4,263.3,300.8 M170.5,25.9c-0.2-0.7-0.7-1.1-1.1-1.7
						c-0.5-0.7-1.6-0.6-2.2-0.3c-2.3,1.2-2.5,3.9-3,6.2c-0.5,2.2-1,4.5-1.5,6.7c-0.9,3.9-1.6,8-3.8,11.3c0,0.1-0.4,0.5-0.7,0.9
						c-0.1-0.3-0.2-0.6-0.2-0.8c-0.3-2.2-0.4-4.5-0.5-6.7c-0.1-4.7,0.2-9.3,1.1-14c0.3-1.6-0.4-3.2-2.1-3.6
						c-1.5-0.4-3.3,0.5-3.6,2.1c-1,4.6-1.9,9.1-2.9,13.7c-0.5,2.1-1,4.2-1.7,6.3l-1.2,3c-0.1,0.2-0.2,0.3-0.2,0.5
						c-0.1-0.8-0.1-1.6-0.2-2.4c-0.2-2.4-0.3-4.8-0.3-7.2c-0.1-4.9,0.3-9.8,0.3-14.6c0-2.2-3.2-2.6-3.8-0.5c-1.6,5.7-2,11.8-2,17.6
						c0,2.9,0.1,5.8,0.4,8.7c0.3,2.8,1.8,5.6,5,5.6c2.8,0.1,4.9-2.4,6-4.7l0.6-1.2c0.2,0.6,0.4,1.2,0.7,1.7c1.4,2.5,4.6,3.7,7.2,2.2
						c2.1-1.3,3.5-3.8,4.5-6c1.1-2.4,1.8-4.9,2.4-7.5c0.6-2.8,1.2-5.5,1.8-8.3c0.3-1.4,0.7-2.9,0.9-4.3
						C170.5,27.6,170.7,26.7,170.5,25.9 M184.4,26.9c-1.7-1-4.3-1.1-5.8,0.3h-0.1c-2.4,0.5-4.1,3.2-5.3,5.2c-1.2,2.1-2.2,4.4-3,6.7
						s-1.3,4.7-1.7,7.1c-0.3,2.3-0.7,4.8,0,7.1c0.7,2.6,2.8,4.5,5.5,4.7c2.7,0.1,4.9-1.4,6.5-3.4c3.1-3.9,5.2-8.8,6.3-13.7
						C187.8,36.4,189,29.6,184.4,26.9 M181.5,37.9c-0.8,4.5-2.5,9.1-5.3,12.7c-0.4,0.5-1,1.4-1.7,1.4c0,0,0,0.4-0.1-0.1
						c-0.1-0.3-0.2-0.6-0.2-0.9c-0.2-2.4,0.3-4.9,0.9-7.2c0.6-2.5,1.5-5,2.6-7.4c0.7-1.5,1.8-3.1,2.5-4.8h0.2
						c0.4,0.1,0.8,0.1,1.1,0.2c0,0,0.1,0.1,0.1,0.2C182.2,33.9,181.8,36.1,181.5,37.9 M202.3,33.5c-1.3-0.7-3.1-0.9-4.6-0.6
						c-0.6-0.5-1.4-0.6-2.1,0c-1.6,1.3-2.1,3.6-2.9,5.3c-1,2.2-2.1,4.3-3.1,6.5c-2.1,4.4-4,8.9-6,13.4c-0.6,1.4-0.4,3.1,1,3.9
						c1.2,0.7,3.3,0.4,3.9-1c1.2-2.6,2.3-5.2,3.5-7.8c0.3,0.1,0.6,0.2,1,0.2c1,0.1,1.4,1.9,1.5,2.6c0.3,2,0.2,4,0.3,6
						c0.1,2.2,0.2,4.4,1.4,6.3c1,1.6,2.5,1.4,3.3-0.2c1-1.9,1-4,0.9-6.1s0-4.3-0.3-6.4c-0.2-1.3-0.5-2.6-1.1-3.8
						c3.8-2,6.7-5.8,7.1-10.2C206.4,38.6,205.2,35.1,202.3,33.5 M200.7,42.5c-0.9,2.8-3.4,4.7-6.2,5.2l0.3-0.6c1-2.3,2-4.6,2.8-6.9
						c0.4-1,0.7-2,0.9-3c0.6,0.1,1.1,0.3,1.6,0.7C201.3,39,201.1,41.1,200.7,42.5 M221,44.3c-0.6,0.1-1.3,0.3-2,0.6
						c-0.6-0.7-1.8-0.9-2.6-0.2c-1.9,1.8-3,4.5-4.1,6.8s-2.1,4.6-3.2,6.8c-1.1,2.3-2.2,4.5-3.4,6.8c-1.2,2.3-3.2,5.1-3.1,7.8
						c0.1,1.8,2.1,3.2,3.7,2.1c2.3-1.5,3.3-4.5,4.5-6.9c0.8-1.6,1.5-3.3,2.3-4.9c0.5,0.2,0.9,0.3,1.4,0.4c0,1.6-0.3,3.2-0.6,4.7
						l-0.9,6.1c-0.1,0.9-0.3,1.8-0.4,2.8c-0.2,1.3-0.2,2.4,0,3.7c0.4,2.1,3.7,2.5,4.7,0.6c1.4-2.7,1.4-6.1,1.9-9.1
						c0.4-3,1.1-6,1.2-9c0.7-0.2,1.4-0.6,2.1-1c3.4-2.2,5.4-6.5,5.4-10.4C227.9,48.3,225.3,43.7,221,44.3 M222.1,52.9
						c-0.3,1.7-1.2,3.8-2.8,4.7c-0.1,0.1-0.3,0.1-0.4,0.2c-0.5-0.6-1.1-1.2-1.9-1.6c-0.2-0.1-0.4-0.2-0.6-0.2c0.3-0.8,0.7-1.5,1-2.3
						c0.6-1.5,1.3-3.2,1.7-4.8c0.7,0.1,1.2,0.2,1.9,0.6C222.2,50.1,222.3,51.5,222.1,52.9 M248.3,65.2c-0.1-1.2-0.7-2.3-2-2.6
						c-1.3-0.3-2.3,0.2-3.1,1.3c0.3-0.4,0.2-0.3-0.3,0.4c-0.1,0.1-0.1,0.2-0.1,0.2l-0.4,0.4l-1.4,1.4l-3,3c-0.3,0.3-0.7,0.7-1.1,1
						c0,0-0.5,0.3-0.5,0.4c-0.1,0.1-0.2,0.1-0.3,0.2H236c0,0,0-0.1-0.1-0.2c0-0.1,0-0.1-0.1-0.2v-1.8c0.2-1.3,0.4-2.5,0.8-3.8
						c0.3-1.2,0.7-2.5,1.1-3.7c0.5-1.3,1.1-2.9,0.5-4.2c-0.4-1-1.2-1.6-2.4-1.3c-1.4,0.3-2.5,1.7-3.1,3s-1.1,2.5-1.5,3.8
						c-0.8,2.4-1.6,5.2-1.4,7.7c0.1,1.3,0.5,2.5,1.1,3.5c-1.3,2.2-2.5,4.5-4,6.7c-0.4,0.6-0.8,1.2-1.2,1.7c-0.2,0.3-0.4,0.6-0.7,0.9
						c-0.1,0.1-0.2,0.3-0.3,0.4l-0.1,0.1c-0.5,0.6-0.9,1.2-1.4,1.7c-0.7,0.8-1.5,1.5-1.7,2.6c-0.5,2,1.4,4.4,3.6,3.6
						c1.1-0.4,1.7-1,2.5-1.9c0.6-0.7,1.2-1.5,1.8-2.2c0.9-1.2,1.8-2.5,2.7-3.8c1.4-2.2,2.8-4.5,3.8-7c2.6,0,4.8-1.8,6.5-3.6
						c1.1-1.1,2.1-2.2,3.2-3.3C246.8,68.6,248.5,67.2,248.3,65.2 M71.6,111.6c-0.3-3.6-1.5-6.8-3.8-9.6c-1.9-2.4-4.5-4.3-7.3-5.5
						c-3.2-1.4-6.9-2.3-10.3-1.3c-1.8,0.6-3.5,1.8-4.4,3.6c-0.9,1.8-0.6,3.5,0.5,5.1l0.3,0.3v0.2c0.3,2.3,2.2,4.1,3.7,5.7
						c1.6,1.7,3.2,3.3,4.8,4.9s3.2,3.1,4.9,4.5c1.8,1.6,3.6,3.4,5.6,4.6c1.5,0.9,3.5,0.2,4.2-1.4c0.4-0.8,0.3-1.7-0.1-2.5
						c0.7-1,1.1-2.3,1.4-3.5C71.5,115.1,71.7,113.3,71.6,111.6 M59.1,110.7c-1.6-1.5-3.2-3-4.7-4.5s-3.1-3.3-5.2-3.9
						c-0.1,0-0.1-0.1-0.2-0.1h-0.1l0.1-0.1c0.4-0.5,0.8-0.9,1.3-1.2c1-0.5,2.4-0.7,3.6-0.5c2.7,0.4,5.5,1.6,7.4,3.3
						c2.2,1.8,3.7,3.9,4.3,6.8c0.2,1.2,0.3,2.9,0.1,4c-0.1,0.5-0.3,1.1-0.5,1.7c-0.4-0.3-0.8-0.7-1.2-1
						C62.4,113.7,60.8,112.2,59.1,110.7 M80.8,83.8c-2.5-4.6-6.9-10-12.3-11.2c-3.4-0.7-7.3,0.3-9.2,3.4c-0.8,1.4-1.2,3.2-0.8,4.8
						c0.2,0.9,0.8,1.8,1.6,2.3c0.3,2.2,1.1,4.3,2.1,6.5c1.2,2.6,2.6,5.1,4.3,7.3c3.3,4.4,10.1,9.1,15,4
						C86.1,96.3,83.5,88.7,80.8,83.8 M77.9,95.9c-0.1,0.2-0.4,0.7-0.5,0.9L77,97.2c-1.3,0.6-3.2-0.8-4.2-1.7c-1.5-1.3-2.7-3-3.8-4.6
						c-1.4-2.1-2.6-4.3-3.7-6.5c-0.3-0.6-0.7-1.7-1.3-2.8c0.1-0.5,0.1-1,0.2-1.5c0,0,0.2-0.6,0.2-0.7c0.1-0.2,0.1-0.2,0.3-0.5
						c0.9-0.7,2.5-0.6,3.7,0.1c3.5,1.8,6.1,5.5,7.8,8.9c0.8,1.7,1.6,3.6,1.8,5.5C78.1,94.2,78.1,95.3,77.9,95.9 M99.8,78
						c-0.5-5.5-2.8-10.5-5.5-15.3c-1.4-2.4-2.8-4.7-4.2-7.1c-0.8-1.3-1.6-2.6-2.4-4c-0.8-1.4-1.6-3-3.4-3.4
						c-1.3-0.2-2.4,0.3-2.9,1.6c-0.5,1.7,0.3,3,1.2,4.4c0.7,1.2,1.5,2.5,2.2,3.7c1.3,2.2,2.7,4.4,4,6.7c1.1,2,2.2,4,3.1,6.1
						l-4.5-3.3c-1.8-1.3-3.6-2.6-5.3-3.9c-1.8-1.3-3.7-2.5-6-2.8c-0.3,0-0.6,0.1-0.9,0.2c-0.7,0-1.4,0.5-1.3,1.3
						c0.1,1,0.1,1.9,0.5,2.8c0.4,1,0.8,2,1.3,3c1,1.8,2.1,3.6,3.2,5.3c2.1,3.6,4.4,7,6.6,10.5c1.1,1.7,2.6,4.8,5.2,4.1
						c2.6-0.7,1.8-3.8,0.8-5.4c-1.8-3.1-3.8-6.1-5.7-9c3.1,2.4,6.3,4.7,9.5,7C97.1,81.8,100,80.2,99.8,78 M99.3,46.8
						c-0.1-1.1-0.2-2.3-0.3-3.4c-0.1-1.3-0.3-2.6-0.6-3.9c-0.1-0.5-0.2-0.9-0.4-1.3c0.1,0.2,0,0.2-0.1-0.1l-0.2-0.5
						c-0.5-0.9-1.9-1.5-2.8-1c-0.4,0.2-0.8,0.6-1.1,1c-0.1,0.2-0.2,0.4-0.2,0.7c0,0.2,0,0.2,0.1-0.1c-0.2,0.3-0.3,0.5-0.3,0.8
						c-0.1,0.3-0.1,0.5-0.1,0.8v0.9c-0.1,1.1,0,2.2,0,3.3s0.1,2.2,0.2,3.3c0.1,1.6,0.1,3.3,1.3,4.6c1.3,1.3,3.2,0.8,4.2-0.5
						C99.7,50,99.4,48.2,99.3,46.8 M122.7,61.7c-0.3-1.3-1-2.6-1.5-3.9c-0.5-1.2-1-2.4-1.6-3.6l-3-6.9c-1-2.3-2-4.6-2.9-6.9
						c-0.5-1.1-0.9-2.2-1.5-3.3c0.9-0.5,1.8-1,2.8-1.4c0.2-0.1,0.3-0.1,0.5-0.2c0.3-0.1,0.6-0.3,1-0.4c0.3-0.1,0.6-0.2,1-0.3
						c0.9-0.4,1.6-0.8,2.2-1.7c0.5-0.8,0.5-1.8,0.2-2.7c-0.4-0.9-1-1.4-1.9-1.7c-1.1-0.4-2.2,0-3.2,0.4c-0.9,0.3-1.7,0.7-2.5,1.1
						c-1.3,0.6-2.6,1.3-3.9,2.1c-1.4,0.9-2.7,1.9-3.9,2.9c-0.5,0.5-1.1,1-1.5,1.5c-0.3,0.3-0.5,0.6-0.8,0.8
						c-0.2,0.2-0.4,0.5-0.6,0.8c-0.3,0.7-0.4,0.9-0.2,0.5c0.1-0.2,0.1-0.2,0,0.1c-0.5,1-0.5,2.3,0.4,3.2c0.9,0.8,2.1,1,3.2,0.4
						c0.8-0.4,1.4-0.9,2-1.5c0.1-0.1,0.3-0.2,0.4-0.4l0.1-0.1l0.1-0.1c0.3,0.8,0.6,1.6,0.9,2.3c0.9,2.3,1.8,4.7,2.7,7
						c0.9,2.3,1.8,4.7,2.8,7c0.5,1.2,1,2.4,1.5,3.7c0.5,1.2,1,2.7,1.7,3.8C119,67,123.4,65.2,122.7,61.7"/>
					<path class="st7" d="M153.4,299.5c-1.4-0.2-2.9-0.3-4.4-0.3c0.1-0.7,0.1-1.5,0.2-2.2c0.1-1,0.2-2,0.3-3.1
						c0.1-1.3,0.2-2.7,0.3-4c-2-0.1-3.9-0.3-5.8-0.5c-0.2,3.2-0.4,6.4-0.9,9.5h-2.8c-1.6,0.1-3.6,0.1-4.7,1.3
						c-0.5,0.6-0.8,1.7-0.3,2.4c1.1,1.4,2.6,1.6,4.2,1.9c1.5,0.3,3.1,0.3,4.7,0.5c1.4,0.1,2.8,0.1,4.2,0.2c1.4,0.1,2.9,0.3,4.2,0.2
						c1.2-0.1,2.5-0.8,2.8-2.2c0.1-0.6,0.1-1,0-1.6C155.3,300.7,154.3,299.7,153.4,299.5 M178.1,289.4c0.2,0.5,0.5,1,0.7,1.5
						c1,2.3,4.3,1.3,4.9-0.6c0.2-0.5,0.4-1.1,0.5-1.6C182.2,289,180.2,289.3,178.1,289.4 M173.8,289.7c-2,0.1-3.9,0.1-5.8,0.2v6.1
						c0,2.5-0.4,5.7,0.8,7.9c0.9,1.7,3.7,1.7,4.6,0c1.2-2.3,0.7-5.6,0.7-8.2C173.9,293.7,173.9,291.7,173.8,289.7 M194,286.8
						c0-0.1-0.1-0.3-0.1-0.4c-1.8,0.6-3.7,1.2-5.6,1.6v0.2c0.5,2.5,0.9,5.1,1.2,7.6c0.4,2.7,0.2,6.1,2.6,7.9c0.7,0.5,2,0.3,2.6-0.3
						c2-2.2,1-5.7,0.6-8.3C194.9,292.2,194.5,289.5,194,286.8 M76.3,319.6c-0.1,0-0.1,0-0.2-0.1l-1.5,3c-0.6,1.2-1.2,2.3-1.8,3.5
						c0,0-0.2,0.3-0.3,0.5c-0.1-0.7-0.2-1.6-0.2-1.8c0-1.2,0.3-2.3,0.5-3.5c0.2-0.9,0.4-1.8,0.6-2.8c-1.7-0.6-3.4-1.3-5.1-2
						l-0.4,1.5c-0.5,2.3-1.2,4.7-1.2,7.1s0.6,5.4,2.8,6.9c2.1,1.4,5,0.6,6.6-1.2c1.6-1.7,2.6-4,3.6-6c0.6-1.1,1.2-2.2,1.7-3.4
						C79.7,320.8,78,320.2,76.3,319.6 M87.5,323.5c-0.5,1.2-1.1,2.5-1.6,3.8c-0.9,2.4-2.9,6.3-1.4,8.7c0.5,0.8,1.4,1,2.3,0.6
						c1.4-0.7,2.1-2.5,2.7-3.9c0.6-1.4,1.1-2.8,1.7-4.2c0.5-1.1,0.9-2.1,1.4-3.2c0.3,0.1,0.6,0.3,0.9,0.4c0.6,0.2,1.2,0.3,1.7,0.4
						c0.6,0.1,1.3,0.2,1.9,0.3C94,325.6,90.7,324.6,87.5,323.5 M100,327.3c-0.7,3.3-1.5,6.6-2.4,9.8c-1,3.4,4.2,4.9,5.3,1.5
						c1-3.3,1.8-6.7,2.5-10C103.5,328.2,101.7,327.7,100,327.3 M126.1,337.6c-0.9,0.3-1.9,0.6-2.8,1c-1,0.4-1.9,1.1-2.9,1.4
						c-1.5,0.5-2.8,0-3.9-1.2c-1.8-2.1-2-5.2-1.6-8.2c-1.8-0.3-3.7-0.7-5.5-1.1c-0.1,0.6-0.1,1.2-0.2,1.9c-0.3,5,0.9,10.4,5.4,13.2
						c2.4,1.5,5.3,1.7,7.9,0.6c1.3-0.5,2.6-1.3,3.5-2.5c0.9-1.1,1.2-2.3,1.6-3.6C127.9,338.3,127,337.3,126.1,337.6 M147.7,337.2
						c-1.9,0.8-3.2,2.2-4.9,3.2c-1.2,0.7-2.6,0.1-3.4-1c-1.2-1.5-1.7-3.6-1.8-5.7c-1.8-0.1-3.7-0.3-5.5-0.5v0.2
						c0.4,4.7,1.6,10.1,6.4,12.2c2.6,1.2,5.4,0.9,7.7-0.8c2.2-1.6,3.7-4.1,3.2-6.9C149.3,337.1,148.3,336.9,147.7,337.2
						 M164.5,341.3c-0.5,0-0.9,0-1.4,0.1c0-1.4,0-2.8-0.1-4.2c0-1.1-0.1-2.2-0.1-3.2l-5.4,0.3v2.9c0,1.4,0.1,2.8,0.1,4.2v0.5
						l-2.4,0.3c-1.3,0.3-2.6,0.8-3.2,2c-0.1,0.2-0.2,0.6,0,0.8c1.5,2.1,4.7,1.8,7.1,1.7c1.2,0,2.3-0.1,3.5-0.2
						c1.6-0.1,3.7,0.1,4.5-1.6c0.3-0.7,0.5-1.5,0-2.2C166.5,341.8,165.6,341.3,164.5,341.3 M188.2,330c0,0.8,0.1,1.6,0.1,2.4
						c-0.3-0.7-0.7-1.5-1-2.2c-1.9,0.4-3.7,0.8-5.6,1.1c0.7,1.5,1.4,3,2.1,4.6c1.1,2.5,2.1,5.1,4.1,7.1c1.2,1.3,3.5,1.1,4.4-0.5
						c1.4-2.4,1.7-5,1.7-7.7c0-2-0.1-4.1-0.2-6.1C191.9,329.2,190,329.6,188.2,330 M177.7,333.5c0-0.5,0-0.9-0.1-1.4
						c-1.8,0.3-3.7,0.6-5.5,0.8c0,0.4,0,0.9,0.1,1.3c0.1,2.8-0.1,5.9,0.5,8.7c0.3,1.3,1.6,2.1,2.9,1.9c1.4-0.2,2.2-1.2,2.3-2.6
						c0.2-1.5,0-3-0.1-4.5C177.8,336.3,177.8,334.9,177.7,333.5 M219.7,328.4c-0.4-2.6-1-5.3-1.5-7.9c-6.6,2.8-13.3,5.1-20.1,7
						c0.3,2.7,0.7,5.3,1.2,8c0.3,1.6,0.7,3.5,1.6,4.9c0.5,0.8,1.8,2.2,2.8,1.4c1.9-1.5,1.3-4.6,1.1-6.7c-0.2-2.1-0.4-4.1-0.6-6.2
						c0.3-0.1,0.6-0.1,0.9-0.2c1.2-0.3,2.4-0.5,3.6-0.8s2.4-0.6,3.6-0.8c0.2-0.1,0.5-0.1,0.8-0.2c0.2,1,0.4,1.9,0.5,2.9
						c0.2,1.4,0.4,2.8,0.6,4.3c0.3,1.8,0.5,3.3,2.1,4.3c0.9,0.6,2.3,0.4,3-0.3c1.4-1.5,1.3-3.2,1-5.1
						C220.2,331.4,220,329.9,219.7,328.4 M229.9,323.1c-0.5-2.4-1-4.9-1.5-7.3c-1.8,0.9-3.6,1.8-5.5,2.6c0.4,2,0.8,3.9,1.2,5.9
						c0.3,1.4,0.6,2.7,0.9,4.1c0.4,1.6,0.7,3.2,2.2,4.1c1.1,0.7,2.6,0.3,3.3-0.8c0.9-1.4,0.6-3,0.2-4.5
						C230.5,325.9,230.2,324.5,229.9,323.1 M249.6,313c-1.1,1-1.2,2.9-1.7,4.2c-0.4,1.1-1,2.1-1.9,2.7c-0.4,0.3-1.1,0.7-1.6,0.7
						s-0.7-0.1-1.1-0.4c-1.1-0.9-1.6-2.3-2-3.6c-0.7-2-1.1-4-1.3-6c0.6-0.3,1.1-0.6,1.6-0.9s1.1-0.7,1.6-1c0.4-0.3,0.9-0.6,1.3-1
						c0.4-0.3,0.8-0.7,1-1.2c0.2-0.4,0.3-0.8,0.3-1.3c-3.6,2.6-7.4,5-11.3,7.2c0.4,2.6,1,5.1,2,7.6c1.4,3.3,4.2,6.6,8.1,6.4
						c4-0.2,7-3.1,8.5-6.6c0.7-1.7,0.9-3.8,0-5.5C252.4,313.1,250.9,311.8,249.6,313 M266.5,286.2c-1.3,1.6-2.7,3.2-4.2,4.7
						c0.9,3.2,1.4,6.6,0.9,9.9c-0.3,2-1,3.9-1.8,5.7c-0.3-0.8-0.5-1.6-0.8-2.4c-1-2.8-2-5.6-3.1-8.4c-1.5,1.4-3,2.8-4.6,4.1
						c0.6,1.8,1.2,3.7,1.9,5.5c0.5,1.5,1,2.9,1.5,4.4s0.8,3.2,1.8,4.5c0.7,1,1.8,1.6,3.1,1.3c1.1-0.3,1.9-1.2,2-2.3
						c0.1-0.1,0.2-0.1,0.3-0.2c3.6-3,5.1-7.9,5.6-12.3c0.6-4.9-0.4-9.8-2.4-14.3C266.6,286.4,266.6,286.3,266.5,286.2 M160.9,44
						c-0.5,1.4-1.1,2.8-2,4.1c0,0.1-0.4,0.5-0.7,0.9c-0.1-0.3-0.2-0.6-0.2-0.8c-0.2-1.5-0.3-3.1-0.4-4.7c-2.8-0.4-5.5-0.7-8.3-0.8
						c-0.3,1.1-0.6,2.2-1,3.3l-1.2,3c-0.1,0.2-0.2,0.3-0.2,0.5c-0.1-0.8-0.1-1.6-0.2-2.4c-0.1-1.5-0.2-3-0.2-4.4
						c-1.9,0-3.8,0-5.6,0.1c0,2.8,0.1,5.6,0.4,8.3c0.3,2.8,1.8,5.6,5,5.6c2.8,0.1,4.9-2.4,6-4.7l0.6-1.2c0.2,0.6,0.4,1.2,0.7,1.7
						c1.4,2.5,4.6,3.7,7.2,2.2c2.1-1.3,3.5-3.8,4.5-6c0.5-1.1,0.9-2.3,1.3-3.4C164.6,44.7,162.7,44.3,160.9,44 M177.9,48
						c-0.5,0.9-1.1,1.8-1.7,2.6c-0.4,0.5-1,1.4-1.7,1.4c0,0,0,0.4-0.1-0.1c-0.1-0.3-0.2-0.6-0.2-0.9c-0.1-1.3,0-2.6,0.2-4
						c-1.9-0.5-3.7-1-5.6-1.4c0,0.2-0.1,0.3-0.1,0.5c-0.3,2.3-0.7,4.8,0,7.1c0.7,2.6,2.8,4.5,5.5,4.7c2.7,0.1,4.9-1.4,6.5-3.4
						c1.1-1.4,2.1-3,3-4.6C181.7,49.2,179.8,48.6,177.9,48 M200.1,55.8c-3.2-1.3-6.4-2.5-9.5-3.6c-1.3-0.5-2.5-0.9-3.8-1.3
						c-1.1,2.4-2.2,4.9-3.2,7.3c-0.6,1.4-0.4,3.1,1,3.9c1.2,0.7,3.3,0.4,3.9-1c1.2-2.6,2.3-5.2,3.5-7.8c0.3,0.1,0.6,0.2,1,0.2
						c1,0.1,1.4,1.9,1.5,2.6c0.3,2,0.2,4,0.3,6c0.1,2.2,0.2,4.4,1.4,6.3c1,1.6,2.5,1.4,3.3-0.2c1-1.9,1-4,0.9-6.1
						S200.3,57.9,200.1,55.8 M208.5,59.5c-0.9,1.9-1.8,3.8-2.8,5.6c-1.2,2.3-3.2,5.1-3.1,7.8c0.1,1.8,2.1,3.2,3.7,2.1
						c2.3-1.5,3.3-4.5,4.5-6.9c0.8-1.6,1.5-3.3,2.3-4.9c0.5,0.2,0.9,0.3,1.4,0.4c0,1.6-0.3,3.2-0.6,4.7l-0.9,6.1
						c-0.1,0.9-0.3,1.8-0.4,2.8c-0.2,1.3-0.2,2.4,0,3.7c0.4,2.1,3.7,2.5,4.7,0.6c1.4-2.7,1.4-6.1,1.9-9.1c0.3-2,0.7-4.2,1-6.2
						C216.5,63.7,212.5,61.5,208.5,59.5 M230.4,74.8c-1.1,1.9-2.2,3.9-3.4,5.8c-0.4,0.6-0.8,1.2-1.2,1.7c-0.2,0.3-0.4,0.6-0.7,0.9
						c-0.1,0.1-0.2,0.3-0.3,0.4l-0.1,0.1c-0.5,0.6-0.9,1.2-1.4,1.7c-0.7,0.8-1.5,1.5-1.7,2.6c-0.5,2,1.4,4.4,3.6,3.6
						c1.1-0.4,1.7-1,2.5-1.9c0.6-0.7,1.2-1.5,1.8-2.2c0.9-1.2,1.8-2.5,2.7-3.8c0.8-1.3,1.6-2.6,2.3-3.9
						C233.2,78,231.8,76.4,230.4,74.8 M67.8,102c-0.8-1-1.7-1.9-2.7-2.7c-1,1.6-2,3.3-3,4.9c1.8,1.7,3.1,3.7,3.6,6.2
						c0.2,1.2,0.3,2.9,0.1,4c-0.1,0.5-0.3,1.1-0.5,1.7c-0.4-0.3-0.8-0.7-1.2-1c-1.7-1.5-3.3-3-5-4.5c-0.2-0.2-0.5-0.4-0.7-0.7
						c-1.1,1.7-2.2,3.3-3.3,4.9c1.6,1.6,3.2,3.1,4.9,4.5c1.8,1.6,3.6,3.4,5.6,4.6c1.5,0.9,3.5,0.2,4.2-1.4c0.4-0.8,0.3-1.7-0.1-2.5
						c0.7-1,1.1-2.3,1.4-3.5c0.4-1.7,0.6-3.4,0.4-5.1C71.3,108,70,104.8,67.8,102 M78.2,79.7c-1.3,1.7-2.5,3.4-3.7,5.1
						c0.7,1,1.2,2,1.7,3.1c0.8,1.7,1.6,3.6,1.8,5.5c0.1,0.8,0.1,1.8-0.1,2.5c-0.1,0.2-0.4,0.7-0.5,0.9L77,97.2
						c-1.3,0.6-3.2-0.8-4.2-1.7c-1.2-1-2.1-2.3-3-3.5c-1.1,1.7-2.1,3.3-3.1,5c3.3,4.3,10,9,15,4c4.6-4.6,1.9-12.2-0.7-17.1
						C80.1,82.5,79.2,81.1,78.2,79.7 M94.1,62.5c-1.5,1.3-2.9,2.6-4.3,4c0.8,1.4,1.5,2.9,2.2,4.4c-1.3-0.9-2.5-1.8-3.8-2.7
						c-2.6,2.7-5.1,5.5-7.4,8.3c1.6,2.5,3.1,5,4.7,7.6c1.1,1.7,2.6,4.8,5.2,4.1c2.6-0.7,1.8-3.8,0.8-5.4c-1.8-3.1-3.8-6.1-5.7-9
						c3.1,2.4,6.3,4.7,9.5,7c1.7,1.2,4.7-0.4,4.4-2.5c-0.5-5.5-2.8-10.5-5.5-15.3C94.2,62.6,94.2,62.6,94.1,62.5 M121.2,57.8
						c-0.5-1.2-1-2.4-1.6-3.6c-0.9-2.1-1.8-4.1-2.7-6.2c-1.9,0.8-3.8,1.7-5.6,2.6c0.8,2,1.6,4,2.4,6.1c0.5,1.2,1,2.4,1.5,3.7
						c0.5,1.2,1,2.7,1.7,3.8c2,2.9,6.4,1.1,5.7-2.4C122.4,60.3,121.7,59,121.2,57.8"/>
				</g>
				<g>
					<path class="st0" d="M365.3,316.5c-0.5-1.5-1-3.1-1.7-4.6c-1.4-3.2-5.3-12.7-14.5-16.3c0.3-0.8,0.5-1.6,0.7-2.4
						c2.3-8.6,1.8-16,1.5-18.1c0-0.3-0.1-0.9-0.1-1.5c-0.7-7.9-2.6-15.7-5.8-23.1c-0.9-2.1-2-4.3-3.2-6.6c-1.8-3.6-3.9-7-6.2-10.2
						c5.8-6,10.4-13.3,13.3-21.2c3.3-8.9,4.2-18.2,2.6-26.9c-0.1-0.8-0.3-1.6-0.5-2.4c0-0.2-0.1-0.3-0.1-0.5c-0.2-0.6-0.4-1.3-0.6-2
						c0-0.1-0.1-0.1-0.1-0.2c-0.3-0.7-0.5-1.4-0.9-2.1c-5-11-15.2-17-26.2-15.6c0-0.2-0.1-0.3-0.1-0.5s-0.1-0.4-0.1-0.6l0.1-0.2
						c0.2-0.3,0.4-0.5,0.5-0.8c0.2-0.3,0.5-0.7,0.7-1l0.2-0.3c0.2-0.3,0.4-0.6,0.5-0.9c0.2-0.4,0.4-0.7,0.6-1.1l0.1-0.2
						c0.2-0.3,0.4-0.7,0.6-1c0.2-0.4,0.4-0.8,0.6-1.3c0.2-0.4,0.3-0.7,0.5-1.1c0.2-0.4,0.4-0.8,0.5-1.3c0.2-0.4,0.3-0.8,0.5-1.2
						s0.3-0.8,0.4-1.3c0.1-0.4,0.3-0.8,0.4-1.2l0.3-1.2c0.1-0.3,0.1-0.5,0.2-0.8c1.6-5.6,1.8-11.3,0.7-17c0-0.3-0.1-0.6-0.2-0.9
						l-0.6-2.7c-0.3-1.1-0.7-2.1-1.3-3.2c-0.2-0.4-0.4-0.7-0.6-1s-0.4-0.6-0.6-0.8c0.2-0.2,0.3-0.5,0.5-0.7c0.7-1.1,1.5-2.3,2.3-3.6
						c3.3-1.7,5.6-4.1,6.7-5.1l3.5-3.6c1.8-1.8,6.6-6.6,5.7-14.2c-0.8-6.4-5.2-11.4-11.2-12.7c-0.2,0-0.4-0.1-0.6-0.1
						c-2.2-3.9-5.9-6.3-10.1-6.9c-1.2-2.9-3-5.5-5.3-7.5c-3.7-3.2-8.4-4.7-13.3-4c-0.4-0.1-0.7-0.1-1.1-0.1h-2.1
						c-1.7-3.9-4.5-7.3-8.3-9.3c-2.6-1.5-5.7-2.2-8.8-2.3c-1.3-0.3-2.7-0.3-4.1-0.2c-1.3-1.5-2.8-2.9-4.7-4
						c-4.2-2.5-9.2-3.1-13.6-1.8c-4.1-3.4-10-4.2-15-1.7c-0.7-0.3-1.4-0.6-2.2-0.8c-2.9-0.8-6.1-0.7-8.9,0.3
						c-1.3-0.6-2.7-1.1-4.3-1.3c-6.9-1-13.3,3.2-15.2,9.9c-0.4,1.2-0.6,2.5-0.9,3.7c-1.7-3.6-4.7-6.3-8.5-7.7
						c-5.3-1.9-9.8-0.2-11.6,0.4c-1.1,0.4-2.2,0.9-3.3,1.4c-1.8,0.8-3.6,1.8-5.4,3c-1.2,0.8-2.4,1.6-3.5,2.5
						c-3.2-0.6-6.4-0.1-9.2,1.5c-1.6,0.9-3.7,2.5-5.3,5.1c-0.7,1.1-1.2,2.3-1.5,3.6c-0.2,0.5-0.3,1.1-0.4,1.6
						c-5.2,0.8-9.7,4.4-11.4,9.7c-0.5,1.5-0.7,3-0.8,4.3c-1.4,0.7-2.7,1.6-3.8,2.8c-2,2.1-3.2,4.8-3.5,7.6c-5.4,1.1-10.2,4.3-13,9.1
						c-2.4,4.2-3.2,9.1-2.1,13.6v0.1c-0.1,0-0.2,0.1-0.3,0.1c-5,1.5-9.2,5-11.5,9.5c-2.6,5.1-2.5,10.8,0.4,15.9
						c1.4,4.1,4.1,6.9,5.6,8.5l0.4,0.4c1.7,1.8,3.4,3.6,5.1,5.3c0.9,0.9,1.8,1.7,2.7,2.6l2.7,2.4c0.4,0.3,0.7,0.6,1.1,0.9l0.1,0.1
						c1,0.9,2.2,2,3.6,3c0.9,0.7,1.7,1.2,2.5,1.7c1,0.6,2,1.1,3.1,1.4c0,2.8,0.4,5.7,1.2,8.5c-6.1,3.2-11.2,8.6-14,15.4
						c-0.6,1.5-1.1,3.2-1.5,4.9c-0.2,0.9-0.4,1.9-0.6,3.1c0,0.2-0.1,0.4-0.1,0.5c-0.2,1.8-0.4,3.7-0.4,5.6v0.6c0,0.8,0,1.7,0.1,2.5
						c0.3,6.1,1.2,11.3,2.7,15.9c3.1,9,8.9,17.2,17,23.6c1.3,1,2.7,2,4.1,3c-1.7,3.6-3.2,7.3-4.4,11.2c-0.8,2.4-1.5,4.8-2,7.1
						c-1.8,7.9-2.4,15.8-1.7,23.7c0,0.7,0.1,1.2,0.1,1.5c0.1,2.1,0.8,9.5,4.6,17.6c0.7,1.5,1.5,3,2.3,4.3c-1.8,0.8-3.5,2-4.8,3.6
						c-3.3,3.9-4.4,8-5.2,11l-0.2,0.7c-0.7,2.5-1.3,5-1.8,7.5l-2.1,8.7c-0.6,2.5-1.3,5.6-1.3,9.1c0,7.3,3,13.5,8.3,16.9
						c2.7,1.8,5.8,2.6,9,2.6c1.3,0,2.6-0.2,3.9-0.5c1.8,2,4.1,3.4,6.7,4.1c2.4,0.6,4.9,0.6,7.3-0.1c0.5,0.5,1.1,1,1.8,1.5
						s1.4,0.9,2.2,1.3c2,1,4.2,1.5,6.5,1.5h0.7c1.3-0.1,2.5-0.3,3.7-0.6c1.1,1.1,2.4,2.1,3.8,2.9c0.7,0.4,1.4,0.8,2.2,1.2
						c0.7,0.3,1.5,0.6,2.3,0.9c2,0.7,4.2,1,6.3,1h0.8c2.4-0.1,4.7-0.6,7-1.5c1.1-0.5,2.2-1,3.2-1.6c0.4,0.3,0.8,0.6,1.3,0.8
						c0.6,0.4,1.3,0.7,2,1c2.6,1.2,5.4,1.8,8.1,1.8c0.7,0,1.3,0,2-0.1c1.6-0.2,3.3-0.6,4.8-1.1c3.2,1.4,6.4,1.7,8.5,1.7h2.5
						c0.9,0,1.7-0.1,2.6-0.1l1.4-0.1h0.1c0.7,0,1.5-0.1,2.2-0.1c0.6-0.1,1.3-0.2,1.9-0.3c1.1-0.2,2.2-0.6,3.2-1.1
						c0.4-0.2,0.8-0.4,1.1-0.6c1.1,0.3,2.3,0.4,3.4,0.4c0.7,0,1.3,0,2-0.1c1.7-0.2,3.4-0.8,4.9-1.6c0.4-0.2,0.8-0.5,1.2-0.7
						c2,1,4.2,1.5,6.4,1.5c3,0,6-1,8.5-2.7c1.5,0.6,3.1,0.9,4.7,0.9c1.1,0,2.2-0.1,3.3-0.4c0.8-0.2,1.6-0.5,2.3-0.9
						c1-0.4,1.8-1,2.6-1.6c0.5-0.4,1-0.9,1.4-1.3c2.1,0.8,4.4,1.1,6.7,0.8c3.4-0.4,6.5-2,8.8-4.4c0.4-0.4,0.8-0.9,1.1-1.4
						c4.5-0.2,8.9-2.6,11.4-6.7c0.1,0,0.3,0.1,0.4,0.1c1,0.2,2,0.2,3,0.2h1c2.3-0.1,4.5-0.6,6.7-1.5c2.9-1.2,5.5-3,7.6-5.3
						c1.1-1.2,2.1-2.6,3-4c0.6-0.1,1.2-0.2,1.7-0.3c1.5-0.4,2.9-1,4.1-1.8c2-1.3,3.6-3,4.8-4.9c4.2-4.4,6.9-10.7,7.8-18.2
						c0.2-1.8,0.3-3.7,0.2-5.5C367,323.4,366.4,319.9,365.3,316.5"/>
					<path class="st1" d="M340.2,187.6c-1.3-7.4-7.3-14.4-15.4-13.1c-4.2,0.7-7.7,3.4-10.5,6.6c-0.7,0.8-1.4,1.7-2.1,2.7
						c-11.4-28.1-37.1-47.6-67.1-47.6c-32.7,0-60.4,23.3-69.8,55.5c-0.5-1.3-1.2-2.5-2.1-3.6c-2.1-2.6-5.5-4.3-8.8-4.8
						c-7.6-1.1-14.8,4.1-17.5,11c-1.5,3.8-1.8,8-1.6,12.1c0.2,4.3,0.8,8.6,2.1,12.6c2.4,7.2,7.2,13.4,13.1,18.1
						c3.6,2.9,7.5,5.2,11.7,7.1c1.6,0.7,3.3,1.5,5,2.1c10.9,29.1,37.2,49.7,67.9,49.7c34.9,0,64.1-26.6,71.5-62.2
						c1.1-0.5,2.2-1.2,3.2-1.9c2.7-1.8,5.3-3.9,7.6-6.3c4.7-4.9,8.4-10.7,10.7-17.1C340.5,201.7,341.4,194.4,340.2,187.6"/>
					<path class="st2" d="M307.4,234.3c-2.8-3-6.1-5.5-9.9-7.3c-3.6-1.7-7.3-2.2-11.1-2.4c-1,0.9-2.2,1.6-3.2,2.5
						c-1.2,1.1-2.3,2.2-3.3,3.4c-2.1,2.5-3.8,5.4-5,8.4c-2.1,5.6-2.5,12-0.4,17.6c1.1,3,2.6,5.8,3.4,8.9c0.7,2.7,0.7,5.4,0,8
						c-1.2,4.6-4,8.4-6.4,12.5c-1,1.7-1.9,3.4-2.6,5.3c20.8-7.8,37.4-25.5,45-48C312.2,240.1,310.1,237,307.4,234.3 M224.3,281.5
						c-2.1-2-3.7-4.6-4.5-7.4c-1.5-5.8,1.4-11.2,1.8-16.9c0.4-5.6-1.9-10.9-5.4-15.1c-1.7-2-3.7-3.9-5.7-5.6c-1-0.9-2.1-1.7-3.2-2.6
						c-0.6-0.5-1.1-0.9-1.5-1.5c-2.8-0.1-5.6,0.3-8.3,1.6c-7.6,3.5-13.4,10.6-18,17.5c10.4,22.7,30.4,39.2,54.1,43.3
						c-1-2.6-2.1-5-3.6-7.3C228.5,285.1,226.2,283.4,224.3,281.5 M178,219c-0.3-2.3-0.7-4.6-1.2-6.9c-0.3,0.1-0.5,0-0.6-0.3
						c-0.8-4.3-2.2-8.5-5-12c-4.1-5.1-10.9-10.6-17.8-8.4c-3,0.9-5.4,3.1-7.5,5.6c-0.7,2.9-0.8,6-0.6,9c0.2,4.3,0.8,8.6,2.1,12.6
						c2.4,7.2,7.2,13.4,13.1,18.1c3.6,2.9,7.5,5.2,11.7,7.1c1.1,0.5,2.1,0.9,3.2,1.4c0.3-1,0.6-2.1,0.9-3.1c1-3.8,1.8-7.8,2.3-11.7
						C178.4,226.7,178.4,222.8,178,219 M245.1,136c-31.7,0-58.8,22-69,52.7c0.2,0.6,0.3,1.2,0.5,1.8c1.5,5.2,2.6,10.5,3.5,15.8
						c0.1,0.7-0.1,1.3-0.6,1.7c0.1,0.2,0.2,0.5,0.2,0.7c0.2,0.6,0.3,1.2,0.4,1.8c2.1-1.1,4-2.7,5.1-4.8c0.9-1.8,1.3-4,1.8-6
						c0.5-2.2,1.1-4.3,2.2-6.3c1.3-2.4,3.2-4.2,5.5-5.7c2-1.3,4.1-2.3,6-3.8c1.9-1.4,3.1-3.2,4.1-5.3c1.8-3.6,3.5-8.2,7.9-9
						s9.1,1.2,13.3-0.6s7-5.6,10.9-7.9c3.6-2.1,7.9-2.1,11.6-0.1c3.4,1.9,5.8,5.1,8.5,7.8c1.4,1.4,3,2.8,4.9,3.5
						c2.9,1,6,1.3,9.1,1.1c3-0.2,6-0.7,9-1.1c1.6-0.2,3.2-0.5,4.8-0.5c0.6-0.3,1.2-0.6,1.8-0.8c0.1-0.1,0.3-0.2,0.4-0.2
						c0.4-0.2,0.8-0.3,1.2-0.5c0.1,0,0.1,0,0.2-0.1c0.1,0,0.1-0.1,0.2-0.1c0.9-0.3,1.8-0.7,2.7-1c0.9-0.3,1.9-0.6,2.9-0.7
						c0.2,0,0.4,0,0.5,0.1c0.3-0.1,0.6-0.1,0.9-0.2c0.3,0,0.6,0,0.9,0.1c1.9-0.9,3.8-1.7,5.8-2.5C289,147.8,268.4,136,245.1,136
						 M340.2,187.6c-0.4-2-1.1-4-2.1-5.8c-1-0.2-2-0.5-3.1-0.5c-1.9,0-3.8,0.5-5.6,1.1c-3.9,1.5-7.3,4.2-10.1,7.2
						c-0.2,0.2-0.3,0.4-0.5,0.5c-1.1,2.4-2.2,4.8-3.1,7.2c-2.9,7.6-4.8,15.7-4.1,23.9c0,0.4,0.1,0.9,0.2,1.3
						c0.9,3.8,2.6,7.3,6.1,9.4c0.2,0.1,0.5,0.3,0.7,0.4c0.4-0.3,0.9-0.5,1.3-0.8c2.7-1.8,5.3-3.9,7.6-6.3
						c4.7-4.9,8.4-10.7,10.7-17.1C340.5,201.7,341.4,194.4,340.2,187.6"/>
					<path class="st3" d="M313.9,209.2c0.3-6.6,2.4-13.2,5.9-18.8c1.9-3.1,4.4-6,7.6-7.7s7.3-2.1,10.5-0.2"/>
					<path class="st3" d="M322.1,219.4c5-4.9,6.8-12.9,4.3-19.4c-0.8-2-5.7-4.7-9.1-4.7 M173.9,207c-1.3-3.1-2.7-6.2-4.6-9
						c-1.9-2.8-4.5-5.2-7.6-6.4c-3.9-1.5-8.6-0.9-12,1.6"/>
					<path class="st3" d="M172.9,225.2c-1.9,0.4-3.8-0.7-5.3-2.1c-5.2-5-6.9-13.4-3.9-20.1c1.1-2.3,3-4.7,5.6-4.7 M261.1,188
						c-0.4,4.4,3.3,8.8,7.8,9.2c4.4,0.4,8.8-3.4,9.1-7.8 M204.1,199.1c1.7,3.3,5.4,5.6,9.1,5.5c3.7-0.1,7.4-2.6,8.5-6.2
						c0.4-1.3,0.5-2.6,0.5-3.9c0-1.6-0.2-3.2-0.6-4.8 M233.7,216.6c0.9-4,3.9-7.4,7.6-9.1c3.7-1.7,8.1-1.7,12-0.3c2.8,1,5.6,3.1,6,6
						 M216.5,234c8,6.3,19,7.8,29.1,5.9c10-1.9,19.2-6.8,27.8-12.3"/>
					<path class="st3" d="M268.9,222.4c2.3,1.4,4.5,3.2,5.7,5.5c1.4,2.7,1.5,5.9,1.5,8.9 M219.2,229c0-0.3-0.5-0.2-0.7,0.1
						c-3.1,4-5.1,8.9-5.6,14"/>
					<path class="st4" d="M311.6,164.3c-0.3-1.6-0.6-3.3-1-4.9c-0.1-0.4-0.2-0.7-0.3-1c7.5-7.6,10.9-19,8.1-29.4
						c-0.1-0.2-0.1-0.4-0.2-0.6c-0.1,0.4-0.3,0.8-0.5,1.1c-2.3,4.4-9.1,6.1-13.4,4c-2.5-1.1-4.5-3-6.4-4.9c-2.1-2.1-4.1-4.2-6-6.5
						c-7.4-8.4-14.2-17.5-23.9-23.4c-17.6-10.7-41-11.3-59-1.2c-5.1,2.9-10.1,6.8-13,12c-2.7,4.9-2.7,10.2-2.1,15.5
						c-6.1-1.2-12.9,0.7-17,5.5c-4.3,5-5.2,11.9-3,17.9c-6.4,1.2-11.8,7-13,13.6c-1.5,8.6,3.2,16.9,9.3,22.7c0,2,0.4,4,0.9,5.9
						c1.3,4.8,4,9.2,6.6,13.4c1.6,2.6,5.3,0.8,4.8-2c-0.9-4.9-2.2-10.8,0.5-15.4c2.6-4.3,7.9-4.2,11.8-6.7
						c7.3-4.7,10.1-13.1,9.4-21.3c1.8,1.7,4.1,3,6.2,3.8c5.2,2,10.9,1.7,16-0.6c8.2-3.7,14.3-15,24.5-12c5.6,1.7,9.9,6.1,14.4,9.7
						c4.4,3.4,9.2,5.9,14.7,7.1c6,1.3,12.3,1,18.1-0.8c1.5,1,3,1.9,4.1,3.5c1.4,2.2,2.1,4.7,2.9,7.2c1.6,5,3,10.3,3.6,15.6
						c0.1,1.1,0.7,2,1.9,2.1c1,0.1,2.2-0.5,2.4-1.5c1.1-6.3,1.1-12.8,0.4-19.2C312.7,170.5,312.2,167.4,311.6,164.3"/>
					<path class="st5" d="M299,165.2c1-0.5,2-1,3-1.6c0.6-0.4,1.2-0.7,1.7-1.1c2.1-2.2,4.8-4,7.4-5.5c0.2-0.1,0.4-0.1,0.5-0.2
						c6.5-7.5,9.4-18.2,6.8-27.9c-0.1-0.2-0.1-0.4-0.2-0.6c-0.1,0.4-0.3,0.8-0.5,1.1c-1.2,2.3-3.7,3.8-6.4,4.5
						c-1.3,2.5-3.2,4.8-5.2,6.7c-4.4,4.1-10.3,7.4-16.4,7.9c-7.7,0.6-13.2-4.6-18.9-8.8c-3.3-2.4-6.8-4.6-10.5-6.5
						c-3.8-2-7.9-3.7-12.1-4c-3.3-0.2-6.8,0.2-9.8,1.8c-2.3,1.3-4.3,3.1-6.1,5c-3.7,3.8-7.6,8.1-13.1,9.1c-3.4,0.6-6.8,0-10.1-0.9
						c-3.5-0.9-7-2.2-10.7-1.4c-3.6,0.7-7.3,2.9-9.3,6c-1.7,2.7-2.1,5.9-2.3,9.1c-0.2,3.2,0.2,6.6-0.8,9.7c-1.1,3.3-3.6,5.7-6.6,7.3
						c-2.1,1.1-4.4,1.6-6.6,2.6c-2.3,1-3.7,3.2-5,5.2c0.7,0.8,1.4,1.5,2.2,2.2c0,2,0.4,4,0.9,5.9c1.3,4.8,4,9.2,6.6,13.4
						c1.6,2.6,5.3,0.8,4.8-2c-0.9-4.9-2.2-10.8,0.5-15.4c2.6-4.3,7.9-4.2,11.8-6.7c7.3-4.7,10.1-13.1,9.4-21.3
						c1.8,1.7,4.1,3,6.2,3.8c5.2,2,10.9,1.7,16-0.6c8.2-3.7,14.3-15,24.5-12c5.6,1.7,9.9,6.1,14.4,9.7c4.4,3.4,9.2,5.9,14.7,7.1
						c5.6,1.2,11.5,1,17-0.5C297.5,165.9,298.3,165.6,299,165.2"/>
					<path class="st4" d="M211.7,175.7c-1.3,0.2-2.5,0.5-3.6,0.8c-3.5,1-6.7,2.9-9.4,5.3c-1.3,1.2-2.7,2.6-3.4,4.3
						c-0.8,1.8-0.4,4.1,1.2,5.3c1.8,1.5,4,0.7,5.8-0.4c1.8-1.2,3.6-2.3,5.4-3.3c4-2.3,8.1-4.3,12.3-6c1.7-0.7,2.2-2.5,1-4
						C218.8,175.1,215.1,175,211.7,175.7 M268.9,169.7c1.3-0.1,2.6,0,3.7,0.1c3.6,0.3,7.1,1.6,10.2,3.5c1.5,0.9,3.2,2,4.2,3.6
						c1.1,1.7,1.2,3.9-0.2,5.5c-1.5,1.8-3.8,1.4-5.8,0.7c-2-0.8-3.9-1.6-5.9-2.2c-4.3-1.5-8.7-2.7-13.2-3.6c-1.9-0.4-2.6-2-1.8-3.7
						C261.7,170.4,265.4,169.7,268.9,169.7"/>
					<path class="st3" d="M318,128.2c4.4,12-1.3,22.9-8.7,29.8c-6.5,6-15.5,8.9-24.3,8.5s-17.4-3.9-24.2-9.4
						c-4.5-3.6-9.1-8.3-14.9-8.1c-6.4,0.3-10.6,6.4-15.7,10.1c-8.1,5.9-20.3,5.8-27.9-0.7c0.1-0.1,0.2,0.4,0.3,0.3
						c-0.6-0.6-0.9-1.4-0.9-2.3c0-0.5,0.1-1,0.4-1.3c0.7-0.7,1.9-0.2,2.4,0.6c0.4,0.8,0.3,1.9,0.2,2.8c-0.6,4.4-1.6,8.8-3.5,12.8
						s-4.9,7.6-8.8,9.7c-3.4,1.8-7.7,2.7-9.9,5.9c-1.5,2.2-1.7,5-1.4,7.6s1,5.2,1,7.8"/>
					<path class="st1" d="M220.2,290.7c-2.3-3-5.4-5.2-8.1-7.7c-2.6-2.4-4.5-5.2-4.1-8.9c0.4-3.5,2.3-6.6,3.6-9.9
						c4.1-10.5,3.4-27-6.1-34.6c-6.4-5.1-14.5-2.1-20.1,2.6c-11,9.2-19.7,24.1-23,37.9c-2.2,9.4-2.4,19.5,0.1,28.9
						c1.2,4.5,3.1,8.9,6.1,12.6s6.8,6.4,11,8.4c8.6,4.1,19.4,6.4,28.4,2.4c7.8-3.5,13.8-10.3,15.2-18.8
						C223.9,299,223.1,294.4,220.2,290.7"/>
					<path class="st3" d="M221.4,292.6c-1.4-3.4-12.1-11.9-12.1-11.9c-2.8-2.4-1.4-6.5-1.4-6.5c8.4-17.9,5.2-30.7,5.2-30.7
						c-4.4-22.4-21.9-14.9-21.9-14.9C156.1,250,161,291.8,161,291.8s0.7,20.5,18.5,28.3"/>
					<path class="st3" d="M198.8,227.1c-6.5,4.9-11.6,11.5-15.5,18.6s-6.8,14.7-9.7,22.3 M204.8,228.9
						c-11.4,10.9-16.2,26.9-19.9,42.2 M209.6,233.8c-7.7,11.1-10.6,24.9-13.3,38.2"/>
					<path class="st1" d="M281.1,285.4c1.8-3.3,4.4-6,6.7-8.9c2.2-2.8,3.6-5.9,2.5-9.5c-1-3.4-3.4-6.1-5.2-9.1c-5.8-9.6-8-26,0-35.2
						c5.4-6.1,13.9-4.6,20.3-0.9c12.4,7.2,23.6,20.3,29.2,33.4c3.8,8.9,5.7,18.8,4.9,28.5c-0.4,4.6-1.5,9.3-3.8,13.4
						s-5.6,7.5-9.4,10.2c-7.7,5.5-18,9.7-27.5,7.2c-8.3-2.1-15.3-7.7-18.2-15.9C278.9,294.2,278.8,289.5,281.1,285.4"/>
					<path class="st3" d="M280.2,287.4c0.8-3.6,9.9-13.8,9.9-13.8c2.3-2.9,0.2-6.7,0.2-6.7c-11.4-16.2-10.4-29.4-10.4-29.4
						c0.4-22.8,19-18.5,19-18.5c38.3,15.2,40.7,57.1,40.7,57.1s2.8,20.3-13.3,31.1"/>
					<path class="st3" d="M291.1,219c7.3,3.7,13.4,9.3,18.5,15.6s9.3,13.3,13.4,20.3 M285.6,221.8c13.1,8.8,20.5,23.7,26.9,38.1
						 M281.7,227.5c9.5,9.6,14.7,22.7,19.7,35.3"/>
					<path class="st6" d="M237.9,307.5c0.8,0.1,1.6,0.2,2.4-0.1c1.1-0.4,1.8-1.1,2-2.3c0.2-1.1-0.4-2.2-1.3-2.8
						c-1.3-0.8-3.3-0.7-4.8-0.7h-3.9c-1.4,0.1-2.9,0.1-4.4,0.4c-0.8,0.2-1.5,0.4-2.1,0.8c-0.8,0.5-1.6,1.8-1,2.7
						c0.6,0.9,1.2,1.2,2.1,1.5c0.7,0.2,1.4,0.3,2.2,0.2h1.6c-0.2,0.9-0.3,1.9-0.4,2.8c-0.2,2.1-0.3,4.3-0.4,6.4
						c-0.2,4.1-0.4,8.3-1.1,12.4H226c-1.6,0.1-3.6,0.1-4.7,1.3c-0.5,0.6-0.8,1.7-0.3,2.4c1.1,1.4,2.6,1.6,4.2,1.9
						c1.5,0.3,3.1,0.3,4.7,0.5c1.4,0.1,2.8,0.1,4.2,0.2c1.4,0.1,2.9,0.3,4.2,0.2c1.2-0.1,2.5-0.8,2.8-2.2c0.1-0.6,0.1-1,0-1.6
						c-0.1-0.9-1.2-1.9-2-2c-1.4-0.2-2.9-0.3-4.4-0.3c0.1-0.7,0.1-1.5,0.2-2.2c0.1-1,0.2-2,0.3-3.1c0.2-2.3,0.3-4.6,0.5-6.9
						c0.1-2.2,0.1-4.4,0.1-6.6c0-1-0.1-2-0.3-3h0.4C236.8,307.5,237.3,307.5,237.9,307.5 M252.4,303.1c-0.5-1.2-1.7-1.9-2.9-1.2
						c-0.8,0.5-1.6,1.3-2.1,2.1l-0.6,0.9c-0.1,0.1-0.2,0.3-0.3,0.4c-0.1,0.1-0.2,0.3-0.3,0.4c-0.3,0.3-0.4,0.6-0.6,0.9
						c0-0.1,0-0.1-0.1,0.1l-0.6,0.9l-0.6,0.9c-0.3,0.5-0.4,1-0.5,1.6c-0.4,1-0.8,2-0.8,3.1c0,1.2,1.5,1.8,2.3,1
						c0.6-0.6,1.1-1.2,1.7-1.8c0.4-0.2,0.8-0.4,1.2-0.8c0.3-0.2,0.5-0.5,0.7-0.8l0.4-0.4c0.1-0.1,0.4-0.3,0.4-0.4
						c-0.5,0.4-0.4,0.3,0.2-0.2c0.2-0.2,0.4-0.5,0.5-0.7c0.1-0.1,0.2-0.3,0.3-0.4c0.4-0.6,0.9-1.2,1.2-1.9c0.3-0.6,0.5-1.4,0.5-2.1
						C252.6,304.2,252.6,303.6,252.4,303.1 M281.3,325c-0.4-2.7-0.8-5.4-1.3-8.1c-1-5.4-2.3-10.7-3.8-16c-0.8-2.9-4.6-2.6-5.6,0
						c-1.4,3.9-2.8,7.9-4.1,11.9c-0.7-1.2-1.4-2.3-2.2-3.4c-1-1.4-2-2.7-3.2-4c-1.2-1.2-2.6-3-4.5-2.8c-1,0.1-1.6,0.7-1.7,1.7v0.3
						c-0.9,1.8-1,4.5-1,6.4c-0.1,2.6,0,5.1,0,7.7v7.4c0,2.5-0.4,5.7,0.8,7.9c0.9,1.7,3.7,1.7,4.6,0c1.2-2.3,0.7-5.6,0.7-8.2
						c-0.1-2.5-0.2-5-0.3-7.4c-0.1-2.3-0.2-4.7-0.4-7c0.2,0.3,0.5,0.7,0.7,1c1.9,2.7,3.4,5.6,4.8,8.7c1,2.3,4.3,1.3,4.9-0.6
						c1-3,2-6.1,3.1-9.1c0.5,2.3,1,4.6,1.4,6.9c0.5,2.5,0.9,5.1,1.2,7.6c0.4,2.7,0.2,6.1,2.6,7.9c0.7,0.5,2,0.3,2.6-0.3
						C282.7,331.1,281.7,327.6,281.3,325 M174.2,331.6c-0.6-1.2-2.1-1.4-3.1-0.9c-1.4,0.7-1.9,2.2-2.5,3.6c-0.5,1.3-1,2.5-1.5,3.8
						c-1,2.4-2,4.8-3.1,7.2c-1.1,2.4-2.3,4.9-3.5,7.3c-0.6,1.2-1.2,2.3-1.8,3.5c0,0-0.2,0.3-0.3,0.5c-0.1-0.7-0.2-1.6-0.2-1.8
						c0-1.2,0.3-2.3,0.5-3.5c0.6-2.7,1.3-5.4,1.9-8.1c0.6-2.7,1.3-5.5,1.8-8.2c0.6-2.8,1.4-5.5,0.7-8.3c-0.3-1.1-1.9-1.7-2.7-0.7
						c-1.8,2.1-2.3,4.5-2.9,7.1c-0.7,2.5-1.2,4.9-1.8,7.4c-0.6,2.6-1.2,5.1-1.8,7.7c-0.5,2.3-1.2,4.7-1.2,7.1s0.6,5.4,2.8,6.9
						c2.1,1.4,5,0.6,6.6-1.2c1.6-1.7,2.6-4,3.6-6c1.2-2.2,2.3-4.5,3.4-6.8c1.2-2.6,2.3-5.2,3.4-7.9
						C173.5,337.6,175.5,334.3,174.2,331.6 M192.3,352.6c0.8-5.2,1.7-10.9,0.7-16.1c-0.5-2.5-1.9-5.7-5.1-5.1
						c-2.2,0.5-4,2.7-5.3,4.4c-2.9,3.8-4.8,8.6-6.9,12.9c-1.3,2.8-2.7,5.6-3.7,8.5c-0.9,2.4-2.9,6.3-1.4,8.7c0.5,0.8,1.4,1,2.3,0.6
						c1.4-0.7,2.1-2.5,2.7-3.9c0.6-1.4,1.1-2.8,1.7-4.2c0.5-1.1,0.9-2.1,1.4-3.2c0.3,0.1,0.6,0.3,0.9,0.4c0.6,0.2,1.2,0.3,1.7,0.4
						c1.3,0.3,2.6,0.4,3.9,0.4h1c-0.7,3.5-1.6,7-2.6,10.5c-1,3.4,4.2,4.9,5.3,1.5c1.2-4.2,2.2-8.5,3-12.8c0.2-0.3,0.4-0.6,0.5-0.9
						c0.2-0.6,0.1-1.1-0.1-1.7L192.3,352.6z M185,351.2c-1,0-2.1-0.1-3.1-0.2c-0.2,0-0.4-0.1-0.7-0.1s-0.3,0,0,0
						c-0.2,0-0.3,0-0.5-0.1c0.1-0.3,0.3-0.6,0.4-0.9c1.3-2.6,2.5-5.3,3.9-7.9c0.6-1.1,1.3-2.2,2-3.2c0.1-0.2,0.4-0.4,0.6-0.7
						c0,0.2,0.1,0.3,0.1,0.5c0.2,1.3,0.1,2.6,0.1,3.9c-0.1,2.8-0.4,5.6-0.8,8.4v0.2C186.3,351.1,185.6,351.2,185,351.2 M203.7,349.4
						c0.8-2.2,1.8-4.5,3.2-6.5c0.6-0.8,1.9-2.1,2.6-0.8c0.4,0.7,0.5,1.7,0.6,2.5c0.2,1.3,0.5,2.5,1.1,3.7c0.7,1.4,2.9,1.1,3.3-0.4
						c1.1-4.2,0.1-11-5.1-11.6c-5.5-0.6-8.4,5.5-10.3,9.6c-2.2,4.8-3.4,10.1-3.7,15.3c-0.3,5,0.9,10.4,5.4,13.2
						c2.4,1.5,5.3,1.7,7.9,0.6c1.3-0.5,2.6-1.3,3.5-2.5c0.9-1.1,1.2-2.3,1.6-3.6c0.3-0.8-0.6-1.8-1.5-1.5s-1.9,0.6-2.8,1
						c-1,0.4-1.9,1.1-2.9,1.4c-1.5,0.5-2.8,0-3.9-1.2c-2.8-3.2-1.7-8.8-0.9-12.5C202.2,354,202.9,351.7,203.7,349.4 M235.4,367.9
						c-0.1-0.8-1.1-1-1.7-0.7c-1.9,0.8-3.2,2.2-4.9,3.2c-1.2,0.7-2.6,0.1-3.4-1c-2.2-2.8-2.1-7.6-1.8-11c0.3-3.9,1.6-7.7,3.6-11
						c0.4-0.7,1.3-2.6,2.3-2.1c0.6,0.3,0.7,1.3,0.8,1.8c0.3,1,0.3,2,0.9,2.9c0.4,0.7,1.3,0.8,1.9,0.3c1.6-1.5,1.9-4.4,1.1-6.4
						c-0.8-2.3-2.7-4-5.2-4c-4.8-0.1-7.5,6.1-9,9.8c-1.7,4.3-2.4,9-2,13.6c0.4,4.7,1.6,10.1,6.4,12.2c2.6,1.2,5.4,0.9,7.7-0.8
						C234.4,373.1,235.8,370.7,235.4,367.9 M253.1,372.7c-0.6-0.9-1.5-1.4-2.6-1.4c-0.5,0-0.9,0-1.4,0.1c0-1.4,0-2.8-0.1-4.2
						c-0.1-2.7-0.2-5.3-0.3-8c-0.1-2.7-0.2-5.3-0.3-8c-0.1-1.4-0.1-2.8-0.2-4.2v-0.6c0.5,0.1,1,0.3,1.5,0.3c1.1,0,2.1-0.7,2.6-1.7
						c0.4-0.9,0.3-2.3-0.5-3c-0.5-0.4-0.9-0.7-1.6-0.9c-0.2-0.1-0.5-0.2-0.7-0.2c-0.4-0.1-0.9-0.2-1.3-0.3c-1.1-0.2-2.3-0.4-3.4-0.4
						c-1.2,0-2.3,0.1-3.4,0.2c-0.4,0.1-0.9,0.1-1.3,0.3c-0.2,0.1-0.5,0.2-0.7,0.3c-0.3,0.1-0.6,0.3-0.8,0.4h-0.2l-0.3,0.3
						c-0.1,0-0.1,0.1-0.2,0.1h0.1c-0.6,0.6-1,1.6-0.7,2.5c0.3,1.1,1.3,1.8,2.4,1.9h0.4c0.4,0,0.6-0.1,0.7-0.1h-0.3
						c0.2-0.1,0.4,0,0.6-0.1c0.4,0,0.7-0.1,1.1-0.1h0.2c0.5,0,0.9-0.1,1.4-0.1v21.4c0,1.4,0.1,2.8,0.1,4.2v0.5l-2.4,0.3
						c-1.3,0.3-2.6,0.8-3.2,2c-0.1,0.2-0.2,0.6,0,0.8c1.5,2.1,4.7,1.8,7.1,1.7c1.2,0,2.3-0.1,3.5-0.2c1.6-0.1,3.7,0.1,4.5-1.6
						C253.4,374.2,253.5,373.4,253.1,372.7 M279.9,364.8c0-2.8-0.1-5.7-0.3-8.5c-0.1-2.8-0.3-5.6-0.6-8.3c-0.1-1.5-0.3-2.9-0.4-4.4
						c-0.2-1.5-0.2-3.2-0.6-4.6c-0.9-2.9-5.2-2.4-5.3,0.6c-0.1,2.5,0.5,5.2,0.7,7.8l0.6,8.1c0.1,2.3,0.2,4.6,0.3,7
						c-1.1-2.6-2.3-5.2-3.6-7.7c-1.3-2.5-2.7-5.1-4.1-7.5c-0.7-1.2-1.5-2.4-2.3-3.6c-0.8-1.1-1.8-2.4-3-3.1
						c-0.5-0.4-1.1-0.7-1.7-0.5c-2.3,1.2-1.9,5-1.9,7.1c0,2.8,0.1,5.7,0.2,8.5s0.3,5.7,0.4,8.5s-0.1,5.9,0.5,8.7
						c0.3,1.3,1.6,2.1,2.9,1.9c1.4-0.2,2.2-1.2,2.3-2.6c0.2-1.5,0-3-0.1-4.5c-0.1-1.4-0.1-2.8-0.2-4.2c-0.1-3-0.2-6-0.4-9
						c-0.1-0.9-0.1-1.7-0.2-2.6c1,2,2,4,2.9,6.1c1.2,2.7,2.5,5.3,3.7,8c1.1,2.5,2.1,5.1,4.1,7.1c1.2,1.3,3.5,1.1,4.4-0.5
						C279.6,370.2,279.9,367.5,279.9,364.8 M306.4,362.9c-0.2-1.5-0.4-3-0.7-4.5c-0.5-3-1.1-6-1.8-9s-1.5-5.9-2.4-8.8
						c-0.8-2.7-1.6-5.7-3.7-7.8c-2.1-2.2-5.5-3.1-8.3-1.7c-2.3,1.1-3.6,3.5-4.4,5.8c-1.8,5.7-1.9,12.2-1.4,18.1
						c0.3,3.5,0.8,7,1.5,10.5c0.3,1.6,0.7,3.5,1.6,4.9c0.5,0.8,1.8,2.2,2.8,1.4c1.9-1.5,1.3-4.6,1.1-6.7c-0.2-2.1-0.4-4.1-0.6-6.2
						c0.3-0.1,0.6-0.1,0.9-0.2c1.2-0.3,2.4-0.5,3.6-0.8s2.4-0.6,3.6-0.8c0.2-0.1,0.5-0.1,0.8-0.2c0.2,1,0.4,1.9,0.5,2.9
						c0.2,1.4,0.4,2.8,0.6,4.3c0.3,1.8,0.5,3.3,2.1,4.3c0.9,0.6,2.3,0.4,3-0.3C306.8,366.5,306.6,364.8,306.4,362.9 M292.4,352.8
						c-0.8,0.2-1.7,0.5-2.5,0.8c-0.2-3.8-0.1-7.6,0.7-11.3c0.2-1.1,0.4-2.2,0.8-3.2c0.3-0.9,0.4-1.4,0.9-2c0,0.1,0.2-0.1,0.3-0.2
						c0.1,0,0.2,0,0.1-0.1c0.5,0.2,0.9,0.4,1.3,1c1.2,1.8,1.6,4.2,2.2,6.2c0.7,2.5,1.4,5.1,2,7.6c-0.5,0.1-0.9,0.2-1.3,0.3
						C295.2,352.1,293.8,352.4,292.4,352.8 M316.8,357.2c-0.3-1.4-0.6-2.7-0.9-4.1c-0.6-2.7-1.2-5.5-1.7-8.2
						c-0.6-2.7-1.1-5.5-1.6-8.2c-0.3-1.5-0.5-3.4-1.2-5c0.1,0,0.3-0.1,0.4-0.1c1.2-0.4,2.6-0.5,3.8-1.1c2-1.1,1.5-4.1-0.6-4.8
						c-1.4-0.5-3.1,0.1-4.5,0.5c-1.3,0.5-2.6,1-3.8,1.6c-0.5,0.3-1.1,0.5-1.6,0.8c-0.3,0.1-0.6,0.3-0.9,0.4
						c-0.2,0.1-0.9,0.4-0.3,0.2c-0.4,0.2-0.9,0.3-1.3,0.6c-0.1,0.1-0.2,0.1-0.4,0.2c-0.3,0.1-0.9,0.5-0.4,0.3
						c-1.1,0.6-1.9,1.9-1.2,3.1c0.9,1.5,3.2,1.4,4.6,0.9c0.4-0.1,0.7-0.3,1-0.4c0.1,1.3,0.4,2.7,0.6,3.9c0.4,2.9,1,5.7,1.6,8.5
						c0.6,2.7,1.1,5.5,1.7,8.2c0.3,1.4,0.6,2.7,0.9,4.1c0.4,1.6,0.7,3.2,2.2,4.1c1.1,0.7,2.6,0.3,3.3-0.8
						C317.5,360.3,317.2,358.8,316.8,357.2 M339,344.4c-0.6-1.2-2.1-2.5-3.4-1.3c-1.1,1-1.2,2.9-1.7,4.2c-0.4,1.1-1,2.1-1.9,2.7
						c-0.4,0.3-1.1,0.7-1.6,0.7s-0.7-0.1-1.1-0.4c-1.1-0.9-1.6-2.3-2-3.6c-0.7-2-1.1-4-1.3-6c0.6-0.3,1.1-0.6,1.6-0.9s1.1-0.7,1.6-1
						c0.4-0.3,0.9-0.6,1.3-1c0.4-0.3,0.8-0.7,1-1.2c0.6-1,0.5-2.5-0.4-3.3c-0.3-0.3-0.8-0.6-1.2-0.7c-0.7-0.2-1.4,0-2.1,0.2
						c-0.7,0.3-1.3,0.9-1.9,1.3c-0.1,0.1-0.2,0.2-0.3,0.2v-1c0-2.3,0.2-4.5,0.1-6.8c0-0.9-0.1-1.8,0.6-2.5c0.3-0.3,0.6-0.4,0.9-0.6
						c0.4-0.3,0.6-0.7,0.9-1c0.5-0.4,0.4-1.2,0-1.6c-1.2-1.6-3.1-1.2-4.5-0.1c-1.6,1.2-2.4,3-2.8,4.9c-0.5,2-0.5,4.2-0.6,6.2
						c-0.1,2.1-0.1,4.2,0,6.3c0.2,4.1,0.8,8.2,2.3,11.9c1.4,3.3,4.2,6.6,8.1,6.4c4-0.2,7-3.1,8.5-6.6
						C339.6,348.1,339.8,346,339,344.4 M352.7,316.5c-1.6-3.9-4.2-8.9-8.6-10.1c-2.5-0.7-4.8,0.1-6.7,1.6c-1.3,0.9-2.5,2.1-2.7,3.5
						c-1.8,1.5-0.2,5.3,0.4,7c1,2.8,2.1,5.7,3,8.5c1,2.8,1.9,5.6,2.8,8.3c0.5,1.5,1,2.9,1.5,4.4s0.8,3.2,1.8,4.5
						c0.7,1,1.8,1.6,3.1,1.3c1.1-0.3,1.9-1.2,2-2.3c0.1-0.1,0.2-0.1,0.3-0.2c3.6-3,5.1-7.9,5.6-12.3
						C355.6,325.9,354.6,321,352.7,316.5 M349.3,330.8c-0.3,2-1,3.9-1.8,5.7c-0.3-0.8-0.5-1.6-0.8-2.4c-1-2.9-2.1-5.7-3.1-8.5
						c-1.1-2.7-2.1-5.5-3.2-8.2c-0.6-1.4-1.1-3-1.9-4.3c0,0,0-0.1-0.1-0.1c0.5-0.3,1.1-0.6,1.6-0.8c1.3-0.7,2.3-1.1,3.6-0.2
						c1.2,0.9,2,2.3,2.7,3.6c0.9,1.6,1.6,3.3,2.1,5C349.3,323.9,349.8,327.4,349.3,330.8 M256.5,55.9c-0.2-0.7-0.7-1.1-1.1-1.7
						c-0.5-0.7-1.6-0.6-2.2-0.3c-2.3,1.2-2.5,3.9-3,6.2c-0.5,2.2-1,4.5-1.5,6.7c-0.9,3.9-1.6,8-3.8,11.3c0,0.1-0.4,0.5-0.7,0.9
						c-0.1-0.3-0.2-0.6-0.2-0.8c-0.3-2.2-0.4-4.5-0.5-6.7c-0.1-4.7,0.2-9.3,1.1-14c0.3-1.6-0.4-3.2-2.1-3.6
						c-1.5-0.4-3.3,0.5-3.6,2.1c-1,4.6-1.9,9.1-2.9,13.7c-0.5,2.1-1,4.2-1.7,6.3l-1.2,3c-0.1,0.2-0.2,0.3-0.2,0.5
						c-0.1-0.8-0.1-1.6-0.2-2.4c-0.2-2.4-0.3-4.8-0.3-7.2c-0.1-4.9,0.3-9.8,0.3-14.6c0-2.2-3.2-2.6-3.8-0.5c-1.6,5.7-2,11.8-2,17.6
						c0,2.9,0.1,5.8,0.4,8.7c0.3,2.8,1.8,5.6,5,5.6c2.8,0.1,4.9-2.4,6-4.7l0.6-1.2c0.2,0.6,0.4,1.2,0.7,1.7c1.4,2.5,4.6,3.7,7.2,2.2
						c2.1-1.3,3.5-3.8,4.5-6c1.1-2.4,1.8-4.9,2.4-7.5c0.6-2.8,1.2-5.5,1.8-8.3c0.3-1.4,0.7-2.9,0.9-4.3
						C256.5,57.6,256.7,56.7,256.5,55.9 M270.4,56.9c-1.7-1-4.3-1.1-5.8,0.3h-0.1c-2.4,0.5-4.1,3.2-5.3,5.2c-1.2,2.1-2.2,4.4-3,6.7
						c-0.8,2.3-1.3,4.7-1.7,7.1c-0.3,2.3-0.7,4.8,0,7.1c0.7,2.6,2.8,4.5,5.5,4.7c2.7,0.1,4.9-1.4,6.5-3.4c3.1-3.9,5.2-8.8,6.3-13.7
						C273.8,66.4,275,59.6,270.4,56.9 M267.5,67.9c-0.8,4.5-2.5,9.1-5.3,12.7c-0.4,0.5-1,1.4-1.7,1.4c0,0,0,0.4-0.1-0.1
						c-0.1-0.3-0.2-0.6-0.2-0.9c-0.2-2.4,0.3-4.9,0.9-7.2c0.6-2.5,1.5-5,2.6-7.4c0.7-1.5,1.8-3.1,2.5-4.8h0.2
						c0.4,0.1,0.8,0.1,1.1,0.2c0,0,0.1,0.1,0.1,0.2C268.2,63.9,267.8,66.1,267.5,67.9 M288.3,63.5c-1.3-0.7-3.1-0.9-4.6-0.6
						c-0.6-0.5-1.4-0.6-2.1,0c-1.6,1.3-2.1,3.6-2.9,5.3c-1,2.2-2.1,4.3-3.1,6.5c-2.1,4.4-4,8.9-6,13.4c-0.6,1.4-0.4,3.1,1,3.9
						c1.2,0.7,3.3,0.4,3.9-1c1.2-2.6,2.3-5.2,3.5-7.8c0.3,0.1,0.6,0.2,1,0.2c1,0.1,1.4,1.9,1.5,2.6c0.3,2,0.2,4,0.3,6
						c0.1,2.2,0.2,4.4,1.4,6.3c1,1.6,2.5,1.4,3.3-0.2c1-1.9,1-4,0.9-6.1s0-4.3-0.3-6.4c-0.2-1.3-0.5-2.6-1.1-3.8
						c3.8-2,6.7-5.8,7.1-10.2C292.4,68.6,291.2,65.1,288.3,63.5 M286.7,72.5c-0.9,2.8-3.4,4.7-6.2,5.2l0.3-0.6c1-2.3,2-4.6,2.8-6.9
						c0.4-1,0.7-2,0.9-3c0.6,0.1,1.1,0.3,1.6,0.7C287.3,69,287.1,71.1,286.7,72.5 M307,74.3c-0.6,0.1-1.3,0.3-2,0.6
						c-0.6-0.7-1.8-0.9-2.6-0.2c-1.9,1.8-3,4.5-4.1,6.8s-2.1,4.6-3.2,6.8c-1.1,2.3-2.2,4.5-3.4,6.8c-1.2,2.3-3.2,5.1-3.1,7.8
						c0.1,1.8,2.1,3.2,3.7,2.1c2.3-1.5,3.3-4.5,4.5-6.9c0.8-1.6,1.5-3.3,2.3-4.9c0.5,0.2,0.9,0.3,1.4,0.4c0,1.6-0.3,3.2-0.6,4.7
						l-0.9,6.1c-0.1,0.9-0.3,1.8-0.4,2.8c-0.2,1.3-0.2,2.4,0,3.7c0.4,2.1,3.7,2.5,4.7,0.6c1.4-2.7,1.4-6.1,1.9-9.1
						c0.4-3,1.1-6,1.2-9c0.7-0.2,1.4-0.6,2.1-1c3.4-2.2,5.4-6.5,5.4-10.4C313.9,78.3,311.3,73.7,307,74.3 M308.1,82.9
						c-0.3,1.7-1.2,3.8-2.8,4.7c-0.1,0.1-0.3,0.1-0.4,0.2c-0.5-0.6-1.1-1.2-1.9-1.6c-0.2-0.1-0.4-0.2-0.6-0.2c0.3-0.8,0.7-1.5,1-2.3
						c0.6-1.5,1.3-3.2,1.7-4.8c0.7,0.1,1.2,0.2,1.9,0.6C308.2,80.1,308.3,81.5,308.1,82.9 M334.3,95.2c-0.1-1.2-0.7-2.3-2-2.6
						c-1.3-0.3-2.3,0.2-3.1,1.3c0.3-0.4,0.2-0.3-0.3,0.4c-0.1,0.1-0.1,0.2-0.1,0.2l-0.4,0.4l-1.4,1.4l-3,3c-0.3,0.3-0.7,0.7-1.1,1
						c0,0-0.5,0.3-0.5,0.4c-0.1,0.1-0.2,0.1-0.3,0.2H322c0,0,0-0.1-0.1-0.2c0-0.1,0-0.1-0.1-0.2v-1.8c0.2-1.3,0.4-2.5,0.8-3.8
						c0.3-1.2,0.7-2.5,1.1-3.7c0.5-1.3,1.1-2.9,0.5-4.2c-0.4-1-1.2-1.6-2.4-1.3c-1.4,0.3-2.5,1.7-3.1,3s-1.1,2.5-1.5,3.8
						c-0.8,2.4-1.6,5.2-1.4,7.7c0.1,1.3,0.5,2.5,1.1,3.5c-1.3,2.2-2.5,4.5-4,6.7c-0.4,0.6-0.8,1.2-1.2,1.7c-0.2,0.3-0.4,0.6-0.7,0.9
						c-0.1,0.1-0.2,0.3-0.3,0.4l-0.1,0.1c-0.5,0.6-0.9,1.2-1.4,1.7c-0.7,0.8-1.5,1.5-1.7,2.6c-0.5,2,1.4,4.4,3.6,3.6
						c1.1-0.4,1.7-1,2.5-1.9c0.6-0.7,1.2-1.5,1.8-2.2c0.9-1.2,1.8-2.5,2.7-3.8c1.4-2.2,2.8-4.5,3.8-7c2.6,0,4.8-1.8,6.5-3.6
						c1.1-1.1,2.1-2.2,3.2-3.3C332.8,98.6,334.5,97.2,334.3,95.2 M157.6,141.6c-0.3-3.6-1.5-6.8-3.8-9.6c-1.9-2.4-4.5-4.3-7.3-5.5
						c-3.2-1.4-6.9-2.3-10.3-1.3c-1.8,0.6-3.5,1.8-4.4,3.6c-0.9,1.8-0.6,3.5,0.5,5.1l0.3,0.3v0.2c0.3,2.3,2.2,4.1,3.7,5.7
						c1.6,1.7,3.2,3.3,4.8,4.9s3.2,3.1,4.9,4.5c1.8,1.6,3.6,3.4,5.6,4.6c1.5,0.9,3.5,0.2,4.2-1.4c0.4-0.8,0.3-1.7-0.1-2.5
						c0.7-1,1.1-2.3,1.4-3.5C157.5,145.1,157.7,143.3,157.6,141.6 M145.1,140.7c-1.6-1.5-3.2-3-4.7-4.5s-3.1-3.3-5.2-3.9
						c-0.1,0-0.1-0.1-0.2-0.1h-0.1l0.1-0.1c0.4-0.5,0.8-0.9,1.3-1.2c1-0.5,2.4-0.7,3.6-0.5c2.7,0.4,5.5,1.6,7.4,3.3
						c2.2,1.8,3.7,3.9,4.3,6.8c0.2,1.2,0.3,2.9,0.1,4c-0.1,0.5-0.3,1.1-0.5,1.7c-0.4-0.3-0.8-0.7-1.2-1
						C148.4,143.7,146.8,142.2,145.1,140.7 M166.8,113.8c-2.5-4.6-6.9-10-12.3-11.2c-3.4-0.7-7.3,0.3-9.2,3.4
						c-0.8,1.4-1.2,3.2-0.8,4.8c0.2,0.9,0.8,1.8,1.6,2.3c0.3,2.2,1.1,4.3,2.1,6.5c1.2,2.6,2.6,5.1,4.3,7.3c3.3,4.4,10.1,9.1,15,4
						C172.1,126.3,169.5,118.7,166.8,113.8 M163.9,125.9c-0.1,0.2-0.4,0.7-0.5,0.9l-0.4,0.4c-1.3,0.6-3.2-0.8-4.2-1.7
						c-1.5-1.3-2.7-3-3.8-4.6c-1.4-2.1-2.6-4.3-3.7-6.5c-0.3-0.6-0.7-1.7-1.3-2.8c0.1-0.5,0.1-1,0.2-1.5c0,0,0.2-0.6,0.2-0.7
						c0.1-0.2,0.1-0.2,0.3-0.5c0.9-0.7,2.5-0.6,3.7,0.1c3.5,1.8,6.1,5.5,7.8,8.9c0.8,1.7,1.6,3.6,1.8,5.5
						C164.1,124.2,164.1,125.3,163.9,125.9 M185.8,108c-0.5-5.5-2.8-10.5-5.5-15.3c-1.4-2.4-2.8-4.7-4.2-7.1c-0.8-1.3-1.6-2.6-2.4-4
						c-0.8-1.4-1.6-3-3.4-3.4c-1.3-0.2-2.4,0.3-2.9,1.6c-0.5,1.7,0.3,3,1.2,4.4c0.7,1.2,1.5,2.5,2.2,3.7c1.3,2.2,2.7,4.4,4,6.7
						c1.1,2,2.2,4,3.1,6.1l-4.5-3.3c-1.8-1.3-3.6-2.6-5.3-3.9c-1.8-1.3-3.7-2.5-6-2.8c-0.3,0-0.6,0.1-0.9,0.2
						c-0.7,0-1.4,0.5-1.3,1.3c0.1,1,0.1,1.9,0.5,2.8c0.4,1,0.8,2,1.3,3c1,1.8,2.1,3.6,3.2,5.3c2.1,3.6,4.4,7,6.6,10.5
						c1.1,1.7,2.6,4.8,5.2,4.1c2.6-0.7,1.8-3.8,0.8-5.4c-1.8-3.1-3.8-6.1-5.7-9c3.1,2.4,6.3,4.7,9.5,7
						C183.1,111.8,186,110.2,185.8,108 M185.3,76.8c-0.1-1.1-0.2-2.3-0.3-3.4c-0.1-1.3-0.3-2.6-0.6-3.9c-0.1-0.5-0.2-0.9-0.4-1.3
						c0.1,0.2,0,0.2-0.1-0.1l-0.2-0.5c-0.5-0.9-1.9-1.5-2.8-1c-0.4,0.2-0.8,0.6-1.1,1c-0.1,0.2-0.2,0.4-0.2,0.7c0,0.2,0,0.2,0.1-0.1
						c-0.2,0.3-0.3,0.5-0.3,0.8c-0.1,0.3-0.1,0.5-0.1,0.8v0.9c-0.1,1.1,0,2.2,0,3.3s0.1,2.2,0.2,3.3c0.1,1.6,0.1,3.3,1.3,4.6
						c1.3,1.3,3.2,0.8,4.2-0.5C185.7,80,185.4,78.2,185.3,76.8 M208.7,91.7c-0.3-1.3-1-2.6-1.5-3.9c-0.5-1.2-1-2.4-1.6-3.6l-3-6.9
						c-1-2.3-2-4.6-2.9-6.9c-0.5-1.1-0.9-2.2-1.5-3.3c0.9-0.5,1.8-1,2.8-1.4c0.2-0.1,0.3-0.1,0.5-0.2c0.3-0.1,0.6-0.3,1-0.4
						c0.3-0.1,0.6-0.2,1-0.3c0.9-0.4,1.6-0.8,2.2-1.7c0.5-0.8,0.5-1.8,0.2-2.7c-0.4-0.9-1-1.4-1.9-1.7c-1.1-0.4-2.2,0-3.2,0.4
						c-0.9,0.3-1.7,0.7-2.5,1.1c-1.3,0.6-2.6,1.3-3.9,2.1c-1.4,0.9-2.7,1.9-3.9,2.9c-0.5,0.5-1.1,1-1.5,1.5
						c-0.3,0.3-0.5,0.6-0.8,0.8c-0.2,0.2-0.4,0.5-0.6,0.8c-0.3,0.7-0.4,0.9-0.2,0.5c0.1-0.2,0.1-0.2,0,0.1c-0.5,1-0.5,2.3,0.4,3.2
						c0.9,0.8,2.1,1,3.2,0.4c0.8-0.4,1.4-0.9,2-1.5c0.1-0.1,0.3-0.2,0.4-0.4l0.1-0.1l0.1-0.1c0.3,0.8,0.6,1.6,0.9,2.3
						c0.9,2.3,1.8,4.7,2.7,7s1.8,4.7,2.8,7c0.5,1.2,1,2.4,1.5,3.7c0.5,1.2,1,2.7,1.7,3.8C205,97,209.4,95.2,208.7,91.7"/>
					<path class="st7" d="M239.4,329.5c-1.4-0.2-2.9-0.3-4.4-0.3c0.1-0.7,0.1-1.5,0.2-2.2c0.1-1,0.2-2,0.3-3.1
						c0.1-1.3,0.2-2.7,0.3-4c-2-0.1-3.9-0.3-5.8-0.5c-0.2,3.2-0.4,6.4-0.9,9.5h-2.8c-1.6,0.1-3.6,0.1-4.7,1.3
						c-0.5,0.6-0.8,1.7-0.3,2.4c1.1,1.4,2.6,1.6,4.2,1.9c1.5,0.3,3.1,0.3,4.7,0.5c1.4,0.1,2.8,0.1,4.2,0.2c1.4,0.1,2.9,0.3,4.2,0.2
						c1.2-0.1,2.5-0.8,2.8-2.2c0.1-0.6,0.1-1,0-1.6C241.3,330.7,240.3,329.7,239.4,329.5 M264.1,319.4c0.2,0.5,0.5,1,0.7,1.5
						c1,2.3,4.3,1.3,4.9-0.6c0.2-0.5,0.4-1.1,0.5-1.6C268.2,319,266.2,319.3,264.1,319.4 M259.8,319.7c-2,0.1-3.9,0.1-5.8,0.2v6.1
						c0,2.5-0.4,5.7,0.8,7.9c0.9,1.7,3.7,1.7,4.6,0c1.2-2.3,0.7-5.6,0.7-8.2C259.9,323.7,259.9,321.7,259.8,319.7 M280,316.8
						c0-0.1-0.1-0.3-0.1-0.4c-1.8,0.6-3.7,1.2-5.6,1.6v0.2c0.5,2.5,0.9,5.1,1.2,7.6c0.4,2.7,0.2,6.1,2.6,7.9c0.7,0.5,2,0.3,2.6-0.3
						c2-2.2,1-5.7,0.6-8.3C280.9,322.2,280.5,319.5,280,316.8 M162.3,349.6c-0.1,0-0.1,0-0.2-0.1l-1.5,3c-0.6,1.2-1.2,2.3-1.8,3.5
						c0,0-0.2,0.3-0.3,0.5c-0.1-0.7-0.2-1.6-0.2-1.8c0-1.2,0.3-2.3,0.5-3.5c0.2-0.9,0.4-1.8,0.6-2.8c-1.7-0.6-3.4-1.3-5.1-2
						l-0.4,1.5c-0.5,2.3-1.2,4.7-1.2,7.1s0.6,5.4,2.8,6.9c2.1,1.4,5,0.6,6.6-1.2c1.6-1.7,2.6-4,3.6-6c0.6-1.1,1.2-2.2,1.7-3.4
						C165.7,350.8,164,350.2,162.3,349.6 M173.5,353.5c-0.5,1.2-1.1,2.5-1.6,3.8c-0.9,2.4-2.9,6.3-1.4,8.7c0.5,0.8,1.4,1,2.3,0.6
						c1.4-0.7,2.1-2.5,2.7-3.9c0.6-1.4,1.1-2.8,1.7-4.2c0.5-1.1,0.9-2.1,1.4-3.2c0.3,0.1,0.6,0.3,0.9,0.4c0.6,0.2,1.2,0.3,1.7,0.4
						c0.6,0.1,1.3,0.2,1.9,0.3C180,355.6,176.7,354.6,173.5,353.5 M186,357.3c-0.7,3.3-1.5,6.6-2.4,9.8c-1,3.4,4.2,4.9,5.3,1.5
						c1-3.3,1.8-6.7,2.5-10C189.5,358.2,187.7,357.7,186,357.3 M212.1,367.6c-0.9,0.3-1.9,0.6-2.8,1c-1,0.4-1.9,1.1-2.9,1.4
						c-1.5,0.5-2.8,0-3.9-1.2c-1.8-2.1-2-5.2-1.6-8.2c-1.8-0.3-3.7-0.7-5.5-1.1c-0.1,0.6-0.1,1.2-0.2,1.9c-0.3,5,0.9,10.4,5.4,13.2
						c2.4,1.5,5.3,1.7,7.9,0.6c1.3-0.5,2.6-1.3,3.5-2.5c0.9-1.1,1.2-2.3,1.6-3.6C213.9,368.3,213,367.3,212.1,367.6 M233.7,367.2
						c-1.9,0.8-3.2,2.2-4.9,3.2c-1.2,0.7-2.6,0.1-3.4-1c-1.2-1.5-1.7-3.6-1.8-5.7c-1.8-0.1-3.7-0.3-5.5-0.5v0.2
						c0.4,4.7,1.6,10.1,6.4,12.2c2.6,1.2,5.4,0.9,7.7-0.8c2.2-1.6,3.7-4.1,3.2-6.9C235.3,367.1,234.3,366.9,233.7,367.2
						 M250.5,371.3c-0.5,0-0.9,0-1.4,0.1c0-1.4,0-2.8-0.1-4.2c0-1.1-0.1-2.2-0.1-3.2l-5.4,0.3v2.9c0,1.4,0.1,2.8,0.1,4.2v0.5
						l-2.4,0.3c-1.3,0.3-2.6,0.8-3.2,2c-0.1,0.2-0.2,0.6,0,0.8c1.5,2.1,4.7,1.8,7.1,1.7c1.2,0,2.3-0.1,3.5-0.2
						c1.6-0.1,3.7,0.1,4.5-1.6c0.3-0.7,0.5-1.5,0-2.2C252.5,371.8,251.6,371.3,250.5,371.3 M274.2,360c0,0.8,0.1,1.6,0.1,2.4
						c-0.3-0.7-0.7-1.5-1-2.2c-1.9,0.4-3.7,0.8-5.6,1.1c0.7,1.5,1.4,3,2.1,4.6c1.1,2.5,2.1,5.1,4.1,7.1c1.2,1.3,3.5,1.1,4.4-0.5
						c1.4-2.4,1.7-5,1.7-7.7c0-2-0.1-4.1-0.2-6.1C277.9,359.2,276,359.6,274.2,360 M263.7,363.5c0-0.5,0-0.9-0.1-1.4
						c-1.8,0.3-3.7,0.6-5.5,0.8c0,0.4,0,0.9,0.1,1.3c0.1,2.8-0.1,5.9,0.5,8.7c0.3,1.3,1.6,2.1,2.9,1.9c1.4-0.2,2.2-1.2,2.3-2.6
						c0.2-1.5,0-3-0.1-4.5C263.8,366.3,263.8,364.9,263.7,363.5 M305.7,358.4c-0.4-2.6-1-5.3-1.5-7.9c-6.6,2.8-13.3,5.1-20.1,7
						c0.3,2.7,0.7,5.3,1.2,8c0.3,1.6,0.7,3.5,1.6,4.9c0.5,0.8,1.8,2.2,2.8,1.4c1.9-1.5,1.3-4.6,1.1-6.7c-0.2-2.1-0.4-4.1-0.6-6.2
						c0.3-0.1,0.6-0.1,0.9-0.2c1.2-0.3,2.4-0.5,3.6-0.8s2.4-0.6,3.6-0.8c0.2-0.1,0.5-0.1,0.8-0.2c0.2,1,0.4,1.9,0.5,2.9
						c0.2,1.4,0.4,2.8,0.6,4.3c0.3,1.8,0.5,3.3,2.1,4.3c0.9,0.6,2.3,0.4,3-0.3c1.4-1.5,1.3-3.2,1-5.1
						C306.2,361.4,306,359.9,305.7,358.4 M315.9,353.1c-0.5-2.4-1-4.9-1.5-7.3c-1.8,0.9-3.6,1.8-5.5,2.6c0.4,2,0.8,3.9,1.2,5.9
						c0.3,1.4,0.6,2.7,0.9,4.1c0.4,1.6,0.7,3.2,2.2,4.1c1.1,0.7,2.6,0.3,3.3-0.8c0.9-1.4,0.6-3,0.2-4.5
						C316.5,355.9,316.2,354.5,315.9,353.1 M335.6,343c-1.1,1-1.2,2.9-1.7,4.2c-0.4,1.1-1,2.1-1.9,2.7c-0.4,0.3-1.1,0.7-1.6,0.7
						s-0.7-0.1-1.1-0.4c-1.1-0.9-1.6-2.3-2-3.6c-0.7-2-1.1-4-1.3-6c0.6-0.3,1.1-0.6,1.6-0.9s1.1-0.7,1.6-1c0.4-0.3,0.9-0.6,1.3-1
						c0.4-0.3,0.8-0.7,1-1.2c0.2-0.4,0.3-0.8,0.3-1.3c-3.6,2.6-7.4,5-11.3,7.2c0.4,2.6,1,5.1,2,7.6c1.4,3.3,4.2,6.6,8.1,6.4
						c4-0.2,7-3.1,8.5-6.6c0.7-1.7,0.9-3.8,0-5.5C338.4,343.1,336.9,341.8,335.6,343 M352.5,316.2c-1.3,1.6-2.7,3.2-4.2,4.7
						c0.9,3.2,1.4,6.6,0.9,9.9c-0.3,2-1,3.9-1.8,5.7c-0.3-0.8-0.5-1.6-0.8-2.4c-1-2.8-2-5.6-3.1-8.4c-1.5,1.4-3,2.8-4.6,4.1
						c0.6,1.8,1.2,3.7,1.9,5.5c0.5,1.5,1,2.9,1.5,4.4s0.8,3.2,1.8,4.5c0.7,1,1.8,1.6,3.1,1.3c1.1-0.3,1.9-1.2,2-2.3
						c0.1-0.1,0.2-0.1,0.3-0.2c3.6-3,5.1-7.9,5.6-12.3c0.6-4.9-0.4-9.8-2.4-14.3C352.6,316.4,352.6,316.3,352.5,316.2 M246.9,74
						c-0.5,1.4-1.1,2.8-2,4.1c0,0.1-0.4,0.5-0.7,0.9c-0.1-0.3-0.2-0.6-0.2-0.8c-0.2-1.5-0.3-3.1-0.4-4.7c-2.8-0.4-5.5-0.7-8.3-0.8
						c-0.3,1.1-0.6,2.2-1,3.3l-1.2,3c-0.1,0.2-0.2,0.3-0.2,0.5c-0.1-0.8-0.1-1.6-0.2-2.4c-0.1-1.5-0.2-3-0.2-4.4
						c-1.9,0-3.8,0-5.6,0.1c0,2.8,0.1,5.6,0.4,8.3c0.3,2.8,1.8,5.6,5,5.6c2.8,0.1,4.9-2.4,6-4.7l0.6-1.2c0.2,0.6,0.4,1.2,0.7,1.7
						c1.4,2.5,4.6,3.7,7.2,2.2c2.1-1.3,3.5-3.8,4.5-6c0.5-1.1,0.9-2.3,1.3-3.4C250.6,74.7,248.7,74.3,246.9,74 M263.9,78
						c-0.5,0.9-1.1,1.8-1.7,2.6c-0.4,0.5-1,1.4-1.7,1.4c0,0,0,0.4-0.1-0.1c-0.1-0.3-0.2-0.6-0.2-0.9c-0.1-1.3,0-2.6,0.2-4
						c-1.9-0.5-3.7-1-5.6-1.4c0,0.2-0.1,0.3-0.1,0.5c-0.3,2.3-0.7,4.8,0,7.1c0.7,2.6,2.8,4.5,5.5,4.7c2.7,0.1,4.9-1.4,6.5-3.4
						c1.1-1.4,2.1-3,3-4.6C267.7,79.2,265.8,78.6,263.9,78 M286.1,85.8c-3.2-1.3-6.4-2.5-9.5-3.6c-1.3-0.5-2.5-0.9-3.8-1.3
						c-1.1,2.4-2.2,4.9-3.2,7.3c-0.6,1.4-0.4,3.1,1,3.9c1.2,0.7,3.3,0.4,3.9-1c1.2-2.6,2.3-5.2,3.5-7.8c0.3,0.1,0.6,0.2,1,0.2
						c1,0.1,1.4,1.9,1.5,2.6c0.3,2,0.2,4,0.3,6c0.1,2.2,0.2,4.4,1.4,6.3c1,1.6,2.5,1.4,3.3-0.2c1-1.9,1-4,0.9-6.1
						S286.3,87.9,286.1,85.8 M294.5,89.5c-0.9,1.9-1.8,3.8-2.8,5.6c-1.2,2.3-3.2,5.1-3.1,7.8c0.1,1.8,2.1,3.2,3.7,2.1
						c2.3-1.5,3.3-4.5,4.5-6.9c0.8-1.6,1.5-3.3,2.3-4.9c0.5,0.2,0.9,0.3,1.4,0.4c0,1.6-0.3,3.2-0.6,4.7l-0.9,6.1
						c-0.1,0.9-0.3,1.8-0.4,2.8c-0.2,1.3-0.2,2.4,0,3.7c0.4,2.1,3.7,2.5,4.7,0.6c1.4-2.7,1.4-6.1,1.9-9.1c0.3-2,0.7-4.2,1-6.2
						C302.5,93.7,298.5,91.5,294.5,89.5 M316.4,104.8c-1.1,1.9-2.2,3.9-3.4,5.8c-0.4,0.6-0.8,1.2-1.2,1.7c-0.2,0.3-0.4,0.6-0.7,0.9
						c-0.1,0.1-0.2,0.3-0.3,0.4l-0.1,0.1c-0.5,0.6-0.9,1.2-1.4,1.7c-0.7,0.8-1.5,1.5-1.7,2.6c-0.5,2,1.4,4.4,3.6,3.6
						c1.1-0.4,1.7-1,2.5-1.9c0.6-0.7,1.2-1.5,1.8-2.2c0.9-1.2,1.8-2.5,2.7-3.8c0.8-1.3,1.6-2.6,2.3-3.9
						C319.2,108,317.8,106.4,316.4,104.8 M153.8,132c-0.8-1-1.7-1.9-2.7-2.7c-1,1.6-2,3.3-3,4.9c1.8,1.7,3.1,3.7,3.6,6.2
						c0.2,1.2,0.3,2.9,0.1,4c-0.1,0.5-0.3,1.1-0.5,1.7c-0.4-0.3-0.8-0.7-1.2-1c-1.7-1.5-3.3-3-5-4.5c-0.2-0.2-0.5-0.4-0.7-0.7
						c-1.1,1.7-2.2,3.3-3.3,4.9c1.6,1.6,3.2,3.1,4.9,4.5c1.8,1.6,3.6,3.4,5.6,4.6c1.5,0.9,3.5,0.2,4.2-1.4c0.4-0.8,0.3-1.7-0.1-2.5
						c0.7-1,1.1-2.3,1.4-3.5c0.4-1.7,0.6-3.4,0.4-5.1C157.3,138,156,134.8,153.8,132 M164.2,109.7c-1.3,1.7-2.5,3.4-3.7,5.1
						c0.7,1,1.2,2,1.7,3.1c0.8,1.7,1.6,3.6,1.8,5.5c0.1,0.8,0.1,1.8-0.1,2.5c-0.1,0.2-0.4,0.7-0.5,0.9l-0.4,0.4
						c-1.3,0.6-3.2-0.8-4.2-1.7c-1.2-1-2.1-2.3-3-3.5c-1.1,1.7-2.1,3.3-3.1,5c3.3,4.3,10,9,15,4c4.6-4.6,1.9-12.2-0.7-17.1
						C166.1,112.5,165.2,111.1,164.2,109.7 M180.1,92.5c-1.5,1.3-2.9,2.6-4.3,4c0.8,1.4,1.5,2.9,2.2,4.4c-1.3-0.9-2.5-1.8-3.8-2.7
						c-2.6,2.7-5.1,5.5-7.4,8.3c1.6,2.5,3.1,5,4.7,7.6c1.1,1.7,2.6,4.8,5.2,4.1c2.6-0.7,1.8-3.8,0.8-5.4c-1.8-3.1-3.8-6.1-5.7-9
						c3.1,2.4,6.3,4.7,9.5,7c1.7,1.2,4.7-0.4,4.4-2.5c-0.5-5.5-2.8-10.5-5.5-15.3C180.2,92.6,180.2,92.6,180.1,92.5 M207.2,87.8
						c-0.5-1.2-1-2.4-1.6-3.6c-0.9-2.1-1.8-4.1-2.7-6.2c-1.9,0.8-3.8,1.7-5.6,2.6c0.8,2,1.6,4,2.4,6.1c0.5,1.2,1,2.4,1.5,3.7
						c0.5,1.2,1,2.7,1.7,3.8c2,2.9,6.4,1.1,5.7-2.4C208.4,90.3,207.7,89,207.2,87.8"/>
				</g>
			</g>
		</g>
	</g>
</g>
</svg>
