<?xml version="1.0" encoding="utf-8"?>
<!-- Generator: Adobe Illustrator 21.0.0, SVG Export Plug-In . SVG Version: 6.00 Build 0)  -->
<svg version="1.1" id="Layer_1" xmlns="http://www.w3.org/2000/svg" xmlns:xlink="http://www.w3.org/1999/xlink" x="0px" y="0px"
	 viewBox="0 0 135.1 78" style="enable-background:new 0 0 135.1 78;" xml:space="preserve">
<style type="text/css">
	.st0{display:none;}
	.st1{display:inline;fill:#0b53a1;}
	.st2{fill:#0b53a1;}
</style>
<g class="st0">
	<path class="st1" d="M16.7,59.2c0,1.2,0,2.4-0.2,3.5c-0.2,1.1-0.4,2.2-0.7,3.1c-0.3,0.9-0.7,1.7-1.1,2.5c-0.3,0.7-0.7,1.3-1.1,1.9
		c2.6,1.7,5.6,2.9,8.8,3.8c3.6,1,7.4,1.4,11.2,1.4c3.9,0,7.8-0.5,11.4-1.4c3.3-0.9,6.3-2.2,8.8-3.8c-0.4-0.7-0.8-1.4-1.1-2.1
		c-0.4-0.8-0.7-1.7-1-2.5c-0.3-1-0.6-2-0.8-3c-0.2-1-0.4-2.1-0.5-3.1c0-0.1,0-0.1,0-0.2c0-0.1,0-0.1,0-0.1
		c-0.2-3.4,0.4-6.8,1.3-10.1c0.9-3.3,2.2-6.6,3.5-9.9l0,0c1.6-4.2,3.3-8.5,4.4-13.2c0.1-0.3,0.3-0.6,0.6-0.8c0.3-0.2,0.6-0.2,1-0.2
		c0.3,0.1,0.6,0.3,0.8,0.6c0.2,0.3,0.2,0.6,0.2,1c-1.1,4.9-2.9,9.3-4.5,13.6l0,0c-1.1,2.9-2.2,5.6-3,8.4c-0.7,2.2-1.2,4.5-1.4,6.7
		c1.6-2.4,3.1-4.9,4.4-7.4c1.5-3,2.9-6,4-9.1c1.2-3.5,2.1-7.2,2.6-10.9c0.5-3.8,0.7-7.7,0.4-11.8c-0.5-3.2-1.5-4.9-2.8-5.7
		c-1.3-0.9-3-1-4.9-1.2c-1-0.1-2-0.2-3.1-0.3c-1.1-0.2-2.2-0.4-3.3-0.9c-0.6-0.2-1.2-0.5-1.8-0.8c-0.6-0.3-1.1-0.6-1.6-1
		c-0.5-0.3-0.9-0.7-1.4-1.1l0,0c-0.4-0.3-0.8-0.7-1.1-1.1c-1.8-0.4-3.5-0.7-5.3-0.9c-1.8-0.2-3.6-0.3-5.3-0.3
		c-1.8,0-3.5,0.1-5.3,0.3c-1.7,0.2-3.4,0.5-5.1,0.9c-0.5,0.5-1.1,1-1.8,1.5c-0.7,0.5-1.4,0.9-2.1,1.4c-0.8,0.4-1.6,0.8-2.5,1.1
		c-0.9,0.3-1.8,0.6-2.8,0.9c-1,0.2-1.9,0.4-2.8,0.5c-0.9,0.1-1.6,0.2-2.3,0.2c-1.8,0.2-3.2,0.3-4.2,1.2c-1,1-1.8,2.9-2.3,6.7
		C2.6,21.5,3,25.3,3.7,29c0.7,3.7,1.6,7.2,2.8,10.5c1.1,2.9,2.3,5.8,3.7,8.5c1.2,2.2,2.4,4.4,3.8,6.5c-0.5-5-2.3-9.8-4.3-14.9v0
		c-1.6-4.1-3.2-8.5-4.3-13.2l0,0c-0.1-0.3,0-0.7,0.2-0.9c0.2-0.3,0.5-0.5,0.8-0.6h0c0.3-0.1,0.7,0,0.9,0.2c0.3,0.2,0.5,0.5,0.6,0.8
		v0c1.1,4.6,2.7,8.9,4.2,12.9c1.3,3.4,2.5,6.7,3.4,10c0.9,3.3,1.4,6.7,1.2,10.2v0C16.7,59,16.7,59.1,16.7,59.2L16.7,59.2L16.7,59.2z
		 M34.8,9.2l2,3.8l5.5-6.1l-4.5,11.6l-2-3.4l-5.4,6.4L34.8,9.2L34.8,9.2L34.8,9.2z M44.1,19.5l-0.3,4.6l8.6-2.9l-10.5,8.6l-0.1-4.3
		l-8.4,3.3L44.1,19.5L44.1,19.5L44.1,19.5z M13.4,65c0.3-0.9,0.5-1.8,0.6-2.8c0.1-1,0.2-2,0.2-3.1c-2-2.9-3.9-5.8-5.6-8.9
		c-1.7-3.1-3.2-6.4-4.4-9.9C3,36.9,2,33.3,1.2,29.5c-0.7-3.8-1.1-7.8-1.2-12c0-0.1,0-0.1,0-0.2l0,0c0-0.1,0-0.1,0-0.2
		c0.7-4.7,1.7-7.2,3.1-8.5c1.5-1.4,3.3-1.5,5.7-1.7h0c1.4-0.1,2.9-0.3,4.7-0.7c0.9-0.2,1.7-0.5,2.5-0.8c0.8-0.3,1.5-0.6,2.2-1
		c0.7-0.4,1.3-0.8,1.9-1.2c0.6-0.4,1.1-0.9,1.6-1.4l0,0c0.1-0.1,0.2-0.1,0.2-0.2l0,0c0.1-0.1,0.2-0.1,0.3-0.1l0,0
		C24.2,1,26.1,0.6,28,0.4C29.8,0.1,31.7,0,33.6,0c1.9,0,3.8,0.1,5.7,0.4c1.9,0.2,3.8,0.6,5.8,1.1c0.1,0,0.3,0.1,0.4,0.1l0,0
		c0.1,0.1,0.2,0.1,0.3,0.2c0.4,0.4,0.7,0.8,1.1,1.1c0.4,0.3,0.8,0.7,1.3,1c0.4,0.3,0.9,0.6,1.4,0.8c0.5,0.3,1,0.5,1.5,0.7
		C52.1,5.8,53,6,54,6.1c0.9,0.1,1.9,0.2,2.8,0.3c2.4,0.2,4.5,0.3,6.3,1.5c1.8,1.2,3.1,3.3,3.8,7.5l0,0.1l0,0.1
		c0.3,4.3,0.1,8.3-0.4,12.3c-0.5,3.9-1.5,7.8-2.8,11.4c-1.3,3.6-2.8,7.1-4.7,10.5c-1.8,3.3-3.9,6.6-6.2,9.8c0.1,0.9,0.2,1.7,0.4,2.5
		c0.2,0.9,0.4,1.7,0.7,2.6c0.3,0.9,0.7,1.8,1.1,2.6c0.4,0.9,0.9,1.7,1.4,2.5l0,0c0.2,0.3,0.2,0.6,0.2,0.9c-0.1,0.3-0.2,0.6-0.5,0.8
		c-2.8,2.1-6.2,3.7-10,4.7c-3.9,1.1-8.2,1.7-12.6,1.7c-4.2,0-8.5-0.5-12.4-1.7c-3.7-1.1-7.1-2.6-10-4.7L11,71.6
		c-0.3-0.2-0.4-0.5-0.5-0.8c0-0.3,0-0.7,0.3-0.9c0.6-0.7,1.1-1.5,1.5-2.2S13.1,65.9,13.4,65L13.4,65L13.4,65z M23.9,23.5
		c0-0.3,0.2-0.7,0.4-0.9c0.2-0.2,0.6-0.3,0.9-0.3c0.3,0,0.7,0.2,0.9,0.4c0.2,0.2,0.4,0.6,0.3,0.9c0,1.3-0.2,2.6-0.4,3.8
		c-0.2,1.2-0.6,2.3-1,3.4c-0.4,1.1-1,2-1.6,3c-0.6,0.9-1.4,1.8-2.2,2.5c-0.3,0.2-0.6,0.3-0.9,0.3c-0.3,0-0.6-0.1-0.9-0.4
		c-0.2-0.3-0.3-0.6-0.3-0.9v0c0-0.3,0.2-0.6,0.4-0.9c0.7-0.6,1.3-1.3,1.8-2.1c0.5-0.8,1-1.6,1.3-2.5c0.4-0.9,0.7-1.9,0.9-2.9
		C23.8,25.8,23.9,24.7,23.9,23.5L23.9,23.5L23.9,23.5z"/>
</g>
<g class="st0">
	<path class="st1" d="M15.9,22.4L17,25l0,0.1l-0.1,0l-4.1,2.2l-0.1,0l0-0.1l-1.4-2.2c-0.3,0.1-0.6,0.2-1,0.3
		c-0.5,0.2-1.1,0.4-1.8,0.6c-0.8,0.3-1.6,0.6-2.2,0.9c-0.4,0.2-0.8,0.4-1.1,0.6c0.7,1.6,1.5,3.1,2.4,4.6c1,1.6,2.1,3.1,3.3,4.4
		c1,1.1,2,2,2.9,2.8c0.9,0.7,1.8,1.3,2.6,1.9c5.3,3.4,7,6.1,8.8,9.2c1.2,1.9,2.4,4,4.8,6.4c2.1,2.2,4.3,3.8,6.6,5
		c2.3,1.1,4.8,1.8,7.4,1.9c3.9,0.3,9.1-0.3,14-0.8c2.3-0.2,4.5-0.5,6.6-0.6l0,0c-0.1-0.7-0.3-1.3-0.5-1.8c-0.2-0.5-0.4-0.9-0.7-1.2
		c-1.3-1.4-3.5-1.3-5.7-1.2c-1.7,0.1-3.4,0.1-5-0.3c-3-0.9-5.3-3.2-6.9-6.2c-1.1,0.8-2.2,1.4-3.3,1.7c-1.3,0.3-2.6,0.1-3.9-0.6
		c-0.8-0.4-1-1.4-0.6-2.1c0.4-0.8,1.4-1,2.1-0.6c0.5,0.3,1.1,0.4,1.6,0.3c0.7-0.2,1.5-0.6,2.3-1.3c0.1-0.1,0.2-0.2,0.3-0.2
		c-0.2-0.5-0.3-0.9-0.5-1.4c-0.9,0.6-1.9,1.1-2.8,1.3c-1.3,0.3-2.6,0.1-3.9-0.6c-0.8-0.4-1-1.4-0.6-2.1c0.4-0.8,1.4-1,2.1-0.6
		c0.5,0.3,1.1,0.4,1.6,0.3c0.7-0.2,1.5-0.6,2.3-1.3c0.1-0.1,0.2-0.1,0.3-0.2c-0.2-0.7-0.3-1.5-0.4-2.2c-0.9,0.6-1.9,1.1-2.8,1.3
		c-1.3,0.3-2.6,0.1-3.9-0.6c-0.8-0.4-1-1.4-0.6-2.1c0.4-0.8,1.4-1,2.1-0.6c0.5,0.3,1.1,0.4,1.6,0.3c0.7-0.2,1.5-0.6,2.3-1.3
		c0.2-0.2,0.5-0.3,0.7-0.3c-0.1-0.8-0.1-1.5-0.2-2.3l0,0l0-0.5c-0.1-1.7-0.2-2.8-0.8-3.4c-1.1-1.1-2.9-0.8-4.6-0.6
		c-0.8,0.1-1.5,0.2-2.3,0.2c-2.6,0-4.9-0.5-6.9-1.8c-2-1.3-3.5-3.4-4.6-6.4c-0.9-1.9-1.8-2.9-2.8-3c-1-0.2-2.3,0.4-3.8,1.6l0,0
		L15.9,22.4L15.9,22.4z M14.9,20.6c2-1.5,3.7-2.3,5.3-2L33.1,0.8c0.3-0.5,1-0.6,1.4-0.2c0.5,0.3,0.6,1,0.2,1.4L22.1,19.4
		c0.9,0.7,1.8,1.8,2.5,3.4c0,0,0,0.1,0,0.1c0.9,2.6,2.3,4.4,3.9,5.5c1.6,1.1,3.5,1.5,5.7,1.5c0.6,0,1.3-0.1,2.1-0.2
		c1.2-0.2,2.5-0.3,3.6-0.1L62.1,4.2c0.4-0.4,1-0.5,1.4-0.1c0.4,0.4,0.5,1,0.1,1.4L42,30.3c0.2,0.2,0.4,0.3,0.6,0.5
		c1.2,1.1,1.3,2.6,1.5,4.7c0,0.1,0,0.2,0,0.5c0,0,0,0.1,0,0.1c0.2,4.1,1,9.3,3.1,13.5c1.4,3,3.5,5.3,6.2,6.1
		c1.3,0.4,2.8,0.3,4.3,0.3c2.7-0.1,5.4-0.2,7.3,1.9c0.5,0.5,0.8,1.1,1.1,1.8c0.3,0.7,0.4,1.4,0.6,2.2c0,0.3,0.1,0.6,0.1,0.8
		c0.1,0.1,0.1,0.3,0.1,0.4c0,0.2,0,0.3-0.1,0.4c0,1.1-0.2,2.3-0.6,3.3c-0.6,1.3-1.6,2.5-3.2,3.1c-1.3,0.5-3.8,0.9-6.5,1.1
		c-3.7,0.4-7.9,0.5-9.8,0.5c-6.5-0.2-11.3-1.3-15.3-3.5c-4-2.2-7.2-5.5-10.5-9.9c-3.9-5.3-4.8-6-8-8.4c-0.7-0.6-1.6-1.2-2.5-1.9
		C7.7,45.8,5,43.3,3,40.6c-1.5-2-2.6-4.1-2.9-6.1c-0.4-2.2,0-4.2,1.4-6.1c0.5-0.7,1.2-1.3,2-1.9c0.6-0.4,1.3-0.8,2.1-1.2
		c0.8-0.4,1.6-0.7,2.4-1c0.8-0.3,1.4-0.5,1.9-0.7c1.3-0.4,2-0.7,2.9-1.3c0.3-0.2,0.6-0.4,0.9-0.7C14,21.3,14.4,21,14.9,20.6
		C14.9,20.6,14.9,20.6,14.9,20.6L14.9,20.6z M3.7,28.9c-0.2,0.2-0.4,0.4-0.6,0.7C2,30.9,1.7,32.5,2,34.1c0.3,1.7,1.3,3.5,2.6,5.3
		c1.9,2.5,4.5,5,7.1,7c1,0.8,1.8,1.4,2.5,1.9c3.4,2.5,4.4,3.3,8.4,8.8c3.1,4.2,6.1,7.3,9.8,9.3c3.7,2,8.2,3.1,14.4,3.3
		c1.8,0,5.9-0.1,9.6-0.4c2.5-0.2,4.8-0.6,5.9-1c1-0.4,1.6-1.1,2-2c0.2-0.5,0.4-1.1,0.4-1.8c-2,0.1-4.2,0.4-6.5,0.6
		c-5,0.5-10.2,1-14.3,0.8c-2.9-0.2-5.6-0.9-8.2-2.2c-2.6-1.3-4.9-3-7.2-5.4c-2.5-2.6-3.8-4.7-5-6.8c-1.8-2.9-3.3-5.4-8.2-8.6
		c-0.9-0.6-1.8-1.2-2.8-2c-1-0.8-2-1.8-3.1-3c-1.3-1.4-2.5-3-3.5-4.7C5.1,31.9,4.4,30.4,3.7,28.9L3.7,28.9z"/>
</g>
<g class="st0">
	<path class="st1" d="M52.8,54.7v23.1h-2.9V53.5L46.3,52l-7.8,8.5h-2.2L28.6,52l-3.7,1.5v24.3H22V54.7l-5.5,2.2v20.9h-2.9V58.1
		l-4,1.6c-2.1,1.2-3.8,2.6-4.9,4.3c-1.2,1.7-1.8,3.6-2,5.8v8h-2.9v-8v-0.1c0.2-2.7,1-5.1,2.4-7.2c1.4-2.1,3.4-3.8,5.9-5.2
		c0,0,0.1-0.1,0.2-0.1l18.9-7.7V44c-0.2-0.2-0.4-0.3-0.5-0.5c-2.6-2.6-4.4-6.5-4.9-12.3l-0.9-1c-0.3-0.3-0.5-0.6-0.5-1v-2.2h2.9v1.7
		l1,1c0.3,0.3,0.4,0.5,0.4,0.8c0.4,5.4,1.9,8.8,4.1,11c2.2,2.1,5.1,3.2,8.5,3.7c3.6-0.6,6.4-2.1,8.5-4.5c2.2-2.5,3.5-6,3.9-10.3
		c0-0.3,0.1-0.5,0.3-0.7l0.9-1.1l0-1.8l2.9,0l0,2.2c0,0.3-0.1,0.7-0.3,0.9l-0.9,1.2c-0.5,4.6-2,8.5-4.5,11.4
		c-0.4,0.4-0.8,0.8-1.2,1.2v5.5l19.5,8c0.1,0,0.1,0,0.2,0.1c2.5,1.4,4.5,3.1,5.9,5.2c1.4,2.1,2.2,4.5,2.4,7.2v8.1H72v-8
		c-0.2-2.2-0.8-4.1-2-5.8c-1.2-1.7-2.8-3.1-4.9-4.3l-4-1.6v19.7h-2.9V56.9L52.8,54.7L52.8,54.7L52.8,54.7z M97.7,54.7v23.1h-2.9
		V53.5L91.1,52l-7.8,8.5h-2.2L73.4,52l-3.7,1.5V55c-1-0.9-2.2-1.9-3.5-3.1l5.9-2.4V44c-0.2-0.2-0.4-0.3-0.5-0.5
		c-2.6-2.6-4.4-6.5-4.9-12.3l-0.9-1c-0.3-0.3-0.5-0.6-0.5-1v-2.2h2.9v1.7l1,1c0.3,0.3,0.4,0.5,0.4,0.8c0.4,5.4,1.9,8.8,4.1,11
		c2.2,2.1,5.1,3.2,8.5,3.7c3.6-0.6,6.4-2.1,8.5-4.5c2.2-2.5,3.5-6,3.9-10.3c0-0.3,0.1-0.5,0.3-0.7l0.9-1.1l0-1.8l2.9,0l0,2.2
		c0,0.3-0.1,0.7-0.3,0.9l-0.9,1.2c-0.5,4.6-2,8.5-4.5,11.4c-0.4,0.4-0.8,0.8-1.2,1.2v5.5l19.5,8c0.1,0,0.1,0,0.2,0.1
		c2.5,1.4,4.5,3.1,5.9,5.2c1.4,2.1,2.2,4.5,2.4,7.2v8.1h-2.9v-8c-0.2-2.2-0.8-4.1-2-5.8c-1.2-1.7-2.8-3.1-4.9-4.3l-4-1.6v19.7h-2.9
		V56.9L97.7,54.7L97.7,54.7L97.7,54.7z M76.1,4.3c-0.2,0-0.3,0-0.5-0.1c-4.2,1.9-7.6,6-8.5,12.9c-0.1,0.8-0.8,1.3-1.6,1.2
		c-0.8-0.1-1.3-0.8-1.2-1.6c1.1-8,5.2-12.9,10.3-15.1c2.6-1.1,5.3-1.6,8.1-1.4c2.7,0.1,5.5,0.9,7.9,2.2c5.2,2.7,9.2,7.7,9.4,14.4
		c0,0.8-0.6,1.4-1.4,1.4c-0.8,0-1.5-0.6-1.5-1.3c-0.2-5.6-3.6-9.8-7.9-12.1c-0.2-0.1-0.4-0.2-0.6-0.3c-0.1,0-0.3,0.1-0.5,0.1
		c-1.3,0-1.6,2.3-1.7,5.4c0,1.4,0,2.9,0,4.5c0,1.2,0,2.5,0,3.4c0,0.8-0.7,1.4-1.4,1.4c-0.8,0-1.4-0.6-1.4-1.4c0-1.4,0-2.4,0-3.3
		c0-1.6,0-3.2,0-4.6c0.1-2.8,0.4-5.2,1.4-6.7c-0.8-0.2-1.7-0.3-2.5-0.4c-1.1,0-2.1,0-3.2,0.1c0.9,1.5,1.3,3.8,1.3,6.6
		c0,1.5,0,3.1,0,4.8c0,1,0,2,0,3.4c0,0.8-0.6,1.4-1.4,1.4c-0.8,0-1.4-0.6-1.4-1.4c0-0.9,0-2.2,0-3.5c0-1.6,0-3.2,0-4.7
		C77.7,6.6,77.3,4.2,76.1,4.3L76.1,4.3L76.1,4.3z M75.1,45.9v3.7l7.2,7.8l6.5-7.1v-4.5c-1.8,1.1-4,1.8-6.4,2.1c-0.1,0-0.3,0-0.5,0
		C79.5,47.6,77.1,47,75.1,45.9L75.1,45.9L75.1,45.9z M64.4,18.6c0.4,0.8,1.1,1.5,2.1,2.1c3.2,2,8.8,3,14.6,3
		c5.8,0,11.8-0.9,15.6-2.7c1.5-0.7,2.6-1.6,3.2-2.5l2.5,1.4c-0.9,1.4-2.4,2.6-4.4,3.5c-4.2,2-10.7,3-16.9,3
		c-6.3,0-12.5-1.1-16.2-3.4c-1.4-0.9-2.5-2-3.1-3.3L64.4,18.6L64.4,18.6L64.4,18.6z M80.3,63.8h3.5v3.4h-3.5V63.8L80.3,63.8z
		 M80.3,72.4h3.5v3.4h-3.5V72.4L80.3,72.4z M31.2,4.3c-0.2,0-0.3,0-0.5-0.1c-4.2,1.9-7.6,6-8.5,12.9c-0.1,0.8-0.8,1.3-1.6,1.2
		c-0.8-0.1-1.3-0.8-1.2-1.6c1.1-8,5.2-12.9,10.3-15.1c2.6-1.1,5.3-1.6,8.1-1.4c2.7,0.1,5.5,0.9,7.9,2.2c5.2,2.7,9.2,7.7,9.4,14.4
		c0,0.8-0.6,1.4-1.4,1.4c-0.8,0-1.5-0.6-1.5-1.3c-0.3-5.6-3.6-9.8-7.9-12.1c-0.2-0.1-0.4-0.2-0.6-0.3c-0.1,0-0.3,0.1-0.5,0.1
		c-1.3,0-1.6,2.3-1.7,5.4c0,1.4,0,2.9,0,4.5c0,1.2,0,2.5,0,3.4c0,0.8-0.7,1.4-1.4,1.4c-0.8,0-1.4-0.6-1.4-1.4c0-1.4,0-2.4,0-3.3
		c0-1.6,0-3.2,0-4.6c0.1-2.8,0.4-5.2,1.4-6.7c-0.8-0.2-1.7-0.3-2.5-0.4c-1.1,0-2.1,0-3.2,0.1c0.9,1.5,1.3,3.8,1.3,6.6
		c0,1.5,0,3.1,0,4.8c0,1,0,2,0,3.4c0,0.8-0.6,1.4-1.4,1.4s-1.4-0.6-1.4-1.4c0-0.9,0-2.2,0-3.5c0-1.6,0-3.2,0-4.7
		C32.8,6.6,32.5,4.2,31.2,4.3L31.2,4.3L31.2,4.3z M30.2,45.9v3.7l7.2,7.8l6.5-7.1v-4.5c-1.8,1.1-4,1.8-6.4,2.1c-0.1,0-0.3,0-0.5,0
		C34.6,47.6,32.3,47,30.2,45.9L30.2,45.9L30.2,45.9z M19.5,18.6c0.4,0.8,1.1,1.5,2.1,2.1c3.2,2,8.8,3,14.6,3
		c5.8,0,11.8-0.9,15.6-2.7c1.5-0.7,2.6-1.6,3.2-2.5l2.5,1.4c-0.9,1.4-2.4,2.6-4.4,3.5c-4.2,2-10.7,3-16.9,3
		c-6.3,0-12.5-1.1-16.2-3.4c-1.4-0.9-2.5-2-3.1-3.3L19.5,18.6L19.5,18.6L19.5,18.6z M35.4,63.8h3.5v3.4h-3.5V63.8L35.4,63.8z
		 M35.4,72.4h3.5v3.4h-3.5V72.4L35.4,72.4z"/>
</g>
<g class="st0">
	<path class="st1" d="M71.1,56.7c0.4,0.2,0.7,0.7,0.5,1.2c-0.2,0.4-0.7,0.7-1.2,0.5c-2.9-1.3-4.9-3.9-6.2-7.4
		c-3.1-1.9-6.1-2.9-8.9-2.9c-2.6,0-5.2,0.8-7.6,2.4c1.4,1.2,2.6,2.7,3.4,4.5c0.2,0.4,0,1-0.4,1.2c-0.4,0.2-1,0-1.2-0.4
		c-1.3-2.7-3.3-4.6-5.8-5.8c-2.6-1.2-5.9-1.8-9.7-1.7c-0.5,0-0.9-0.4-0.9-0.9c0-0.5,0.4-0.9,0.9-0.9c4.1-0.1,7.6,0.5,10.5,1.8
		c0.6,0.3,1.2,0.6,1.7,1c2.8-2.1,5.9-3.1,9.1-3.1c2.6,0,5.3,0.8,8.1,2.2c-0.1-0.5-0.3-1-0.4-1.6c-0.9-4-1.2-8.9-1.2-14
		c0.6-0.4,1.2-0.8,1.8-1.2c0,5.5,0.3,10.7,1.2,14.9C65.8,51.5,67.8,55.2,71.1,56.7L71.1,56.7L71.1,56.7z M50.5,12.7
		c1,0,1.9,0.4,2.5,1.1c0.6,0.6,1.1,1.5,1.1,2.5c0,1-0.4,1.9-1.1,2.5c-0.6,0.6-1.5,1.1-2.5,1.1s-1.9-0.4-2.5-1.1
		c-0.6-0.6-1.1-1.5-1.1-2.5c0-1,0.4-1.9,1.1-2.5C48.6,13.1,49.5,12.7,50.5,12.7L50.5,12.7z M50.5,5.9c2.9,0,5.5,1.2,7.3,3
		s3,4.5,3,7.3s-1.2,5.5-3,7.3s-4.5,3-7.3,3s-5.5-1.2-7.3-3s-3-4.5-3-7.3s1.2-5.5,3-7.3S47.7,5.9,50.5,5.9L50.5,5.9z M56.7,10.1
		c-1.6-1.6-3.8-2.6-6.2-2.6c-2.4,0-4.6,1-6.2,2.6s-2.6,3.8-2.6,6.2s1,4.6,2.6,6.2c1.6,1.6,3.8,2.6,6.2,2.6c2.4,0,4.6-1,6.2-2.6
		c1.6-1.6,2.6-3.8,2.6-6.2S58.3,11.6,56.7,10.1L56.7,10.1z M50.5,0c9,0,16.2,7.3,16.2,16.2s-7.3,16.2-16.2,16.2s-16.2-7.3-16.2-16.2
		c0-4.5,1.8-8.5,4.8-11.5C42,1.8,46,0,50.5,0L50.5,0z M64.1,16.2c0-7.5-6.1-13.6-13.6-13.6c-3.7,0-7.1,1.5-9.6,4
		c-2.5,2.5-4,5.8-4,9.6c0,7.5,6.1,13.6,13.6,13.6S64.1,23.7,64.1,16.2L64.1,16.2z M51.8,15c-0.3-0.3-0.8-0.5-1.3-0.5
		c-0.5,0-0.9,0.2-1.3,0.5c-0.3,0.3-0.5,0.8-0.5,1.3c0,0.5,0.2,0.9,0.5,1.3c0.3,0.3,0.8,0.5,1.3,0.5c0.5,0,0.9-0.2,1.3-0.5
		c0.3-0.3,0.5-0.8,0.5-1.3C52.3,15.7,52.1,15.3,51.8,15L51.8,15z M69.2,19c4.4,3.7,7.8,8.6,10.3,14.5c3.1,7.3,4.9,16.1,5.7,25.9
		c1.4,4,2,7.3,1.4,9.6c-0.7,2.6-2.9,4-7,4.3c-10.2,2.6-19.3,4.2-27,4.7c-7.8,0.5-14.3-0.2-19.1-2.3c-0.5-0.2-0.7-0.7-0.5-1.2
		c0.2-0.5,0.7-0.7,1.2-0.5c4.6,1.9,10.8,2.6,18.4,2.1c7.6-0.5,16.6-2.1,26.8-4.7l0,0c0.1,0,0.1,0,0.2,0c3.3-0.2,5-1.2,5.5-3
		c0.6-2-0.1-4.9-1.4-8.6c0-0.1-0.1-0.2-0.1-0.3c-0.8-9.7-2.5-18.4-5.6-25.5c-2.2-5.1-5-9.5-8.7-12.9c0.1-0.5,0.1-1,0.1-1.5
		C69.2,19.6,69.2,19.3,69.2,19L69.2,19z"/>
</g>
<g class="st0">
	<path class="st1" d="M53,31.7c0.3-0.4,0.8-0.5,1.2-0.2c0.4,0.3,0.5,0.8,0.2,1.2c-0.8,1.1-1.2,2.1-1.2,3.1c0,1,0.3,2.1,0.9,3.1
		c0.2,0.4,0.1,0.9-0.3,1.2c-0.4,0.2-0.9,0.1-1.2-0.3c-0.7-1.3-1.2-2.7-1.1-4C51.4,34.5,51.9,33.1,53,31.7L53,31.7L53,31.7z
		 M21.6,30.6l2.9,3.6L16,37.1l13.5,0.6l-2.5-3.5l8.7-2.5L21.6,30.6L21.6,30.6L21.6,30.6z M31.5,14l0.7,4.8L23,16.6l11.9,8.2
		l-0.2-4.6l9.3,2.6L31.5,14L31.5,14L31.5,14z M27.7,44.4l4.7,1.7l-6.7,7.2L39,46.7l-4.2-2l7-6.9L27.7,44.4L27.7,44.4L27.7,44.4z
		 M86.2,0.1c0.7-0.2,1.4,0.2,1.6,0.8c0.2,0.7-0.2,1.4-0.8,1.6l-0.8,0.3c-11.8,3.8-22.5,7.3-29.1,18.1c-0.4,0.6-0.7,1.1-1.2,1.6
		c-0.4,0.5-0.9,0.9-1.4,1.3c-0.9,0.7-1.8,1.2-2.7,1.7c-1.3,0.7-2.6,1.4-3.7,3.2c-0.8,1.2-1.2,2.7-1.2,4.3c0,1.7,0.3,3.7,1.1,5.9
		c1.4,4,5.4,9.5,10.4,15.2c7.6,8.6,17.1,17.4,22.6,22.1c0.5,0.5,0.6,1.3,0.1,1.8c-0.5,0.5-1.3,0.6-1.8,0.1
		c-5.5-4.8-15.2-13.7-22.9-22.4c-5.2-5.9-9.5-11.7-11-16.1c-0.8-2.5-1.2-4.7-1.2-6.7c0.1-2.1,0.6-4,1.6-5.6c1.4-2.3,3-3.1,4.6-4
		c0.8-0.4,1.5-0.9,2.3-1.5c0.4-0.3,0.7-0.6,1.1-1c0.3-0.4,0.6-0.8,0.9-1.2C62,7.9,73.2,4.3,85.4,0.3L86.2,0.1L86.2,0.1L86.2,0.1z
		 M104.3,26.2c0.6-0.4,1.4-0.2,1.8,0.3c0.4,0.6,0.2,1.4-0.3,1.8c-2.8,1.9-5.7,3.5-8.6,4.9c-2.9,1.3-5.8,2.4-8.8,3.3
		c-4.7,1.4-7.6,1.3-11.5,1.1c-0.7,0-1.4-0.1-2.1-0.1c-0.4,0-0.8,0-1.2,0.1c-0.3,0.1-0.6,0.1-0.7,0.2c0,0,0,0-0.1,0
		c-0.1,0.1-0.1,0.1-0.1,0.1c0,0.1,0,0.2,0.1,0.4c0,0,0.1,0.1,0.1,0.2c0.3,0.5,1.2,1.2,2.1,1.9c1.3,1,2.7,2,3.7,3.5
		c1.8,2.6,4.7,8.6,7.6,14.8c2.8,5.9,5.7,11.9,7.5,14.6c0.4,0.6,0.2,1.4-0.4,1.8c-0.6,0.4-1.4,0.2-1.8-0.4c-1.9-2.9-4.8-8.9-7.7-14.9
		c-2.9-6-5.7-12-7.4-14.4c-0.8-1.1-2.1-2.1-3.2-2.9c-1.1-0.9-2.2-1.6-2.7-2.6c-0.1-0.1-0.1-0.2-0.2-0.3c-0.3-0.7-0.5-1.3-0.4-2
		c0.1-0.8,0.5-1.4,1.3-1.9c0.1,0,0.1-0.1,0.2-0.1c0.4-0.2,0.9-0.4,1.5-0.5c0.5-0.1,1.1-0.1,1.7-0.1c0.8,0,1.4,0.1,2.1,0.1
		c3.7,0.1,6.4,0.3,10.7-1c2.8-0.8,5.7-1.9,8.5-3.2C98.8,29.6,101.6,28.1,104.3,26.2L104.3,26.2L104.3,26.2z M63.9,26.4
		c-0.4,0.6-1.2,0.8-1.8,0.4s-0.8-1.2-0.4-1.8c2.8-4.6,6.6-8.3,11.3-11.1c4.7-2.8,10.3-4.7,16.8-5.6c0.7-0.1,1.4,0.4,1.5,1.1
		c0.1,0.7-0.4,1.4-1.1,1.5c-6.2,0.9-11.5,2.7-15.9,5.3C70,18.7,66.5,22.1,63.9,26.4L63.9,26.4L63.9,26.4z"/>
</g>
<path class="st2" d="M42.7,61.6c0.8,0,1.5,0.7,1.5,1.5c0,0.8-0.7,1.5-1.5,1.5c-0.8,0-1.5-0.7-1.5-1.5c0,0,0,0,0,0
	C41.2,62.3,41.9,61.6,42.7,61.6z M87.6,25.3c3.8-0.4,7.5-1.6,10.8-3.6c2.7-1.6,4.7-4.3,5.5-7.3c0.1-0.5,0.6-0.9,1.2-0.8c0,0,0,0,0,0
	c0.3,0.1,0.6,0.3,0.8,0.7l0,0c0.9,2.9,2.4,5.6,4.5,7.8c1.8,1.8,4,2.9,6.5,3.3c0.1-0.9,0.2-1.9,0.2-2.9c-0.1-1.2-0.3-2.4-0.7-3.5
	c-1-2.9-2.9-5.5-5.5-7.2c-2.6-1.8-5.6-2.7-8.8-2.6c-2.9,0-5.7,0.8-8.1,2.4c-2.3,1.6-4,3.8-5,6.4c-0.5,1.3-0.9,2.6-1.1,4
	C87.7,23,87.6,24.1,87.6,25.3L87.6,25.3z M108.8,26.9c1.1,0,1.9,0.8,1.9,1.9c0,1.1-0.8,1.9-1.9,1.9c-1.1,0-1.9-0.8-1.9-1.9
	c0,0,0,0,0,0C106.9,27.7,107.7,26.9,108.8,26.9C108.8,26.9,108.8,26.9,108.8,26.9z M96,26.9c1.1,0,1.9,0.8,1.9,1.9
	c0,1.1-0.8,1.9-1.9,1.9c-1.1,0-1.9-0.8-1.9-1.9c0,0,0,0,0,0C94.1,27.7,95,26.9,96,26.9z M83.8,38.1c0.6-0.3,1.3-0.6,1.9-0.9
	c1.1-0.4,2.2-0.9,3.3-1.2c-0.1-0.6-0.2-1.1-0.3-1.7c-1.1-0.7-2-1.8-2.4-3c-0.5-1.5-0.8-3-0.7-4.5c0-0.1,0-0.2,0-0.2
	c-0.1-1.6,0-3.3,0.3-4.9c0.2-1.5,0.6-3,1.2-4.4c1-2.8,2.8-5.2,5.2-7c-0.4-0.9-0.7-1.9-0.7-2.9c0-1.1,0.4-2.3,1.2-3.1
	c2-1.9,4.6-3.1,7.4-3.3c3.1-0.4,6.3,0.1,9.1,1.4c1.9,1,3.1,2.1,3.5,3.5c0.4,1.5,0.1,3.1-0.8,4.4c2.9,2,5,4.9,6.2,8.2
	c0.5,1.3,0.7,2.7,0.8,4c0.1,1.3,0,2.6-0.3,3.9c0,0.1,0,0.2,0,0.2c0.2,1.5,0.1,3.1-0.3,4.6c-0.5,1.5-1.3,3-2.4,4.1
	c-0.1,0.3-0.2,0.6-0.2,0.9c0.8,0.2,1.6,0.5,2.4,0.7l0,0c0.1,0,0.2,0,0.3,0.1c0.1,0,0.2,0.1,0.3,0.2c0.7,0.3,1.5,0.6,2.2,1
	c4.5,2.2,7.7,4.7,10,7.9c2.3,3.2,3.5,7.1,4.2,12.3v0.1l0,0V76c0,0.6-0.5,1-1,1s-1-0.5-1-1V58.5c-0.6-4.8-1.8-8.4-3.8-11.3
	c-2-2.9-5-5.2-9.2-7.3c-0.5-0.2-1-0.5-1.4-0.7c-2,5.4-4.2,9.4-6.8,12c-2.3,2.7-5.7,4.3-9.3,4.5h0c-3.8-0.2-7.5-1.9-10.1-4.6
	c-1.5-1.5-2.7-3.2-3.7-5.1c-0.2-0.5-0.4-1-0.6-1.4s-0.5-1.1-0.8-1.6c-0.5-1.2-1-2.5-1.4-3.8l-0.9,0.4l0,0
	C84.7,39.1,84.2,38.6,83.8,38.1L83.8,38.1z M91.2,36.5c0,0.1,0.1,0.2,0.1,0.3c0.3,1.1,0.7,2.2,1.4,3.1c1,1.5,2.5,2.5,4.2,2.9
	c0.1,0,0.3,0.1,0.4,0.2c1.4,1.1,3.1,1.8,4.9,1.8c1.8-0.1,3.6-0.7,5-1.8c0.2-0.1,0.4-0.2,0.6-0.2c1.5-0.1,2.9-0.9,3.8-2.1
	c1.3-1.9,2.2-4,2.6-6.2c0-0.2,0.1-0.3,0.3-0.5l0,0c1-1,1.7-2.2,2.2-3.5c0.3-1,0.4-2,0.3-3.1c-3-0.4-5.8-1.7-7.9-3.9
	c-1.7-1.7-3-3.8-4-6c-1.2,2.4-3.1,4.5-5.5,5.9c-3.6,2.2-7.7,3.6-11.9,4c0,1.1,0.2,2.1,0.6,3.2c0.3,1,1,1.7,1.9,2.2
	c0.3,0.2,0.5,0.5,0.6,0.8l0,0C90.8,34.5,90.9,35.5,91.2,36.5L91.2,36.5z M89.5,37.9c-0.5,0.2-1.1,0.4-1.6,0.6
	c1.6,5.1,3.6,8.8,6,11.3c2.3,2.4,5.4,3.8,8.8,4c3-0.1,5.9-1.5,7.8-3.8c2.3-2.5,4.5-6.3,6.3-11.4c-0.6-0.2-1.1-0.4-1.7-0.5
	c-0.5,1.4-1.2,2.7-2.1,3.9c-1.2,1.6-3,2.6-4.9,2.8c-1.7,1.3-3.8,2-5.9,2.1c-2.2,0-4.3-0.7-6-2.1c-2.1-0.5-4-1.8-5.2-3.7
	C90.3,40.1,89.8,39.1,89.5,37.9z M123,57.8c-0.1-0.5,0.2-1.1,0.8-1.2c0.5-0.1,1.1,0.2,1.2,0.8c0,0,0,0,0,0.1
	c0.9,3.6,1.3,7.3,1.5,10.9c0,3.3-0.6,5.9-2.2,7.7c-3.1,3.4-7.6,1.8-11.1,0.5l-0.9-0.3c-0.5-0.2-0.8-0.7-0.6-1.3c0,0,0,0,0,0
	c0.2-0.5,0.8-0.8,1.3-0.6c0,0,0,0,0,0l0.9,0.3c3,1.1,6.8,2.4,9,0c1.2-1.3,1.6-3.5,1.6-6.3C124.2,64.8,123.8,61.3,123,57.8L123,57.8z
	 M110.3,9.1c0.6-0.8,0.8-1.8,0.6-2.7c-0.3-0.9-1.1-1.6-2.5-2.3c-2.5-1.1-5.3-1.5-8-1.1c-2.3,0.1-4.4,1-6.1,2.6
	c-0.4,0.5-0.7,1.1-0.7,1.8c0,0.6,0.1,1.2,0.4,1.8c2.5-1.3,5.2-2,8-2C104.8,7,107.7,7.7,110.3,9.1z M97.8,38.8
	c-0.5-0.3-0.6-0.9-0.3-1.4c0,0,0,0,0,0c0.3-0.5,1-0.6,1.4-0.3c1,0.8,2.2,1.2,3.4,1.2c1.1,0,2.2-0.5,3-1.2c0.4-0.4,1.1-0.3,1.4,0.2
	c0.4,0.4,0.3,1.1-0.2,1.4l0,0c-1.2,1-2.7,1.6-4.3,1.7C100.7,40.3,99.1,39.7,97.8,38.8z M37.5,35.4c-0.6-0.4-0.7-1.1-0.4-1.7
	c0.4-0.6,1.1-0.7,1.7-0.4c0,0,0,0,0,0c2.4,1.8,5.6,1.8,7.9,0c0.6-0.4,1.3-0.2,1.7,0.3c0,0,0,0,0,0c0.4,0.6,0.2,1.3-0.4,1.7
	c0,0,0,0,0,0C45,37.8,40.7,37.8,37.5,35.4L37.5,35.4z M33.1,24.3c-0.6,0.3-1.4,0.1-1.7-0.5c-0.3-0.6-0.1-1.4,0.5-1.7l0,0
	c1-0.6,2.2-0.9,3.4-0.9c1.1,0,2.3,0.3,3.3,0.9c0.6,0.3,0.9,1,0.6,1.7c-0.3,0.6-1,0.9-1.7,0.6l0,0c-0.7-0.4-1.4-0.6-2.2-0.6
	C34.5,23.7,33.8,23.9,33.1,24.3L33.1,24.3z M48.7,24.3c-0.6,0.3-1.4,0.1-1.7-0.5c-0.3-0.6-0.1-1.4,0.5-1.7l0,0
	c1-0.6,2.2-0.9,3.4-0.9c1.1,0,2.3,0.3,3.3,0.9c0.6,0.3,0.9,1,0.6,1.7s-1,0.9-1.7,0.6l0,0c-0.7-0.4-1.4-0.6-2.2-0.6
	C50.1,23.7,49.4,23.9,48.7,24.3L48.7,24.3z M14.2,63.1c0-0.7,0.6-1.2,1.2-1.2c0.7,0,1.2,0.6,1.2,1.2c0,0,0,0,0,0v13.6
	c0,0.7-0.6,1.2-1.2,1.2s-1.2-0.6-1.2-1.2c0,0,0,0,0,0V63.1z M68.8,63.1c0-0.7,0.6-1.2,1.2-1.2s1.2,0.6,1.2,1.2c0,0,0,0,0,0v13.6
	c0,0.7-0.6,1.2-1.2,1.2c-0.7,0-1.2-0.6-1.2-1.2V63.1z M59.2,30c3.2,1.6,6.1,3.2,9,4.9c2.8,1.7,5.8,3.6,8.7,5.7
	c0.1,0,0.1,0.1,0.2,0.1c2.2,1.8,4,4.1,5.2,6.7c1.5,3.4,2.3,7,2.5,10.6v0.1l0,0v17.7c0,0.7-0.6,1.2-1.2,1.2c-0.7,0-1.2-0.6-1.2-1.2
	V58.2l0,0c-0.1-3.3-0.9-6.6-2.2-9.6c-1.1-2.3-2.6-4.3-4.5-5.9c-2.8-2-5.6-3.8-8.5-5.6c-0.8-0.4-1.5-0.9-2.3-1.3
	C62.3,46.6,58.1,54.6,52,59.8c-3.3-2.1-6.4-4.6-9.1-7.4c-2.7,2.8-5.7,5.2-9,7.1c-6.3-5-10.3-13.3-12.5-24.2
	c-0.9,0.5-1.9,1.1-2.8,1.6c-3,1.8-5.8,3.7-8.7,5.7c-1.9,1.6-3.5,3.6-4.5,5.9c-1.3,3.1-2.1,6.3-2.2,9.6l0,0v17.7
	c0,0.7-0.6,1.2-1.2,1.2c-0.7,0-1.2-0.6-1.2-1.2c0,0,0,0,0,0V58.2h0v-0.1c0.1-3.7,1-7.3,2.5-10.6c1.2-2.6,3-4.9,5.2-6.7
	c0,0,0.1-0.1,0.1-0.1c2.9-2,5.8-4,8.8-5.9s5.8-3.4,9-5l-0.1-0.7c-1.4-0.9-2.4-2.4-2.7-4.1c-0.3-1.9,0.1-3.8,1-5.5l0.1-0.1
	c-1.1-2.7-1.1-5.8-0.1-8.5c1.3-3.1,3.5-5.7,6.3-7.5h0.1l0,0c3.6-2.3,7.8-3.5,12-3.5c4.2,0.1,8.4,1.3,12,3.5l0,0
	c2.7,1.4,4.8,3.5,6.2,6.2c1.3,2.9,1.4,6.1,0.5,9.2c0.5,1.9,0.7,3.9,0.4,5.9c-0.3,1.8-1.3,3.5-2.8,4.5L59.2,30L59.2,30z M31.9,40.9
	c1.5,5.1,5,9.1,11.1,11.5c5.2-1.5,9.3-6.1,11.6-11.8l-0.2-0.2c-1.1,0.9-2.4,1.7-3.7,2.3c-2.3,1.1-4.8,1.7-7.4,1.7
	c-2.6,0.1-5.1-0.3-7.5-1.3C34.3,42.6,33,41.8,31.9,40.9L31.9,40.9z M33.6,4.5c0,2.9-0.5,5.8-1.6,8.6c-1.1,2.8-2.7,5.3-4.9,7.3
	c-0.1,0.1-0.3,0.2-0.4,0.3c-0.7,1.2-0.9,2.6-0.7,3.9c0.2,1.1,0.8,2,1.8,2.6l0.2,0.1l0,0c0.4,0.2,0.6,0.6,0.7,1l0.2,2.2
	c0.4,4.7,3.4,8.7,7.8,10.4c2.1,0.8,4.3,1.2,6.5,1.1c2.2-0.1,4.4-0.6,6.4-1.5c4-1.7,6.8-5.5,7.1-9.9c0,0,0-0.1,0-0.1l0.2-2.2l0,0
	c0-0.4,0.3-0.7,0.6-0.9c1.2-0.7,2-1.9,2.2-3.2c0.2-1.4,0.1-2.8-0.2-4.2c-0.2,0-0.3,0-0.5-0.1c-2.5-1.3-4.4-3.4-5.4-6
	c-1.3-3-2-6.2-2-9.5c-2.7-1.3-5.7-2-8.7-2.1C39.7,2.2,36.5,3,33.6,4.5z M26.6,17.4c1.4-1.5,2.4-3.3,3.2-5.2c0.7-1.9,1.2-4,1.3-6
	c-1.9,1.4-3.3,3.3-4.3,5.5C26.2,13.5,26.1,15.5,26.6,17.4z M59.5,17.3c0.6-2.2,0.4-4.6-0.5-6.7c-1.1-2.1-2.8-3.8-4.8-4.9
	c0.2,2.5,0.7,4.9,1.7,7.1C56.5,14.6,57.8,16.2,59.5,17.3L59.5,17.3z M42.7,73.5c0.8,0,1.5,0.7,1.5,1.5c0,0.8-0.7,1.5-1.5,1.5
	c-0.8,0-1.5-0.7-1.5-1.5c0,0,0,0,0,0C41.2,74.2,41.9,73.5,42.7,73.5C42.7,73.5,42.7,73.5,42.7,73.5z M42.7,67.6
	c0.8,0,1.5,0.7,1.5,1.5s-0.7,1.5-1.5,1.5c-0.8,0-1.5-0.7-1.5-1.5c0,0,0,0,0,0C41.2,68.2,41.9,67.6,42.7,67.6z"/>
</svg>
