<?xml version="1.0" encoding="utf-8"?>
<!-- Generator: Adobe Illustrator 16.0.0, SVG Export Plug-In . SVG Version: 6.00 Build 0)  -->
<!DOCTYPE svg PUBLIC "-//W3C//DTD SVG 1.1//EN" "http://www.w3.org/Graphics/SVG/1.1/DTD/svg11.dtd">
<svg version="1.1" xmlns="http://www.w3.org/2000/svg" xmlns:xlink="http://www.w3.org/1999/xlink" x="0px" y="0px"
	 width="91.166px" height="91.166px" viewBox="0 0 91.166 91.166" enable-background="new 0 0 91.166 91.166" xml:space="preserve">
<g id="Layer_2" display="none">
	<rect display="inline" fill="#1539CE" width="95.333" height="95.332"/>
</g>
<g id="Capa_1">
	<circle fill="#CCCCCC" cx="45.583" cy="45.583" r="45.583"/>
	<g>
		<g>
			<path fill="#FFFFFF" d="M36.307,43.568c-1.269-0.365-2.539-0.551-3.774-0.551c-1.907,0-3.498,0.436-4.732,0.969
				c1.189-4.354,4.047-11.868,9.739-12.714c0.528-0.079,0.959-0.46,1.103-0.974l1.245-4.45c0.105-0.376,0.042-0.779-0.172-1.105
				c-0.215-0.326-0.56-0.544-0.946-0.597c-0.42-0.058-0.848-0.087-1.273-0.087c-6.832,0-13.599,7.132-16.454,17.343
				c-1.676,5.99-2.168,14.997,1.961,20.667c2.31,3.171,5.681,4.865,10.018,5.034c0.018,0.002,0.035,0.002,0.053,0.002
				c5.351,0,10.097-3.604,11.541-8.765c0.862-3.083,0.472-6.319-1.099-9.11C41.963,46.471,39.402,44.459,36.307,43.568z"/>
			<path fill="#FFFFFF" d="M69.808,49.23c-1.555-2.76-4.115-4.771-7.209-5.662c-1.271-0.365-2.54-0.551-3.774-0.551
				c-1.906,0-3.499,0.436-4.732,0.969c1.189-4.354,4.047-11.868,9.739-12.714c0.528-0.079,0.96-0.46,1.104-0.974l1.243-4.45
				c0.104-0.376,0.042-0.779-0.172-1.105c-0.215-0.326-0.559-0.544-0.946-0.597c-0.419-0.058-0.848-0.087-1.272-0.087
				c-6.832,0-13.6,7.132-16.455,17.343c-1.675,5.99-2.168,14.997,1.963,20.668c2.309,3.171,5.68,4.865,10.017,5.034
				c0.019,0,0.035,0,0.054,0c5.351,0,10.097-3.604,11.54-8.765C71.769,55.258,71.378,52.021,69.808,49.23z"/>
		</g>
	</g>
</g>
</svg>
