<?xml version="1.0" encoding="iso-8859-1"?>
<svg version="1.1" id="Capa_1" fill="#ffffff"  xmlns="http://www.w3.org/2000/svg" xmlns:xlink="http://www.w3.org/1999/xlink" x="0px" y="0px"
	 viewBox="0 0 512 512" style="enable-background:new 0 0 512 512; " xml:space="preserve">
<g>
	<g>
		<path d="M191.255,55.854c-31.238,0-56.654,25.414-56.654,56.654c0,31.239,25.414,56.654,56.654,56.654
			c31.239,0,56.653-25.414,56.653-56.654C247.908,81.268,222.493,55.854,191.255,55.854z M191.255,153.953
			c-22.852,0-41.446-18.592-41.446-41.446s18.592-41.446,41.446-41.446S232.7,89.654,232.7,112.507S214.108,153.953,191.255,153.953
			z"/>
	</g>
</g>
<g>
	<g>
		<path d="M57.465,306.122c-31.239,0-56.654,25.414-56.654,56.654c0,31.239,25.414,56.654,56.654,56.654
			c31.239,0,56.653-25.414,56.653-56.654C114.119,331.537,88.704,306.122,57.465,306.122z M57.465,404.22
			c-22.853,0-41.446-18.592-41.446-41.446c0-22.853,18.592-41.446,41.446-41.446s41.445,18.592,41.445,41.446
			C98.911,385.628,80.319,404.22,57.465,404.22z"/>
	</g>
</g>
<g>
	<g>
		<path d="M478.428,296.621c-6.492,0-12.549,1.897-17.645,5.168c-1.249-16.932-15.427-30.327-32.673-30.327
			c-8.721,0-16.658,3.426-22.535,9.001c-5.797-9.251-16.083-15.416-27.783-15.416c-6.453,0-12.478,1.876-17.554,5.11V208.73
			c-0.013-18.052-14.71-32.738-32.761-32.738c-8.75,0-16.975,3.409-23.163,9.597c-6.189,6.189-9.598,14.415-9.598,23.164v100.233
			c-4.658-5.803-10.978-10.022-18.278-12.113c-9.328-2.672-19.14-1.549-27.627,3.16c-8.486,4.708-14.631,12.438-17.302,21.767
			c-2.672,9.328-1.55,19.138,3.157,27.619c5.282,9.528,6.441,31.895,6.441,39.748c0.006,1.231,0.27,30.487,11.144,60.208
			c14.99,40.968,42.741,62.623,80.255,62.623h74.937c31.342,0,59.339-15.465,78.832-43.546c2.395-3.45,1.54-8.188-1.911-10.583
			c-3.447-2.395-8.186-1.539-10.583,1.911c-11.72,16.884-32.743,37.011-66.339,37.011h-74.937c-30.895,0-53.05-17.601-65.852-52.311
			c-10.049-27.249-10.337-55.111-10.339-55.344c0.002-3.275-0.215-32.421-8.35-47.094c-2.736-4.93-3.388-10.632-1.835-16.055
			c1.553-5.423,5.126-9.918,10.059-12.655c4.934-2.738,10.637-3.391,16.062-1.838c5.422,1.552,9.913,5.125,12.649,10.063
			c7.508,13.53,9.454,21.198,9.817,22.853v44.62c0,4.199,3.404,7.604,7.604,7.604c4.2,0,7.604-3.405,7.604-7.604v-45.31V208.756
			c0-4.686,1.827-9.093,5.143-12.411c3.316-3.316,7.723-5.142,12.409-5.142c9.672,0,17.547,7.869,17.553,17.536v89.075v42.37
			c0,4.199,3.404,7.604,7.604,7.604c4.2,0,7.604-3.405,7.604-7.604v-42.37c0-9.679,7.876-17.555,17.554-17.555
			c9.678,0,17.554,7.875,17.554,17.555v6.415v27.765c0,4.199,3.404,7.604,7.604,7.604s7.604-3.405,7.604-7.604v-27.765
			c0-9.68,7.876-17.555,17.555-17.555s17.554,7.875,17.554,17.555v25.159v13.138c0,4.199,3.404,7.604,7.604,7.604
			s7.604-3.405,7.604-7.604v-13.138c0-9.679,7.876-17.555,17.555-17.555c9.679,0,17.554,7.875,17.554,17.555v58.026
			c0,17.627-3.805,35.671-11.004,52.179c-1.678,3.85,0.081,8.331,3.931,10.01c3.854,1.679,8.332-0.081,10.01-3.931
			c8.028-18.411,12.272-38.556,12.272-58.258v-58.026C511.19,311.318,496.493,296.621,478.428,296.621z"/>
	</g>
</g>
<g>
	<g>
		<path d="M359.1,152.82V31.937C359.1,14.327,344.773,0,327.163,0c-17.61,0-31.937,14.327-31.937,31.937v121.118
			c-14.818,10.229-24.553,27.318-24.553,46.646c0,7.646,1.5,15.066,4.456,22.055c1.635,3.869,6.096,5.677,9.965,4.041
			c3.867-1.636,5.678-6.097,4.04-9.965c-2.159-5.105-3.254-10.531-3.254-16.131c0-22.853,18.592-41.446,41.446-41.446
			c22.853,0,41.446,18.592,41.446,41.446c0,5.599-1.095,11.026-3.253,16.131c-1.636,3.868,0.173,8.33,4.04,9.965
			c0.967,0.41,1.971,0.602,2.959,0.602c2.962,0,5.779-1.743,7.006-4.643c2.956-6.989,4.456-14.409,4.456-22.055
			C383.981,180.228,374.104,163.022,359.1,152.82z M343.892,145.524c-5.243-1.606-10.803-2.476-16.564-2.476
			c-5.881,0-11.555,0.902-16.893,2.573V31.937c0-9.224,7.505-16.729,16.729-16.729s16.729,7.505,16.729,16.729V145.524z"/>
	</g>
</g>
<g>
	<g>
		<path d="M191.813,0c-17.61,0-31.937,14.327-31.937,31.937v12.316c0,4.2,3.405,7.604,7.604,7.604s7.604-3.405,7.604-7.604V31.937
			c0-9.224,7.505-16.729,16.729-16.729s16.729,7.505,16.729,16.729v12.955c0,4.199,3.405,7.604,7.604,7.604s7.604-3.405,7.604-7.604
			V31.937C223.75,14.327,209.423,0,191.813,0z"/>
	</g>
</g>
<g>
	<g>
		<path d="M216.146,401.764c-4.199,0-7.604,3.405-7.604,7.604v70.695c0,4.467-1.74,8.669-4.9,11.829s-7.361,4.9-11.829,4.9
			c-9.224,0-16.729-7.505-16.729-16.729v-299.3c0-4.199-3.405-7.604-7.604-7.604s-7.604,3.405-7.604,7.604v299.3
			c0,17.61,14.327,31.937,31.937,31.937c8.531,0,16.549-3.322,22.582-9.355c6.032-6.033,9.355-14.052,9.355-22.582v-70.695
			C223.75,405.168,220.345,401.764,216.146,401.764z"/>
	</g>
</g>
<g>
	<g>
		<path d="M216.146,172.521c-4.199,0-7.604,3.405-7.604,7.604V384.02c0,4.199,3.405,7.604,7.604,7.604s7.604-3.405,7.604-7.604
			V180.125C223.75,175.925,220.345,172.521,216.146,172.521z"/>
	</g>
</g>
<g>
	<g>
		<path d="M57.375,0c-17.61,0-31.937,14.327-31.937,31.937v28.66c0,4.199,3.405,7.604,7.604,7.604c4.199,0,7.604-3.405,7.604-7.604
			v-28.66c0-9.224,7.505-16.729,16.729-16.729s16.729,7.505,16.729,16.729v262.852c0,4.199,3.405,7.604,7.604,7.604
			c4.199,0,7.604-3.405,7.604-7.604V31.937C89.312,14.327,74.985,0,57.375,0z"/>
	</g>
</g>
<g>
	<g>
		<path d="M33.042,78.341c-4.199,0-7.604,3.405-7.604,7.604V294.89c0,4.199,3.405,7.604,7.604,7.604
			c4.199,0,7.604-3.405,7.604-7.604V85.945C40.646,81.746,37.242,78.341,33.042,78.341z"/>
	</g>
</g>
<g>
	<g>
		<path d="M81.708,423.167c-4.199,0-7.604,3.405-7.604,7.604v49.292c0,4.467-1.74,8.669-4.9,11.829c-3.16,3.16-7.361,4.9-11.829,4.9
			c-9.224,0-16.729-7.505-16.729-16.729v-49.404c0-4.199-3.405-7.604-7.604-7.604s-7.604,3.405-7.604,7.604v49.404
			c0,17.61,14.327,31.937,31.937,31.937c8.53,0,16.549-3.322,22.582-9.355c6.032-6.033,9.355-14.052,9.355-22.582v-49.292
			C89.312,426.572,85.907,423.167,81.708,423.167z"/>
	</g>
</g>
</svg>
