<svg xmlns="http://www.w3.org/2000/svg" xmlns:xlink="http://www.w3.org/1999/xlink" viewBox="0 0 287.66 62.94"><defs><style>.cls-1{isolation:isolate;}.cls-2{fill:#297ca5;}.cls-3{opacity:0.58;}.cls-4{fill:url(#linear-gradient);}.cls-5{fill:url(#linear-gradient-2);}.cls-6{fill:url(#linear-gradient-3);}.cls-7{fill:url(#linear-gradient-4);}.cls-8{mix-blend-mode:multiply;}.cls-11,.cls-9{fill:#615e9a;}.cls-10,.cls-9{opacity:0.5;}.cls-10{fill:#896db0;}</style><linearGradient id="linear-gradient" x1="230.33" y1="-108.74" x2="268.54" y2="-108.74" gradientTransform="translate(152.31 305.02) rotate(-90)" gradientUnits="userSpaceOnUse"><stop offset="0" stop-color="#297ca5"/><stop offset="1" stop-color="#297ca5" stop-opacity="0"/></linearGradient><linearGradient id="linear-gradient-2" x1="99.06" y1="387.04" x2="137.27" y2="387.04" gradientTransform="translate(430.02 -87.31) rotate(90)" xlink:href="#linear-gradient"/><linearGradient id="linear-gradient-3" x1="310.73" y1="61.49" x2="348.94" y2="61.49" gradientTransform="translate(385.33 104.71) rotate(180)" xlink:href="#linear-gradient"/><linearGradient id="linear-gradient-4" x1="11.67" y1="43.35" x2="49.88" y2="43.35" gradientTransform="matrix(1, 0, 0, 1, 0, 0)" xlink:href="#linear-gradient"/></defs><title>Rest Assured_4C_Logo_Hor_Circle R</title><g class="cls-1"><g id="Layer_1" data-name="Layer 1"><path class="cls-2" d="M101.22,53.81a3.5,3.5,0,0,1-.25-1.05,14.78,14.78,0,0,1-.15-1.54l-.07-2.66a6.24,6.24,0,0,0-1-3.38,4.31,4.31,0,0,0-3.2-1H90.7v9.62H86.62V32.21a2,2,0,0,1,.6-1.47,2,2,0,0,1,1.48-.61h9.4c2.53,0,4.43.54,5.62,1.6a6.2,6.2,0,0,1,1.84,4.86,6.26,6.26,0,0,1-.92,3.52A4.4,4.4,0,0,1,102.17,42l-1.38.48,1.37.48a3.55,3.55,0,0,1,2,1.49,8.12,8.12,0,0,1,.72,3.44l.14,2.94v.91a6.36,6.36,0,0,0,.08,1,4.56,4.56,0,0,0,.3,1.07ZM90.7,40.89h6.46a4.89,4.89,0,0,0,3.2-.9,3.52,3.52,0,0,0,1.11-2.83,3.48,3.48,0,0,0-1.11-2.82,4,4,0,0,0-2.91-1H90.7Z" transform="translate(-11.67 -11.75)"/><path class="cls-2" d="M116.08,54.16a7.46,7.46,0,0,1-6-2.48c-1.44-1.62-2.17-4-2.17-7.06a10.23,10.23,0,0,1,2.1-6.84,7.46,7.46,0,0,1,6-2.48,8.16,8.16,0,0,1,6.3,2.42,10.52,10.52,0,0,1,2.16,7.05v.78H112l0,.52a5.37,5.37,0,0,0,1.21,3.63A3.85,3.85,0,0,0,116.36,51a4.53,4.53,0,0,0,2.3-.55,1.48,1.48,0,0,0,.53-.35l.49-.48,0-.11h0a2,2,0,0,1,.37-.33,1.66,1.66,0,0,1,1-.26H124a7.18,7.18,0,0,1-2.63,3.68A8.69,8.69,0,0,1,116.08,54.16Zm.07-15.71a4,4,0,0,0-2.94,1.15A4.61,4.61,0,0,0,112,42.81l0,.52h8.38l0-.54a5.1,5.1,0,0,0-1.14-3.17A3.91,3.91,0,0,0,116.15,38.45Z" transform="translate(-11.67 -11.75)"/><path class="cls-2" d="M133.84,54.16c-2.59,0-4.54-.51-5.78-1.53a5.17,5.17,0,0,1-1.89-4.13h3.92a3,3,0,0,0,1.24,2.06,5.61,5.61,0,0,0,3.16.81,5.16,5.16,0,0,0,2.46-.56A2,2,0,0,0,138.08,49c0-1.7-2.57-2.25-3.41-2.43a12.45,12.45,0,0,1-1.89-.42c-2.47-.6-4.1-1.31-4.9-2.1A3.9,3.9,0,0,1,126.6,41a5.17,5.17,0,0,1,1.9-4.13,8.5,8.5,0,0,1,5.27-1.53,9.36,9.36,0,0,1,5.66,1.55,5.7,5.7,0,0,1,2,3.75h-2.53a1.78,1.78,0,0,1-1.65-1l0-.05-.62-.62a4.4,4.4,0,0,0-2.73-.8,4.65,4.65,0,0,0-2.41.51,2,2,0,0,0-.89,1.72c0,1.08,1.27,1.83,4.13,2.43a6.22,6.22,0,0,0,.75.22,3.84,3.84,0,0,0,.65.08,12.82,12.82,0,0,1,4.84,2,4,4,0,0,1,1.18,3.06A5.22,5.22,0,0,1,140,52.69C138.66,53.67,136.59,54.16,133.84,54.16Z" transform="translate(-11.67 -11.75)"/><path class="cls-2" d="M150.23,53.86c-1,0-2,0-3.14-.12s-2.3-.48-2.3-3V30.13h2.08a1.8,1.8,0,0,1,1.3.57,1.87,1.87,0,0,1,.57,1.37V35.8h2.94v.5a1.84,1.84,0,0,1-.56,1.39,1.92,1.92,0,0,1-1.38.55h-1V49.36c0,1.09.7,1.72,1.93,1.72h1v2.75C151.21,53.85,150.72,53.86,150.23,53.86Z" transform="translate(-11.67 -11.75)"/><path class="cls-2" d="M183.05,53.81l-1.65-5.1H171.05l-1.58,5.1h-4.29l7.94-22.36a1.89,1.89,0,0,1,2-1.32h3.67l8.6,23.68Zm-11-8.25h8.28L176.23,33Z" transform="translate(-11.67 -11.75)"/><path class="cls-2" d="M195.83,54.16c-2.6,0-4.54-.51-5.78-1.53a5.11,5.11,0,0,1-1.89-4.13h3.91a3,3,0,0,0,1.24,2.06,5.61,5.61,0,0,0,3.16.81,5.23,5.23,0,0,0,2.47-.56A2,2,0,0,0,200.06,49c0-1.7-2.57-2.25-3.41-2.43a12.26,12.26,0,0,1-1.88-.42c-2.47-.6-4.11-1.31-4.9-2.1A3.91,3.91,0,0,1,188.58,41a5.17,5.17,0,0,1,1.91-4.13,8.46,8.46,0,0,1,5.27-1.53,9.33,9.33,0,0,1,5.65,1.55,5.71,5.71,0,0,1,2,3.75h-2.54a1.78,1.78,0,0,1-1.65-1l0-.05-.62-.62a4.35,4.35,0,0,0-2.72-.8,4.71,4.71,0,0,0-2.42.51,2,2,0,0,0-.89,1.72c0,1.08,1.28,1.83,4.14,2.43a5.73,5.73,0,0,0,.75.22,3.72,3.72,0,0,0,.65.08,12.76,12.76,0,0,1,4.83,2,4,4,0,0,1,1.19,3.06,5.23,5.23,0,0,1-2.1,4.48C200.65,53.67,198.58,54.16,195.83,54.16Z" transform="translate(-11.67 -11.75)"/><path class="cls-2" d="M213.45,54.16c-2.6,0-4.54-.51-5.78-1.53a5.17,5.17,0,0,1-1.89-4.13h3.91a3.06,3.06,0,0,0,1.24,2.06,5.61,5.61,0,0,0,3.16.81,5.2,5.2,0,0,0,2.47-.56A2,2,0,0,0,217.68,49c0-1.7-2.56-2.25-3.41-2.43a12.26,12.26,0,0,1-1.88-.42c-2.47-.6-4.11-1.31-4.9-2.1A3.91,3.91,0,0,1,206.2,41a5.17,5.17,0,0,1,1.91-4.13,8.5,8.5,0,0,1,5.27-1.53A9.33,9.33,0,0,1,219,36.85a5.67,5.67,0,0,1,2,3.75h-2.54a1.76,1.76,0,0,1-1.64-1l0-.05-.62-.62a4.35,4.35,0,0,0-2.72-.8,4.65,4.65,0,0,0-2.41.51,2,2,0,0,0-.89,1.72c0,1.08,1.27,1.83,4.13,2.43A6.22,6.22,0,0,0,215,43a3.72,3.72,0,0,0,.65.08,12.69,12.69,0,0,1,4.83,2,4,4,0,0,1,1.19,3.06,5.23,5.23,0,0,1-2.1,4.48C218.27,53.67,216.2,54.16,213.45,54.16Z" transform="translate(-11.67 -11.75)"/><path class="cls-2" d="M231.51,54.16a11.09,11.09,0,0,1-5.38-1.64c-1.53-1-2.3-3-2.3-6.1V35.73h4V47.42a3.46,3.46,0,0,0,1.2,2.91,4.13,4.13,0,0,0,2.6.9,4.22,4.22,0,0,0,2.64-.9,3.43,3.43,0,0,0,1.24-2.91V37.66a1.91,1.91,0,0,1,.54-1.37,1.82,1.82,0,0,1,1.4-.56h2V46.42c0,3.19-.81,5.29-2.4,6.24A10.8,10.8,0,0,1,231.51,54.16Z" transform="translate(-11.67 -11.75)"/><path class="cls-2" d="M242.33,53.81V45.05a11.33,11.33,0,0,1,.78-4.49,7.33,7.33,0,0,1,2.11-2.86,8.58,8.58,0,0,1,3-1.49,13.88,13.88,0,0,1,3.64-.48h.21v4.08h-1.15A4.69,4.69,0,0,0,247.49,41a4.8,4.8,0,0,0-1.15,3.51v9.33Z" transform="translate(-11.67 -11.75)"/><path class="cls-2" d="M262.4,54.16a7.44,7.44,0,0,1-6-2.48c-1.44-1.62-2.17-4-2.17-7.06a10.17,10.17,0,0,1,2.1-6.84,7.44,7.44,0,0,1,6-2.48,8.13,8.13,0,0,1,6.3,2.42,10.52,10.52,0,0,1,2.17,7.05v.78H258.3v.52a5.42,5.42,0,0,0,1.21,3.63A3.88,3.88,0,0,0,262.69,51a4.51,4.51,0,0,0,2.29-.55,1.44,1.44,0,0,0,.54-.35l.48-.48,0-.11h0a1.6,1.6,0,0,1,.37-.33,1.66,1.66,0,0,1,1-.26h2.91a7.18,7.18,0,0,1-2.63,3.68A8.75,8.75,0,0,1,262.4,54.16Zm.07-15.71a4,4,0,0,0-2.93,1.15,4.62,4.62,0,0,0-1.23,3.21l0,.52h8.39l0-.54a5.16,5.16,0,0,0-1.14-3.17A3.93,3.93,0,0,0,262.47,38.45Z" transform="translate(-11.67 -11.75)"/><path class="cls-2" d="M281.33,54.16a10.74,10.74,0,0,1-3.49-.58,5.5,5.5,0,0,1-2.64-1.81,11,11,0,0,1-2-6.93,11.15,11.15,0,0,1,2-6.94,6.13,6.13,0,0,1,5.12-2.6,6.19,6.19,0,0,1,2.92.66,6.34,6.34,0,0,1,2.11,2l.93,1.48V30.06h1.93a1.81,1.81,0,0,1,1.36.6,1.88,1.88,0,0,1,.58,1.34V46c0,3.19-.91,5.36-2.7,6.45A11.54,11.54,0,0,1,281.33,54.16Zm.29-15.57a3.91,3.91,0,0,0-3.35,1.72,7.07,7.07,0,0,0-1.17,4.31,8,8,0,0,0,1.17,4.67A4,4,0,0,0,281.76,51a4,4,0,0,0,3.43-1.72,8.4,8.4,0,0,0,1.1-4.67,7.47,7.47,0,0,0-1.17-4.38A4.26,4.26,0,0,0,281.62,38.59Z" transform="translate(-11.67 -11.75)"/><g class="cls-3"><path class="cls-4" d="M43.43,74.69S32.54,68.38,32.54,55.62,43.4,36.48,43.4,36.48s11.2,8.14,11.2,19.17S43.43,74.69,43.43,74.69Z" transform="translate(-11.67 -11.75)"/><path class="cls-5" d="M43.11,11.75S54,18.07,54,30.82,43.15,50,43.15,50,32,41.82,32,30.79,43.11,11.75,43.11,11.75Z" transform="translate(-11.67 -11.75)"/><path class="cls-6" d="M74.6,43.36S68.28,54.25,55.52,54.25,36.39,43.39,36.39,43.39s8.14-11.2,19.17-11.2S74.6,43.36,74.6,43.36Z" transform="translate(-11.67 -11.75)"/><path class="cls-7" d="M11.67,43.22S18,32.32,30.74,32.32,49.88,43.18,49.88,43.18,41.74,54.39,30.7,54.39,11.67,43.22,11.67,43.22Z" transform="translate(-11.67 -11.75)"/></g><g class="cls-8"><path class="cls-9" d="M63.45,63.73s-12.25,2-19.39-5.16-5.2-19.43-5.2-19.43,12.32-1.85,19.42,5.25S63.45,63.73,63.45,63.73Z" transform="translate(-11.67 -11.75)"/><path class="cls-10" d="M22.81,23.16s12.25-2,19.4,5.16,5.2,19.43,5.2,19.43S35.09,49.6,28,42.5,22.81,23.16,22.81,23.16Z" transform="translate(-11.67 -11.75)"/></g><g class="cls-8"><path class="cls-9" d="M63.42,23.13s2,12.25-5.17,19.39-19.43,5.2-19.43,5.2S37,35.4,44.08,28.3,63.42,23.13,63.42,23.13Z" transform="translate(-11.67 -11.75)"/><path class="cls-9" d="M22.84,63.76s-2-12.25,5.17-19.39,19.43-5.2,19.43-5.2,1.84,12.32-5.26,19.42S22.84,63.76,22.84,63.76Z" transform="translate(-11.67 -11.75)"/></g><path class="cls-11" d="M157.25,60.67h-2.62v-.88h6.29v.88H158.3v7h-1.05Z" transform="translate(-11.67 -11.75)"/><path class="cls-11" d="M165.26,65.84a2.29,2.29,0,0,1-2.43,1.93c-1.81,0-2.67-1.25-2.73-3a2.75,2.75,0,0,1,2.68-3c2,0,2.63,1.88,2.57,3.26h-4.26A1.68,1.68,0,0,0,162.86,67a1.39,1.39,0,0,0,1.48-1.11Zm-.9-1.59a1.64,1.64,0,0,0-3.27,0Z" transform="translate(-11.67 -11.75)"/><path class="cls-11" d="M166.37,59.79h.94v7.85h-.94Z" transform="translate(-11.67 -11.75)"/><path class="cls-11" d="M173.61,65.84a2.29,2.29,0,0,1-2.43,1.93c-1.82,0-2.67-1.25-2.73-3a2.74,2.74,0,0,1,2.67-3c2,0,2.63,1.88,2.58,3.26h-4.26A1.68,1.68,0,0,0,171.21,67a1.39,1.39,0,0,0,1.48-1.11Zm-.9-1.59a1.64,1.64,0,0,0-1.64-1.6,1.62,1.62,0,0,0-1.63,1.6Z" transform="translate(-11.67 -11.75)"/><path class="cls-11" d="M178.53,63.78a1.32,1.32,0,0,0-1.41-1.13c-1.35,0-1.77,1.06-1.77,2.22S175.82,67,177,67a1.47,1.47,0,0,0,1.56-1.39h1A2.36,2.36,0,0,1,177,67.77a2.58,2.58,0,0,1-2.66-2.9c0-1.71.88-3.05,2.68-3.05a2.19,2.19,0,0,1,2.46,2Z" transform="translate(-11.67 -11.75)"/><path class="cls-11" d="M185.61,67.62a1.23,1.23,0,0,1-.67.15c-.48,0-.79-.26-.79-.88a2.51,2.51,0,0,1-2,.88c-1,0-1.88-.46-1.88-1.59,0-1.29.95-1.56,1.92-1.75s1.91-.13,1.91-.84-.67-.94-1.26-.94c-.79,0-1.38.24-1.42,1.07h-.93c0-1.4,1.14-1.9,2.4-1.9,1,0,2.14.23,2.14,1.56v2.93c0,.44,0,.64.3.64a.7.7,0,0,0,.28-.06Zm-1.52-2.92a4.63,4.63,0,0,1-1.69.39c-.62.11-1.15.33-1.15,1s.53.84,1.11.84c1.23,0,1.73-.77,1.73-1.29Z" transform="translate(-11.67 -11.75)"/><path class="cls-11" d="M186.45,62h.88v1.2h0a2.08,2.08,0,0,1,2.09-1.33v1c-1.51,0-2.06.86-2.06,2.3v2.53h-.93Z" transform="translate(-11.67 -11.75)"/><path class="cls-11" d="M194.8,65.84a2.29,2.29,0,0,1-2.43,1.93c-1.82,0-2.68-1.25-2.73-3a2.74,2.74,0,0,1,2.67-3c2,0,2.63,1.88,2.58,3.26h-4.26A1.68,1.68,0,0,0,192.4,67a1.37,1.37,0,0,0,1.47-1.11Zm-.9-1.59a1.64,1.64,0,0,0-1.64-1.6,1.62,1.62,0,0,0-1.63,1.6Z" transform="translate(-11.67 -11.75)"/><path class="cls-11" d="M203.25,66.66A2.64,2.64,0,0,1,201,67.77a2.14,2.14,0,0,1-2.45-2.14c0-1.23.84-1.85,1.84-2.38a3,3,0,0,1-.87-1.85,1.62,1.62,0,0,1,1.77-1.61,1.69,1.69,0,0,1,1.9,1.6,2.48,2.48,0,0,1-1.47,2l1.42,1.72a4.14,4.14,0,0,0,.25-1.22h.89a4.34,4.34,0,0,1-.53,1.94l1.53,1.77h-1.22Zm-2.32-2.82c-.74.42-1.37.84-1.37,1.78a1.43,1.43,0,0,0,1.5,1.33,2,2,0,0,0,1.67-.94Zm1.35-2.39a.91.91,0,0,0-1.81,0c0,.47.42.93.76,1.36C201.68,62.52,202.28,62.11,202.28,61.45Z" transform="translate(-11.67 -11.75)"/><path class="cls-11" d="M209.05,59.79h3.7c1.48,0,2.39.8,2.39,2.05a1.88,1.88,0,0,1-1.37,2v0c.92.17,1.1.84,1.18,1.61a4.07,4.07,0,0,0,.46,2.17h-1.16c-.3-.32-.13-1.17-.29-1.94s-.3-1.41-1.31-1.41H210.1v3.35h-1Zm3.23,3.62c1,0,1.81-.26,1.81-1.4a1.24,1.24,0,0,0-1.39-1.34h-2.6v2.74Z" transform="translate(-11.67 -11.75)"/><path class="cls-11" d="M221.29,65.84a2.3,2.3,0,0,1-2.43,1.93c-1.82,0-2.68-1.25-2.73-3a2.74,2.74,0,0,1,2.67-3c2,0,2.63,1.88,2.57,3.26h-4.25A1.67,1.67,0,0,0,218.89,67a1.37,1.37,0,0,0,1.47-1.11Zm-.91-1.59a1.63,1.63,0,0,0-3.26,0Z" transform="translate(-11.67 -11.75)"/><path class="cls-11" d="M222.34,62h.88v.84h0a2.1,2.1,0,0,1,1.84-1,1.51,1.51,0,0,1,1.56,1,2.11,2.11,0,0,1,1.79-1c1.13,0,1.89.47,1.89,1.65v4.17h-.94V63.91c0-.7-.18-1.26-1.1-1.26a1.37,1.37,0,0,0-1.48,1.45v3.54h-.94V63.91c0-.74-.23-1.26-1.07-1.26a1.52,1.52,0,0,0-1.51,1.45v3.54h-.94Z" transform="translate(-11.67 -11.75)"/><path class="cls-11" d="M234.18,61.82a3,3,0,1,1-2.76,3A2.7,2.7,0,0,1,234.18,61.82Zm0,5.13c1,0,1.77-.77,1.77-2.15s-.79-2.15-1.77-2.15-1.77.77-1.77,2.15S233.2,67,234.18,67Z" transform="translate(-11.67 -11.75)"/><path class="cls-11" d="M239.34,62h1.13v.83h-1.13v3.53c0,.43.12.51.7.51h.43v.82h-.72c-1,0-1.35-.2-1.35-1.24V62.78h-1V62h1v-1.7h.94Z" transform="translate(-11.67 -11.75)"/><path class="cls-11" d="M246.36,65.84a2.3,2.3,0,0,1-2.44,1.93c-1.81,0-2.67-1.25-2.72-3a2.74,2.74,0,0,1,2.67-3c2,0,2.63,1.88,2.57,3.26h-4.25A1.67,1.67,0,0,0,244,67a1.37,1.37,0,0,0,1.47-1.11Zm-.91-1.59a1.63,1.63,0,0,0-1.64-1.6,1.6,1.6,0,0,0-1.62,1.6Z" transform="translate(-11.67 -11.75)"/><path class="cls-11" d="M255.17,62.08a1.72,1.72,0,0,0-1.95-1.6c-.88,0-1.76.32-1.76,1.34s1.25,1.11,2.52,1.4,2.51.72,2.51,2.26-1.64,2.35-3.07,2.35c-1.76,0-3.25-.86-3.25-2.77h1c0,1.31,1.1,1.89,2.29,1.89,1,0,2-.3,2-1.43s-1.25-1.27-2.51-1.54-2.52-.64-2.52-2.08c0-1.6,1.42-2.3,2.85-2.3,1.61,0,2.83.76,2.9,2.48Z" transform="translate(-11.67 -11.75)"/><path class="cls-11" d="M262.08,67.64h-.88v-.9h0a2,2,0,0,1-1.85,1c-1.49,0-1.95-.86-1.95-2.08V62h.93V65.8A1.07,1.07,0,0,0,259.47,67a1.6,1.6,0,0,0,1.68-1.78V62h.93Z" transform="translate(-11.67 -11.75)"/><path class="cls-11" d="M263.31,62h.93v.77h0a1.94,1.94,0,0,1,1.82-.9c1.75,0,2.62,1.39,2.62,3s-.86,3-2.6,3a2.19,2.19,0,0,1-1.84-.89h0v2.94h-.93Zm2.64.7c-1.26,0-1.74,1.07-1.74,2.14S264.71,67,266,67s1.71-1.09,1.71-2.2S267.16,62.65,266,62.65Z" transform="translate(-11.67 -11.75)"/><path class="cls-11" d="M269.61,62h.93v.77h0a1.94,1.94,0,0,1,1.82-.9c1.75,0,2.62,1.39,2.62,3s-.86,3-2.6,3a2.19,2.19,0,0,1-1.84-.89h0v2.94h-.93Zm2.64.7c-1.26,0-1.74,1.07-1.74,2.14S271,67,272.3,67s1.71-1.09,1.71-2.2S273.46,62.65,272.25,62.65Z" transform="translate(-11.67 -11.75)"/><path class="cls-11" d="M278.55,61.82a3,3,0,1,1-2.76,3A2.69,2.69,0,0,1,278.55,61.82Zm0,5.13c1,0,1.77-.77,1.77-2.15s-.79-2.15-1.77-2.15-1.77.77-1.77,2.15S277.57,67,278.55,67Z" transform="translate(-11.67 -11.75)"/><path class="cls-11" d="M282.38,62h.88v1.2h0a2.08,2.08,0,0,1,2.09-1.33v1c-1.51,0-2.06.86-2.06,2.3v2.53h-.93Z" transform="translate(-11.67 -11.75)"/><path class="cls-11" d="M287.81,62H289v.83h-1.14v3.53c0,.43.12.51.71.51H289v.82h-.72c-1,0-1.35-.2-1.35-1.24V62.78h-1V62h1v-1.7h.93Z" transform="translate(-11.67 -11.75)"/><path class="cls-2" d="M291.94,33.7a3.69,3.69,0,1,1,3.67,3.62A3.58,3.58,0,0,1,291.94,33.7Zm6.61,0a2.92,2.92,0,1,0-2.94,2.91A2.79,2.79,0,0,0,298.55,33.72Zm-4.3-1.94h1.51c1,0,1.5.53,1.5,1.27a1.15,1.15,0,0,1-.73,1.14l.8,1.39h-1l-.7-1.26h-.51v1.26h-.9Zm1.51,1.86a.53.53,0,0,0,.6-.57c0-.34-.23-.51-.6-.51h-.61v1.08Z" transform="translate(-11.67 -11.75)"/></g></g></svg>