<svg height="496pt" viewBox="0 -15 496 495" width="496pt" xmlns="http://www.w3.org/2000/svg"><path d="m235.152344 313.148438c-14.464844-6.191407-29.824219-11.6875-44.671875-17.007813-4.855469-1.734375-9.679688-3.480469-14.480469-5.242187v-32.796876c12.085938-11.808593 21.789062-25.828124 28.574219-41.296874 2.566406-.621094 4.96875-1.773438 7.058593-3.382813 7.917969-7.222656 12.824219-17.167969 13.726563-27.851563 2.488281-11.882812-1.253906-24.214843-9.925781-32.710937-3.539063-54.703125-47.433594-88.359375-87.433594-88.359375s-83.910156 33.65625-87.449219 88.335938c-8.667969 8.5-12.40625 20.828124-9.917969 32.710937.894532 10.683594 5.796876 20.636719 13.71875 27.855469 2.089844 1.605468 4.488282 2.75 7.046876 3.371094 6.789062 15.484374 16.5 29.515624 28.601562 41.328124v32.796876c-5.792969 2.082031-11.503906 4-17.167969 5.953124-20.429687 6.183594-40.164062 14.476563-58.878906 24.746094-2.449219 1.433594-3.953125 4.0625-3.953125 6.902344v128c0 4.417969 3.582031 8 8 8h224c4.417969 0 8-3.582031 8-8v-136c0-3.199219-1.90625-6.089844-4.847656-7.351562zm-178.351563-112.082032c-.484375.003906-.964843.046875-1.441406.128906h-.175781c-.457032-.097656-.878906-.308593-1.230469-.617187-4.40625-4.730469-7.050781-10.835937-7.496094-17.285156-1.410156-10.03125 2.03125-17.328125 4.949219-18.546875 2.921875-1.210938 4.855469-4.035156 4.929688-7.199219 1.183593-47.558594 38.121093-77.046875 71.664062-77.046875s70.472656 29.480469 71.632812 77.089844c.074219 3.160156 2.003907 5.984375 4.925782 7.199218 2.921875 1.214844 6.402344 8.511719 4.960937 18.535157-.445312 6.449219-3.09375 12.554687-7.496093 17.289062-.359376.3125-.800782.523438-1.269532.605469h-.144531c-3.726563-.675781-7.417969 1.355469-8.839844 4.867188-13.753906 33.839843-40.570312 58.414062-63.769531 58.414062-22.824219 0-50.238281-25.128906-63.769531-58.398438-1.214844-3.042968-4.15625-5.035156-7.429688-5.035156zm78.597657 151.433594h-14.8125l-12.171876-20.871094 6.257813-11.128906h26.640625l6.261719 11.136719zm-10.398438 16h6.078125l16 80h-38.125zm99 80h-60.648438l-16.726562-83.617188c.097656-.109374.1875-.226562.269531-.351562l16.800781-28.800781c1.441407-2.449219 1.464844-5.480469.066407-7.949219l-10.808594-19.203125c-1.417969-2.515625-4.082031-4.074219-6.96875-4.078125h-36c-2.890625 0-5.558594 1.558594-6.976563 4.078125l-10.800781 19.203125c-1.390625 2.472656-1.367187 5.5.066407 7.949219l16.796874 28.800781c.082032.136719.195313.242188.28125.367188l-16.710937 83.601562h-76.640625v-115.34375c16.675781-8.574219 34.074219-15.652344 52-21.152344 7.496094-2.550781 15.097656-5.144531 22.808594-8 3.125-1.171875 5.195312-4.164062 5.191406-7.503906v-25.96875c9.542969 6.210938 20.617188 9.660156 32 9.96875 11.382812-.3125 22.457031-3.765625 32-9.976562v25.976562c-.003906 3.34375 2.074219 6.335938 5.207031 7.503906 6.570313 2.398438 13.207031 4.800782 19.871094 7.199219 12.960937 4.640625 26.304687 9.425781 38.921875 14.625zm0 0"/><path d="m288 112.5c-4.417969 0-8 3.582031-8 8s3.582031 8 8 8h24c4.417969 0 8-3.582031 8-8v-24c0-4.417969-3.582031-8-8-8h-16v-8h16c4.417969 0 8-3.582031 8-8s-3.582031-8-8-8h-24c-4.417969 0-8 3.582031-8 8v24c0 4.417969 3.582031 8 8 8h16v8zm0 0"/><path d="m336 128.5c4.417969 0 8-3.582031 8-8v-16h8v16c0 4.417969 3.582031 8 8 8s8-3.582031 8-8v-48c0-4.417969-3.582031-8-8-8h-24c-4.417969 0-8 3.582031-8 8v48c0 4.417969 3.582031 8 8 8zm8-48h8v8h-8zm0 0"/><path d="m384 128.5h24c4.417969 0 8-3.582031 8-8s-3.582031-8-8-8h-16v-40c0-4.417969-3.582031-8-8-8s-8 3.582031-8 8v48c0 4.417969 3.582031 8 8 8zm0 0"/><path d="m424 128.5h24c4.417969 0 8-3.582031 8-8s-3.582031-8-8-8h-16v-8h16c4.417969 0 8-3.582031 8-8s-3.582031-8-8-8h-16v-8h16c4.417969 0 8-3.582031 8-8s-3.582031-8-8-8h-24c-4.417969 0-8 3.582031-8 8v48c0 4.417969 3.582031 8 8 8zm0 0"/><path d="m284.976562 169.667969.800782.496093c6.167968 3.871094 9.40625 6.457032 8.863281 8.992188-.753906 3.597656-1.824219 7.125-3.199219 10.535156-3.152344 8.148438-8.667968 15.164063-15.839844 20.152344-2.929687 1.953125-4.238281 5.585938-3.226562 8.957031 1.011719 3.371094 4.105469 5.683594 7.625 5.699219 2.054688 0 49.273438-.375 75.9375-32.105469l3.6875-.09375c2.773438.128907 5.597656.199219 8.375.199219 70.574219 0 128-43.0625 128-96s-57.425781-96-128-96-128 43.0625-128 96c.359375 19.328125 7.640625 37.886719 20.527344 52.296875 7.074218 8.125 15.3125 15.15625 24.449218 20.871094zm83.023438-153.167969c61.761719 0 112 35.886719 112 80s-50.238281 80-112 80c-2.558594 0-5.105469-.0625-8.183594-.183594l-8 .183594c-2.453125.058594-4.746094 1.238281-6.214844 3.199219-11.351562 13.558593-27.066406 22.746093-44.449218 25.976562 1.953125-3.152343 3.640625-6.460937 5.039062-9.894531 1.75-4.292969 3.113282-8.730469 4.082032-13.265625 3.007812-13.984375-9.363282-21.734375-16-25.902344l-.761719-.480469c-7.796875-4.867187-14.828125-10.867187-20.863281-17.800781-10.378907-11.5-16.285157-26.34375-16.648438-41.832031 0-44.113281 50.238281-80 112-80zm0 0"/><path d="m448 304.5h-32v-24c0-4.417969-3.582031-8-8-8h-96c-4.417969 0-8 3.582031-8 8v24h-32c-13.253906 0-24 10.746094-24 24v112c0 13.253906 10.746094 24 24 24h176c13.253906 0 24-10.746094 24-24v-112c0-13.253906-10.746094-24-24-24zm-128-16h80v16h-80zm-56 40c0-4.417969 3.582031-8 8-8h176c4.417969 0 8 3.582031 8 8v32h-192zm136 48h16v16h-16zm-96 0h16v16h-16zm152 64c0 4.417969-3.582031 8-8 8h-176c-4.417969 0-8-3.582031-8-8v-64h24v24c0 4.417969 3.582031 8 8 8h32c4.417969 0 8-3.582031 8-8v-24h48v24c0 4.417969 3.582031 8 8 8h32c4.417969 0 8-3.582031 8-8v-24h24zm0 0"/></svg>