<svg id="Capa_1" enable-background="new 0 0 512 512" height="512" viewBox="0 0 512 512" width="512" xmlns="http://www.w3.org/2000/svg"><path d="m473.5 0h-435c-4.143 0-7.5 3.357-7.5 7.5v497c0 4.143 3.357 7.5 7.5 7.5h255c14.188 0 27.07-5.667 36.528-14.844.205-.166.404-.343.595-.533l135-135c.191-.191.368-.39.534-.596 9.177-9.457 14.843-22.34 14.843-36.527v-317c0-4.143-3.357-7.5-7.5-7.5zm-427.5 497v-408.007h37.5c4.143 0 7.5-3.357 7.5-7.5s-3.357-7.5-7.5-7.5h-37.5v-58.993h420v58.993h-352.5c-4.143 0-7.5 3.357-7.5 7.5s3.357 7.5 7.5 7.5h352.5v235.507c0 20.678-16.822 37.5-37.5 37.5h-90c-4.143 0-7.5 3.357-7.5 7.5v90c0 20.678-16.822 37.5-37.5 37.5zm383.045-120.014-83.059 83.059c.002-.182.014-.362.014-.545v-82.5h82.5c.183 0 .363-.012.545-.014z"/><path d="m428.5 118.993h15c4.143 0 7.5-3.357 7.5-7.5s-3.357-7.5-7.5-7.5h-15c-4.143 0-7.5 3.357-7.5 7.5s3.357 7.5 7.5 7.5z"/><path d="m383.5 118.993h15c4.143 0 7.5-3.357 7.5-7.5s-3.357-7.5-7.5-7.5h-15c-4.143 0-7.5 3.357-7.5 7.5s3.357 7.5 7.5 7.5z"/><path d="m338.5 118.993h15c4.143 0 7.5-3.357 7.5-7.5s-3.357-7.5-7.5-7.5h-15c-4.143 0-7.5 3.357-7.5 7.5s3.357 7.5 7.5 7.5z"/><path d="m293.5 118.993h15c4.143 0 7.5-3.357 7.5-7.5s-3.357-7.5-7.5-7.5h-15c-4.143 0-7.5 3.357-7.5 7.5s3.357 7.5 7.5 7.5z"/><path d="m248.5 118.993h15c4.143 0 7.5-3.357 7.5-7.5s-3.357-7.5-7.5-7.5h-15c-4.143 0-7.5 3.357-7.5 7.5s3.357 7.5 7.5 7.5z"/><path d="m218.5 118.993c4.143 0 7.5-3.357 7.5-7.5s-3.357-7.5-7.5-7.5h-15c-4.143 0-7.5 3.357-7.5 7.5s3.357 7.5 7.5 7.5z"/><path d="m158.5 118.993h15c4.143 0 7.5-3.357 7.5-7.5s-3.357-7.5-7.5-7.5h-15c-4.143 0-7.5 3.357-7.5 7.5s3.357 7.5 7.5 7.5z"/><path d="m113.5 118.993h15c4.143 0 7.5-3.357 7.5-7.5s-3.357-7.5-7.5-7.5h-15c-4.143 0-7.5 3.357-7.5 7.5s3.357 7.5 7.5 7.5z"/><path d="m68.5 118.993h15c4.143 0 7.5-3.357 7.5-7.5s-3.357-7.5-7.5-7.5h-15c-4.143 0-7.5 3.357-7.5 7.5s3.357 7.5 7.5 7.5z"/><path d="m351 156.477v168.023c0 12.406 10.094 22.5 22.5 22.5h55c6.121 0 12.056-2.541 16.281-6.971 4.287-4.493 6.486-10.392 6.192-16.607-.565-12.013-10.622-21.422-22.897-21.422h-32.076v-145.1c0-12.274-9.409-22.333-21.422-22.899-6.219-.28-12.115 1.908-16.608 6.194-4.43 4.226-6.97 10.16-6.97 16.282zm15 0c0-2.07.825-3.998 2.324-5.429 1.409-1.344 3.236-2.071 5.181-2.071.122 0 .245.003.368.008 3.93.186 7.127 3.736 7.127 7.916v152.6c0 4.143 3.357 7.5 7.5 7.5h39.576c4.179 0 7.729 3.197 7.915 7.128.098 2.08-.635 4.05-2.063 5.548-1.43 1.499-3.357 2.324-5.428 2.324h-55c-4.136 0-7.5-3.364-7.5-7.5z"/><path d="m329.585 314.35-37.366-73.853 37.368-73.858c2.71-5.364 3.167-11.463 1.289-17.173-1.878-5.709-5.867-10.345-11.231-13.053-11.068-5.592-24.632-1.133-30.224 9.937l-22.418 44.309-22.416-44.304c-5.594-11.075-19.153-15.533-30.225-9.942-5.365 2.709-9.354 7.345-11.232 13.054-1.878 5.71-1.421 11.809 1.291 17.178l37.366 73.854-37.369 73.857c-5.592 11.075-1.132 24.635 9.942 30.228 3.243 1.638 6.699 2.413 10.106 2.413 8.227-.001 16.165-4.523 20.118-12.352l22.418-44.309 22.415 44.304c5.593 11.074 19.154 15.536 30.228 9.942 11.075-5.593 15.535-19.152 9.94-30.232zm-16.701 16.841c-3.691 1.865-8.211.377-10.078-3.319l-29.11-57.535c-1.277-2.523-3.864-4.114-6.692-4.114s-5.415 1.591-6.692 4.114l-29.113 57.54c-1.864 3.692-6.384 5.176-10.075 3.315-3.691-1.864-5.178-6.385-3.316-10.071l39.079-77.238c1.077-2.129 1.077-4.643 0-6.771l-39.077-77.234c-.902-1.788-1.055-3.82-.429-5.724s1.955-3.448 3.744-4.352c1.064-.537 2.215-.809 3.373-.809.788 0 1.58.126 2.351.379 1.902.626 3.448 1.956 4.354 3.749l29.11 57.536c1.277 2.523 3.864 4.114 6.692 4.114s5.415-1.591 6.692-4.114l29.112-57.541c.903-1.788 2.449-3.118 4.352-3.744 1.901-.625 3.935-.474 5.725.431 1.788.902 3.117 2.447 3.743 4.351s.474 3.936-.427 5.719l-39.079 77.239c-1.077 2.129-1.077 4.643 0 6.771l39.076 77.233c1.863 3.692.376 8.212-3.315 10.075z"/><path d="m189.876 149.466c-1.878-5.709-5.866-10.345-11.23-13.054-11.074-5.589-24.635-1.133-30.225 9.938l-22.418 44.309-22.415-44.303c-2.709-5.365-7.345-9.354-13.054-11.231-5.71-1.879-11.808-1.421-17.172 1.288-5.365 2.709-9.354 7.345-11.232 13.054-1.878 5.71-1.421 11.809 1.291 17.178l37.366 73.854-37.369 73.857c-5.592 11.075-1.131 24.635 9.943 30.227 3.192 1.612 6.644 2.428 10.119 2.428 2.365 0 4.741-.378 7.054-1.139 5.709-1.878 10.345-5.867 13.051-11.227l22.418-44.309 22.415 44.304c5.593 11.074 19.153 15.536 30.228 9.942 11.074-5.592 15.534-19.151 9.939-30.231l-37.366-73.853 37.368-73.858c2.71-5.366 3.167-11.464 1.289-17.174zm-14.676 10.406-39.079 77.239c-1.077 2.129-1.077 4.643 0 6.771l39.076 77.233c1.864 3.691.378 8.212-3.313 10.075-3.691 1.865-8.211.377-10.078-3.319l-29.11-57.535c-1.277-2.523-3.864-4.114-6.692-4.114s-5.415 1.591-6.692 4.114l-29.113 57.541c-.902 1.788-2.447 3.117-4.351 3.743-1.903.627-3.938.474-5.724-.43-3.692-1.863-5.179-6.384-3.317-10.07l39.079-77.238c1.077-2.129 1.077-4.643 0-6.771l-39.077-77.234c-.902-1.788-1.055-3.82-.429-5.724s1.955-3.448 3.744-4.352c1.064-.537 2.215-.809 3.373-.809.788 0 1.58.126 2.351.379 1.903.626 3.448 1.956 4.354 3.749l29.11 57.536c1.277 2.523 3.864 4.114 6.692 4.114s5.415-1.591 6.692-4.114l29.112-57.541c1.863-3.69 6.382-5.181 10.077-3.313 1.787.902 3.117 2.447 3.743 4.351.626 1.903.473 3.936-.428 5.719z"/></svg>