<svg width="96" height="96" viewBox="0 0 96 96" fill="auto" xmlns="http://www.w3.org/2000/svg">
<path d="M30.3051 64.3754C30.8646 64.3754 31.3542 64.8675 31.3542 65.4299C31.3542 65.9923 30.8646 66.4844 30.3051 66.4844C29.7455 66.4844 29.256 65.9923 29.256 65.4299C29.256 64.8675 29.7455 64.3754 30.3051 64.3754ZM61.7083 38.8563C64.3661 38.5751 66.9539 37.7315 69.2619 36.3255C71.1503 35.2007 72.5491 33.3026 73.1086 31.1936C73.1786 30.8421 73.5283 30.5609 73.9479 30.6312C74.1577 30.7015 74.3676 30.8421 74.5074 31.1233C75.1369 33.162 76.186 35.0601 77.6548 36.6067C78.9137 37.8721 80.4524 38.6454 82.2009 38.9266C82.2708 38.2939 82.3408 37.5909 82.3408 36.8879C82.2708 36.0443 82.131 35.2007 81.8512 34.4274C81.1518 32.3887 79.8229 30.5609 78.0045 29.3658C76.186 28.1003 74.0878 27.4676 71.8497 27.5379C69.8214 27.5379 67.8631 28.1003 66.1845 29.2251C64.5759 30.35 63.3869 31.8966 62.6875 33.7244C62.3378 34.6383 62.058 35.5522 61.9182 36.5364C61.7783 37.2394 61.7083 38.0127 61.7083 38.8563ZM76.5357 39.9811C77.3051 39.9811 77.8646 40.5435 77.8646 41.3168C77.8646 42.0901 77.3051 42.6525 76.5357 42.6525C75.7664 42.6525 75.2068 42.0901 75.2068 41.3168C75.2068 40.5435 75.7664 39.9811 76.5357 39.9811ZM67.5833 39.9811C68.3527 39.9811 68.9122 40.5435 68.9122 41.3168C68.9122 42.0901 68.3527 42.6525 67.5833 42.6525C66.814 42.6525 66.2545 42.0901 66.2545 41.3168C66.2545 40.5435 66.8839 39.9811 67.5833 39.9811ZM59.0506 47.8548C59.4702 47.6439 59.9598 47.433 60.3795 47.2221C61.1488 46.9409 61.9182 46.5894 62.6875 46.3784C62.6176 45.9566 62.5476 45.6051 62.4777 45.1833C61.7083 44.6912 61.0789 43.9179 60.7991 43.0743C60.4494 42.0198 60.2396 40.9653 60.3095 39.9108C60.3095 39.8405 60.3095 39.7702 60.3095 39.7702C60.2396 38.6454 60.3095 37.4503 60.5193 36.3255C60.6592 35.271 60.939 34.2165 61.3586 33.2323C62.058 31.2639 63.317 29.5767 64.9955 28.3112C64.7158 27.6785 64.506 26.9755 64.506 26.2725C64.506 25.4992 64.7857 24.6556 65.3452 24.0932C66.744 22.7575 68.5625 21.9139 70.5208 21.7733C72.689 21.4921 74.9271 21.8436 76.8854 22.7575C78.2143 23.4605 79.0536 24.2338 79.3333 25.218C79.6131 26.2725 79.4033 27.3973 78.7738 28.3112C80.8021 29.7173 82.2708 31.756 83.1101 34.0759C83.4598 34.9898 83.5997 35.974 83.6696 36.8879C83.7396 37.8018 83.6696 38.7157 83.4598 39.6296C83.4598 39.6999 83.4598 39.7702 83.4598 39.7702C83.5997 40.8247 83.5298 41.9495 83.25 43.004C82.9003 44.0585 82.3408 45.113 81.5714 45.8863C81.5015 46.0972 81.4315 46.3081 81.4315 46.5191C81.9911 46.6597 82.5506 46.8706 83.1101 47.0112C83.1801 47.0112 83.25 47.0112 83.3199 47.0815C83.3899 47.0815 83.4598 47.1518 83.5298 47.2221C84.0193 47.433 84.5789 47.6439 85.0685 47.9251C88.2158 49.4717 90.4539 51.2292 92.0625 53.4788C93.6711 55.7284 94.5104 58.4701 95 62.1257V62.196V74.4986C95 74.9204 94.6503 75.2016 94.3006 75.2016C93.9509 75.2016 93.6012 74.8501 93.6012 74.4986V62.196C93.1815 58.8216 92.3423 56.2908 90.9434 54.2521C89.5446 52.2134 87.4464 50.5965 84.5089 49.1202C84.1592 48.9796 83.8095 48.7687 83.5298 48.6281C82.131 52.4243 80.5923 55.2363 78.7738 57.0641C77.1652 58.9622 74.7872 60.087 72.2693 60.2276C69.6116 60.087 67.0238 58.8919 65.2054 56.9938C64.1562 55.9393 63.317 54.7442 62.6176 53.4085C62.4777 53.057 62.3378 52.7055 62.1979 52.4243C62.058 52.1431 61.8482 51.651 61.6384 51.2995C61.2887 50.4559 60.939 49.542 60.6592 48.6281L60.0298 48.9093C59.6801 48.5578 59.3304 48.2063 59.0506 47.8548ZM64.2262 46.73C64.2262 46.8003 64.2961 46.8706 64.2961 46.9409C64.506 47.7142 64.7857 48.4875 65.2753 49.1202C65.9747 50.1747 67.0238 50.8777 68.2128 51.1589C68.2827 51.1589 68.4226 51.2292 68.4926 51.2995C69.4717 52.0728 70.6607 52.5649 71.9196 52.5649C73.1786 52.4946 74.4375 52.0728 75.4167 51.2995C75.5565 51.2292 75.6964 51.1589 75.8363 51.1589C76.8854 51.0886 77.8646 50.5262 78.494 49.6826C79.4033 48.3469 80.0327 46.8706 80.3125 45.3239C80.3125 45.1833 80.3824 45.113 80.5223 44.9724C81.2217 44.2694 81.7113 43.4258 82.061 42.5119C82.2708 41.8089 82.3408 41.1059 82.2708 40.3326C80.1726 40.0514 78.2143 39.1375 76.7455 37.5909C75.5565 36.3958 74.6473 34.9195 73.9479 33.3729C73.1086 35.0601 71.7798 36.5364 70.1012 37.5206C67.5833 39.0672 64.7158 40.0514 61.7783 40.3326C61.7783 41.1059 61.9182 41.8089 62.1979 42.5822C62.4077 43.2852 62.8973 43.7773 63.5268 44.1288C63.7366 44.2694 63.8765 44.4803 63.9464 44.6912C63.9464 45.3239 64.0164 46.0269 64.2262 46.73ZM63.0372 47.7142C62.6875 47.8548 62.2679 47.9954 61.9182 48.136C63.0372 51.7213 64.436 54.3224 66.1146 56.0799C67.7232 57.7671 69.8914 58.7513 72.2693 58.8919C74.3676 58.8216 76.3958 57.8374 77.7247 56.2205C79.3333 54.463 80.872 51.7916 82.131 48.2063C81.7113 48.0657 81.3616 47.9251 80.942 47.8548C80.5923 48.839 80.1027 49.7529 79.4732 50.5965C78.6339 51.7213 77.375 52.4243 76.0461 52.5649C74.8571 53.4788 73.3884 53.9709 71.9196 54.0412C70.3809 54.0412 68.9122 53.5491 67.7232 52.5649C66.2545 52.2134 64.9256 51.2995 64.0863 49.9638C63.5967 49.2608 63.247 48.5578 63.0372 47.7142ZM86.4673 61.7039C86.3973 61.3524 86.6071 60.9306 87.0268 60.8603C87.3765 60.79 87.7961 61.0009 87.8661 61.4227C87.8661 61.4227 87.8661 61.4227 87.8661 61.493C88.4955 64.0239 88.7753 66.625 88.9152 69.1558C88.9152 71.4757 88.4955 73.3035 87.3765 74.5689C85.2083 76.9591 82.061 75.8343 79.6131 74.9204L78.9836 74.7095C78.6339 74.5689 78.4241 74.2174 78.564 73.7956C78.7039 73.4441 79.1235 73.2332 79.4732 73.3738L80.1027 73.5847C82.2009 74.358 84.8586 75.2719 86.3973 73.5847C87.2366 72.6708 87.5164 71.1242 87.5164 69.1558C87.3065 66.625 87.0268 64.1645 86.4673 61.7039ZM77.5848 27.4676C78.0045 26.9052 78.1443 26.2022 78.0045 25.5695C77.7946 24.9368 77.2351 24.4447 76.256 23.9526C74.5074 23.1793 72.5491 22.8981 70.6607 23.1793C69.0521 23.2496 67.5833 23.8823 66.3943 25.0071C66.1146 25.3586 65.9048 25.7804 65.9048 26.2725C65.9048 26.6943 65.9747 27.1161 66.1845 27.5379C67.933 26.624 69.8214 26.1319 71.7798 26.1319C73.7381 25.9913 75.7664 26.4834 77.5848 27.4676ZM68.8423 48.3469C68.4926 48.136 68.4226 47.7142 68.6324 47.3627C68.8423 47.0112 69.3318 46.9409 69.6116 47.1518C70.311 47.7142 71.1503 47.9954 71.9896 47.9954C72.7589 47.9954 73.5283 47.6439 74.0878 47.1518C74.3676 46.8706 74.8571 46.9409 75.067 47.2924C75.3467 47.5736 75.2768 48.0657 74.9271 48.2766C74.0878 48.9796 73.0387 49.4014 71.9196 49.4717C70.8705 49.4014 69.7515 48.9796 68.8423 48.3469ZM26.6682 45.9566C26.2485 45.6754 26.1786 45.1833 26.3884 44.7615C26.6682 44.3397 27.1577 44.2694 27.5774 44.4803C29.256 45.7457 31.494 45.7457 33.1027 44.4803C33.5223 44.1991 34.0119 44.3397 34.2917 44.6912C34.5714 45.113 34.4315 45.6051 34.0119 45.8863C31.9137 47.6439 28.9063 47.6439 26.6682 45.9566ZM23.5908 38.1533C23.1711 38.3642 22.6116 38.2236 22.4018 37.8018C22.192 37.38 22.3318 36.8176 22.7515 36.6067C23.4509 36.1849 24.2902 35.974 25.1295 35.974C25.8988 35.974 26.7381 36.1849 27.4375 36.6067C27.8571 36.8176 28.067 37.3097 27.8571 37.8018C27.6473 38.2236 27.1577 38.4345 26.6682 38.2236C26.1786 37.9424 25.689 37.8018 25.1295 37.8018C24.5699 37.7315 24.0804 37.8721 23.5908 38.1533ZM34.5015 38.1533C34.0818 38.3642 33.5223 38.2236 33.3125 37.8018C33.1027 37.38 33.2426 36.8176 33.6622 36.6067C34.3616 36.1849 35.2009 35.974 36.0402 35.974C36.8095 35.974 37.6488 36.1849 38.3482 36.6067C38.7679 36.8176 38.9777 37.3097 38.7679 37.8018C38.558 38.2939 38.0685 38.4345 37.5789 38.2236C37.0893 37.9424 36.5997 37.8018 36.0402 37.8018C35.4807 37.7315 34.9911 37.8721 34.5015 38.1533ZM10.372 65.4299C10.372 64.9378 10.7917 64.5863 11.2113 64.5863C11.7009 64.5863 12.0506 65.0081 12.0506 65.4299V74.9907C12.0506 75.4828 11.631 75.8343 11.2113 75.8343C10.7917 75.8343 10.372 75.4125 10.372 74.9907V65.4299ZM48.5595 65.4299C48.5595 64.9378 48.9792 64.5863 49.3988 64.5863C49.8185 64.5863 50.2381 65.0081 50.2381 65.4299V74.9907C50.2381 75.4828 49.8185 75.8343 49.3988 75.8343C48.9092 75.8343 48.5595 75.4125 48.5595 74.9907V65.4299ZM41.8452 42.1604C44.0833 43.2852 46.1116 44.41 48.1399 45.6051C50.0982 46.8003 52.1964 48.136 54.2247 49.6123C54.2946 49.6123 54.2946 49.6826 54.3646 49.6826C55.9033 50.948 57.1622 52.5649 58.0015 54.3927C59.0506 56.7829 59.6101 59.3137 59.75 61.8445V61.9148V74.358C59.75 74.8501 59.3304 75.2016 58.9107 75.2016C58.4211 75.2016 58.0714 74.7798 58.0714 74.358V61.9851C58.0015 59.6652 57.442 57.3453 56.5327 55.2363C55.7634 53.6194 54.7143 52.2134 53.3854 51.0886C51.4271 49.6826 49.4687 48.4172 47.4405 47.1518C46.8809 46.8706 46.3914 46.5191 45.8318 46.2378C44.0134 53.8303 41.0759 59.4543 36.8095 63.1099C34.5015 61.6336 32.3333 59.8761 30.4449 57.9077C28.5565 59.8761 26.4583 61.5633 24.1503 62.899C19.744 59.384 16.9464 53.5491 15.4077 45.8863C14.7783 46.2378 14.0789 46.6597 13.4494 47.0112C11.3512 48.2766 9.39286 49.6123 7.36458 51.0183C6.03571 52.1431 4.91667 53.5491 4.21726 55.166C3.30804 57.3453 2.74851 59.5949 2.67857 61.9148V74.358C2.67857 74.8501 2.25893 75.2016 1.83929 75.2016C1.3497 75.2016 1 74.7798 1 74.358V61.9851V61.9148C1.06994 59.3137 1.6994 56.7829 2.74851 54.463C3.5878 52.6352 4.84673 51.0183 6.38542 49.7529L6.45536 49.6826C8.48363 48.2766 10.5119 46.8706 12.6101 45.5348C14.7083 44.1991 16.6667 43.1446 18.9048 42.0198L18.8348 41.5277C17.8557 40.895 17.1563 39.8405 16.9464 38.6454C16.7366 37.3097 17.0164 35.974 17.6458 34.7789L17.7158 34.7086C16.9464 32.8105 16.9464 30.6312 17.6458 28.733C18.5551 26.5537 20.0938 24.7259 22.0521 23.4605H22.122C24.6399 21.8436 27.5774 21 30.5149 21C33.4524 21.0703 36.3899 21.9139 38.9077 23.4605C40.7961 24.4447 42.2649 25.921 43.244 27.8191C44.1533 29.8579 44.2232 32.1075 43.5938 34.2868C43.9435 35.6225 44.0833 37.0285 43.8735 38.4345C43.6637 39.6999 42.9643 40.895 41.9152 41.598L41.8452 42.1604ZM22.7515 49.8232C23.8006 53.4085 26.2485 56.2205 30.5149 57.9077C34.1518 56.8532 37.0193 53.6194 38.628 49.6123L38.4881 49.4717C37.7188 50.1044 36.8095 50.6668 35.9003 51.0886C34.2917 51.8619 32.5432 52.2837 30.7247 52.2837C28.9063 52.354 27.1577 52.0728 25.4792 51.3698C24.4301 51.0183 23.5208 50.4559 22.7515 49.8232ZM23.9405 24.2338C23.9405 26.2725 23.5908 28.3112 22.8214 30.2797C22.0521 32.2481 20.933 34.0056 19.3943 35.4116C19.3244 35.4819 19.1845 35.5522 19.1146 35.6225C18.625 36.4661 18.4851 37.4503 18.625 38.3642C18.7649 39.1375 19.1845 39.7702 19.8839 40.192L20.0238 40.2623C20.3036 40.4029 20.4435 40.6841 20.5134 40.9653L20.6533 42.5119C20.933 45.816 23.0313 48.6281 26.1086 49.8232C27.5774 50.3856 29.1161 50.6668 30.6548 50.5965C32.1935 50.5262 33.7321 50.1747 35.131 49.542C37.9286 48.3469 39.8869 45.6754 40.0967 42.5822V42.5119L40.2366 40.9653C40.2366 40.6841 40.4464 40.4732 40.6563 40.3326C41.4955 39.8405 42.0551 38.9969 42.1949 38.083C42.3348 37.0988 42.2649 36.1146 42.0551 35.1304C41.9152 35.1304 41.8452 35.1304 41.7054 35.0601C39.9568 34.1462 38.628 32.6699 37.9286 30.8421C37.0193 28.733 36.5298 26.4834 36.5298 24.1635C34.6414 23.2496 32.5432 22.7575 30.4449 22.6872C28.2068 22.6169 25.9688 23.1793 23.9405 24.2338ZM19.0446 33.3026C20.0238 32.2481 20.7232 30.9827 21.2827 29.647C21.7723 28.3112 22.122 26.8349 22.192 25.4289C20.8631 26.4131 19.8839 27.7488 19.1845 29.2954C18.7649 30.5609 18.6949 31.9669 19.0446 33.3026ZM42.0551 33.2323C42.4747 31.6857 42.3348 29.9985 41.7054 28.5221C40.936 27.0458 39.747 25.8507 38.3482 25.0774C38.4881 26.8349 38.8378 28.5221 39.5372 30.0688C39.9568 31.3342 40.8661 32.459 42.0551 33.2323ZM30.3051 72.7411C30.8646 72.7411 31.3542 73.2332 31.3542 73.7956C31.3542 74.358 30.8646 74.8501 30.3051 74.8501C29.7455 74.8501 29.256 74.358 29.256 73.7956C29.256 73.2332 29.7455 72.7411 30.3051 72.7411ZM30.3051 68.5934C30.8646 68.5934 31.3542 69.0855 31.3542 69.6479C31.3542 70.2103 30.8646 70.7024 30.3051 70.7024C29.7455 70.7024 29.256 70.2103 29.256 69.6479C29.256 69.0152 29.7455 68.5934 30.3051 68.5934Z"/>
</svg>
