<svg width="96" height="96" viewBox="0 0 96 96" fill="auto" xmlns="http://www.w3.org/2000/svg">
<path d="M42.5167 60.7255V78.8205H40.245V59.7855L37.425 58.6105L31.315 65.2688H29.5917L23.56 58.6105L20.6617 59.7855V78.8205H18.39V60.7255L14.0817 62.4488V78.8205H11.81V63.3888L8.67667 64.6421C7.03167 65.5821 5.7 66.6788 4.83833 68.0105C3.89833 69.3421 3.42833 70.8305 3.27167 72.5538V78.8205H1V72.5538V72.4755C1.15667 70.3605 1.78333 68.4805 2.88 66.8355C3.97667 65.1905 5.54333 63.8588 7.50167 62.7621C7.50167 62.7621 7.58 62.6838 7.65833 62.6838L22.4633 56.6521V52.3438C22.3067 52.1871 22.15 52.1088 22.0717 51.9521C20.035 49.9155 18.625 46.8605 18.2333 42.3171L17.5283 41.5338C17.2933 41.2988 17.1367 41.0638 17.1367 40.7505V39.0271H19.4083V40.3588L20.1917 41.1421C20.4267 41.3771 20.505 41.5338 20.505 41.7688C20.8183 45.9988 21.9933 48.6621 23.7167 50.3855C25.44 52.0305 27.7117 52.8921 30.375 53.2838C33.195 52.8138 35.3883 51.6388 37.0333 49.7588C38.7567 47.8005 39.775 45.0588 40.0883 41.6905C40.0883 41.4555 40.1667 41.2988 40.3233 41.1421L41.0283 40.2805V38.8705H43.3V40.5938C43.3 40.8288 43.2217 41.1421 43.065 41.2988L42.36 42.2388C41.9683 45.8421 40.7933 48.8971 38.835 51.1688C38.5217 51.4821 38.2083 51.7955 37.895 52.1088V56.4171L53.17 62.6838C53.2483 62.6838 53.2483 62.6838 53.3267 62.7621C55.285 63.8588 56.8517 65.1905 57.9483 66.8355C59.045 68.4805 59.6717 70.3605 59.8283 72.4755V78.8205H57.5567V72.5538C57.4 70.8305 56.93 69.3421 55.99 68.0105C55.05 66.6788 53.7967 65.5821 52.1517 64.6421L49.0183 63.3888V78.8205H46.7467V62.4488L42.5167 60.7255ZM77.6883 60.7255V78.8205H75.4167V59.7855L72.5183 58.6105L66.4083 65.2688H64.7633L58.6533 58.6105L55.755 59.7855V60.9605C54.9717 60.2555 54.0317 59.4721 53.0133 58.5321L57.635 56.6521V52.3438C57.4783 52.1871 57.3217 52.1088 57.2433 51.9521C55.2067 49.9155 53.7967 46.8605 53.405 42.3171L52.7 41.5338C52.465 41.2988 52.3083 41.0638 52.3083 40.7505V39.0271H54.58V40.3588L55.3633 41.1421C55.5983 41.3771 55.6767 41.5338 55.6767 41.7688C55.99 45.9988 57.165 48.6621 58.8883 50.3855C60.6117 52.0305 62.8833 52.8921 65.5467 53.2838C68.3667 52.8138 70.56 51.6388 72.205 49.7588C73.9283 47.8005 74.9467 45.0588 75.26 41.6905C75.26 41.4555 75.3383 41.2988 75.495 41.1421L76.2 40.2805V38.8705H78.4717V40.5938C78.4717 40.8288 78.3933 41.1421 78.2367 41.2988L77.5317 42.2388C77.14 45.8421 75.965 48.8971 74.0067 51.1688C73.6933 51.4821 73.38 51.7955 73.0667 52.1088V56.4171L88.3417 62.6838C88.42 62.6838 88.42 62.6838 88.4983 62.7621C90.4567 63.8588 92.0233 65.1905 93.12 66.8355C94.2167 68.4805 94.8433 70.3605 95 72.4755V78.8205H92.7283V72.5538C92.5717 70.8305 92.1017 69.3421 91.1617 68.0105C90.2217 66.6788 88.9683 65.5821 87.3233 64.6421L84.19 63.3888V78.8205H81.9183V62.4488L77.6883 60.7255ZM60.7683 21.2455C60.6117 21.2455 60.5333 21.2455 60.3767 21.1671C57.0867 22.6555 54.4233 25.8671 53.7183 31.2721C53.64 31.8988 53.0917 32.2905 52.465 32.2121C51.8383 32.1338 51.4467 31.5855 51.525 30.9588C52.3867 24.6921 55.5983 20.8538 59.5933 19.1305C61.63 18.2688 63.745 17.8771 65.9383 18.0338C68.0533 18.1121 70.2467 18.7388 72.1267 19.7571C76.2 21.8721 79.3333 25.7888 79.49 31.0371C79.49 31.6638 79.02 32.1338 78.3933 32.1338C77.7667 32.1338 77.2183 31.6638 77.2183 31.1155C77.0617 26.7288 74.3983 23.4388 71.03 21.6371C70.8733 21.5588 70.7167 21.4805 70.56 21.4021C70.4817 21.4021 70.325 21.4805 70.1683 21.4805C69.15 21.4805 68.915 23.2821 68.8367 25.7105C68.8367 26.8071 68.8367 27.9821 68.8367 29.2355C68.8367 30.1755 68.8367 31.1938 68.8367 31.8988C68.8367 32.5255 68.2883 32.9955 67.74 32.9955C67.1133 32.9955 66.6433 32.5255 66.6433 31.8988C66.6433 30.8021 66.6433 30.0188 66.6433 29.3138C66.6433 28.0605 66.6433 26.8071 66.6433 25.7105C66.7217 23.5171 66.9567 21.6371 67.74 20.4621C67.1133 20.3055 66.4083 20.2271 65.7817 20.1488C64.8417 20.2271 63.98 20.2271 63.1967 20.3838C63.9017 21.5588 64.215 23.3605 64.215 25.5538C64.215 26.7288 64.215 27.9821 64.215 29.3138C64.215 30.0971 64.215 30.8805 64.215 31.9771C64.215 32.6038 63.745 33.0738 63.1183 33.0738C62.4917 33.0738 62.0217 32.6038 62.0217 31.9771C62.0217 31.2721 62.0217 30.2538 62.0217 29.2355C62.0217 27.9821 62.0217 26.7288 62.0217 25.5538C62.0217 23.0471 61.7083 21.1671 60.7683 21.2455ZM59.985 53.8321V56.7305L65.625 62.8405L70.7167 57.2788V53.7538C69.3067 54.6155 67.5833 55.1638 65.7033 55.3988C65.625 55.3988 65.4683 55.3988 65.3117 55.3988C63.4317 55.1638 61.5517 54.6938 59.985 53.8321ZM51.6033 32.4471C51.9167 33.0738 52.465 33.6221 53.2483 34.0921C55.755 35.6588 60.1417 36.4421 64.685 36.4421C69.2283 36.4421 73.9283 35.7371 76.905 34.3271C78.08 33.7788 78.9417 33.0738 79.4117 32.3688L81.37 33.4655C80.665 34.5621 79.49 35.5021 77.9233 36.2071C74.6333 37.7738 69.5417 38.5571 64.685 38.5571C59.75 38.5571 54.8933 37.6955 51.995 35.8938C50.8983 35.1888 50.0367 34.3271 49.5667 33.3088L51.6033 32.4471ZM64.0583 67.8538H66.8V70.5171H64.0583V67.8538ZM64.0583 74.5905H66.8V77.2538H64.0583V74.5905ZM25.5967 21.2455C25.44 21.2455 25.3617 21.2455 25.205 21.1671C21.915 22.6555 19.2517 25.8671 18.5467 31.2721C18.4683 31.8988 17.92 32.2905 17.2933 32.2121C16.6667 32.1338 16.275 31.5855 16.3533 30.9588C17.215 24.6921 20.4267 20.8538 24.4217 19.1305C26.4583 18.2688 28.5733 17.8771 30.7667 18.0338C32.8817 18.1121 35.075 18.7388 36.955 19.7571C41.0283 21.8721 44.1617 25.7888 44.3183 31.0371C44.3183 31.6638 43.8483 32.1338 43.2217 32.1338C42.595 32.1338 42.0467 31.6638 42.0467 31.1155C41.8117 26.7288 39.2267 23.4388 35.8583 21.6371C35.7017 21.5588 35.545 21.4805 35.3883 21.4021C35.31 21.4021 35.1533 21.4805 34.9967 21.4805C33.9783 21.4805 33.7433 23.2821 33.665 25.7105C33.665 26.8071 33.665 27.9821 33.665 29.2355C33.665 30.1755 33.665 31.1938 33.665 31.8988C33.665 32.5255 33.1167 32.9955 32.5683 32.9955C31.9417 32.9955 31.4717 32.5255 31.4717 31.8988C31.4717 30.8021 31.4717 30.0188 31.4717 29.3138C31.4717 28.0605 31.4717 26.8071 31.4717 25.7105C31.55 23.5171 31.785 21.6371 32.5683 20.4621C31.9417 20.3055 31.2367 20.2271 30.61 20.1488C29.7483 20.1488 28.965 20.1488 28.1033 20.2271C28.8083 21.4021 29.1217 23.2038 29.1217 25.3971C29.1217 26.5721 29.1217 27.8255 29.1217 29.1571C29.1217 29.9405 29.1217 30.7238 29.1217 31.8205C29.1217 32.4471 28.6517 32.9171 28.025 32.9171C27.3983 32.9171 26.9283 32.4471 26.9283 31.8205C26.9283 31.1155 26.9283 30.0971 26.9283 29.0788C26.9283 27.8255 26.9283 26.5721 26.9283 25.3971C26.85 23.0471 26.615 21.1671 25.5967 21.2455ZM24.8133 53.8321V56.7305L30.4533 62.8405L35.545 57.2788V53.7538C34.135 54.6155 32.4117 55.1638 30.5317 55.3988C30.4533 55.3988 30.2967 55.3988 30.14 55.3988C28.26 55.1638 26.4583 54.6938 24.8133 53.8321ZM16.4317 32.4471C16.745 33.0738 17.2933 33.6221 18.0767 34.0921C20.5833 35.6588 24.97 36.4421 29.5133 36.4421C34.0567 36.4421 38.7567 35.7371 41.7333 34.3271C42.9083 33.7788 43.77 33.0738 44.24 32.3688L46.1983 33.4655C45.4933 34.5621 44.3183 35.5021 42.7517 36.2071C39.4617 37.7738 34.37 38.5571 29.5133 38.5571C24.5783 38.5571 19.7217 37.6955 16.8233 35.8938C15.7267 35.1888 14.865 34.3271 14.395 33.3088L16.4317 32.4471ZM28.8867 67.8538H31.6283V70.5171H28.8867V67.8538ZM28.8867 74.5905H31.6283V77.2538H28.8867V74.5905Z" fill="#0B53A1"/>
</svg>
