<?xml version="1.0" encoding="utf-8"?>
<svg version="1.1" xmlns="http://www.w3.org/2000/svg" xmlns:xlink="http://www.w3.org/1999/xlink" x="0px" y="0px"
	 viewBox="0 0 96 96" style="enable-background:new 0 0 96 96;" xml:space="preserve">
<style type="text/css">
	.st0{fill:#424242;}
</style>
<g id="Layer_2">
</g>
<g id="Layer_1">
	<path class="st0" d="M62.9,11.3c-12.4,0-22.5,10.1-22.5,22.5v29c0,3.5-2.9,6.4-6.4,6.4c-3.5,0-6.4-2.9-6.4-6.4V38.9l7.2,1.7
		c1.5,0.3,2.9-0.6,3.3-2c0.2-0.7,0-1.4-0.3-2L21.9,9c-0.5-0.8-1.4-1.4-2.4-1.4c-1,0-1.9,0.5-2.4,1.4L1.2,36.5c-0.8,1.3-0.3,3,1,3.7
		c0.6,0.3,1.3,0.5,2,0.3l7.2-1.7v23.9c0,12.4,10.1,22.5,22.5,22.5s22.5-10.1,22.5-22.5v-29c0-3.5,2.9-6.4,6.4-6.4
		c3.5,0,6.4,2.9,6.4,6.4v23.9L61.9,56c-1.5-0.3-2.9,0.6-3.3,2c-0.2,0.7,0,1.4,0.3,2l15.9,27.6c0.8,1.3,2.4,1.8,3.7,1
		c0.4-0.2,0.8-0.6,1-1L95.5,60c0.8-1.3,0.3-3-1-3.7c-0.6-0.3-1.3-0.5-2-0.3l-7,1.6V33.8C85.5,21.4,75.4,11.3,62.9,11.3L62.9,11.3z
		 M91.6,58.8L76.5,84.9L61.4,58.8l10.3,2.4v-27c0-5.1-4.1-9.2-9.2-9.2s-9.2,4.1-9.2,9.2v28.3c0,10.5-8.5,19.1-19.1,19.1
		c-10.5,0-19.1-8.5-19.1-19.1c0,0,0,0,0,0V35.5L5.1,37.8l15.1-26.1l15.1,26.1l-10.1-2.3v26.9c0,5.1,4.1,9.2,9.2,9.2
		c5.1,0,9.2-4.1,9.2-9.2c0,0,0,0,0,0V34.2c0-10.5,8.6-19.1,19.1-19.1s19.1,8.6,19.1,19.1V61L91.6,58.8z"/>
</g>
</svg>
