<svg width="67" height="78" viewBox="0 0 67 78" fill="auto" xmlns="http://www.w3.org/2000/svg">
<path d="M15.8999 22.4L16.9999 25V25.1H16.8999L12.7999 27.3H12.6999V27.2L11.2999 25C10.9999 25.1 10.6999 25.2 10.2999 25.3C9.79989 25.5 9.19989 25.7 8.49989 
\25.9C7.69989 26.2 6.89989 26.5 6.29989 26.8C5.89989 27 5.49989 27.2 5.19989 27.4C5.89989 29 6.69989 30.5 7.59989 32C8.59989 33.6 9.69989 35.1 10.8999 36.4C11.8999 
37.5 12.8999 38.4 13.7999 39.2C14.6999 39.9 15.5999 40.5 16.3999 41.1C21.6999 44.5 23.3999 47.2 25.1999 50.3C26.3999 52.2 27.5999 54.3 29.9999 56.7C32.0999 58.9 
34.2999 60.5 36.5999 61.7C38.8999 62.8 41.3999 63.5 43.9999 63.6C47.8999 63.9 53.0999 63.3 57.9999 62.8C60.2999 62.6 62.4999 62.3 64.5999 62.2C64.4999 61.5 64.2999 
60.9 64.0999 60.4C63.8999 59.9 63.6999 59.5 63.3999 59.2C62.0999 57.8 59.8999 57.9 57.6999 58C55.9999 58.1 54.2999 58.1 52.6999 57.7C49.6999 56.8 47.3999 54.5 45.7999 
51.5C44.6999 52.3 43.5999 52.9 42.4999 53.2C41.1999 53.5 39.8999 53.3 38.5999 52.6C37.7999 52.2 37.5999 51.2 37.9999 50.5C38.3999 49.7 39.3999 49.5 40.0999 49.9C40.5999 
50.2 41.1999 50.3 41.6999 50.2C42.3999 50 43.1999 49.6 43.9999 48.9C44.0999 48.8 44.1999 48.7 44.2999 48.7C44.0999 48.2 43.9999 47.8 43.7999 47.3C42.8999 47.9 41.8999 
48.4 40.9999 48.6C39.6999 48.9 38.3999 48.7 37.0999 48C36.2999 47.6 36.0999 46.6 36.4999 45.9C36.8999 45.1 37.8999 44.9 38.5999 45.3C39.0999 45.6 39.6999 45.7 40.1999 
45.6C40.8999 45.4 41.6999 45 42.4999 44.3C42.5999 44.2 42.6999 44.2 42.7999 44.1C42.5999 43.4 42.4999 42.6 42.3999 41.9C41.4999 42.5 40.4999 43 39.5999 43.2C38.2999 
43.5 36.9999 43.3 35.6999 42.6C34.8999 42.2 34.6999 41.2 35.0999 40.5C35.4999 39.7 36.4999 39.5 37.1999 39.9C37.6999 40.2 38.2999 40.3 38.7999 40.2C39.4999 40 40.2999 
39.6 41.0999 38.9C41.2999 38.7 41.5999 38.6 41.7999 38.6C41.6999 37.8 41.6999 37.1 41.5999 36.3V35.8C41.4999 34.1 41.3999 33 40.7999 32.4C39.6999 31.3 37.8999 31.6 
36.1999 31.8C35.3999 31.9 34.6999 32 33.8999 32C31.2999 32 28.9999 31.5 26.9999 30.2C24.9999 28.9 23.4999 26.8 22.3999 23.8C21.4999 21.9 20.5999 20.9 19.5999 
20.8C18.5999 20.6 17.2999 21.2 15.7999 22.4H15.8999ZM14.8999 20.6C16.8999 19.1 18.5999 18.3 20.1999 18.6L33.0999 0.799967C33.3999 0.299967 34.0999 0.199967 
34.4999 0.599967C34.9999 0.899967 35.0999 1.59997 34.6999 1.99997L22.0999 19.4C22.9999 20.1 23.8999 21.2 24.5999 22.8V22.9C25.4999 25.5 26.8999 27.3 28.4999 
28.4C30.0999 29.5 31.9999 29.9 34.1999 29.9C34.7999 29.9 35.4999 29.8 36.2999 29.7C37.4999 29.5 38.7999 29.4 39.8999 29.6L62.0999 4.19997C62.4999 3.79997 63.0999 
3.69997 63.4999 4.09997C63.8999 4.49997 63.9999 5.09997 63.5999 5.49997L41.9999 30.3C42.1999 30.5 42.3999 30.6 42.5999 30.8C43.7999 31.9 43.8999 33.4 44.0999 
35.5C44.0999 35.6 44.0999 35.7 44.0999 36V36.1C44.2999 40.2 45.0999 45.4 47.1999 49.6C48.5999 52.6 50.6999 54.9 53.3999 55.7C54.6999 56.1 56.1999 56 57.6999 
56C60.3999 55.9 63.0999 55.8 64.9999 57.9C65.4999 58.4 65.7999 59 66.0999 59.7C66.3999 60.4 66.4999 61.1 66.6999 61.9C66.6999 62.2 66.7999 62.5 66.7999 62.7C66.8999 
62.8 66.8999 63 66.8999 63.1C66.8999 63.3 66.8999 63.4 66.7999 63.5C66.7999 64.6 66.5999 65.8 66.1999 66.8C65.5999 68.1 64.5999 69.3 62.9999 69.9C61.6999 70.4 59.1999 
70.8 56.4999 71C52.7999 71.4 48.5999 71.5 46.6999 71.5C40.1999 71.3 35.3999 70.2 31.3999 68C27.3999 65.8 24.1999 62.5 20.8999 58.1C16.9999 52.8 16.0999 52.1 12.8999 
49.7C12.1999 49.1 11.2999 48.5 10.3999 47.8C7.69989 45.8 4.99989 43.3 2.99989 40.6C1.49989 38.6 0.399894 36.5 0.0998938 34.5C-0.300106 32.3 0.0998938 30.3 1.49989 
28.4C1.99989 27.7 2.69989 27.1 3.49989 26.5C4.09989 26.1 4.79989 25.7 5.59989 25.3C6.39989 24.9 7.19989 24.6 7.99989 24.3C8.79989 24 9.39989 23.8 9.89989 23.6C11.1999 
23.2 11.8999 22.9 12.7999 22.3C13.0999 22.1 13.3999 21.9 13.6999 21.6C13.9999 21.3 14.3999 21 14.8999 20.6ZM3.69989 28.9C3.49989 29.1 3.29989 29.3 3.09989 29.6C1.99989 
30.9 1.69989 32.5 1.99989 34.1C2.29989 35.8 3.29989 37.6 4.59989 39.4C6.49989 41.9 9.09989 44.4 11.6999 46.4C12.6999 47.2 13.4999 47.8 14.1999 48.3C17.5999 50.8 
18.5999 51.6 22.5999 57.1C25.6999 61.3 28.6999 64.4 32.3999 66.4C36.0999 68.4 40.5999 69.5 46.7999 69.7C48.5999 69.7 52.6999 69.6 56.3999 69.3C58.8999 69.1 61.1999 
68.7 62.2999 68.3C63.2999 67.9 63.8999 67.2 64.2999 66.3C64.4999 65.8 64.6999 65.2 64.6999 64.5C62.6999 64.6 60.4999 64.9 58.1999 65.1C53.1999 65.6 47.9999 66.1 
43.8999 65.9C40.9999 65.7 38.2999 65 35.6999 63.7C33.0999 62.4 30.7999 60.7 28.4999 58.3C25.9999 55.7 24.6999 53.6 23.4999 51.5C21.6999 48.6 20.1999 46.1 15.2999 
42.9C14.3999 42.3 13.4999 41.7 12.4999 40.9C11.4999 40.1 10.4999 39.1 9.39989 37.9C8.09989 36.5 6.89989 34.9 5.89989 33.2C5.09989 31.9 4.39989 30.4 3.69989 28.9Z"/>
</svg>
