<svg width="96" height="96" viewBox="0 0 96 96" fill="auto" xmlns="http://www.w3.org/2000/svg">
<path d="M40.0525 41.0751C40.3448 40.6824 40.832 40.5842 41.2217 40.8787C41.6115 41.1733 41.7089 41.6641 41.4166 42.0568C40.6371 43.1368 40.2474 44.1186 40.2474 45.1003C40.2474 46.0821 40.5397 47.1621 41.1243 48.1438C41.3192 48.5365 41.2217 49.0274 40.832 49.322C40.4422 49.5183 39.955 49.4201 39.6627 49.0274C38.9806 47.7511 38.4935 46.3766 38.5909 45.1003C38.4935 43.824 38.9806 42.4496 40.0525 41.0751ZM9.45659 39.9951L12.2823 43.5295L4 46.3766L17.1543 46.9657L14.7183 43.5295L23.1955 41.0751L9.45659 39.9951ZM19.1031 23.6977L19.7851 28.4102L10.8207 26.2503L22.416 34.3008L22.2211 29.7847L31.283 32.3373L19.1031 23.6977ZM15.4004 53.5436L19.98 55.2126L13.4516 62.2813L26.411 55.8017L22.3186 53.8381L29.1393 47.0639L15.4004 53.5436ZM72.4023 10.0511C73.0843 9.85472 73.7664 10.2474 73.9613 10.8365C74.1562 11.5237 73.7664 12.211 73.1818 12.4073L72.4023 12.7019C60.9045 16.4326 50.4785 19.8688 44.0475 30.4719C43.6577 31.061 43.3654 31.5519 42.8782 32.0428C42.4885 32.5337 42.0013 32.9264 41.5141 33.3191C40.6371 34.0063 39.7602 34.4972 38.8832 34.9881C37.6165 35.6753 36.3498 36.3626 35.278 38.1298C34.4984 39.3079 34.1087 40.7805 34.1087 42.3514C34.1087 44.0204 34.401 45.9839 35.1805 48.1438C36.5447 52.0709 40.4422 57.4707 45.3142 63.0668C52.7196 71.51 61.9763 80.1496 67.3354 84.7639C67.8226 85.2548 67.9201 86.0402 67.4329 86.5311C66.9457 87.022 66.1662 87.1202 65.679 86.6293C60.3198 81.9168 50.8682 73.179 43.3654 64.6376C38.2986 58.8451 34.1087 53.1509 32.6471 48.8311C31.8676 46.3766 31.4778 44.2167 31.4778 42.2532C31.5753 40.1915 32.0625 38.3261 33.0369 36.7553C34.401 34.4972 35.96 33.7118 37.5191 32.8282C38.2986 32.4355 38.9806 31.9446 39.7602 31.3555C40.1499 31.061 40.4422 30.7665 40.832 30.3738C41.1243 29.981 41.4166 29.5883 41.7089 29.1956C48.822 17.7089 59.7352 14.1745 71.6228 10.2474L72.4023 10.0511ZM90.0388 35.6753C90.6234 35.2826 91.4029 35.479 91.7927 35.9699C92.1824 36.5589 91.9875 37.3443 91.5003 37.737C88.772 39.6024 85.9463 41.1733 83.1206 42.5477C80.2948 43.824 77.4691 44.904 74.5459 45.7876C69.9663 47.1621 67.1406 47.0639 63.3404 46.8675C62.6584 46.8675 61.9763 46.7694 61.2942 46.7694C60.9045 46.7694 60.5147 46.7693 60.1249 46.8675C59.8326 46.9657 59.5403 46.9657 59.4429 47.0639C59.4429 47.0639 59.4429 47.0639 59.3454 47.0639C59.248 47.1621 59.248 47.1621 59.248 47.1621C59.248 47.2602 59.248 47.3584 59.3454 47.5548C59.3454 47.5548 59.4429 47.6529 59.4429 47.7511C59.7352 48.242 60.6121 48.9293 61.4891 49.6165C62.7558 50.5983 64.1199 51.58 65.0943 53.0527C66.8482 55.6053 69.674 61.4959 72.4997 67.5829C75.228 73.3754 78.0537 79.266 79.8076 81.9168C80.1974 82.5059 80.0025 83.2913 79.4179 83.684C78.8333 84.0767 78.0537 83.8803 77.664 83.2913C75.8126 80.4441 72.9869 74.5535 70.1612 68.6629C67.3354 62.7722 64.6071 56.8816 62.9507 54.5254C62.1712 53.4454 60.9045 52.4636 59.8326 51.6782C58.7608 50.7946 57.689 50.1074 57.2018 49.1256C57.1043 49.0274 57.1043 48.9292 57.0069 48.8311C56.7146 48.1438 56.5197 47.5548 56.6171 46.8675C56.7146 46.0821 57.1043 45.493 57.8838 45.0022C57.9813 45.0022 57.9813 44.904 58.0787 44.904C58.4685 44.7076 58.9557 44.5113 59.5403 44.4131C60.0275 44.3149 60.6121 44.3149 61.1968 44.3149C61.9763 44.3149 62.5609 44.4131 63.243 44.4131C66.8482 44.5113 69.4791 44.7076 73.669 43.4313C76.3973 42.6459 79.223 41.566 81.9513 40.2897C84.6796 39.0134 87.4079 37.5407 90.0388 35.6753ZM50.6733 35.8717C50.2836 36.4607 49.5041 36.6571 48.9194 36.2644C48.3348 35.8717 48.1399 35.0863 48.5297 34.4972C51.258 29.981 54.9607 26.3485 59.5403 23.5995C64.1199 20.8506 69.5765 18.9852 75.9101 18.1016C76.5922 18.0034 77.2742 18.4943 77.3717 19.1816C77.4691 19.8688 76.9819 20.556 76.2998 20.6542C70.2586 21.5378 65.0943 23.305 60.807 25.8576C56.6171 28.312 53.2068 31.6501 50.6733 35.8717Z" />
</svg>
