<svg width="96" height="96" viewBox="0 0 96 96" fill="auto" xmlns="http://www.w3.org/2000/svg">
<path d="M31.7214 68.276C31.7214 69.4775 31.7214 70.6791 31.5212 71.7805C31.3209 72.8819 31.1207 73.9833 30.8203 74.8845C30.5199 75.7856 30.1194 76.5866 29.7189 77.3877C29.4185 78.0886 29.018 78.6893 28.6175 79.2901C31.2208 80.9923 34.2246 82.1938 37.4288 83.095C41.0334 84.0963 44.8383 84.4968 48.6431 84.4968C52.5481 84.4968 56.4531 83.9961 60.0578 83.095C63.362 82.1938 66.3659 80.8922 68.8691 79.2901C68.4685 78.5892 68.068 77.8883 67.7676 77.1874C67.3671 76.3864 67.0668 75.4852 66.7664 74.6842C66.466 73.6829 66.1656 72.6816 65.9653 71.6804C65.7651 70.6791 65.5648 69.5777 65.4647 68.5764C65.4647 68.4762 65.4647 68.4762 65.4647 68.3761C65.4647 68.276 65.4647 68.276 65.4647 68.276C65.2644 64.8716 65.8652 61.4673 66.7664 58.163C67.6675 54.8588 68.9692 51.5546 70.2709 48.2503C71.8729 44.0449 73.5751 39.7394 74.6765 35.0334C74.7766 34.733 74.9769 34.4326 75.2773 34.2323C75.5777 34.0321 75.878 34.0321 76.2786 34.0321C76.5789 34.1322 76.8793 34.3325 77.0796 34.6329C77.2798 34.9332 77.2798 35.2336 77.2798 35.6341C76.1784 40.5404 74.3761 44.9461 72.7741 49.2516C71.6727 52.1553 70.5712 54.8588 69.7702 57.6624C69.0693 59.8652 68.5687 62.1682 68.3684 64.371C69.9705 61.9679 71.4724 59.4647 72.7741 56.9615C74.276 53.9576 75.6778 50.9538 76.7792 47.8498C77.9807 44.3453 78.8819 40.6406 79.3825 36.9358C79.8832 33.1309 80.0834 29.2259 79.783 25.1207C79.2824 21.9166 78.2811 20.2144 76.9795 19.4133C75.6778 18.5122 73.9756 18.4121 72.0732 18.2118C71.0719 18.1117 70.0706 18.0116 68.9692 17.9114C67.8678 17.7112 66.7664 17.5109 65.665 17.0103C65.0642 16.81 64.4634 16.5096 63.8626 16.2092C63.2619 15.9089 62.7612 15.6085 62.2606 15.208C61.7599 14.9076 61.3594 14.5071 60.8588 14.1065C60.4583 13.8062 60.0578 13.4056 59.7574 13.0051C57.9551 12.6046 56.2529 12.3042 54.4506 12.104C52.6483 11.9037 50.846 11.8036 49.1438 11.8036C47.3415 11.8036 45.6393 11.9037 43.837 12.104C42.1348 12.3042 40.4326 12.6046 38.7304 13.0051C38.2298 13.5058 37.629 14.0064 36.9281 14.5071C36.2272 15.0077 35.5263 15.4082 34.8254 15.9089C34.0244 16.3094 33.2234 16.7099 32.3222 17.0103C31.4211 17.3107 30.5199 17.611 29.5186 17.9114C28.5173 18.1117 27.6162 18.3119 26.715 18.4121C25.8139 18.5122 25.113 18.6123 24.4121 18.6123C22.6098 18.8126 21.208 18.9127 20.2067 19.8139C19.2054 20.8151 18.4044 22.7176 17.9037 26.5225C17.6033 30.5276 18.0039 34.3325 18.7047 38.0372C19.4056 41.742 20.3068 45.2465 21.5083 48.5507C22.6098 51.4544 23.8113 54.3581 25.2131 57.0616C26.4146 59.2644 27.6162 61.4673 29.018 63.57C28.5173 58.5635 26.715 53.7574 24.7125 48.6508C23.1104 44.5456 21.5083 40.1399 20.4069 35.4339C20.3068 35.1335 20.4069 34.733 20.6072 34.5327C20.8074 34.2323 21.1078 34.0321 21.4082 33.932C21.7086 33.8318 22.1091 33.932 22.3094 34.1322C22.6098 34.3325 22.81 34.6329 22.9101 34.9332C24.0116 39.5392 25.6136 43.8447 27.1155 47.8498C28.4172 51.2542 29.6187 54.5584 30.5199 57.8626C31.4211 61.1669 31.9217 64.5712 31.7214 68.0757C31.7214 68.0757 31.7214 68.1759 31.7214 68.276ZM49.8447 18.2118L51.8472 22.0167L57.3543 15.9089L52.8485 27.5237L50.846 24.1194L45.439 30.5276L49.8447 18.2118ZM59.1566 28.525L58.8562 33.1309L67.4673 30.2272L56.9538 38.8383L56.8537 34.5327L48.4429 37.837L59.1566 28.525ZM28.4172 74.0834C28.7176 73.1823 28.9178 72.2811 29.018 71.2798C29.1181 70.2786 29.2182 69.2773 29.2182 68.1759C27.2157 65.2721 25.3132 62.3684 23.611 59.2644C21.9089 56.1605 20.4069 52.8562 19.2054 49.3517C18.0039 45.9474 17.0026 42.3427 16.2015 38.5379C15.5006 34.733 15.1001 30.7279 15 26.5225C15 26.4223 15 26.4223 15 26.3222C15 26.2221 15 26.2221 15 26.122C15.7009 21.4159 16.7022 18.9127 18.104 17.611C19.6059 16.2092 21.4082 16.1091 23.8113 15.9089C25.2131 15.8087 26.715 15.6085 28.5173 15.208C29.4185 15.0077 30.2195 14.7073 31.0205 14.4069C31.8216 14.1065 32.5225 13.8062 33.2234 13.4056C33.9243 13.0051 34.525 12.6046 35.1258 12.2041C35.7266 11.8036 36.2272 11.303 36.7279 10.8023C36.828 10.7022 36.9281 10.7022 36.9281 10.6021C37.0282 10.5019 37.1284 10.5019 37.2285 10.5019C39.2311 10.0013 41.1335 9.60077 43.0359 9.40051C44.8383 9.10013 46.7407 9 48.6431 9C50.5456 9 52.448 9.10013 54.3504 9.40051C56.2529 9.60077 58.1553 10.0013 60.1579 10.5019C60.258 10.5019 60.4583 10.6021 60.5584 10.6021C60.6585 10.7022 60.7587 10.7022 60.8588 10.8023C61.2593 11.2028 61.5597 11.6033 61.9602 11.9037C62.3607 12.2041 62.7612 12.6046 63.2619 12.905C63.6624 13.2054 64.163 13.5058 64.6637 13.706C65.1643 14.0064 65.665 14.2067 66.1656 14.4069C67.1669 14.8074 68.068 15.0077 69.0693 15.1078C69.9705 15.208 70.9718 15.3081 71.8729 15.4082C74.276 15.6085 76.3787 15.7086 78.181 16.9101C79.9833 18.1117 81.285 20.2144 81.9859 24.4198V24.5199V24.62C82.2863 28.9255 82.086 32.9307 81.5854 36.9358C81.0847 40.8408 80.0834 44.7458 78.7818 48.3504C77.4801 51.9551 75.9782 55.4596 74.0757 58.8639C72.2734 62.1682 70.1707 65.4724 67.8678 68.6765C67.9679 69.5777 68.068 70.3787 68.2683 71.1797C68.4685 72.0809 68.6688 72.8819 68.9692 73.783C69.2696 74.6842 69.6701 75.5854 70.0706 76.3864C70.4711 77.2875 70.9718 78.0886 71.4724 78.8896C71.6727 79.19 71.6727 79.4904 71.6727 79.7908C71.5725 80.0911 71.4724 80.3915 71.172 80.5918C68.3684 82.6945 64.9641 84.2965 61.1592 85.2978C57.2542 86.3992 52.9487 87 48.543 87C44.3376 87 40.0321 86.4994 36.1271 85.2978C32.4223 84.1964 29.018 82.6945 26.1142 80.5918L26.0141 80.6919C25.7137 80.4917 25.6136 80.1913 25.5135 79.8909C25.5135 79.5905 25.5135 79.19 25.8139 78.9897C26.4146 78.2888 26.9153 77.4878 27.3158 76.7869C27.7163 76.086 28.1168 74.9846 28.4172 74.0834ZM38.9307 32.5302C38.9307 32.2298 39.1309 31.8293 39.3312 31.629C39.5314 31.4288 39.932 31.3286 40.2323 31.3286C40.5327 31.3286 40.9332 31.5289 41.1335 31.7291C41.3338 31.9294 41.534 32.3299 41.4339 32.6303C41.4339 33.932 41.2336 35.2336 41.0334 36.4352C40.8331 37.6367 40.4326 38.7381 40.0321 39.8395C39.6316 40.9409 39.0308 41.8421 38.43 42.8434C37.8293 43.7445 37.0282 44.6457 36.2272 45.3466C35.9268 45.5469 35.6264 45.647 35.3261 45.647C35.0257 45.647 34.7253 45.5469 34.4249 45.2465C34.2246 44.9461 34.1245 44.6457 34.1245 44.3453C34.1245 44.0449 34.3248 43.7445 34.525 43.4442C35.2259 42.8434 35.8267 42.1425 36.3273 41.3415C36.828 40.5404 37.3286 39.7394 37.629 38.8383C38.0295 37.9371 38.3299 36.9358 38.5302 35.9345C38.8306 34.8331 38.9307 33.7317 38.9307 32.5302Z"/>
</g>
</svg>
