<?xml version="1.0" encoding="utf-8"?>
<svg version="1.1" xmlns="http://www.w3.org/2000/svg" xmlns:xlink="http://www.w3.org/1999/xlink" x="0px" y="0px"
	 viewBox="0 0 96 96" style="enable-background:new 0 0 96 96;" xml:space="preserve">
<style type="text/css">
	.st0{fill:#424242;}
</style>
<g id="Layer_2">
</g>
<g id="Layer_1">
	<g>
		<path class="st0" d="M1.2,8.7v78.6c0,4.2,3.3,7.6,7.6,7.6h78.6c4.2,0,7.6-3.3,7.6-7.6V8.7c0-4.2-3.3-7.6-7.6-7.6H8.8
			C4.6,1.1,1.2,4.4,1.2,8.7z M92,8.7v78.6c0,2.6-2,4.5-4.5,4.5H8.8c-2.6,0-4.5-2-4.5-4.5V8.7c0-2.6,2-4.5,4.5-4.5h78.6
			C90,4.1,92,6.1,92,8.7z"/>
		<path class="st0" d="M42.8,68.7V82c0,2.9,2.4,5.3,5.3,5.3c2.9,0,5.3-2.4,5.3-5.3V68.7c3.2-1.8,5.3-5.3,5.3-9.2s-2.1-7.3-5.3-9.2
			V13.9c0-2.9-2.4-5.3-5.3-5.3s-5.3,2.4-5.3,5.3v36.4c-3.2,1.8-5.3,5.3-5.3,9.2S39.7,66.9,42.8,68.7L42.8,68.7z M50.4,82
			c0,1.2-1.1,2.3-2.3,2.3s-2.3-1.1-2.3-2.3V69.9c0.8,0.2,1.5,0.3,2.3,0.3s1.5-0.2,2.3-0.3V82z M45.9,13.9c0-1.2,1.1-2.3,2.3-2.3
			s2.3,1.1,2.3,2.3v35.2c-0.8-0.2-1.5-0.3-2.3-0.3s-1.5,0.2-2.3,0.3V13.9z M48.1,51.9c4.2,0,7.6,3.3,7.6,7.6S52.4,67,48.1,67
			s-7.6-3.3-7.6-7.6S43.9,51.9,48.1,51.9z"/>
		<path class="st0" d="M70,42.7V82c0,2.9,2.4,5.3,5.3,5.3c2.9,0,5.3-2.4,5.3-5.3V42.7c3.2-1.8,5.3-5.3,5.3-9.2s-2.1-7.3-5.3-9.2
			V13.8c0-2.7-2.4-5.1-5.3-5.1c-2.9,0-5.3,2.4-5.3,5.3v10.4c-3.2,1.8-5.3,5.3-5.3,9.2S66.9,40.7,70,42.7z M77.6,82
			c0,1.2-1.1,2.3-2.3,2.3s-2.3-1.1-2.3-2.3V43.7c0.8,0.2,1.5,0.3,2.3,0.3s1.5-0.2,2.3-0.3V82z M73.1,13.9c0-1.2,1.1-2.3,2.3-2.3
			s2.3,1.1,2.3,2.3v9.2c-0.8-0.2-1.5-0.3-2.3-0.3s-1.5,0.2-2.3,0.3V13.9z M75.3,25.9c4.2,0,7.6,3.3,7.6,7.6S79.6,41,75.3,41
			c-4.2,0-7.6-3.3-7.6-7.6S71.1,25.9,75.3,25.9z"/>
		<path class="st0" d="M15.6,50.5V82c0,2.9,2.4,5.3,5.3,5.3s5.3-2.4,5.3-5.3V50.5c3.2-1.8,5.3-5.3,5.3-9.2s-2.1-7.3-5.3-9.2V13.9
			c0-2.9-2.4-5.3-5.3-5.3s-5.3,2.4-5.3,5.3v18.3c-3.2,1.8-5.3,5.3-5.3,9.1S12.4,48.7,15.6,50.5z M23.2,82c0,1.2-1.1,2.3-2.3,2.3
			c-1.2,0-2.3-1.1-2.3-2.3V51.7c0.8,0.2,1.5,0.3,2.3,0.3c0.8,0,1.5-0.2,2.3-0.3V82z M18.6,13.9c0-1.2,1.1-2.3,2.3-2.3
			c1.2,0,2.3,1.1,2.3,2.3V31c-0.8-0.2-1.5-0.3-2.3-0.3c-0.8,0-1.5,0.2-2.3,0.3V13.9z M20.9,33.8c4.2,0,7.6,3.3,7.6,7.6
			s-3.3,7.6-7.6,7.6s-7.6-3.3-7.6-7.6S16.7,33.8,20.9,33.8L20.9,33.8z"/>
	</g>
</g>
</svg>
