<?xml version="1.0" encoding="utf-8"?>
<svg version="1.1" id="Layer_2" xmlns="http://www.w3.org/2000/svg" xmlns:xlink="http://www.w3.org/1999/xlink" x="0px" y="0px"
	 viewBox="0 0 96 96" style="enable-background:new 0 0 96 96;" xml:space="preserve">
<g id="Layer_1_1_">
	<g>
		<path class="st0" d="M67.9,23.1c7.2,0.8,13.6,4.1,18.5,9c5.8,5.8,9.2,13.5,9.2,22.2S92,70.9,86.4,76.5c-5.7,5.8-13.6,9.1-22.2,9.1
			s-16.6-3.5-22.2-9.2c-5.8-5.8-9.2-13.5-9.2-22.2s3.4-16.6,9.2-22.2c5.2-5.2,12.2-8.6,20.1-9.1v-4c0-0.1,0-0.2,0-0.2h-5.9
			c-1,0-1.8-0.8-1.8-1.8v-4.1c0-1,0.8-1.8,1.8-1.8h17.6c0.9,0,1.8,0.8,1.8,1.8V17c0,1-0.8,1.8-1.8,1.8h-5.9c0,0.1,0,0.2,0,0.2V23.1
			L67.9,23.1L67.9,23.1z M66.7,49.6c1.7,0.9,2.8,2.7,2.8,4.8c0,2.9-2.4,5.4-5.4,5.4c-2.9,0-5.4-2.4-5.4-5.4c0-2,1.1-3.7,2.8-4.8
			V37.4c0-1.4,1.1-2.5,2.5-2.5c1.4,0,2.5,1.1,2.5,2.5V49.6L66.7,49.6L66.7,49.6z M92.2,32.7c1.2-2.9,1.1-6-0.7-8.1
			c-2.1-2.4-5.9-2.7-9.4-1C86,26.1,89.3,29.1,92.2,32.7L92.2,32.7L92.2,32.7z M35.9,32.7c-1.2-2.9-1.1-6,0.7-8.1
			c2.1-2.4,5.9-2.7,9.4-1C42.2,26.1,38.8,29.1,35.9,32.7L35.9,32.7L35.9,32.7z M82.7,35.6c-4.7-4.8-11.3-7.7-18.6-7.7
			c-7.3,0-13.9,2.9-18.7,7.7s-7.7,11.3-7.7,18.6s2.9,13.9,7.7,18.7s11.3,7.7,18.6,7.7c7.3,0,13.9-2.9,18.7-7.7
			c4.8-4.8,7.7-11.3,7.7-18.7C90.4,47.1,87.5,40.4,82.7,35.6L82.7,35.6L82.7,35.6z"/>
		<path class="st1" d="M3.1,42.6c-1.4,0-2.5-1.1-2.5-2.5c0-1.4,1.1-2.5,2.5-2.5H28l-1.3,5.1H3.1L3.1,42.6L3.1,42.6z"/>
		<path class="st1" d="M8.3,57c-1.4,0-2.5-1.1-2.5-2.5S6.8,52,8.3,52h16.1l0.4,5.1H8.3L8.3,57L8.3,57z"/>
		<path class="st1" d="M13.9,71.9c-1.4,0-2.5-1.1-2.5-2.5c0-1.4,1.1-2.5,2.5-2.5h12.6l1.7,5.1H13.9L13.9,71.9L13.9,71.9z"/>
	</g>
</g>
</svg>
