<?xml version="1.0" encoding="utf-8"?>
<svg version="1.1" id="line" xmlns="http://www.w3.org/2000/svg" xmlns:xlink="http://www.w3.org/1999/xlink" x="0px" y="0px"
	 viewBox="0 0 96 96" style="enable-background:new 0 0 96 96;" xml:space="preserve">
<path d="M86.6,73.9h-10c-4.4-3.9-9.4-7-14.8-9.3l-12.9-5.2c-3.4-2-6.2-5.4-8.9-10.9C37,37,37.3,23,41.1,6.7c0.2-0.9-0.4-1.8-1.3-2
	c-0.9-0.2-1.8,0.4-2,1.3c-3.9,16.9-4.3,31.5-1.1,43.6c3,6.4,6.5,10.6,10.7,12.9l13,5.2c5.3,2.3,10.1,5.3,14.4,9.1
	c0.3,0.2,0.7,0.4,1,0.4h10.6c2.9,0,5.2,2.3,5.2,5.2c0,2.9-2.3,5.2-5.2,5.2H12.3c-4.4,0-7.9-3.6-7.9-8v-8.1c0-1.4,0.3-2.8,0.9-4.1
	c4.2-9.2,6.8-20.4,7.9-34.3c0.1-9.2-0.9-18.3-3-27.2c-0.2-0.9-1.1-1.5-2-1.3c-0.9,0.2-1.4,1.1-1.3,2C9,15.3,9.9,24.1,9.8,33
	C8.7,46.4,6.2,57.2,2.2,66C1.4,67.7,1,69.6,1,71.5v8.1c0,6.2,5.1,11.3,11.3,11.3h74.3C97.8,90.6,97.8,74.2,86.6,73.9L86.6,73.9z"/>
<path d="M71,53c0.8,0.4,1.8,0.1,2.3-0.7c0,0,0,0,0,0l4-7.4c0.4-0.8,0.1-1.8-0.7-2.3c-0.8-0.4-1.8-0.1-2.3,0.7l-4,7.4
	C69.9,51.5,70.2,52.5,71,53C71,53,71,53,71,53z"/>
<path d="M63.1,52.1c0.3,0.9,1.2,1.4,2.1,1.1c0.9-0.3,1.4-1.2,1.1-2l-2.2-7.6c-0.3-0.9-1.2-1.4-2.1-1.1c-0.9,0.3-1.4,1.2-1.1,2
	L63.1,52.1z"/>
<path d="M76.3,56.4c0.5,0.8,1.6,1,2.3,0.4l6.5-4.5c0.8-0.5,1-1.6,0.4-2.3c-0.5-0.8-1.6-1-2.3-0.4l-6.5,4.5
	C75.9,54.6,75.7,55.7,76.3,56.4z"/>
</svg>
