<?xml version="1.0" encoding="utf-8"?>
<svg version="1.1" xmlns="http://www.w3.org/2000/svg" xmlns:xlink="http://www.w3.org/1999/xlink" x="0px" y="0px"
	 viewBox="0 0 96 96" style="enable-background:new 0 0 96 96;" xml:space="preserve">
<style type="text/css">
	.st0{fill:#FFFFFF;}
	.st1{fill:#393939;}
	.st2{fill:#1C48EA;}
</style>
<g id="Layer_2">
	<rect x="0.1" class="st0" width="96" height="96"/>
	<rect x="122.8" y="-29.3" class="st0" width="96" height="96"/>
</g>
<g id="Layer_1">
	<path class="st1" d="M54.5,1.5c0-0.5,0.4-1,0.8-1c0.5,0,0.9,0.4,1,0.8c0.1,1.1,0.4,2.1,0.9,3c0.6,0.8,1.5,1.5,2.5,2
		c1.9,0.6,3.6,1.5,5.3,2.4c2.2,1.2,4.4,2.5,6.5,3.9c1.9,0.5,3.7,1.3,5.3,2.5c1.5,1.2,2.8,2.5,3.7,4.2l0,0c0.6,1.3,1.1,2.8,1.4,4.2
		c0.3,1.8,0.5,3.6,0.5,5.4c0.8,2.9,1.3,6,1.5,9.1c0.2,3.3,0.2,6.6,0,9.9c0,0.5-0.4,0.9-0.9,0.9c-0.5,0-0.9-0.4-0.9-0.9
		c0-0.1,0-0.1,0-0.2c0.2-3.2,0.2-6.4,0-9.7c-0.2-2.9-0.7-5.9-1.5-8.7c0-0.1-0.1-0.2-0.1-0.3c0-1.7-0.2-3.5-0.5-5.2
		c-0.2-1.3-0.6-2.5-1.2-3.7c-0.8-1.5-1.9-2.7-3.2-3.6c-1.5-1.1-3.1-1.9-4.9-2.3c-0.1,0-0.2-0.1-0.3-0.2c-2.1-1.5-4.2-2.8-6.5-3.9
		c-1.6-0.8-3.3-1.6-5-2.2l-0.2-0.1c-1.3-0.5-2.5-1.5-3.2-2.7C55,4.2,54.5,2.9,54.5,1.5L54.5,1.5z M72.9,94.5c0.1,0.5-0.3,0.9-0.8,1
		c-0.5,0.1-0.9-0.3-1-0.8c0-0.1,0-0.1,0-0.2c0-8-0.8-16.1-2.5-23.9c-6.9,3.1-12.4,7.6-17.5,13.4c-0.1,1.2-0.1,2.5-0.1,3.7
		c0,2.2,0,4.4,0,6.6c0,0.5-0.4,0.9-0.9,0.9l0,0c-0.5,0-0.9-0.4-0.9-0.9c0-2.2,0-4.5,0-6.6c0-0.8,0-1.5,0.1-2.2h-2
		c0,0.7,0.1,1.4,0.1,2.1c0.1,2.2,0.1,4.6,0.2,6.7c0,0.5-0.4,0.9-0.9,0.9s-0.9-0.4-0.9-0.9c0-2.1-0.1-4.4-0.2-6.6
		c0-1.2-0.1-2.3-0.2-3.4C40,78.1,34.4,73.6,27.5,70.7C25.8,78.6,25,86.5,25,94.6c0,0.5-0.4,0.9-0.9,0.9s-0.9-0.4-0.9-0.9
		c0-10.4,1.5-20.9,4.2-31c0.8-3,1.5-6.1,2-9.2c0.6-4.2,0.5-4.5-0.1-6.8c-0.2-0.8-0.5-1.7-0.8-2.9c-0.3-1.3-0.6-2.5-1.1-3.8
		c-0.2,1.1-0.3,2.1-0.5,3c-0.3,1.6-0.9,3.2-1.8,4.6c-0.2,0.5-0.8,0.6-1.2,0.4s-0.6-0.8-0.4-1.2c0-0.1,0.1-0.1,0.1-0.2
		c0.8-1.2,1.2-2.6,1.5-4c0.5-2.2,0.8-4.2,0.8-6.4c-1.2-3.1-2.1-6.3-2.6-9.6c-0.1-0.5,0.3-1,0.8-1.1c0.5-0.1,1,0.3,1.1,0.8l0,0
		c0.5,3.6,1.5,7.2,2.9,10.6c0.8,2.1,1.5,4.2,2.2,6.4c0.3,1.3,0.5,2.2,0.7,2.8c0.7,2.6,0.8,2.9,0.2,7.5c-0.5,3.2-1.2,6.3-2,9.3
		l-0.1,0.4c7.2,1.9,14.7,2.8,22.1,2.5c5.3-0.2,10.7-1.1,15.8-2.5l-0.2-0.5c-0.8-3.1-1.5-6.2-2-9.3c-0.7-4.6-0.5-4.9,0.2-7.5
		c0.2-0.7,0.4-1.5,0.7-2.8c0.5-2.2,1.2-4.3,2.2-6.4c1.4-3.4,2.4-7,3-10.5c0-0.5,0.5-0.9,1-0.8c0.5,0,0.9,0.5,0.8,1
		c0,0.1,0,0.1,0,0.2c-0.5,3.2-1.3,6.5-2.5,9.6c0.2,2.2,0.5,4.3,0.8,6.5c0.3,1.4,0.8,2.8,1.5,4c0.2,0.5,0.1,1-0.3,1.2
		c-0.4,0.2-0.9,0.2-1.2-0.2c-0.8-1.4-1.5-3-1.8-4.6c-0.2-0.9-0.4-1.9-0.5-3.1c-0.5,1.2-0.8,2.5-1.1,3.7c-0.2,1.2-0.5,2.1-0.8,2.9
		c-0.6,2.3-0.7,2.5-0.1,6.8c0.5,3.1,1.2,6.2,2,9.2C71.5,73.6,72.9,84,72.9,94.5L72.9,94.5z M46.7,59.2C46.2,59,46,58.4,46.2,58
		c0.2-0.5,0.8-0.7,1.2-0.5l0,0c0.2,0.1,0.4,0.2,0.6,0.2s0.5,0,0.6-0.1c0.5-0.2,1,0,1.2,0.5c0.2,0.5,0,1-0.5,1.2
		c-0.1,0-0.1,0.1-0.2,0.1c-0.5,0.2-0.8,0.2-1.3,0.2C47.5,59.5,47.1,59.3,46.7,59.2z M45,45.2c0.3-0.5,0.8-0.5,1.3-0.3
		c0.4,0.2,0.5,0.8,0.3,1.2c-0.7,1.2-1.5,2.2-2.5,3.1c-0.8,0.7-1.9,1.2-2.9,1.5c-0.5,0.1-1-0.2-1.1-0.7s0.2-1,0.7-1.1
		c0.8-0.2,1.6-0.6,2.2-1.2C43.7,47.1,44.4,46.1,45,45.2L45,45.2z M45.1,35.3c0.5-0.2,1-0.1,1.2,0.3c0.2,0.4,0.2,0.9-0.2,1.2
		c-2.3,1.6-5,2.6-7.8,2.9c-2.9,0.2-5.6-0.2-8.2-1.5c-0.5-0.2-0.7-0.8-0.5-1.2c0.2-0.5,0.8-0.7,1.2-0.5c2.2,1.1,4.8,1.5,7.3,1.3
		C40.6,37.6,43,36.7,45.1,35.3L45.1,35.3z M34.5,34.4c0.5-0.3,1-0.2,1.3,0.2c0.3,0.4,0.2,1-0.2,1.3l0,0c-0.5,0.3-1,0.5-1.5,0.5
		c-0.5,0-1.1-0.2-1.5-0.5c-0.4-0.3-0.5-0.9-0.2-1.3c0.3-0.4,0.9-0.5,1.3-0.2l0,0c0.1,0.1,0.2,0.2,0.4,0.2
		C34.2,34.6,34.4,34.5,34.5,34.4L34.5,34.4z M45.6,16.9c0.5,0.2,0.7,0.8,0.5,1.2c-0.2,0.5-0.8,0.7-1.2,0.5l0,0
		c-2-0.9-4.1-1.6-6.3-2.2h-0.1c-2.1-0.5-4.2-0.8-6.3-0.8c-0.5,0-0.9-0.4-1-0.8c0-0.5,0.4-0.9,0.8-1c0.1,0,0.1,0,0.2,0
		c2.2,0.1,4.5,0.4,6.7,0.9h0.1C41.3,15.2,43.4,15.9,45.6,16.9L45.6,16.9z M39.7,1.4c0-0.5,0.4-0.9,0.9-0.9s0.9,0.4,0.9,0.9
		c0,0.1,0,0.1,0,0.2c-0.1,1.4-0.5,2.7-1.2,3.9c-0.8,1.2-1.9,2.1-3.2,2.7l-0.2,0.1c-1.8,0.6-3.4,1.4-5,2.2c-2.2,1.2-4.4,2.5-6.5,3.9
		c-0.1,0.1-0.2,0.1-0.3,0.2c-1.7,0.5-3.4,1.2-4.9,2.2c-1.3,0.9-2.4,2.2-3.2,3.6c-0.5,1.2-1,2.4-1.2,3.7c-0.3,1.7-0.5,3.5-0.5,5.2
		c0,0.1,0,0.2-0.1,0.3c-0.8,2.9-1.3,5.8-1.5,8.7c-0.2,3.2-0.2,6.4,0,9.7c0.1,0.5-0.3,1-0.8,1c-0.5,0.1-1-0.3-1-0.8
		c0-0.1,0-0.1,0-0.2c-0.2-3.3-0.2-6.6,0-9.9c0.2-3.1,0.7-6.1,1.5-9c0-1.8,0.2-3.6,0.5-5.3c0.2-1.5,0.7-2.9,1.4-4.2l0,0
		c0.9-1.7,2.2-3.2,3.7-4.2c1.6-1.2,3.4-2,5.3-2.5c2.1-1.5,4.2-2.8,6.5-3.9c1.7-0.9,3.5-1.7,5.3-2.4c1-0.7,1.9-1.4,2.5-2.2
		C39.4,3.4,39.7,2.4,39.7,1.4z M49.5,46.2c-0.2-0.5-0.1-1,0.4-1.2c0.5-0.2,1-0.1,1.2,0.3c0.5,1,1.2,1.9,2.1,2.5
		c0.6,0.5,1.4,0.9,2.2,1.1c0.5,0.1,0.9,0.5,0.8,1c-0.1,0.5-0.5,0.9-1,0.8c-0.1,0-0.2,0-0.3-0.1c-1.1-0.2-2.1-0.8-2.9-1.5
		C51.1,48.4,50.1,47.3,49.5,46.2L49.5,46.2z M49.9,36.8c-0.4-0.3-0.5-0.8-0.2-1.3c0.3-0.4,0.8-0.5,1.2-0.2c2.1,1.4,4.5,2.3,7,2.6
		c2.5,0.2,5-0.2,7.3-1.3c0.5-0.2,1,0,1.2,0.5c0.2,0.5,0,0.9-0.5,1.2c-2.5,1.2-5.4,1.7-8.2,1.5C54.9,39.4,52.2,38.4,49.9,36.8z
		 M60.6,35.9c-0.5-0.3-0.5-0.8-0.2-1.3c0.3-0.5,0.8-0.5,1.3-0.2c0.2,0.1,0.3,0.2,0.5,0.2c0.2,0,0.3-0.1,0.4-0.2
		c0.4-0.3,1-0.2,1.3,0.2c0.3,0.4,0.2,1-0.2,1.3l0,0c-0.5,0.4-1,0.5-1.5,0.5C61.5,36.4,61,36.3,60.6,35.9L60.6,35.9z M51.3,18.5
		c-0.5,0.2-1,0.1-1.2-0.3c-0.2-0.5-0.1-1,0.3-1.2h0.1c1.9-1,4-1.8,6.2-2.3c2.4-0.5,4.8-0.8,7.3-0.8c0.5,0.1,0.8,0.5,0.8,1
		c-0.1,0.5-0.4,0.8-0.8,0.8c-2.3,0-4.6,0.2-6.8,0.8C55,16.8,53.1,17.6,51.3,18.5L51.3,18.5z"/>
	<g>
		<path class="st2" d="M70.2,69.6c-0.9-3.8,0.2,0.4-1.5-6v-0.1l-1.7,0.7c-17.1,5.2-32.6,1.3-35.4,0.7c-0.7-0.2-1.3-0.4-1.9-0.7
			c-0.2-0.1-0.5-0.2-0.7-0.2c0,0-0.5-0.2-1-0.2l-0.8-0.3c0,0-0.8,2.6-1.3,5.7c-0.2,0.6,0.9,1,1.6,1.5c6.9,3.1,12.5,7.8,17.7,14.3
			c0.6,0.4,1,0.7,1.9,1.4h2c0.7-0.7,1.6-1.1,1.9-1.6c5.1-6,10.6-10.9,17.6-14.1"/>
		<path class="st2" d="M73,96"/>
	</g>
</g>
</svg>
