<?xml version="1.0" encoding="utf-8"?>
<svg version="1.1" id="Layer_1" xmlns="http://www.w3.org/2000/svg" xmlns:xlink="http://www.w3.org/1999/xlink" x="0px" y="0px"
	 viewBox="0 0 96 96" style="enable-background:new 0 0 96 96;" xml:space="preserve">
<style type="text/css">
	.st0{fill:#424242;}
</style>
<g id="Layer_1_2_">
<path class="st0" d="M66.1,69.5H31.5V55.6h34.6V69.5z M32.5,68.5h32.6V56.6v11.9H32.5z M33.5,67.5h30.6v-9.9H33.5V67.5z"/>
	<g>
	<path class="st0" d="M66.1,82.4H31.5V71.9h34.6V82.4z M32.5,81.4h32.6v-8.5v8.5H32.5z M33.5,80.4h30.6v-6.5H33.5V80.4z"/>
	<path class="st0" d="M62,95.1H35.4c-2.2,0-3.9-1.7-3.9-3.8v-6.6h34.4v6.6C65.9,93.4,64.2,95.1,62,95.1z M32.5,91.3
		c0,1.5,1.3,2.8,2.9,2.8H62c1.6,0,2.9-1.3,2.9-2.8v-5.6v5.6c0,1.5-1.4,2.8-2.9,2.8H35.4C33.8,94.1,32.5,92.8,32.5,91.3z
		 M33.5,86.7v4.6c0,1,0.9,1.8,1.9,1.8H62c1,0,1.9-0.9,1.9-1.8v-4.6H33.5z"/>
	<rect x="32.5" y="43.8" class="st0" width="32.6" height="8.5"/>
	<rect x="9" y="43.8" class="st0" width="20.5" height="8.5"/>
	<path class="st0" d="M66.2,11.2H31.6V4.6c0-2.1,1.7-3.8,3.9-3.8h26.7c2.1,0,3.9,1.7,4,3.8L66.2,11.2z M32.6,10.2h32.6V4.6
		c0,0,0,0,0,0l0,5.6H32.6z M33.6,9.2h30.6V4.6c-0.1-1-1-1.8-2-1.8H35.5c-1,0-1.9,0.9-1.9,1.8V9.2z M35.5,1.8
		c-1.6,0-2.9,1.3-2.9,2.8C32.6,3.1,34,1.8,35.5,1.8z"/>
	<rect x="68" y="43.8" class="st0" width="20.5" height="8.5"/>
	<path class="st0" d="M66.1,24.2H31.5V13.7h34.6V24.2z M32.5,23.2h32.6v-8.5v8.5H32.5z M33.5,22.2h30.6v-6.5H33.5V22.2z"/>
	<path class="st0" d="M66.1,40.4H31.5V26.5h34.6V40.4z M32.5,39.4h32.6V27.5v11.9H32.5z M33.5,38.4h30.6v-9.9H33.5V38.4z"/>
	</g>
</svg>
