<?xml version="1.0" encoding="utf-8"?>
<svg version="1.1" xmlns="http://www.w3.org/2000/svg" xmlns:xlink="http://www.w3.org/1999/xlink" x="0px" y="0px"
	 viewBox="0 0 96 96" style="enable-background:new 0 0 96 96;" xml:space="preserve">

<g id="Layer_2">
</g>
<g id="Layer_1">
	<g id="XMLID_1_">
		<path id="XMLID_116_" class="st0" d="M24.9,34.6c-0.8,0.8-0.8,2.1,0,2.9c0.4,0.4,0.9,0.6,1.4,0.6c0.5,0,1.1-0.2,1.4-0.6
			c0.8-0.8,0.8-2.1,0-2.9C27.1,33.8,25.7,33.8,24.9,34.6z M27.1,36.7c-0.4,0.4-1.1,0.4-1.4,0c-0.4-0.4-0.4-1.1,0-1.5
			c0.2-0.2,0.4-0.3,0.7-0.3c0.3,0,0.5,0.1,0.7,0.3C27.5,35.7,27.5,36.3,27.1,36.7z"/>
		<path id="XMLID_113_" class="st0" d="M29.6,29.9c-0.8,0.8-0.8,2.1,0,2.9c0.4,0.4,0.9,0.6,1.4,0.6c0.5,0,1-0.2,1.4-0.6
			c0.8-0.8,0.8-2.1,0-2.9C31.7,29.1,30.4,29.1,29.6,29.9z M31.8,32.1c-0.4,0.4-1.1,0.4-1.5,0c-0.4-0.4-0.4-1.1,0-1.5
			c0.2-0.2,0.5-0.3,0.7-0.3s0.5,0.1,0.7,0.3C32.2,31,32.2,31.7,31.8,32.1z"/>
		<path id="XMLID_110_" class="st0" d="M35.4,29.1c0.5,0,1.1-0.2,1.4-0.6c0.8-0.8,0.8-2.1,0-2.9c-0.8-0.8-2.1-0.8-2.9,0
			c-0.8,0.8-0.8,2.1,0,2.9C34.3,28.9,34.8,29.1,35.4,29.1z M34.7,26.3c0.2-0.2,0.4-0.3,0.7-0.3c0.3,0,0.5,0.1,0.7,0.3
			c0.4,0.4,0.4,1.1,0,1.5c-0.4,0.4-1.1,0.4-1.5,0C34.3,27.4,34.3,26.7,34.7,26.3z"/>
		<path id="XMLID_107_" class="st0" d="M21.6,33.3c0.5,0,1-0.2,1.4-0.6c0.8-0.8,0.8-2.1,0-2.9c-0.8-0.8-2.1-0.8-2.9,0
			c-0.8,0.8-0.8,2.1,0,2.9C20.6,33.1,21.1,33.3,21.6,33.3z M20.9,30.5c0.2-0.2,0.5-0.3,0.7-0.3c0.3,0,0.5,0.1,0.7,0.3
			c0.4,0.4,0.4,1.1,0,1.5c-0.4,0.4-1.1,0.4-1.5,0S20.5,30.9,20.9,30.5z"/>
		<path id="XMLID_104_" class="st0" d="M24.8,25.2c-0.8,0.8-0.8,2.1,0,2.9c0.4,0.4,0.9,0.6,1.4,0.6c0.5,0,1-0.2,1.4-0.6
			c0.8-0.8,0.8-2.1,0-2.9C26.9,24.4,25.6,24.4,24.8,25.2z M27,27.3c-0.4,0.4-1.1,0.4-1.5,0c-0.4-0.4-0.4-1.1,0-1.5
			c0.2-0.2,0.5-0.3,0.7-0.3c0.3,0,0.5,0.1,0.7,0.3C27.4,26.3,27.4,26.9,27,27.3z"/>
		<path id="XMLID_101_" class="st0" d="M30.6,24.3c0.5,0,1-0.2,1.4-0.6c0.8-0.8,0.8-2.1,0-2.9c-0.8-0.8-2.1-0.8-2.9,0
			c-0.8,0.8-0.8,2.1,0,2.9C29.6,24.1,30.1,24.3,30.6,24.3z M29.9,21.5c0.2-0.2,0.5-0.3,0.7-0.3c0.3,0,0.5,0.1,0.7,0.3
			c0.4,0.4,0.4,1.1,0,1.5c-0.4,0.4-1.1,0.4-1.5,0C29.5,22.6,29.5,21.9,29.9,21.5z"/>
		<path id="XMLID_98_" class="st0" d="M15.6,25.2c-0.8,0.8-0.8,2.1,0,2.9c0.4,0.4,0.9,0.6,1.4,0.6c0.5,0,1-0.2,1.4-0.6
			c0.8-0.8,0.8-2.1,0-2.9C17.7,24.4,16.4,24.4,15.6,25.2z M17.7,27.4c-0.4,0.4-1.1,0.4-1.5,0c-0.4-0.4-0.4-1.1,0-1.5
			c0.2-0.2,0.5-0.3,0.7-0.3c0.3,0,0.5,0.1,0.7,0.3C18.1,26.3,18.1,27,17.7,27.4z"/>
		<path id="XMLID_95_" class="st0" d="M21.7,24c0.5,0,1-0.2,1.4-0.6c0.8-0.8,0.8-2.1,0-2.9c-0.8-0.8-2.1-0.8-2.9,0
			c-0.8,0.8-0.8,2.1,0,2.9C20.6,23.8,21.1,24,21.7,24z M20.9,21.3c0.2-0.2,0.5-0.3,0.7-0.3c0.3,0,0.5,0.1,0.7,0.3
			c0.4,0.4,0.4,1.1,0,1.5c-0.4,0.4-1.1,0.4-1.5,0C20.5,22.3,20.5,21.7,20.9,21.3z"/>
		<path id="XMLID_92_" class="st0" d="M26,19.7c0.5,0,1-0.2,1.4-0.6c0.8-0.8,0.8-2.1,0-2.9c-0.8-0.8-2.1-0.8-2.9,0
			c-0.8,0.8-0.8,2.1,0,2.9C25,19.5,25.5,19.7,26,19.7z M25.3,16.9c0.2-0.2,0.5-0.3,0.7-0.3c0.3,0,0.5,0.1,0.7,0.3
			c0.4,0.4,0.4,1.1,0,1.5c-0.4,0.4-1.1,0.4-1.5,0C24.9,18,24.9,17.3,25.3,16.9z"/>
		<path id="XMLID_89_" class="st0" d="M66.6,76.2c-0.4,0.4-0.6,0.9-0.6,1.4c0,0.5,0.2,1.1,0.6,1.4c0.4,0.4,0.9,0.6,1.4,0.6
			s1-0.2,1.4-0.6c0.4-0.4,0.6-0.9,0.6-1.4c0-0.5-0.2-1.1-0.6-1.4C68.6,75.4,67.4,75.4,66.6,76.2z M68.7,78.4c-0.4,0.4-1.1,0.4-1.5,0
			c-0.2-0.2-0.3-0.5-0.3-0.7c0-0.3,0.1-0.5,0.3-0.7c0.2-0.2,0.5-0.3,0.7-0.3c0.3,0,0.5,0.1,0.7,0.3c0.2,0.2,0.3,0.5,0.3,0.7
			C69,77.9,68.9,78.2,68.7,78.4z"/>
		<path id="XMLID_86_" class="st0" d="M71.2,71.5c-0.8,0.8-0.8,2.1,0,2.9c0.4,0.4,0.9,0.6,1.4,0.6s1-0.2,1.4-0.6
			c0.8-0.8,0.8-2.1,0-2.9C73.3,70.7,72,70.7,71.2,71.5z M73.4,73.7c-0.4,0.4-1.1,0.4-1.5,0c-0.4-0.4-0.4-1.1,0-1.5
			c0.2-0.2,0.5-0.3,0.7-0.3c0.3,0,0.5,0.1,0.7,0.3C73.8,72.7,73.8,73.3,73.4,73.7z"/>
		<path id="XMLID_83_" class="st0" d="M75.6,67.2c-0.4,0.4-0.6,0.9-0.6,1.4c0,0.5,0.2,1.1,0.6,1.4c0.4,0.4,0.9,0.6,1.4,0.6
			s1-0.2,1.4-0.6c0.4-0.4,0.6-0.9,0.6-1.4c0-0.5-0.2-1.1-0.6-1.4C77.6,66.4,76.3,66.4,75.6,67.2z M77.7,69.4c-0.4,0.4-1.1,0.4-1.5,0
			c-0.2-0.2-0.3-0.5-0.3-0.7c0-0.3,0.1-0.5,0.3-0.7c0.2-0.2,0.5-0.3,0.7-0.3c0.3,0,0.5,0.1,0.7,0.3c0.2,0.2,0.3,0.5,0.3,0.7
			C78,68.9,77.9,69.2,77.7,69.4z"/>
		<path id="XMLID_80_" class="st0" d="M61.8,71.4c-0.4,0.4-0.6,0.9-0.6,1.4c0,0.5,0.2,1.1,0.6,1.4c0.4,0.4,0.9,0.6,1.4,0.6
			c0.5,0,1-0.2,1.4-0.6c0.4-0.4,0.6-0.9,0.6-1.4c0-0.5-0.2-1.1-0.6-1.4C63.9,70.6,62.6,70.6,61.8,71.4z M64,73.6
			c-0.4,0.4-1.1,0.4-1.5,0c-0.2-0.2-0.3-0.5-0.3-0.7c0-0.3,0.1-0.5,0.3-0.7c0.2-0.2,0.5-0.3,0.7-0.3c0.3,0,0.5,0.1,0.7,0.3
			c0.2,0.2,0.3,0.5,0.3,0.7C64.3,73.1,64.1,73.4,64,73.6z"/>
		<path id="XMLID_77_" class="st0" d="M67.9,70.2c0.5,0,1-0.2,1.4-0.6c0.4-0.4,0.6-0.9,0.6-1.4c0-0.5-0.2-1.1-0.6-1.4
			c-0.8-0.8-2.1-0.8-2.9,0c-0.4,0.4-0.6,0.9-0.6,1.4c0,0.5,0.2,1.1,0.6,1.4C66.8,70,67.4,70.2,67.9,70.2z M67.2,67.5
			c0.2-0.2,0.5-0.3,0.7-0.3c0.3,0,0.5,0.1,0.7,0.3c0.2,0.2,0.3,0.5,0.3,0.7c0,0.3-0.1,0.5-0.3,0.7c-0.4,0.4-1,0.4-1.5,0
			c-0.2-0.2-0.3-0.5-0.3-0.7C66.9,67.9,67,67.7,67.2,67.5z"/>
		<path id="XMLID_74_" class="st0" d="M72.2,65.9c0.5,0,1-0.2,1.4-0.6c0.4-0.4,0.6-0.9,0.6-1.4c0-0.5-0.2-1.1-0.6-1.4
			c-0.8-0.8-2.1-0.8-2.9,0c-0.4,0.4-0.6,0.9-0.6,1.4c0,0.5,0.2,1.1,0.6,1.4C71.2,65.7,71.7,65.9,72.2,65.9z M71.5,63.1
			c0.2-0.2,0.5-0.3,0.7-0.3c0.3,0,0.5,0.1,0.7,0.3c0.2,0.2,0.3,0.5,0.3,0.7c0,0.3-0.1,0.5-0.3,0.7c-0.4,0.4-1.1,0.4-1.5,0
			c-0.2-0.2-0.3-0.5-0.3-0.7C71.2,63.6,71.3,63.3,71.5,63.1z"/>
		<path id="XMLID_71_" class="st0" d="M57.2,66.8c-0.8,0.8-0.8,2.1,0,2.9c0.4,0.4,0.9,0.6,1.4,0.6c0.5,0,1-0.2,1.4-0.6
			c0.8-0.8,0.8-2.1,0-2.9C59.3,66,58,66,57.2,66.8z M59.3,69c-0.4,0.4-1.1,0.4-1.5,0c-0.4-0.4-0.4-1.1,0-1.5
			c0.2-0.2,0.5-0.3,0.7-0.3c0.3,0,0.5,0.1,0.7,0.3C59.7,67.9,59.7,68.6,59.3,69z"/>
		<path id="XMLID_68_" class="st0" d="M61.8,62.2c-0.4,0.4-0.6,0.9-0.6,1.4c0,0.5,0.2,1.1,0.6,1.4c0.4,0.4,0.9,0.6,1.4,0.6
			c0.5,0,1.1-0.2,1.4-0.6c0.4-0.4,0.6-0.9,0.6-1.4c0-0.5-0.2-1.1-0.6-1.4C63.9,61.4,62.6,61.4,61.8,62.2z M64,64.3
			c-0.4,0.4-1.1,0.4-1.5,0c-0.2-0.2-0.3-0.5-0.3-0.7c0-0.3,0.1-0.5,0.3-0.7c0.2-0.2,0.5-0.3,0.7-0.3c0.3,0,0.5,0.1,0.7,0.3
			c0.2,0.2,0.3,0.5,0.3,0.7C64.3,63.9,64.2,64.1,64,64.3z"/>
		<path id="XMLID_65_" class="st0" d="M67.6,61.3c0.5,0,1-0.2,1.4-0.6c0.4-0.4,0.6-0.9,0.6-1.4c0-0.5-0.2-1.1-0.6-1.4
			c-0.8-0.8-2.1-0.8-2.9,0c-0.4,0.4-0.6,0.9-0.6,1.4c0,0.5,0.2,1.1,0.6,1.4C66.6,61.1,67.1,61.3,67.6,61.3z M66.9,58.5
			c0.2-0.2,0.5-0.3,0.7-0.3s0.5,0.1,0.7,0.3c0.2,0.2,0.3,0.5,0.3,0.7c0,0.3-0.1,0.5-0.3,0.7c-0.4,0.4-1.1,0.4-1.5,0
			c-0.2-0.2-0.3-0.5-0.3-0.7C66.6,59,66.7,58.7,66.9,58.5z"/>
		<path id="XMLID_60_" class="st0" d="M2,73.3c0,3,1.2,5.7,3.2,7.8l9.6,9.6c2.1,2.1,4.9,3.2,7.8,3.2s5.7-1.2,7.8-3.2L48,73.3
			l17.5,17.5c2.1,2.1,4.9,3.2,7.8,3.2s5.8-1.2,7.8-3.2l9.6-9.6c4.3-4.3,4.3-11.4,0-15.7L73.3,48l17.5-17.5c4.3-4.3,4.3-11.4,0-15.7
			l-9.6-9.6c-4.3-4.3-11.4-4.3-15.7,0L48,22.7L30.5,5.2c-4.3-4.3-11.4-4.3-15.7,0l-9.6,9.6C3.2,16.9,2,19.7,2,22.7
			c0,3,1.2,5.7,3.2,7.8L22.7,48L5.2,65.5C3.2,67.6,2,70.4,2,73.3z M26.9,8.8l17.5,17.5L26.3,44.4L8.8,26.9c-1.1-1.1-1.8-2.7-1.8-4.3
			c0-1.6,0.6-3.1,1.8-4.3l9.6-9.6c1.1-1.1,2.7-1.8,4.3-1.8C24.3,7.1,25.8,7.7,26.9,8.8z M69.1,8.8c1.2-1.2,2.7-1.8,4.3-1.8
			c1.5,0,3.1,0.6,4.3,1.8l9.6,9.6c1.1,1.1,1.8,2.7,1.8,4.3c0,1.6-0.6,3.1-1.8,4.3L26.9,87.2c-1.1,1.1-2.7,1.8-4.3,1.8
			c-1.6,0-3.1-0.6-4.3-1.8h0l-9.6-9.6c-1.1-1.1-1.8-2.7-1.8-4.3c0-1.6,0.6-3.1,1.8-4.3L69.1,8.8z M73.3,88.9c-1.6,0-3.1-0.6-4.3-1.8
			L51.6,69.7l18.1-18.1l17.5,17.5c1.1,1.1,1.8,2.7,1.8,4.3c0,1.6-0.6,3.1-1.8,4.3l-9.6,9.6C76.5,88.3,75,88.9,73.3,88.9z"/>
		<path id="XMLID_57_" class="st0" d="M40.4,60.4L40.4,60.4c1.2,1.2,2.7,1.8,4.3,1.8c1.6,0,3.1-0.6,4.3-1.8l12.7-12.7
			c1.1-1.1,1.8-2.7,1.8-4.3c0-1.6-0.6-3.1-1.8-4.3L57,34.4c-1.1-1.1-2.7-1.8-4.3-1.8c-1.6,0-3.1,0.6-4.3,1.8L35.7,47.1
			c-2.4,2.4-2.4,6.2,0,8.6L40.4,60.4z M51.2,37.2c0.8-0.8,2.1-0.8,2.9,0l4.7,4.7c0.4,0.4,0.6,0.9,0.6,1.4c0,0.5-0.2,1-0.6,1.4
			L46.1,57.5c-0.8,0.8-2.1,0.8-2.9,0l-4.7-4.7c-0.8-0.8-0.8-2.1,0-2.9L51.2,37.2z"/>
		<path id="XMLID_54_" class="st0" d="M60,28.4c0.5,0,1-0.2,1.4-0.6c0.8-0.8,0.8-2.1,0-2.9c-0.8-0.8-2.1-0.8-2.9,0
			c-0.8,0.8-0.8,2.1,0,2.9C58.9,28.2,59.5,28.4,60,28.4z M59.3,25.7c0.2-0.2,0.5-0.3,0.7-0.3c0.3,0,0.5,0.1,0.7,0.3
			c0.4,0.4,0.4,1.1,0,1.5c-0.4,0.4-1.1,0.4-1.5,0C58.9,26.7,58.9,26.1,59.3,25.7z"/>
		<path id="XMLID_51_" class="st0" d="M64.6,33.1c0.5,0,1-0.2,1.4-0.6c0.4-0.4,0.6-0.9,0.6-1.4c0-0.5-0.2-1.1-0.6-1.4
			c-0.8-0.8-2.1-0.8-2.9,0c-0.4,0.4-0.6,0.9-0.6,1.4c0,0.5,0.2,1.1,0.6,1.4C63.6,32.9,64.1,33.1,64.6,33.1z M63.9,30.3
			c0.2-0.2,0.5-0.3,0.7-0.3c0.3,0,0.5,0.1,0.7,0.3c0.2,0.2,0.3,0.5,0.3,0.7c0,0.3-0.1,0.5-0.3,0.7c-0.4,0.4-1.1,0.4-1.5,0
			c-0.2-0.2-0.3-0.5-0.3-0.7C63.6,30.8,63.7,30.5,63.9,30.3z"/>
		<path id="XMLID_48_" class="st0" d="M69,37.4c0.5,0,1-0.2,1.4-0.6c0.4-0.4,0.6-0.9,0.6-1.4c0-0.5-0.2-1.1-0.6-1.4
			c-0.8-0.8-2.1-0.8-2.9,0c-0.4,0.4-0.6,0.9-0.6,1.4c0,0.5,0.2,1.1,0.6,1.4C67.9,37.2,68.5,37.4,69,37.4z M68.2,34.6
			c0.2-0.2,0.5-0.3,0.7-0.3c0.3,0,0.5,0.1,0.7,0.3c0.2,0.2,0.3,0.5,0.3,0.7c0,0.3-0.1,0.5-0.3,0.7c-0.4,0.4-1.1,0.4-1.5,0
			c-0.2-0.2-0.3-0.5-0.3-0.7C67.9,35.1,68.1,34.8,68.2,34.6z"/>
		<path id="XMLID_45_" class="st0" d="M64.7,23.6c0.5,0,1-0.2,1.4-0.6c0.4-0.4,0.6-0.9,0.6-1.4c0-0.5-0.2-1.1-0.6-1.4
			c-0.8-0.8-2.1-0.8-2.9,0c-0.4,0.4-0.6,0.9-0.6,1.4c0,0.5,0.2,1.1,0.6,1.4C63.7,23.4,64.2,23.6,64.7,23.6z M64,20.9
			c0.2-0.2,0.5-0.3,0.7-0.3s0.5,0.1,0.7,0.3c0.2,0.2,0.3,0.5,0.3,0.7c0,0.3-0.1,0.5-0.3,0.7c-0.4,0.4-1.1,0.4-1.5,0
			c-0.2-0.2-0.3-0.5-0.3-0.7C63.7,21.3,63.8,21.1,64,20.9z"/>
		<path id="XMLID_42_" class="st0" d="M68,24.8c-0.8,0.8-0.8,2.1,0,2.9c0.4,0.4,0.9,0.6,1.4,0.6c0.5,0,1-0.2,1.4-0.6
			c0.8-0.8,0.8-2.1,0-2.9S68.8,24,68,24.8z M70.1,27c-0.4,0.4-1.1,0.4-1.5,0c-0.4-0.4-0.4-1.1,0-1.5c0.2-0.2,0.5-0.3,0.7-0.3
			c0.3,0,0.5,0.1,0.7,0.3C70.5,25.9,70.5,26.6,70.1,27z"/>
		<path id="XMLID_39_" class="st0" d="M73.7,32.6c0.5,0,1-0.2,1.4-0.6c0.4-0.4,0.6-0.9,0.6-1.4s-0.2-1.1-0.6-1.4
			c-0.8-0.8-2.1-0.8-2.9,0c-0.4,0.4-0.6,0.9-0.6,1.4s0.2,1.1,0.6,1.4C72.7,32.4,73.2,32.6,73.7,32.6z M73,29.9
			c0.2-0.2,0.5-0.3,0.7-0.3s0.5,0.1,0.7,0.3c0.2,0.2,0.3,0.5,0.3,0.7c0,0.3-0.1,0.5-0.3,0.7c-0.4,0.4-1.1,0.4-1.5,0
			c-0.2-0.2-0.3-0.5-0.3-0.7C72.7,30.3,72.8,30.1,73,29.9z"/>
		<path id="XMLID_36_" class="st0" d="M69.4,19c0.5,0,1-0.2,1.4-0.6c0.4-0.4,0.6-0.9,0.6-1.4c0-0.5-0.2-1.1-0.6-1.4
			c-0.8-0.8-2.1-0.8-2.9,0c-0.4,0.4-0.6,0.9-0.6,1.4c0,0.5,0.2,1.1,0.6,1.4C68.3,18.8,68.8,19,69.4,19z M68.6,16.3
			c0.2-0.2,0.5-0.3,0.7-0.3c0.3,0,0.5,0.1,0.7,0.3c0.2,0.2,0.3,0.5,0.3,0.7s-0.1,0.5-0.3,0.7c-0.4,0.4-1.1,0.4-1.5,0
			c-0.2-0.2-0.3-0.5-0.3-0.7S68.4,16.5,68.6,16.3z"/>
		<path id="XMLID_33_" class="st0" d="M74,23.7c0.5,0,1-0.2,1.4-0.6c0.8-0.8,0.8-2.1,0-2.9c-0.8-0.8-2.1-0.8-2.9,0
			c-0.8,0.8-0.8,2.1,0,2.9C73,23.5,73.5,23.7,74,23.7z M73.3,20.9c0.2-0.2,0.5-0.3,0.7-0.3c0.3,0,0.5,0.1,0.7,0.3
			c0.4,0.4,0.4,1.1,0,1.5c-0.4,0.4-1.1,0.4-1.5,0C72.9,22,72.9,21.3,73.3,20.9z"/>
		<path id="XMLID_30_" class="st0" d="M78.3,28c0.5,0,1-0.2,1.4-0.6c0.8-0.8,0.8-2.1,0-2.9c-0.8-0.8-2.1-0.8-2.9,0
			c-0.8,0.8-0.8,2.1,0,2.9C77.3,27.8,77.8,28,78.3,28z M77.6,25.3c0.2-0.2,0.5-0.3,0.7-0.3c0.3,0,0.5,0.1,0.7,0.3
			c0.4,0.4,0.4,1.1,0,1.5c-0.4,0.4-1.1,0.4-1.5,0C77.2,26.3,77.2,25.7,77.6,25.3z"/>
		<path id="XMLID_27_" class="st0" d="M16.9,66.6c-0.8,0.8-0.8,2.1,0,2.9c0.4,0.4,0.9,0.6,1.4,0.6c0.5,0,1.1-0.2,1.4-0.6
			c0.8-0.8,0.8-2.1,0-2.9C19,65.8,17.7,65.8,16.9,66.6z M19.1,68.7c-0.4,0.4-1.1,0.4-1.5,0c-0.4-0.4-0.4-1.1,0-1.5
			c0.2-0.2,0.5-0.3,0.7-0.3c0.3,0,0.5,0.1,0.7,0.3C19.5,67.7,19.5,68.3,19.1,68.7z"/>
		<path id="XMLID_24_" class="st0" d="M21.6,71.2c-0.8,0.8-0.8,2.1,0,2.9c0.4,0.4,0.9,0.6,1.4,0.6s1-0.2,1.4-0.6
			c0.8-0.8,0.8-2.1,0-2.9C23.7,70.4,22.4,70.4,21.6,71.2z M23.7,73.4c-0.4,0.4-1.1,0.4-1.5,0c-0.4-0.4-0.4-1.1,0-1.5
			c0.2-0.2,0.5-0.3,0.7-0.3s0.5,0.1,0.7,0.3C24.1,72.3,24.1,73,23.7,73.4z"/>
		<path id="XMLID_21_" class="st0" d="M25.9,75.5c-0.8,0.8-0.8,2.1,0,2.9c0.4,0.4,0.9,0.6,1.4,0.6c0.5,0,1-0.2,1.4-0.6
			c0.8-0.8,0.8-2.1,0-2.9C28,74.8,26.7,74.8,25.9,75.5z M28.1,77.7c-0.4,0.4-1.1,0.4-1.5,0c-0.4-0.4-0.4-1.1,0-1.5
			c0.2-0.2,0.5-0.3,0.7-0.3c0.3,0,0.5,0.1,0.7,0.3C28.5,76.7,28.5,77.3,28.1,77.7z"/>
		<path id="XMLID_17_" class="st0" d="M21.7,61.8c-0.8,0.8-0.8,2.1,0,2.9c0.4,0.4,0.9,0.6,1.4,0.6c0.5,0,1.1-0.2,1.4-0.6
			c0.8-0.8,0.8-2.1,0-2.9C23.8,61,22.5,61,21.7,61.8z M23.9,64c-0.4,0.4-1.1,0.4-1.5,0c-0.4-0.4-0.4-1.1,0-1.5
			c0.2-0.2,0.5-0.3,0.7-0.3c0.3,0,0.5,0.1,0.7,0.3C24.3,62.9,24.3,63.6,23.9,64z"/>
		<path id="XMLID_14_" class="st0" d="M26.3,66.4c-0.8,0.8-0.8,2.1,0,2.9c0.4,0.4,0.9,0.6,1.4,0.6c0.5,0,1-0.2,1.4-0.6
			c0.8-0.8,0.8-2.1,0-2.9C28.4,65.6,27.1,65.6,26.3,66.4z M28.5,68.6c-0.4,0.4-1,0.4-1.5,0c-0.4-0.4-0.4-1.1,0-1.5
			c0.2-0.2,0.5-0.3,0.7-0.3c0.3,0,0.5,0.1,0.7,0.3C28.9,67.6,28.9,68.2,28.5,68.6z"/>
		<path id="XMLID_11_" class="st0" d="M30.7,70.8c-0.8,0.8-0.8,2.1,0,2.9c0.4,0.4,0.9,0.6,1.4,0.6c0.5,0,1.1-0.2,1.4-0.6
			c0.8-0.8,0.8-2.1,0-2.9C32.8,70,31.5,70,30.7,70.8z M32.9,72.9c-0.4,0.4-1.1,0.4-1.5,0c-0.4-0.4-0.4-1.1,0-1.5
			c0.2-0.2,0.5-0.3,0.7-0.3c0.3,0,0.5,0.1,0.7,0.3C33.3,71.9,33.3,72.5,32.9,72.9z"/>
		<path id="XMLID_8_" class="st0" d="M27.7,60.7c0.5,0,1-0.2,1.4-0.6c0.8-0.8,0.8-2.1,0-2.9c-0.8-0.8-2.1-0.8-2.9,0
			c-0.8,0.8-0.8,2.1,0,2.9C26.7,60.5,27.2,60.7,27.7,60.7z M27,57.9c0.2-0.2,0.5-0.3,0.7-0.3c0.3,0,0.5,0.1,0.7,0.3
			c0.4,0.4,0.4,1.1,0,1.5c-0.4,0.4-1.1,0.4-1.5,0C26.6,58.9,26.6,58.3,27,57.9z"/>
		<path id="XMLID_5_" class="st0" d="M31,61.8c-0.8,0.8-0.8,2.1,0,2.9c0.4,0.4,0.9,0.6,1.4,0.6c0.5,0,1-0.2,1.4-0.6
			c0.8-0.8,0.8-2.1,0-2.9C33,61,31.7,61,31,61.8z M33.1,64c-0.4,0.4-1.1,0.4-1.5,0c-0.4-0.4-0.4-1.1,0-1.5c0.2-0.2,0.5-0.3,0.7-0.3
			s0.5,0.1,0.7,0.3C33.5,63,33.5,63.6,33.1,64z"/>
		<path id="XMLID_2_" class="st0" d="M35.3,66.2c-0.8,0.8-0.8,2.1,0,2.9c0.4,0.4,0.9,0.6,1.4,0.6c0.5,0,1.1-0.2,1.4-0.6
			c0.8-0.8,0.8-2.1,0-2.9C37.4,65.4,36.1,65.4,35.3,66.2z M37.5,68.3c-0.4,0.4-1.1,0.4-1.5,0c-0.4-0.4-0.4-1.1,0-1.5
			c0.2-0.2,0.5-0.3,0.7-0.3s0.5,0.1,0.7,0.3C37.9,67.3,37.9,67.9,37.5,68.3z"/>
	</g>
</g>
</svg>
