<?xml version="1.0" encoding="utf-8"?>
<svg version="1.1" id="line" xmlns="http://www.w3.org/2000/svg" xmlns:xlink="http://www.w3.org/1999/xlink" x="0px" y="0px"
	 viewBox="0 0 96 96" style="enable-background:new 0 0 96 96;" xml:space="preserve">
<path d="M68.5,47.8h12v-2.3c-0.7-2.5-1.8-4.3-3.2-5.3c-1.4-1-3.2-1.5-5.4-1.5l-49.1,0c-1.2,0-2.2-1-2.2-2.2c0-1.2,1-2.2,2.2-2.2
	l49,0c3.1,0,5.8,0.7,8,2.3c0.2,0.1,0.4,0.3,0.6,0.5v-1.3c0-2-0.8-3.9-2.2-5.3c-1.3-1.4-3.2-2.2-5.3-2.2h-1.6l-0.2,0l-0.8,2.9h-5.3
	l3.1-11.8c-2.6-0.7-4.2-3.4-3.5-6.1L47.3,8.8c-0.7,2.6-3.4,4.2-6.1,3.5l-5.1,19h-5.5L39,0.4l37.1,9.9l-3.7,13.7H73
	c3.2,0,6.2,1.3,8.3,3.5c2.1,2.1,3.5,5.1,3.5,8.3V48c1.3,0.3,2.4,0.9,3.3,1.8c1.2,1.2,1.9,2.8,1.9,4.5v14.4c0,1.8-0.8,3.5-2,4.7
	c-0.9,0.9-2,1.5-3.2,1.8v8.7c0,3.2-1.3,6.2-3.5,8.3l-0.1,0.1c-2.1,2.1-5,3.4-8.2,3.4H17.8c-3.2,0-6.2-1.3-8.4-3.5
	C7.3,90,6,87,6,83.8V35.9c0-3.3,1.3-6.2,3.5-8.4s5.1-3.5,8.4-3.5h6.9l0,0l5.5-20.4l5.2,1.4l-7.2,26.2h-5.5l0.8-2.9h-5.8
	c-2,0-3.9,0.8-5.3,2.2c-1.4,1.4-2.2,3.2-2.2,5.3v47.9c0,2,0.8,3.9,2.2,5.3c1.4,1.4,3.2,2.2,5.3,2.2H73c2,0,3.8-0.8,5.2-2.1l0.1-0.1
	c1.4-1.4,2.2-3.2,2.2-5.3v-8.5h-12c-3.7,0-7.1-1.5-9.5-3.9l-0.2-0.3c-2.3-2.4-3.7-5.7-3.7-9.2v-0.6c0-3.7,1.5-7,3.9-9.5l0,0
	C61.5,49.3,64.9,47.8,68.5,47.8L68.5,47.8z M48.7,30.5c3.2,0.9,6.5-1,7.3-4.2c0.9-3.2-1-6.5-4.2-7.3c-3.2-0.9-6.5,1-7.3,4.2
	C43.6,26.4,45.5,29.7,48.7,30.5z M70.3,57.9L70.3,57.9c1.8,2,1.8,5.4,0,7.4l0,0c-1.8,2-4.7,2-6.5,0l0,0c-1.8-2-1.8-5.4,0-7.4l0,0
	C65.6,55.8,68.5,55.8,70.3,57.9z"/>
</svg>
