<?xml version="1.0" encoding="utf-8"?>
<svg version="1.1" xmlns="http://www.w3.org/2000/svg" xmlns:xlink="http://www.w3.org/1999/xlink" x="0px" y="0px"
	 viewBox="0 0 96 96" style="enable-background:new 0 0 96 96;" xml:space="preserve">
<g id="Layer_1">
	<path class="st0" d="M43.2,74.4c0.2,0.1,0.4,0.1,0.6,0.1c0.6,0,1.2-0.3,1.6-0.9l14.7-23.9c0.3-0.6,0.4-1.3,0-1.9S59.2,47,58.5,47
				H53l1.2-15c0.1-0.8-0.4-1.6-1.3-1.9c-0.8-0.3-1.7,0-2.1,0.8L36,54.4c-0.4,0.6-0.4,1.3-0.1,1.9s0.9,0.9,1.6,0.9h6.2L42,72.5
				C41.9,73.3,42.4,74.1,43.2,74.4L43.2,74.4z M40.8,53.6l9.1-14.4l-0.8,9.5c0,0.5,0.1,1,0.5,1.4c0.3,0.4,0.8,0.6,1.4,0.6h4.2
				l-8.7,14.1l1-9.1c0.1-0.5-0.1-1-0.5-1.4c-0.3-0.4-0.8-0.6-1.4-0.6L40.8,53.6z"/>
			<path class="st0" d="M66.6,54.6c-1,0-1.8,0.8-1.8,1.8v22.2c0,1.6-1.3,2.9-2.9,2.9H34.1c-1.6,0-2.9-1.3-2.9-2.9V25.8
				c0-1.6,1.3-2.9,2.9-2.9h27.8c1.6,0,2.9,1.3,2.9,2.9V40c0,1,0.8,1.8,1.8,1.8c1,0,1.8-0.8,1.8-1.8V25.8c0-3.6-3-6.6-6.6-6.6h-2.7
				v-2.6c0-3-2.5-5.5-5.5-5.5H42.3c-3,0-5.5,2.5-5.5,5.5v2.6h-2.7c-3.6,0-6.6,3-6.6,6.6v52.9c0,3.6,3,6.6,6.6,6.6h27.8
				c3.6,0,6.6-3,6.6-6.6V56.5C68.5,55.5,67.6,54.6,66.6,54.6L66.6,54.6z M40.5,16.6c0-1,0.8-1.8,1.8-1.8h11.4c1,0,1.8,0.8,1.8,1.8
				v2.6H40.5L40.5,16.6z"/>
			<path class="st0" d="M75.6,41.1c-0.7-0.7-1.9-0.7-2.6,0c-0.7,0.7-0.7,1.9,0,2.6c2.5,2.5,2.5,6.5,0,9c-0.7,0.7-0.7,1.9,0,2.6
				c0.4,0.4,0.8,0.5,1.3,0.5c0.5,0,0.9-0.2,1.3-0.5C79.5,51.4,79.5,45,75.6,41.1L75.6,41.1z"/>
			<path class="st0" d="M81.4,35.3c-0.7-0.7-1.9-0.7-2.6,0c-0.7,0.7-0.7,1.9,0,2.6c5.7,5.7,5.7,15,0,20.7c-0.7,0.7-0.7,1.9,0,2.6
				c0.4,0.4,0.8,0.5,1.3,0.5c0.5,0,0.9-0.2,1.3-0.5C88.6,54,88.6,42.4,81.4,35.3L81.4,35.3z"/>
			<path class="st0" d="M87.2,29.5c-0.7-0.7-1.9-0.7-2.6,0c-0.7,0.7-0.7,1.9,0,2.6c8.9,8.9,8.9,23.4,0,32.3c-0.7,0.7-0.7,1.9,0,2.6
				c0.4,0.4,0.8,0.5,1.3,0.5c0.5,0,0.9-0.2,1.3-0.5C97.6,56.6,97.6,39.8,87.2,29.5L87.2,29.5z"/>
			<path class="st0" d="M23,41.1c-0.7-0.7-1.9-0.7-2.6,0c-3.9,3.9-3.9,10.3,0,14.2c0.4,0.4,0.8,0.5,1.3,0.5s0.9-0.2,1.3-0.5
				c0.7-0.7,0.7-1.9,0-2.6c-2.5-2.5-2.5-6.5,0-9C23.7,43,23.7,41.8,23,41.1L23,41.1z"/>
			<path class="st0" d="M12.9,48.2c0-3.9,1.5-7.6,4.3-10.3c0.7-0.7,0.7-1.9,0-2.6c-0.7-0.7-1.9-0.7-2.6,0c-3.5,3.5-5.4,8-5.4,12.9
				s1.9,9.5,5.4,12.9c0.4,0.4,0.8,0.5,1.3,0.5c0.5,0,0.9-0.2,1.3-0.5c0.7-0.7,0.7-1.9,0-2.6C14.4,55.8,12.9,52.1,12.9,48.2
				L12.9,48.2z"/>
			<path class="st0" d="M11.3,32.1c0.7-0.7,0.7-1.9,0-2.6s-1.9-0.7-2.6,0C-1.6,39.8-1.6,56.6,8.8,67c0.4,0.4,0.8,0.5,1.3,0.5
				s0.9-0.2,1.3-0.5c0.7-0.7,0.7-1.9,0-2.6C2.4,55.5,2.4,41,11.3,32.1L11.3,32.1z"/>
			<circle class="st0" cx="66.6" cy="48.2" r="1.8"/>
	</g>
</svg>
