<svg xmlns="http://www.w3.org/2000/svg" width="693.954" height="74.504" viewBox="0 0 693.954 74.504">
  <g id="Component_1_1" data-name="Component 1 – 1" transform="translate(0 0.524)">
    <path id="Path_1" data-name="Path 1" d="M672.234,1413.778c0-17.554,14.411-30.516,34.782-30.516a44.745,44.745,0,0,1,19.4,4.186v19.969c-4.669-2.013-11.916-3.945-17.309-3.945-8.537,0-12.966,4.83-12.966,11.111,0,6.843,5.4,10.949,11.274,10.949a7.856,7.856,0,0,0,2.416-.322v-2.979h-5.8v-13.043h23.833v28.824c-4.267,2.657-11.836,5.315-21.418,5.315C685.437,1443.327,672.234,1430.524,672.234,1413.778Z" transform="translate(-453.523 -1381.297)" fill="#ea6a20"/>
    <path id="Path_8" data-name="Path 8" d="M665.73,1412.239c0-17.553,14.41-30.515,34.782-30.515a44.744,44.744,0,0,1,19.4,4.185v19.969c-4.669-2.013-11.917-3.945-17.31-3.945-8.536,0-12.965,4.83-12.965,11.111,0,6.843,5.4,10.949,11.274,10.949a7.891,7.891,0,0,0,2.415-.321v-2.98h-5.8v-13.043h23.833v28.824c-4.266,2.658-11.835,5.315-21.417,5.315C678.932,1441.788,665.73,1428.985,665.73,1412.239Z" transform="translate(-453.523 -1381.297)" fill="none" stroke="#212322" stroke-miterlimit="10" stroke-width="1.047"/>
    <path id="Path_12" data-name="Path 12" d="M975.934,1382.835c18.277,0,32.529,13.123,32.529,30.032s-14.252,30.033-32.529,30.033-32.528-13.125-32.528-30.033S957.657,1382.835,975.934,1382.835Zm0,39.453a9.018,9.018,0,1,0-9.017-9.019A9,9,0,0,0,975.934,1422.288Z" transform="translate(-453.523 -1381.297)" fill="#ea6a20"/>
    <path id="Path_14" data-name="Path 14" d="M969.43,1381.3c18.277,0,32.528,13.122,32.528,30.031s-14.251,30.033-32.528,30.033-32.529-13.124-32.529-30.033S951.152,1381.3,969.43,1381.3Zm0,39.452a9.018,9.018,0,1,0-9.017-9.018A9,9,0,0,0,969.43,1420.749Z" transform="translate(-453.523 -1381.297)" fill="none" stroke="#212322" stroke-miterlimit="10" stroke-width="1.047"/>
    <path id="Path_17" data-name="Path 17" d="M1088.781,1442.44v-58.293h24.4c11.271,0,19.966,3.463,25.843,9.1a28.091,28.091,0,0,1,.163,40.016c-6.04,5.8-14.816,9.179-25.846,9.179Zm24-19h.562c4.026,0,7.084-1.289,9.016-3.3a9.748,9.748,0,0,0,2.66-6.844,10.014,10.014,0,0,0-2.66-7.006c-1.688-1.771-4.425-3.139-8.854-3.139h-.724Z" transform="translate(-453.523 -1381.297)" fill="#ea6a20"/>
    <path id="Path_18" data-name="Path 18" d="M1082.277,1440.9v-58.294h24.4c11.27,0,19.966,3.463,25.843,9.1a28.09,28.09,0,0,1,.162,40.016c-6.039,5.8-14.816,9.179-25.846,9.179Zm23.995-19h.562c4.026,0,7.085-1.289,9.017-3.3a9.75,9.75,0,0,0,2.659-6.845,10.008,10.008,0,0,0-2.659-7.005c-1.689-1.771-4.426-3.14-8.855-3.14h-.724Z" transform="translate(-453.523 -1381.297)" fill="none" stroke="#212322" stroke-miterlimit="10" stroke-width="1.047"/>
    <path id="Path_2" data-name="Path 2" d="M766.617,1390.262c18.278,0,32.529,13.122,32.529,30.031s-14.251,30.033-32.529,30.033-32.528-13.124-32.528-30.033S748.34,1390.262,766.617,1390.262Zm0,39.452a9.018,9.018,0,1,0-9.017-9.018A9,9,0,0,0,766.617,1429.714Z" transform="translate(-453.523 -1381.297)" fill="#ea6a20"/>
    <path id="Path_3" data-name="Path 3" d="M835.891,1395.212c18.277,0,32.528,13.123,32.528,30.032s-14.251,30.033-32.528,30.033-32.529-13.125-32.529-30.033S817.613,1395.212,835.891,1395.212Zm0,39.453a9.018,9.018,0,1,0-9.017-9.019A9,9,0,0,0,835.891,1434.665Z" transform="translate(-453.523 -1381.297)" fill="#ea6a20"/>
    <path id="Path_4" data-name="Path 4" d="M453.523,1386.878h43.155v19.485h-19.16v3.3h15.3v14.654h-15.3v20.853H453.523Z" transform="translate(-453.523 -1381.297)" fill="#212322"/>
    <path id="Path_5" data-name="Path 5" d="M503.617,1386.878h41.948v19.485H527.612v3.14H542.1v13.849H527.612v3.3h19.079v18.519H503.617Z" transform="translate(-453.523 -1381.297)" fill="#212322"/>
    <path id="Path_6" data-name="Path 6" d="M554.872,1386.878H596.82v19.485H578.867v3.14h14.491v13.849H578.867v3.3h19.079v18.519H554.872Z" transform="translate(-453.523 -1381.297)" fill="#212322"/>
    <path id="Path_7" data-name="Path 7" d="M606.124,1386.878h23.995v37.6h18.034v20.693H606.124Z" transform="translate(-453.523 -1381.297)" fill="#212322"/>
    <path id="Path_9" data-name="Path 9" d="M760.113,1388.723c18.277,0,32.528,13.123,32.528,30.031s-14.251,30.033-32.528,30.033-32.528-13.124-32.528-30.033S741.836,1388.723,760.113,1388.723Zm0,39.452a9.018,9.018,0,1,0-9.017-9.018A9,9,0,0,0,760.113,1428.175Z" transform="translate(-453.523 -1381.297)" fill="none" stroke="#212322" stroke-miterlimit="10" stroke-width="1.047"/>
    <path id="Path_10" data-name="Path 10" d="M829.386,1393.674c18.278,0,32.529,13.122,32.529,30.031s-14.251,30.033-32.529,30.033-32.528-13.124-32.528-30.033S811.109,1393.674,829.386,1393.674Zm0,39.452a9.018,9.018,0,1,0-9.017-9.018A9,9,0,0,0,829.386,1433.126Z" transform="translate(-453.523 -1381.297)" fill="none" stroke="#212322" stroke-miterlimit="10" stroke-width="1.047"/>
    <path id="Path_11" data-name="Path 11" d="M906.661,1389.024c18.277,0,32.528,13.123,32.528,30.031s-14.251,30.033-32.528,30.033-32.529-13.124-32.529-30.033S888.383,1389.024,906.661,1389.024Zm0,39.452a9.017,9.017,0,1,0-9.017-9.018A9,9,0,0,0,906.661,1428.476Z" transform="translate(-453.523 -1381.297)" fill="#ea6a20"/>
    <path id="Path_13" data-name="Path 13" d="M900.156,1387.485c18.278,0,32.529,13.123,32.529,30.032s-14.251,30.033-32.529,30.033-32.528-13.125-32.528-30.033S881.879,1387.485,900.156,1387.485Zm0,39.453a9.018,9.018,0,1,0-9.017-9.019A9,9,0,0,0,900.156,1426.938Z" transform="translate(-453.523 -1381.297)" fill="none" stroke="#212322" stroke-miterlimit="10" stroke-width="1.047"/>
    <path id="Path_15" data-name="Path 15" d="M1048.754,1390.262c18.277,0,32.528,13.122,32.528,30.031s-14.251,30.033-32.528,30.033-32.528-13.124-32.528-30.033S1030.477,1390.262,1048.754,1390.262Zm0,39.452a9.018,9.018,0,1,0-9.017-9.018A9,9,0,0,0,1048.754,1429.714Z" transform="translate(-453.523 -1381.297)" fill="#ea6a20"/>
    <path id="Path_16" data-name="Path 16" d="M1042.249,1388.723c18.278,0,32.529,13.123,32.529,30.031s-14.251,30.033-32.529,30.033-32.528-13.124-32.528-30.033S1023.972,1388.723,1042.249,1388.723Zm0,39.452a9.018,9.018,0,1,0-9.016-9.018A9,9,0,0,0,1042.249,1428.175Z" transform="translate(-453.523 -1381.297)" fill="none" stroke="#212322" stroke-miterlimit="10" stroke-width="1.047"/>
  </g>
</svg>
