<svg width="96" height="96" viewBox="0 0 96 96" fill="auto" xmlns="http://www.w3.org/2000/svg">
<path d="M61.8938 69.1957C62.3851 69.4363 62.7536 70.0376 62.5079 70.639C62.2623 71.1201 61.6481 71.4809 61.0339 71.2404C57.4718 69.6768 55.0151 66.5497 53.4182 62.34C49.6104 60.0548 45.9254 58.8521 42.486 58.8521C39.2924 58.8521 36.0987 59.8143 33.1507 61.7387C34.8704 63.182 36.3444 64.9861 37.327 67.151C37.5727 67.6321 37.327 68.3538 36.8357 68.5943C36.3444 68.8349 35.6074 68.5943 35.3617 68.1132C33.7649 64.8658 31.3082 62.5806 28.2373 61.1373C25.0437 59.694 20.9902 58.9724 16.3225 59.0926C15.7083 59.0926 15.217 58.6115 15.217 58.0102C15.217 57.4088 15.7083 56.9277 16.3225 56.9277C21.3587 56.8074 25.6578 57.5291 29.22 59.0926C29.957 59.4535 30.694 59.8143 31.3082 60.2954C34.7475 57.7696 38.5554 56.5669 42.486 56.5669C45.6797 56.5669 48.9962 57.5291 52.4356 59.2129C52.3127 58.6115 52.0671 58.0102 51.9442 57.2885C50.8387 52.4775 50.4702 46.5841 50.4702 40.4501C51.2072 39.969 51.9442 39.4879 52.6812 39.0068C52.6812 45.6219 53.0497 51.8762 54.1552 56.9277C55.3836 62.9414 57.8402 67.3916 61.8938 69.1957ZM36.59 16.2749C37.8184 16.2749 38.9239 16.756 39.6609 17.5979C40.3979 18.3195 41.012 19.402 41.012 20.6048C41.012 21.8075 40.5207 22.89 39.6609 23.6116C38.9239 24.3333 37.8184 24.9346 36.59 24.9346C35.3617 24.9346 34.2562 24.4535 33.5192 23.6116C32.7822 22.89 32.168 21.8075 32.168 20.6048C32.168 19.402 32.6594 18.3195 33.5192 17.5979C34.2562 16.756 35.3617 16.2749 36.59 16.2749ZM36.59 8.0962C40.1522 8.0962 43.3459 9.5395 45.5569 11.7044C47.7679 13.8694 49.2419 17.1168 49.2419 20.4845C49.2419 23.8522 47.7679 27.0996 45.5569 29.2645C43.3459 31.4295 40.0294 32.8728 36.59 32.8728C33.1507 32.8728 29.8342 31.4295 27.6232 29.2645C25.4122 27.0996 23.9382 23.8522 23.9382 20.4845C23.9382 17.1168 25.4122 13.8694 27.6232 11.7044C29.8342 9.5395 33.1507 8.0962 36.59 8.0962ZM44.2057 13.1477C42.2404 11.2233 39.538 10.0206 36.59 10.0206C33.642 10.0206 30.9397 11.2233 28.9743 13.1477C27.009 15.0721 25.7807 17.7182 25.7807 20.6048C25.7807 23.4914 27.009 26.1374 28.9743 28.0618C30.9397 29.9862 33.642 31.1889 36.59 31.1889C39.538 31.1889 42.2404 29.9862 44.2057 28.0618C46.1711 26.1374 47.3994 23.4914 47.3994 20.6048C47.3994 17.7182 46.1711 14.9519 44.2057 13.1477ZM36.59 1C47.6451 1 56.4891 9.78005 56.4891 20.4845C56.4891 31.1889 47.5222 39.969 36.59 39.969C25.6578 39.969 16.691 31.1889 16.691 20.4845C16.691 15.0721 18.902 10.2611 22.587 6.65291C26.1492 3.16494 31.0625 1 36.59 1ZM53.2954 20.4845C53.2954 11.4639 45.8026 4.12714 36.59 4.12714C32.0452 4.12714 27.8688 5.93126 24.798 8.93812C21.7272 11.945 19.8847 15.9141 19.8847 20.4845C19.8847 29.5051 27.3775 36.8418 36.59 36.8418C45.8026 36.8418 53.2954 29.5051 53.2954 20.4845ZM38.1869 19.0412C37.8184 18.6804 37.2042 18.4398 36.59 18.4398C35.9759 18.4398 35.4845 18.6804 34.9932 19.0412C34.6247 19.402 34.379 20.0034 34.379 20.6048C34.379 21.2061 34.6247 21.6872 34.9932 22.1683C35.3617 22.5292 35.9759 22.7697 36.59 22.7697C37.2042 22.7697 37.6955 22.5292 38.1869 22.1683C38.5554 21.8075 38.801 21.2061 38.801 20.6048C38.801 19.8831 38.5554 19.402 38.1869 19.0412ZM59.5599 23.8522C64.9646 28.3023 69.1409 34.1958 72.2118 41.292C76.0196 50.072 78.2306 60.6562 79.2133 72.4431C80.933 77.2541 81.67 81.2232 80.933 83.9895C80.0731 87.1166 77.3708 88.8005 72.3346 89.1613C59.8056 92.2884 48.6277 94.2128 39.1695 94.8142C29.5885 95.4156 21.6043 94.5736 15.7083 92.0479C15.0941 91.8073 14.8485 91.206 15.0941 90.6046C15.3398 90.0032 15.954 89.7627 16.5681 90.0032C22.2185 92.2884 29.8342 93.1303 39.1695 92.529C48.5049 91.9276 59.5599 90.0032 72.089 86.8761C72.2118 86.8761 72.2118 86.8761 72.3346 86.8761C76.3881 86.6355 78.4763 85.4328 79.0905 83.2678C79.8275 80.8623 78.9676 77.3744 77.3708 72.9242C77.3708 72.8039 77.248 72.6837 77.248 72.5634C76.2653 60.8968 74.1771 50.4329 70.3693 41.8934C67.6669 35.7594 64.2276 30.4673 59.6828 26.3779C59.8056 25.7766 59.8056 25.1752 59.8056 24.5738C59.5599 24.5738 59.5599 24.213 59.5599 23.8522Z" fill="#0B53A1"/>
</svg>
