<svg width="371" height="380" viewBox="0 0 371 380" fill="none" xmlns="http://www.w3.org/2000/svg">
<g clip-path="url(#clip0_64_3)">
<rect width="371" height="380" fill="white"/>
<path d="M330.383 90.186C331.891 108.271 340.654 124.879 347.249 141.856C353.845 158.834 358.368 178.026 351.678 194.911C343.198 216.041 319.83 227.39 297.687 234.217C275.545 241.045 251.612 246.028 234.651 261.529C204.5 289.025 206.572 340.142 174.725 365.793C155.126 381.571 126.482 383.324 102.455 375.389C78.4275 367.454 58.0751 351.214 40.0783 333.776C24.1544 318.367 9.26699 301.481 -0.249663 281.644C-16.0793 249.165 -15.9851 211.612 -15.6082 175.535C-15.1371 131.43 -72.7503 24.0294 -47.4982 -12.509C-24.6959 -45.5413 62.4094 -20.0279 102.455 -27.3171C142.5 -34.6064 195.171 -15.7385 235.782 -12.5091C259.056 -10.6638 282.329 -8.81839 305.602 -6.97301C320.772 -5.77352 357.331 -8.63385 367.79 4.65285C379.474 19.6004 356.106 30.7649 348.003 39.9918C335.942 53.8321 328.781 71.9168 330.383 90.186Z" fill="url(#paint0_linear_64_3)"/>
<mask id="mask0_64_3" style="mask-type:alpha" maskUnits="userSpaceOnUse" x="0" y="0" width="371" height="380">
<rect width="371" height="380" fill="#D9D9D9"/>
</mask>
<g mask="url(#mask0_64_3)">
</g>
</g>
<defs>
<linearGradient id="paint0_linear_64_3" x1="177.67" y1="380.038" x2="177.67" y2="-16.0671" gradientUnits="userSpaceOnUse">
<stop/>
<stop offset="1"/>
</linearGradient>
<clipPath id="clip0_64_3">
<rect width="371" height="380" fill="white"/>
</clipPath>
</defs>
</svg>
