<?xml version="1.0" encoding="utf-8"?>
<!-- Generator: Adobe Illustrator 21.0.0, SVG Export Plug-In . SVG Version: 6.00 Build 0)  -->
<svg version="1.1" id="Layer_1" xmlns="http://www.w3.org/2000/svg" xmlns:xlink="http://www.w3.org/1999/xlink" x="0px" y="0px"
	 viewBox="0 0 96 96" style="enable-background:new 0 0 96 96;" xml:space="preserve">
<style type="text/css">
	.st0{fill:#FFFFFF;}
</style>
<path class="st0" d="M48,0C21.5,0,0,21.5,0,48s21.5,48,48,48s48-21.5,48-48S74.5,0,48,0z M74.8,38.8L44.6,69.1
	c-0.8,0.8-1.8,1.2-2.8,1.2s-2.1-0.4-2.8-1.2L25.1,55.3c-1.6-1.6-1.6-4.1,0-5.7s4.1-1.6,5.7,0l11,11l27.4-27.4c1.6-1.6,4.1-1.6,5.7,0
	S76.4,37.3,74.8,38.8z"/>
</svg>
