<?xml version="1.0" encoding="utf-8"?>
<!-- Generator: Adobe Illustrator 21.0.0, SVG Export Plug-In . SVG Version: 6.00 Build 0)  -->
<svg version="1.1" id="Layer_1" xmlns="http://www.w3.org/2000/svg" xmlns:xlink="http://www.w3.org/1999/xlink" x="0px" y="0px"
	 viewBox="0 0 120 120" style="enable-background:new 0 0 120 120;" xml:space="preserve">
<style type="text/css">
	.st0{fill:#FFFFFF;}
</style>
<g>
	<path class="st0" d="M64.8,92.9h21.4c1.7-1.7,3.6-3.5,5.5-5.3c4-3.8,8.2-7.8,12.5-12.7c4.9-5.7,5.5-7.6,6.9-13.2
		c0.3-1,0.6-2.2,1-3.7l2.6-9l0-0.1c1.4-4,1.5-6.7,0.9-8.2c-0.2-0.5-0.4-0.8-0.7-0.9c-0.2-0.1-0.5-0.2-0.8-0.2
		c-0.7,0.1-1.4,0.5-2.1,1.2L104.6,59c-0.1,0.2-0.2,0.3-0.3,0.5c-0.4,0.8-1.1,1.6-1.8,2.4L89,76.8c-0.7,0.8-2,0.9-2.8,0.2
		c-0.8-0.7-0.9-2-0.2-2.8l13.5-15c0.1-0.1,0.1-0.1,0.2-0.2c1.4-1.3,1.8-2.8,1.6-3.8c-0.1-0.3-0.2-0.6-0.4-0.8
		c-0.2-0.2-0.4-0.3-0.7-0.3l0,0c-1.2-0.1-3,0.8-5.1,3.3l0,0c-0.1,0.1-0.1,0.1-0.2,0.2l-5.2,4.6l0,0c-5.7,5.4-8.1,6.6-12.5,8.9
		c-0.9,0.5-1.9,1-3.2,1.7c-0.5,0.3-1,0.6-1.5,1c-0.5,0.4-1,0.8-1.5,1.2c-2.3,2-3.6,3.6-4.3,5.3c-0.7,1.8-1,4.1-1.4,7.1
		c-0.1,1.2-0.3,2.5-0.3,3.7C64.9,91.7,64.9,92.3,64.8,92.9L64.8,92.9z M59.9,17.5c4-4.2,6.8-7.7,12.9-8.4
		c11.5-1.3,22.1,10.5,16.3,22.1c-1.7,3.3-5,7.2-8.8,11.1c-4.1,4.2-8.6,8.4-11.8,11.5l-8.6,8.6l-7.1-6.9
		c-8.6-8.3-22.6-18.7-23.1-31.6c-0.3-9,6.8-14.8,15-14.7C52,9.2,55.1,12.8,59.9,17.5L59.9,17.5L59.9,17.5z M55.1,92.9H33.7
		c-1.7-1.7-3.6-3.5-5.5-5.3c-4-3.8-8.2-7.8-12.5-12.7c-4.9-5.7-5.5-7.6-6.9-13.2c-0.3-1-0.6-2.2-1-3.7l-2.6-9l0-0.1
		c-1.4-4-1.5-6.7-0.9-8.2c0.2-0.5,0.4-0.8,0.7-0.9c0.2-0.1,0.5-0.2,0.8-0.2c0.7,0.1,1.4,0.5,2.1,1.2l7.6,18.1
		c0.1,0.2,0.2,0.3,0.3,0.5c0.4,0.8,1.1,1.6,1.8,2.4l13.5,15c0.7,0.8,2,0.9,2.8,0.2c0.8-0.7,0.9-2,0.2-2.8l-13.5-15
		c-0.1-0.1-0.1-0.1-0.2-0.2c-1.4-1.3-1.8-2.8-1.6-3.8c0.1-0.3,0.2-0.6,0.4-0.8c0.2-0.2,0.4-0.3,0.7-0.3l0,0c1.2-0.1,3,0.8,5.1,3.3
		l0,0c0.1,0.1,0.1,0.1,0.2,0.2l5.2,4.6l0,0c5.7,5.4,8.1,6.6,12.5,8.9c0.9,0.5,1.9,1,3.2,1.7c0.5,0.3,1,0.6,1.5,1
		c0.5,0.4,1,0.8,1.5,1.2c2.3,2,3.6,3.6,4.3,5.3c0.7,1.8,1,4.1,1.4,7.1c0.1,1.2,0.3,2.5,0.3,3.7C55.1,91.7,55.1,92.3,55.1,92.9
		L55.1,92.9z M28.7,93.6c-0.3,0.4-0.5,0.8-0.5,1.3v11.9c0,1.1,0.9,2,2,2h26.9c1.1,0,2-0.9,2-2v-12c0-1.3-0.1-2.6-0.2-3.9
		c-0.1-1.3-0.2-2.6-0.4-3.9c-0.4-3.4-0.7-5.8-1.6-8.2c-1-2.4-2.5-4.5-5.4-6.9c-0.5-0.4-1.1-0.9-1.6-1.3c-0.6-0.4-1.2-0.9-2-1.3
		c-1.2-0.6-2.3-1.2-3.3-1.7c-4.1-2.1-6.3-3.3-11.6-8.3c0,0-0.1-0.1-0.1-0.1l-5.1-4.5c-3.1-3.6-6.2-4.9-8.5-4.6h0l0,0
		c-1.1,0.1-2.1,0.6-2.9,1.3L11.4,39h0c-0.1-0.2-0.2-0.3-0.3-0.5c-1.4-1.7-3.2-2.7-5-2.9c-1.2-0.1-2.3,0.1-3.3,0.8
		C1.8,37,1,38,0.6,39.3c-0.9,2.3-0.8,5.9,0.8,10.8L3.9,59c0.4,1.3,0.7,2.5,1,3.6c1.7,6.2,2.2,8.4,7.8,14.8c4.4,5,8.7,9.1,12.8,13
		C26.6,91.5,27.7,92.5,28.7,93.6L28.7,93.6z M32.6,96.9c0.3,0.1,0.5,0.1,0.8,0h21.8v7.9H32.2v-7.9H32.6L32.6,96.9z M91.2,93.6
		c0.3,0.4,0.5,0.8,0.5,1.3v11.9c0,1.1-0.9,2-2,2H62.8c-1.1,0-2-0.9-2-2v-12c0-0.1,0-0.1,0-0.2c0-1.3,0.1-2.5,0.2-3.7
		c0.1-1.3,0.2-2.6,0.4-3.9c0.4-3.4,0.7-5.8,1.6-8.2c1-2.4,2.5-4.5,5.4-6.9c0.5-0.4,1.1-0.9,1.6-1.3c0.6-0.4,1.2-0.9,2-1.3
		c1.2-0.6,2.3-1.2,3.3-1.7c4.1-2.1,6.3-3.3,11.6-8.3c0,0,0.1-0.1,0.1-0.1l5.1-4.5c3.1-3.6,6.2-4.9,8.5-4.6h0l0,0
		c1.1,0.1,2.1,0.6,2.9,1.3l5.1-12.3h0c0.1-0.2,0.2-0.3,0.3-0.5c1.4-1.7,3.2-2.7,5-2.9c1.2-0.1,2.3,0.1,3.3,0.8
		c0.9,0.6,1.7,1.6,2.2,2.9c0.9,2.3,0.8,5.9-0.8,10.8l-2.5,8.9c-0.4,1.3-0.7,2.5-1,3.6c-1.7,6.2-2.2,8.4-7.8,14.8
		c-4.4,5-8.7,9.1-12.8,13C93.4,91.5,92.3,92.5,91.2,93.6L91.2,93.6z M87.4,96.9c-0.3,0.1-0.5,0.1-0.8,0H64.8v7.9h22.9v-7.9H87.4
		L87.4,96.9z"/>
</g>
</svg>
