<?xml version="1.0" encoding="utf-8"?>
<!-- Generator: Adobe Illustrator 21.0.0, SVG Export Plug-In . SVG Version: 6.00 Build 0)  -->
<svg version="1.1" id="Layer_1" xmlns="http://www.w3.org/2000/svg" xmlns:xlink="http://www.w3.org/1999/xlink" x="0px" y="0px"
	 viewBox="0 0 120 120" style="enable-background:new 0 0 120 120;" xml:space="preserve">
<style type="text/css">
	.st0{fill:#FFFFFF;}
</style>
<path class="st0" d="M16.9,106c4.7-0.4,17.6-1.5,21.7-7.8c0.4-0.6,3.8-6.3,3.8-6.3l14,5.3c0.3,1.5-7.9,13-9.4,14.3
	c-1.9,1.6-3.7,2.5-5.7,3.2c-6.5,2.4-12.1,4.4-19.4,5.7L16.9,106L16.9,106z M46,48.6l-6,21.7c-1.4,7,0.1,13,6.7,17.1
	c3.4,2.1,4.4,2,8.4,3.2l18.2,4.2C74.3,95,96,112.5,98,114.2l9.3-8.4c1.4-1.2-21.6-21.4-25.6-23.4C62.8,73,62,83.7,69.2,56.6
	c3.6,3.5,6.4,7.5,13.2,10.2c8.4,2.1,13-0.8,20-3.1l10.3-3.7l-4.5-12.6L98,51.1c-0.3,0.1-1,0.4-2.3,0.8c-3.2,0.8-6.1,2.8-8.1,1.8
	c-6.8-3.3-10.8-17.1-29.7-18.6c-2.8-0.2-8.1-0.9-12.2-1.1C30.3,33.2,25,39,16.6,47.6c-3.9,3.7-3.9,3.7-7.8,7.4l9.9,9.9
	c3.9-3.7,4-3.7,7.9-7.5c3.5-3.4,5.9-6.8,9.6-8.3c2.4-1,5.4-0.6,9-0.5C45.5,48.6,45.7,48.6,46,48.6L46,48.6L46,48.6z M63.6,1
	c7.6-2.5,15.8,1.7,18.3,9.3c2.5,7.6-1.7,15.8-9.3,18.3c-7.6,2.5-15.8-1.7-18.3-9.3C51.8,11.7,56,3.5,63.6,1L63.6,1z"/>
</svg>
