<svg width="96" height="96" viewBox="0 0 96 96" fill="none" xmlns="http://www.w3.org/2000/svg">

<path d="M92.0657 44.7285C91.9657 44.5285 91.7657 44.2285 91.6657 44.0285C90.9657 42.9285 90.1657 41.8285 89.4657 40.8285C88.6657 39.7285 87.8657 38.6285 86.9657 37.6285C85.1657 35.6285 83.0657 34.0285 80.5657 33.0285C80.3657 32.9285 80.1657 32.8285 79.9657 32.6285C79.4657 32.1285 78.9657 31.6285 78.5657 31.0285C78.2657 30.7285 77.9657 30.3285 77.6657 30.0285C77.1657 29.6285 76.7657 29.1285 76.2657 28.7285C75.3657 27.9285 74.3657 27.3285 73.3657 26.8285C72.3657 26.4285 71.2657 26.1285 70.1657 26.1285C69.8657 26.1285 69.6657 26.1285 69.3657 26.0285C68.6657 25.9285 67.9657 25.8285 67.2657 25.7285C66.1657 25.6285 65.0657 25.4285 63.9657 25.2285C62.9657 25.0285 61.9657 24.7285 61.0657 24.2285C60.5657 23.9285 60.0657 23.6285 59.7657 23.2285C59.6657 23.1285 59.6657 23.1285 59.6657 23.0285C59.9657 22.9285 60.3657 22.9285 60.6657 22.8285C60.8657 22.8285 61.0657 22.7285 61.2657 22.5285C61.3657 22.3285 61.4657 22.1285 61.4657 21.9285C61.4657 21.8285 61.4657 21.7285 61.4657 21.6285C61.5657 21.0285 61.7657 20.4285 61.8657 19.9285C62.1657 18.8285 62.2657 17.8285 62.2657 16.7285C62.2657 16.0285 62.2657 16.0285 62.8657 15.6285C62.9657 15.5285 63.0657 15.5285 63.0657 15.5285C63.1657 15.5285 63.1657 15.4285 63.1657 15.4285C63.1657 15.4285 63.1657 15.4285 63.2657 15.3285L63.3657 15.2285V15.1285V15.0285V14.9285V14.8285V14.7285V14.6285C63.2657 14.5285 63.1657 14.4285 63.0657 14.4285C63.0657 14.3285 62.9657 14.3285 62.8657 14.2285C62.4657 13.8285 62.1657 13.3285 61.8657 12.8285C61.7657 12.6285 61.6657 12.4285 61.5657 12.1285C61.4657 11.9285 61.4657 11.8285 61.4657 11.6285C61.5657 11.3285 61.5657 10.9285 61.6657 10.6285C61.6657 10.3285 61.7657 10.1285 61.6657 9.82853C61.5657 8.62853 61.2657 7.52853 60.9657 6.42853C60.8657 6.12853 60.7657 5.92853 60.5657 5.62853C60.2657 5.32853 60.0657 5.02853 59.8657 4.72853C59.6657 4.52853 59.5657 4.32853 59.3657 4.22853L59.2657 4.12853C59.0657 3.92853 58.9657 3.82853 58.7657 3.72853C58.6657 3.72853 58.6657 3.62853 58.5657 3.62853C58.6657 3.32853 58.5657 3.32853 58.5657 3.32853C58.3657 3.22853 58.2657 3.12853 58.0657 3.02853C57.8657 2.92853 57.6657 2.82853 57.3657 2.72853C55.3657 1.92853 53.3657 1.82853 51.2657 2.22853C50.3657 2.42853 49.4657 2.82853 48.5657 3.22853C48.2657 3.32853 48.0657 3.52853 47.7657 3.62853C47.3657 3.72853 47.0657 3.92853 46.7657 4.22853C46.4657 4.42853 46.1657 4.72853 45.9657 5.02853C45.8657 5.12853 45.7657 5.22853 45.6657 5.32853C45.5657 5.42853 45.5657 5.52853 45.4657 5.62853C45.4657 5.62853 45.4657 5.62853 45.4657 5.72853C45.2657 5.92853 45.1657 6.12853 44.9657 6.42853C44.6657 6.92853 44.3657 7.52853 44.2657 8.22853C44.0657 9.12853 43.9657 10.1285 43.9657 11.0285C43.9657 11.2285 43.9657 11.5285 43.9657 11.7285C44.0657 12.3285 44.1657 12.9285 44.2657 13.5285C44.3657 13.9285 44.4657 14.3285 44.6657 14.6285C44.6657 14.6285 44.6657 14.6285 44.6657 14.7285C44.7657 14.9285 44.8657 15.2285 44.9657 15.4285V15.5285C45.0657 15.7285 45.1657 15.9285 45.3657 16.2285V16.3285C45.4657 16.5285 45.6657 16.7285 45.7657 17.0285C46.1657 17.3285 46.1657 17.8285 46.2657 18.3285C46.2657 18.5285 46.2657 18.6285 46.2657 18.8285C46.2657 20.1285 45.9657 21.3285 45.2657 22.3285C45.1657 22.5285 45.0657 22.6285 44.8657 22.7285C43.7657 23.4285 42.5657 24.0285 41.3657 24.4285C40.6657 24.6285 39.8657 24.8285 39.1657 25.1285C38.8657 25.2285 38.4657 25.4285 38.1657 25.5285C37.1657 25.8285 36.1657 25.9285 35.0657 26.1285C33.9657 26.2285 32.9657 26.4285 31.9657 26.7285C30.3657 27.2285 28.9657 27.9285 27.5657 28.8285C26.7657 29.3285 26.0657 30.0285 25.3657 30.6285C24.7657 31.2285 24.0657 31.8285 23.5657 32.4285C22.9657 33.1285 22.3657 33.8285 21.8657 34.5285C21.6657 34.7285 21.5657 34.8285 21.2657 34.9285C19.9657 35.3285 18.7657 35.7285 17.5657 36.2285C17.0657 36.4285 16.4657 36.6285 15.9657 36.9285C14.8657 37.4285 13.8657 38.0285 12.8657 38.6285C12.1657 39.1285 11.4657 39.5285 10.8657 40.1285C10.2657 40.3285 9.56569 40.9285 8.76569 41.5285C8.26569 41.9285 7.86569 42.3285 7.46569 42.8285C6.66569 43.7285 5.86569 44.7285 5.16569 45.7285C5.06569 45.8285 4.96569 46.0285 4.76569 46.1285C4.66569 46.2285 4.56569 46.3285 4.46569 46.4285C4.36569 46.6285 4.26569 46.9285 4.16569 47.2285C3.96569 48.0285 3.96569 48.8285 4.06569 49.6285C4.06569 49.7285 4.06569 49.9285 4.16569 50.0285V50.1285V50.2285C4.16569 50.3285 4.16569 50.4285 4.26569 50.5285C4.36569 50.7285 4.36569 50.8285 4.46569 50.9285C5.16569 51.7285 5.86569 52.4285 6.56569 53.0285C7.76569 54.0285 9.16569 54.8285 10.5657 55.6285C12.5657 56.6285 14.5657 57.6285 16.5657 58.5285C18.4657 59.3285 20.3657 60.1285 22.3657 60.9285C24.2657 61.7285 26.1657 62.5285 28.0657 63.3285C29.3657 63.8285 30.5657 64.4285 31.9657 64.8285C32.1657 64.9285 32.3657 65.0285 32.4657 65.2285C32.5657 65.3285 32.6657 65.4285 32.7657 65.5285C32.9657 65.8285 33.0657 66.1285 33.0657 66.5285C32.9657 67.1285 32.8657 67.6285 32.6657 68.2285C32.4657 68.9285 32.0657 69.5285 31.7657 70.2285C31.2657 71.2285 30.7657 72.1285 30.4657 73.1285C30.4657 73.2285 30.3657 73.2285 30.3657 73.3285C30.2657 73.4285 30.2657 73.5285 30.1657 73.7285C30.1657 73.7285 30.1657 73.7285 30.1657 73.8285C30.1657 73.9285 30.0657 74.0285 30.0657 74.1285C30.0657 74.3285 29.9657 74.5285 29.9657 74.7285V74.8285C29.9657 75.0285 29.9657 75.3285 29.8657 75.5285C29.8657 75.6285 29.8657 75.7285 29.7657 75.8285C29.6657 76.7285 29.4657 77.6285 29.1657 78.4285C28.9657 78.9285 28.8657 79.4285 28.7657 79.9285C28.6657 80.2285 28.6657 80.4285 28.7657 80.7285C29.0657 82.1285 29.3657 83.4285 29.6657 84.8285C29.7657 85.2285 29.8657 85.5285 30.0657 85.7285C30.1657 85.8285 30.1657 85.8285 30.2657 85.9285C30.3657 86.0285 30.4657 86.1285 30.5657 86.2285L30.6657 86.3285C30.7657 86.4285 30.7657 86.5285 30.6657 86.6285C30.3657 87.8285 30.1657 89.0285 29.9657 90.3285C29.8657 91.0285 29.7657 91.7285 29.7657 92.3285C29.7657 92.7285 29.6657 93.1285 29.6657 93.5285C29.7657 94.3285 29.7657 95.0285 29.7657 95.8285C31.0657 95.8285 32.4657 95.8285 33.7657 95.8285C36.1657 95.8285 38.5657 95.8285 40.9657 95.8285C40.9657 95.8285 40.9657 95.8285 41.0657 95.8285C47.0657 95.8285 53.0657 95.8285 59.0657 95.8285C63.0657 95.8285 67.1657 95.8285 71.1657 95.8285C71.2657 95.4285 71.2657 95.1285 71.2657 94.7285C71.3657 93.6285 71.3657 92.5285 71.2657 91.4285C71.2657 90.1285 71.1657 88.8285 71.0657 87.4285C71.0657 87.1285 70.9657 86.9285 70.9657 86.6285C70.9657 86.4285 70.9657 86.1285 70.9657 85.9285C70.9657 85.7285 70.9657 85.5285 70.9657 85.4285C70.9657 85.3285 70.9657 85.3285 70.9657 85.2285C70.9657 85.1285 70.9657 84.9285 70.9657 84.8285C70.9657 84.4285 71.0657 84.0285 71.0657 83.6285C71.0657 83.5285 71.0657 83.5285 71.0657 83.4285C71.0657 83.0285 71.0657 82.6285 71.0657 82.2285C71.0657 82.1285 71.0657 82.1285 71.0657 82.0285C71.0657 81.9285 71.0657 81.8285 71.0657 81.6285C71.0657 81.6285 71.0657 81.5285 71.1657 81.5285C71.1657 81.5285 71.1657 81.4285 71.2657 81.4285C71.3657 81.4285 71.3657 81.4285 71.3657 81.5285C71.3657 81.5285 71.3657 81.5285 71.3657 81.6285C71.4657 81.9285 71.4657 82.3285 71.5657 82.6285C71.6657 83.2285 71.7657 83.8285 71.9657 84.4285C72.0657 84.7285 72.1657 84.9285 72.3657 85.1285C72.5657 85.3285 72.7657 85.5285 72.9657 85.7285C73.1657 85.9285 73.3657 86.0285 73.5657 86.0285C73.6657 86.0285 73.6657 86.0285 73.7657 85.9285C73.7657 85.9285 73.7657 85.9285 73.7657 85.8285C73.7657 85.8285 73.7657 85.8285 73.7657 85.7285V85.6285C73.7657 85.2285 73.6657 84.9285 73.6657 84.5285C73.5657 82.9285 73.4657 81.4285 73.2657 79.8285C73.2657 79.5285 73.2657 79.3285 73.1657 79.0285C73.1657 79.0285 73.1657 79.0285 73.1657 78.9285C73.1657 78.7285 73.1657 78.4285 73.0657 78.2285C72.9657 77.8285 72.8657 77.4285 72.8657 77.1285C72.8657 76.9285 72.7657 76.8285 72.7657 76.6285C72.4657 75.3285 72.2657 74.1285 71.9657 72.8285C71.8657 72.4285 71.9657 72.2285 72.1657 71.9285C72.2657 71.8285 72.3657 71.7285 72.4657 71.6285C72.5657 71.5285 72.6657 71.3285 72.7657 71.2285C72.8657 71.0285 73.0657 70.8285 73.1657 70.6285C73.6657 70.1285 74.1657 69.5285 74.6657 69.0285C76.1657 67.3285 77.4657 65.6285 78.8657 63.9285C80.5657 61.8285 82.2657 59.8285 84.1657 57.8285C84.2657 57.7285 84.2657 57.7285 84.2657 57.6285C85.1657 56.5285 86.1657 55.4285 86.9657 54.3285C88.2657 52.7285 89.3657 50.9285 90.2657 49.1285C90.6657 48.2285 91.0657 47.4285 91.3657 46.5285C91.5657 46.0285 91.5657 45.5285 91.7657 45.1285C92.2657 44.9285 92.1657 44.8285 92.0657 44.7285ZM36.8657 63.4285C36.7657 63.3285 36.7657 63.3285 36.7657 63.2285C36.5657 62.9285 36.4657 62.5285 36.2657 62.2285C36.1657 62.0285 35.9657 61.8285 35.7657 61.6285C35.3657 61.3285 34.9657 61.0285 34.4657 60.8285C34.2657 60.7285 34.0657 60.5285 33.8657 60.5285C33.7657 60.5285 33.5657 60.4285 33.4657 60.3285C32.6657 59.8285 31.9657 59.3285 31.1657 58.8285C30.4657 58.3285 29.7657 57.8285 29.0657 57.3285C27.5657 56.2285 26.0657 55.0285 24.5657 53.9285C23.2657 52.9285 22.0657 51.8285 20.7657 50.7285C20.1657 50.2285 19.6657 49.7285 19.0657 49.2285C18.6657 48.8285 18.1657 48.5285 17.7657 48.2285C17.6657 48.2285 17.5657 48.1285 17.5657 48.0285C17.5657 47.9285 17.6657 47.9285 17.6657 47.9285C19.3657 47.9285 20.9657 47.5285 22.5657 47.1285C25.0657 46.5285 27.5657 45.6285 29.9657 44.6285C30.9657 44.1285 32.0657 43.7285 32.9657 43.1285L33.0657 43.0285C33.3657 42.8285 33.5657 42.6285 33.8657 42.4285C33.9657 42.3285 34.0657 42.4285 34.0657 42.5285C34.1657 43.0285 34.1657 43.6285 34.2657 44.1285C34.3657 45.1285 34.5657 46.1285 34.6657 47.1285C34.7657 48.1285 34.9657 49.1285 35.0657 50.1285C35.1657 51.2285 35.3657 52.3285 35.4657 53.4285C35.5657 54.2285 35.6657 55.0285 35.7657 55.7285C35.8657 57.0285 36.1657 58.3285 36.3657 59.5285C36.4657 60.1285 36.5657 60.7285 36.6657 61.2285C36.7657 61.7285 36.8657 62.2285 36.8657 62.7285C36.8657 62.9285 36.8657 63.0285 36.9657 63.2285C36.9657 63.2285 36.9657 63.3285 36.8657 63.4285ZM50.1657 48.9285C50.2657 48.9285 50.3657 49.0285 50.3657 49.1285C50.4657 49.1285 50.5657 49.2285 50.5657 49.3285C50.6657 49.7285 50.7657 50.2285 50.7657 50.6285C50.7657 50.8285 50.6657 51.0285 50.5657 51.2285C50.4657 51.3285 50.3657 51.4285 50.2657 51.5285C50.2657 51.5285 50.2657 51.5285 50.2657 51.4285C50.2657 51.4285 50.2657 51.4285 50.2657 51.3285C50.2657 51.3285 50.2657 51.3285 50.2657 51.2285V51.1285V51.0285C50.1657 51.0285 50.1657 51.1285 50.1657 51.1285L50.0657 51.2285V51.3285C49.9657 51.5285 49.8657 51.6285 50.0657 51.8285C50.0657 51.8285 50.0657 51.9285 50.0657 52.0285C50.0657 52.1285 50.0657 52.1285 50.0657 52.2285C50.0657 52.3285 50.1657 52.3285 50.2657 52.4285H50.3657C50.7657 52.5285 50.9657 52.9285 50.9657 53.3285C50.9657 53.5285 50.9657 53.7285 50.9657 53.9285C50.9657 54.0285 50.9657 54.1285 50.9657 54.2285C50.9657 54.3285 50.9657 54.4285 50.8657 54.4285C50.8657 54.4285 50.8657 54.5285 50.7657 54.5285C50.7657 54.6285 50.6657 54.6285 50.6657 54.7285C50.5657 54.9285 50.3657 55.0285 50.1657 54.9285C50.0657 55.2285 50.1657 55.5285 50.4657 55.8285C50.8657 55.8285 51.0657 56.0285 51.1657 56.3285C51.1657 56.3285 51.1657 56.3285 51.1657 56.4285C51.1657 56.4285 51.1657 56.4285 51.1657 56.5285C51.2657 56.8285 51.2657 57.2285 51.2657 57.5285C51.2657 57.6285 51.2657 57.7285 51.2657 57.8285C51.2657 58.0285 51.1657 58.1285 51.0657 58.3285C50.9657 58.4285 50.9657 58.4285 50.8657 58.5285C50.7657 58.5285 50.7657 58.5285 50.7657 58.5285C50.7657 58.5285 50.7657 58.5285 50.7657 58.6285V58.7285V58.8285C50.8657 59.2285 50.8657 59.2285 51.3657 59.3285C51.6657 59.4285 51.8657 59.5285 51.9657 59.8285C52.0657 60.2285 52.1657 60.5285 52.1657 60.9285C52.1657 61.0285 52.1657 61.0285 52.1657 61.1285C52.1657 61.2285 52.1657 61.2285 52.1657 61.3285C52.1657 61.5285 52.0657 61.6285 51.9657 61.7285C51.9657 61.8285 51.8657 61.8285 51.8657 61.9285C51.8657 61.9285 51.7657 62.0285 51.6657 62.0285C51.5657 62.0285 51.4657 62.1285 51.3657 62.2285C51.3657 62.2285 51.3657 62.3285 51.3657 62.4285H51.4657C51.4657 62.5285 51.5657 62.6285 51.5657 62.6285C51.5657 62.7285 51.5657 62.8285 51.6657 62.8285C51.6657 62.8285 51.7657 62.8285 51.7657 62.9285C51.7657 62.9285 51.7657 62.9285 51.8657 62.9285C51.9657 62.9285 51.9657 62.9285 51.9657 63.0285C52.2657 63.0285 52.4657 63.1285 52.5657 63.3285C52.7657 63.7285 52.8657 64.1285 52.8657 64.5285C52.8657 64.6285 52.8657 64.6285 52.8657 64.7285V64.8285C52.8657 64.9285 52.7657 65.1285 52.7657 65.2285C52.7657 65.2285 52.7657 65.2285 52.7657 65.3285C52.7657 65.3285 52.7657 65.4285 52.6657 65.4285C52.5657 65.5285 52.4657 65.6285 52.3657 65.6285C52.2657 65.6285 52.2657 65.7285 52.1657 65.7285L52.0657 65.8285C52.0657 65.8285 52.0657 65.8285 52.0657 65.9285C52.1657 66.1285 52.1657 66.2285 52.3657 66.3285C52.7657 66.3285 52.9657 66.5285 53.0657 66.8285C53.1657 67.1285 53.2657 67.4285 53.2657 67.7285C53.2657 67.8285 53.2657 67.9285 53.2657 68.1285C53.2657 68.3285 53.1657 68.5285 53.0657 68.7285V68.8285C53.0657 68.9285 52.9657 69.0285 52.8657 69.0285C52.8657 69.0285 52.8657 69.0285 52.7657 69.0285C52.6657 69.1285 52.5657 69.1285 52.5657 69.2285C52.6657 69.3285 52.7657 69.4285 52.7657 69.5285C52.7657 69.6285 52.7657 69.7285 52.8657 69.8285C52.8657 69.8285 52.9657 69.9285 53.0657 69.9285C53.4657 69.9285 53.6657 70.1285 53.7657 70.4285C53.7657 70.4285 53.7657 70.4285 53.7657 70.5285C53.8657 70.9285 53.8657 71.3285 53.8657 71.7285C53.8657 71.9285 53.7657 72.0285 53.7657 72.1285C53.7657 72.1285 53.7657 72.2285 53.6657 72.2285C53.6657 72.2285 53.6657 72.3285 53.5657 72.3285C53.5657 72.3285 53.5657 72.3285 53.4657 72.3285L53.3657 72.4285H53.2657C53.1657 72.4285 52.9657 72.5285 52.8657 72.5285C52.7657 72.5285 52.7657 72.5285 52.6657 72.5285C52.5657 72.5285 52.5657 72.5285 52.5657 72.5285C52.5657 72.5285 52.5657 72.5285 52.5657 72.6285C52.5657 72.7285 52.5657 72.7285 52.5657 72.8285C52.5657 72.9285 52.5657 73.0285 52.5657 73.0285C52.5657 73.1285 52.5657 73.2285 52.6657 73.2285C52.6657 73.3285 52.7657 73.3285 52.8657 73.4285C52.9657 73.4285 52.9657 73.4285 52.9657 73.5285C53.0657 73.5285 53.0657 73.5285 53.0657 73.6285C53.1657 73.6285 53.1657 73.7285 53.1657 73.7285C53.1657 73.8285 53.1657 74.0285 53.1657 74.1285C53.1657 74.5285 53.0657 74.8285 52.7657 75.2285C52.7657 75.2285 52.6657 75.2285 52.6657 75.3285C52.5657 75.3285 52.5657 75.3285 52.4657 75.4285C52.2657 75.4285 52.1657 75.3285 51.9657 75.3285C51.9657 75.3285 51.9657 75.3285 51.8657 75.3285C51.7657 75.4285 51.7657 75.7285 51.5657 75.8285C51.5657 75.8285 51.5657 75.9285 51.4657 75.9285C51.5657 76.0285 51.5657 76.0285 51.6657 76.1285C51.8657 76.1285 51.9657 76.2285 51.9657 76.4285C52.1657 76.5285 52.2657 76.5285 52.3657 76.7285C52.5657 76.7285 52.7657 76.9285 52.8657 77.1285C52.9657 77.3285 53.0657 77.4285 53.0657 77.6285C53.0657 77.7285 53.0657 77.7285 53.0657 77.8285V77.9285C53.0657 78.2285 53.0657 78.5285 52.9657 78.8285C52.8657 79.4285 52.8657 80.1285 52.7657 80.7285C52.6657 81.3285 52.3657 81.8285 51.8657 82.1285C51.7657 82.2285 51.6657 82.2285 51.4657 82.3285H51.3657C51.2657 82.3285 51.2657 82.3285 51.1657 82.3285C50.6657 82.4285 50.2657 82.4285 49.7657 82.5285C49.2657 82.5285 48.7657 82.6285 48.3657 82.8285H48.2657C48.2657 82.9285 48.1657 82.9285 48.0657 82.9285C48.0657 83.0285 47.9657 83.0285 47.8657 83.0285C47.8657 83.1285 47.7657 83.1285 47.6657 83.1285C47.1657 83.6285 46.7657 84.1285 46.2657 84.5285C46.1657 84.6285 46.0657 84.7285 46.0657 84.8285L44.8657 86.0285C44.6657 86.3285 44.3657 86.5285 44.0657 86.6285C44.0657 86.6285 44.0657 86.6285 43.9657 86.6285C43.8657 86.6285 43.5657 86.5285 43.5657 86.3285C43.5657 86.1285 43.5657 85.8285 43.7657 85.7285V85.6285C43.7657 85.5285 43.7657 85.5285 43.7657 85.4285C43.6657 85.1285 43.7657 84.9285 44.0657 84.7285C44.0657 84.7285 43.9657 84.6285 43.9657 84.5285H43.8657C43.8657 84.5285 43.8657 84.5285 43.8657 84.4285C43.8657 84.3285 43.8657 84.3285 43.8657 84.2285C43.9657 84.1285 43.9657 84.0285 43.9657 83.9285C43.9657 83.8285 43.9657 83.7285 43.9657 83.6285C43.9657 83.5285 43.9657 83.4285 43.9657 83.3285V83.2285C43.8657 82.8285 43.7657 82.3285 43.6657 81.9285C43.5657 81.3285 43.5657 80.8285 43.6657 80.2285C43.6657 80.1285 43.6657 80.1285 43.6657 80.0285C43.6657 79.9285 43.7657 79.7285 43.7657 79.6285C43.5657 79.7285 43.3657 79.9285 43.1657 80.1285C43.0657 80.3285 42.9657 80.3285 42.8657 80.2285C42.8657 80.2285 42.7657 80.2285 42.7657 80.1285C42.6657 80.0285 42.5657 79.8285 42.6657 79.7285C42.6657 79.7285 42.6657 79.7285 42.6657 79.6285C42.6657 79.4285 42.7657 79.2285 42.7657 79.1285C42.8657 78.7285 43.0657 78.3285 43.2657 78.0285C43.3657 77.8285 43.4657 77.7285 43.6657 77.6285C43.6657 77.5285 43.6657 77.5285 43.7657 77.5285C43.7657 77.4285 43.8657 77.3285 44.0657 77.2285C44.0657 77.1285 44.0657 77.1285 44.1657 77.1285C44.2657 77.0285 44.3657 76.9285 44.4657 76.8285C44.4657 76.7285 44.5657 76.7285 44.6657 76.6285C44.8657 76.5285 45.0657 76.3285 45.1657 76.1285C45.1657 76.0285 45.2657 76.0285 45.3657 76.0285C45.4657 75.7285 45.7657 75.5285 46.0657 75.3285C46.0657 75.2285 46.0657 75.2285 46.1657 75.2285C46.1657 75.2285 46.1657 75.2285 46.1657 75.1285C46.0657 75.0285 46.0657 75.0285 46.0657 74.9285V74.8285C45.9657 74.7285 45.9657 74.7285 46.0657 74.6285C46.0657 74.4285 46.1657 74.2285 46.3657 74.1285C46.3657 73.9285 46.4657 73.8285 46.5657 73.7285C46.7657 73.5285 46.9657 73.3285 47.0657 73.0285C47.0657 73.0285 47.0657 72.9285 47.1657 72.9285H47.2657V72.8285C47.2657 72.7285 47.1657 72.7285 47.1657 72.7285C47.0657 72.7285 46.8657 72.7285 46.7657 72.7285C46.5657 72.7285 46.3657 72.7285 46.2657 72.5285C46.1657 72.5285 46.1657 72.4285 46.1657 72.4285C46.1657 72.3285 46.1657 72.2285 46.1657 72.2285V72.1285C46.2657 71.6285 46.3657 71.2285 46.6657 70.8285C46.6657 70.8285 46.6657 70.8285 46.7657 70.8285C46.8657 70.5285 47.0657 70.3285 47.3657 70.2285C47.4657 70.0285 47.4657 70.0285 47.2657 69.9285C47.1657 69.8285 47.0657 69.7285 46.9657 69.7285C46.8657 69.7285 46.6657 69.7285 46.5657 69.7285H46.4657C46.3657 69.7285 46.3657 69.7285 46.2657 69.7285C46.0657 69.6285 45.9657 69.5285 45.8657 69.4285C45.8657 69.3285 45.8657 69.3285 45.8657 69.2285C45.8657 68.7285 45.9657 68.3285 46.1657 67.9285C46.1657 67.8285 46.1657 67.8285 46.2657 67.7285C46.2657 67.6285 46.3657 67.5285 46.4657 67.4285C46.4657 67.3285 46.4657 67.3285 46.5657 67.3285C46.5657 67.2285 46.5657 67.2285 46.6657 67.2285C46.6657 67.2285 46.6657 67.1285 46.7657 67.1285C46.7657 67.1285 46.7657 67.0285 46.8657 67.0285C46.9657 66.8285 47.0657 66.5285 46.9657 66.3285C46.8657 66.3285 46.8657 66.2285 46.7657 66.2285C46.7657 66.2285 46.6657 66.1285 46.5657 66.1285C46.4657 66.1285 46.4657 66.1285 46.3657 66.1285C46.2657 66.1285 46.1657 66.1285 46.1657 66.1285H46.0657C45.6657 66.1285 45.4657 65.9285 45.4657 65.6285C45.4657 65.6285 45.4657 65.6285 45.4657 65.5285C45.4657 64.9285 45.6657 64.2285 46.0657 63.7285C46.0657 63.7285 46.0657 63.7285 46.1657 63.7285C46.1657 63.6285 46.1657 63.6285 46.2657 63.6285C46.2657 63.5285 46.2657 63.5285 46.3657 63.5285C46.3657 63.5285 46.3657 63.4285 46.4657 63.4285C46.4657 63.4285 46.4657 63.3285 46.5657 63.3285C46.6657 63.2285 46.6657 63.0285 46.6657 62.9285C46.6657 62.8285 46.6657 62.7285 46.7657 62.7285H46.6657C46.5657 62.7285 46.4657 62.7285 46.4657 62.7285C46.3657 62.7285 46.3657 62.6285 46.2657 62.6285C46.2657 62.6285 46.1657 62.6285 46.1657 62.5285C46.1657 62.5285 46.1657 62.5285 46.0657 62.5285H45.9657C45.8657 62.5285 45.7657 62.5285 45.6657 62.5285C45.5657 62.5285 45.5657 62.5285 45.4657 62.5285C45.1657 62.5285 44.9657 62.3285 44.9657 62.1285V62.0285C44.9657 61.5285 45.0657 61.0285 45.3657 60.6285C45.3657 60.6285 45.3657 60.6285 45.4657 60.6285C45.4657 60.5285 45.5657 60.4285 45.6657 60.3285C45.6657 60.2285 45.6657 60.2285 45.7657 60.2285C45.7657 60.1285 45.7657 60.1285 45.8657 60.1285C45.8657 60.1285 45.8657 60.0285 45.9657 60.0285C45.9657 60.0285 45.9657 59.9285 46.0657 59.9285C46.1657 59.7285 46.1657 59.4285 46.2657 59.2285C46.2657 59.1285 46.1657 59.1285 46.1657 59.1285C46.0657 59.1285 45.9657 59.1285 45.8657 59.1285C45.8657 59.1285 45.8657 59.1285 45.7657 59.0285C45.7657 59.0285 45.7657 59.0285 45.6657 59.0285C45.5657 58.8285 45.3657 58.8285 45.1657 58.9285C44.9657 58.9285 44.8657 58.9285 44.6657 58.9285C44.6657 58.9285 44.5657 58.9285 44.5657 58.8285C44.4657 58.7285 44.3657 58.6285 44.3657 58.5285C44.3657 58.4285 44.3657 58.4285 44.3657 58.3285C44.3657 58.2285 44.3657 58.0285 44.4657 57.9285C44.4657 57.9285 44.4657 57.9285 44.4657 57.8285C44.5657 57.6285 44.5657 57.3285 44.7657 57.2285C44.7657 57.1285 44.7657 57.1285 44.8657 57.0285C44.8657 56.9285 44.8657 56.9285 44.9657 56.8285C45.1657 56.6285 45.2657 56.3285 45.5657 56.2285C45.5657 56.1285 45.5657 55.9285 45.6657 55.8285C45.6657 55.8285 45.6657 55.8285 45.6657 55.7285C45.6657 55.7285 45.6657 55.6285 45.5657 55.6285C45.3657 55.6285 45.1657 55.6285 45.0657 55.4285L44.9657 55.3285C44.9657 55.3285 44.8657 55.3285 44.7657 55.3285C44.6657 55.3285 44.5657 55.3285 44.3657 55.3285C43.8657 55.3285 43.7657 55.0285 43.7657 54.7285C43.7657 54.4285 43.8657 54.1285 43.9657 53.8285C44.0657 53.7285 44.0657 53.5285 44.1657 53.4285C44.1657 53.4285 44.1657 53.4285 44.2657 53.4285C44.3657 53.1285 44.5657 52.9285 44.8657 52.8285C45.0657 52.6285 45.0657 52.3285 45.0657 52.1285C45.0657 52.1285 45.0657 52.1285 45.0657 52.0285C45.0657 51.9285 44.9657 51.7285 44.7657 51.7285C44.5657 51.7285 44.4657 51.5285 44.3657 51.5285H44.2657C44.1657 51.5285 44.1657 51.5285 44.0657 51.5285H43.9657C43.8657 51.3285 43.7657 51.3285 43.7657 51.1285C43.6657 51.1285 43.6657 51.1285 43.6657 51.0285C43.4657 50.9285 43.5657 50.7285 43.5657 50.6285C43.6657 50.4285 43.6657 50.2285 43.8657 50.1285C43.9657 49.9285 44.0657 49.8285 44.1657 49.7285C44.1657 49.7285 44.1657 49.6285 44.2657 49.6285C44.2657 49.5285 44.3657 49.4285 44.4657 49.4285C44.4657 49.3285 44.5657 49.2285 44.5657 49.1285V49.0285C44.5657 48.8285 44.5657 48.7285 44.6657 48.5285C44.6657 48.4285 44.6657 48.3285 44.6657 48.2285V48.1285C44.6657 48.0285 44.5657 48.0285 44.4657 48.0285C44.3657 48.0285 44.2657 48.0285 44.2657 47.9285C43.9657 47.9285 43.7657 48.0285 43.4657 48.0285C43.2657 48.0285 43.0657 48.1285 42.8657 48.0285C42.7657 48.0285 42.7657 48.0285 42.7657 47.9285H42.6657C42.6657 47.9285 42.6657 47.9285 42.6657 47.8285V47.7285C42.8657 47.0285 43.1657 46.5285 43.7657 46.1285C43.7657 46.0285 43.7657 46.0285 43.8657 46.0285C43.8657 45.9285 43.9657 45.8285 44.1657 45.8285L44.2657 45.7285C44.2657 45.7285 44.2657 45.7285 44.2657 45.6285C44.2657 45.4285 44.3657 45.2285 44.4657 45.1285C44.4657 45.1285 44.5657 45.0285 44.5657 44.9285V44.8285V44.7285C44.5657 44.6285 44.5657 44.5285 44.5657 44.4285C44.5657 44.4285 44.5657 44.4285 44.5657 44.3285C44.4657 44.3285 44.4657 44.3285 44.3657 44.3285H44.2657C44.0657 44.2285 43.8657 44.2285 43.6657 44.2285C43.5657 44.2285 43.3657 44.2285 43.2657 44.2285H43.1657H43.0657C42.9657 44.2285 42.8657 44.2285 42.8657 44.2285C42.5657 44.1285 42.5657 43.9285 42.7657 43.6285C42.8657 43.3285 42.9657 43.0285 43.2657 42.8285C43.3657 42.6285 43.4657 42.6285 43.5657 42.5285C43.5657 42.4285 43.6657 42.3285 43.8657 42.3285C43.9657 42.1285 44.1657 42.1285 44.2657 42.0285H44.3657L44.4657 41.9285C44.4657 41.9285 44.4657 41.8285 44.5657 41.7285C44.5657 41.6285 44.5657 41.5285 44.6657 41.4285C44.6657 41.3285 44.7657 41.2285 44.8657 41.1285C44.8657 41.0285 44.9657 41.0285 44.9657 40.9285C44.9657 40.9285 44.9657 40.9285 44.9657 40.8285C44.8657 40.7285 44.7657 40.8285 44.6657 40.8285C44.5657 40.8285 44.4657 40.8285 44.2657 40.8285C44.0657 40.8285 43.8657 40.9285 43.6657 40.8285C43.5657 40.8285 43.5657 40.8285 43.4657 40.7285V40.6285C43.4657 40.5285 43.5657 40.4285 43.5657 40.3285C43.4657 40.3285 43.4657 40.2285 43.3657 40.2285C43.2657 40.2285 43.0657 40.2285 42.9657 40.1285H42.8657C42.8657 40.0285 42.7657 39.9285 42.9657 39.8285C42.9657 39.7285 43.0657 39.6285 43.1657 39.6285C43.1657 39.5285 43.2657 39.4285 43.4657 39.4285C43.5657 39.3285 43.6657 39.2285 43.8657 39.2285C43.9657 39.2285 43.9657 39.2285 44.0657 39.2285C44.4657 39.1285 44.8657 39.0285 45.2657 38.9285C45.3657 38.9285 45.3657 38.9285 45.4657 38.9285C45.4657 38.9285 45.4657 38.8285 45.5657 38.7285C45.5657 38.6285 45.5657 38.5285 45.6657 38.4285C45.6657 38.3285 45.7657 38.3285 45.8657 38.2285C45.7657 38.1285 45.8657 38.0285 45.8657 37.9285C45.7657 37.9285 45.7657 37.9285 45.6657 37.9285C45.5657 37.9285 45.4657 37.9285 45.2657 37.9285C45.2657 37.9285 45.2657 37.9285 45.1657 37.9285C44.9657 37.9285 44.8657 37.9285 44.6657 37.9285H44.5657C44.4657 37.9285 44.3657 37.8285 44.3657 37.8285V37.7285C44.3657 37.6285 44.4657 37.6285 44.4657 37.5285C44.4657 37.5285 44.4657 37.5285 44.4657 37.4285C44.0657 37.3285 43.8657 37.3285 43.6657 37.3285H43.5657C43.5657 37.3285 43.5657 37.3285 43.4657 37.2285C43.4657 37.1285 43.4657 37.0285 43.5657 36.9285C43.5657 36.8285 43.5657 36.8285 43.6657 36.8285C43.6657 36.7285 43.7657 36.7285 43.7657 36.6285C43.8657 36.5285 44.0657 36.4285 44.1657 36.4285C44.2657 36.4285 44.2657 36.4285 44.3657 36.3285C44.5657 36.2285 44.8657 36.2285 45.0657 36.1285C45.2657 36.0285 45.4657 36.0285 45.7657 36.0285C45.9657 36.0285 45.9657 36.0285 45.9657 35.8285C45.9657 35.8285 45.9657 35.8285 45.9657 35.7285C45.9657 35.5285 46.1657 35.4285 46.2657 35.2285L46.3657 35.1285V35.0285C46.2657 35.0285 46.0657 35.0285 45.9657 35.0285C45.9657 35.0285 45.9657 35.0285 45.8657 35.0285C45.7657 35.0285 45.6657 35.0285 45.5657 35.1285C45.4657 35.1285 45.2657 35.1285 45.1657 35.1285C44.9657 35.1285 44.9657 35.0285 45.0657 34.8285C45.0657 34.7285 45.0657 34.7285 45.0657 34.6285L44.9657 34.5285C44.8657 34.5285 44.7657 34.5285 44.6657 34.5285H44.5657H44.4657C44.4657 34.5285 44.4657 34.5285 44.4657 34.4285C44.4657 34.3285 44.4657 34.2285 44.5657 34.1285C44.5657 34.0285 44.5657 34.0285 44.6657 34.0285C44.7657 33.8285 45.0657 33.7285 45.2657 33.7285C45.6657 33.6285 46.0657 33.5285 46.4657 33.4285C46.5657 33.4285 46.5657 33.4285 46.6657 33.4285C46.7657 33.4285 46.7657 33.4285 46.8657 33.4285L46.9657 33.3285C46.9657 33.0285 47.1657 32.8285 47.2657 32.6285V32.5285C47.0657 32.5285 46.7657 32.5285 46.5657 32.5285C46.4657 32.5285 46.2657 32.5285 46.1657 32.5285C46.1657 32.5285 46.1657 32.5285 46.0657 32.5285C45.9657 32.5285 45.8657 32.5285 45.8657 32.4285C45.8657 32.3285 45.8657 32.2285 45.9657 32.2285C45.9657 32.0285 45.9657 32.0285 45.8657 31.9285C45.8657 31.9285 45.8657 31.9285 45.7657 31.9285C45.6657 31.9285 45.5657 31.9285 45.4657 31.8285H45.3657C45.3657 31.8285 45.3657 31.8285 45.2657 31.7285C45.2657 31.6285 45.2657 31.6285 45.2657 31.5285C45.3657 31.3285 45.4657 31.2285 45.6657 31.2285C45.6657 31.1285 45.7657 31.1285 45.8657 31.1285C45.9657 31.0285 46.0657 31.0285 46.2657 30.9285C46.6657 30.8285 47.0657 30.6285 47.5657 30.6285H47.6657C47.7657 30.6285 47.7657 30.5285 47.7657 30.4285C47.7657 30.3285 47.7657 30.3285 47.7657 30.2285C47.7657 30.1285 47.8657 30.0285 47.9657 30.0285C47.5657 30.0285 47.1657 30.0285 46.8657 30.1285C46.7657 30.1285 46.6657 30.2285 46.5657 30.1285C46.4657 30.1285 46.4657 30.1285 46.4657 30.0285C46.2657 29.9285 46.1657 29.9285 46.1657 29.7285V29.6285C46.1657 29.5285 46.1657 29.4285 46.1657 29.3285C46.1657 29.3285 46.1657 29.3285 46.1657 29.2285C46.1657 29.2285 46.1657 29.1285 46.2657 29.1285C46.3657 29.0285 46.5657 28.9285 46.7657 28.9285C46.7657 28.8285 46.8657 28.8285 46.9657 28.8285C46.9657 28.8285 46.9657 28.8285 47.0657 28.8285C47.4657 28.6285 47.8657 28.5285 48.3657 28.5285C48.4657 28.4285 48.6657 28.4285 48.7657 28.3285C48.8657 28.3285 48.8657 28.3285 48.8657 28.2285C48.8657 28.1285 48.8657 28.1285 48.8657 28.0285H48.7657C48.6657 28.0285 48.5657 28.0285 48.4657 28.0285C48.1657 28.0285 47.9657 28.0285 47.6657 28.1285C47.6657 28.1285 47.6657 28.1285 47.5657 28.1285C47.4657 28.1285 47.4657 28.1285 47.4657 28.1285C47.4657 28.1285 47.4657 28.1285 47.3657 28.1285C47.2657 28.1285 47.2657 28.0285 47.2657 27.9285C47.2657 27.8285 47.2657 27.7285 47.2657 27.7285C47.2657 27.7285 47.2657 27.7285 47.2657 27.6285C47.2657 27.6285 47.2657 27.5285 47.3657 27.5285C47.4657 27.3285 47.6657 27.2285 47.8657 27.1285C47.8657 27.0285 47.9657 27.0285 48.0657 27.0285L48.1657 26.9285C48.1657 26.8285 48.2657 26.8285 48.2657 26.8285C48.3657 26.7285 48.5657 26.7285 48.6657 26.6285C48.8657 26.5285 48.9657 26.5285 49.1657 26.4285C49.2657 26.4285 49.2657 26.3285 49.2657 26.3285V26.2285H49.1657C48.9657 26.2285 48.7657 26.3285 48.4657 26.3285C48.3657 26.3285 48.2657 26.3285 48.1657 26.3285H48.0657C47.9657 26.3285 47.9657 26.3285 47.8657 26.2285C47.7657 26.1285 47.7657 26.0285 47.8657 26.0285C47.8657 25.8285 47.9657 25.8285 48.1657 25.7285C48.1657 25.6285 48.2657 25.5285 48.4657 25.5285C48.4657 25.4285 48.4657 25.4285 48.5657 25.4285C48.7657 25.2285 49.0657 25.1285 49.3657 25.1285C49.3657 25.0285 49.4657 24.9285 49.6657 24.9285C49.7657 24.7285 50.0657 24.6285 50.2657 24.6285H50.3657C50.8657 24.6285 51.2657 24.5285 51.7657 24.6285C51.8657 24.6285 51.8657 24.6285 51.9657 24.6285C52.2657 24.7285 52.4657 24.8285 52.6657 24.9285L52.7657 25.0285C52.8657 25.0285 52.8657 25.0285 52.8657 25.1285C52.8657 25.1285 52.9657 25.1285 52.9657 25.2285C52.9657 25.2285 52.9657 25.2285 53.0657 25.3285C53.1657 25.4285 53.1657 25.4285 53.1657 25.5285C53.2657 25.5285 53.2657 25.5285 53.2657 25.6285C53.4657 25.7285 53.4657 25.8285 53.5657 25.9285V26.0285C53.5657 26.3285 53.3657 26.7285 53.1657 26.8285H53.0657H52.9657H52.8657C52.7657 26.8285 52.7657 26.9285 52.6657 26.9285C52.6657 27.0285 52.6657 27.2285 52.7657 27.3285C52.8657 27.3285 52.8657 27.3285 52.8657 27.4285C52.9657 27.4285 52.9657 27.4285 52.9657 27.5285C53.1657 27.7285 53.2657 27.9285 53.2657 28.2285C53.2657 28.3285 53.1657 28.3285 53.1657 28.4285V28.5285C53.1657 28.6285 53.1657 28.6285 53.1657 28.7285C53.0657 28.8285 52.9657 28.8285 52.8657 28.7285C52.8657 28.7285 52.8657 28.6285 52.7657 28.6285C52.7657 28.6285 52.7657 28.6285 52.6657 28.6285C52.5657 28.8285 52.5657 29.0285 52.6657 29.3285C52.7657 29.3285 52.7657 29.3285 52.7657 29.4285C52.8657 29.5285 52.9657 29.6285 52.9657 29.7285C53.1657 30.0285 53.1657 30.4285 52.9657 30.6285C52.9657 30.6285 52.9657 30.6285 52.9657 30.7285C52.9657 30.7285 52.9657 30.7285 52.8657 30.8285C52.7657 30.9285 52.6657 30.9285 52.4657 30.7285H52.3657V30.8285C52.3657 30.9285 52.3657 30.9285 52.3657 31.0285C52.3657 31.1285 52.3657 31.1285 52.3657 31.2285C52.3657 31.3285 52.4657 31.4285 52.5657 31.4285C52.6657 31.6285 52.8657 31.7285 52.8657 31.9285C52.8657 32.0285 52.8657 32.1285 52.8657 32.2285V32.3285C52.7657 32.6285 52.6657 32.8285 52.4657 33.1285C52.3657 33.2285 52.1657 33.2285 52.0657 33.2285C51.9657 33.2285 51.9657 33.1285 51.9657 33.0285C51.7657 33.1285 51.6657 33.3285 51.6657 33.5285V33.6285C51.6657 33.7285 51.6657 33.7285 51.6657 33.8285C51.6657 33.9285 51.6657 33.9285 51.6657 34.0285C51.7657 34.0285 51.7657 34.0285 51.7657 34.1285C52.0657 34.3285 52.2657 34.6285 52.2657 34.9285C52.2657 35.0285 52.2657 35.2285 52.1657 35.3285C52.0657 35.5285 51.9657 35.6285 51.8657 35.8285C51.7657 35.9285 51.7657 35.9285 51.6657 35.9285C51.5657 36.0285 51.4657 36.0285 51.2657 35.9285C51.2657 35.9285 51.1657 35.9285 51.1657 35.8285L51.0657 35.9285C50.9657 36.0285 50.9657 36.1285 50.9657 36.2285V36.3285C50.9657 36.3285 50.9657 36.3285 50.9657 36.4285V36.5285C50.9657 36.6285 51.0657 36.7285 51.1657 36.8285C51.2657 36.9285 51.3657 37.1285 51.4657 37.2285C51.5657 37.3285 51.5657 37.4285 51.5657 37.6285C51.5657 37.6285 51.5657 37.6285 51.5657 37.7285C51.5657 37.8285 51.5657 37.9285 51.5657 38.0285C51.4657 38.3285 51.3657 38.5285 51.1657 38.7285C51.0657 38.8285 50.9657 38.8285 50.8657 38.8285C50.8657 38.8285 50.8657 38.8285 50.7657 38.8285C50.7657 38.8285 50.6657 38.8285 50.6657 38.7285C50.5657 38.6285 50.5657 38.6285 50.4657 38.7285C50.4657 38.7285 50.4657 38.7285 50.3657 38.8285V38.9285C50.3657 39.0285 50.3657 39.1285 50.3657 39.2285V39.3285C50.3657 39.6285 50.4657 39.8285 50.6657 40.0285C50.8657 40.2285 50.9657 40.4285 50.9657 40.6285C50.9657 40.7285 50.9657 40.7285 50.9657 40.8285C50.9657 40.8285 50.9657 40.8285 50.9657 40.9285C50.8657 41.2285 50.7657 41.5285 50.4657 41.7285C50.2657 41.8285 50.0657 41.8285 49.9657 41.7285H49.8657V41.8285C49.8657 41.9285 49.9657 42.0285 49.9657 42.0285C49.9657 42.3285 50.0657 42.5285 50.3657 42.6285C50.4657 42.6285 50.4657 42.6285 50.4657 42.7285C50.5657 42.7285 50.5657 42.7285 50.5657 42.8285C50.6657 43.0285 50.6657 43.2285 50.6657 43.4285C50.6657 43.7285 50.5657 44.0285 50.3657 44.3285C50.2657 44.4285 50.2657 44.4285 50.1657 44.5285C50.1657 44.5285 50.0657 44.5285 49.9657 44.5285C49.7657 44.5285 49.6657 44.6285 49.6657 44.8285V44.9285C49.6657 45.0285 49.6657 45.0285 49.6657 45.1285V45.2285C49.6657 45.3285 49.6657 45.4285 49.7657 45.5285C49.8657 45.5285 49.9657 45.5285 49.9657 45.6285C50.1657 45.6285 50.2657 45.8285 50.3657 45.9285C50.3657 46.0285 50.4657 46.1285 50.4657 46.2285C50.5657 46.5285 50.5657 46.8285 50.4657 47.1285C50.4657 47.2285 50.3657 47.3285 50.3657 47.4285M79.3657 44.8285C79.3657 44.8285 79.3657 44.9285 79.2657 44.9285C78.2657 46.4285 77.5657 48.0285 76.7657 49.6285C76.2657 50.6285 75.7657 51.7285 75.2657 52.7285C74.4657 54.4285 73.6657 56.0285 72.9657 57.7285C72.1657 59.6285 71.1657 61.4285 70.1657 63.2285C70.0657 63.3285 69.9657 63.5285 69.9657 63.6285C69.8657 63.8285 69.7657 63.9285 69.6657 64.1285L69.5657 64.2285C69.4657 64.3285 69.3657 64.5285 69.2657 64.6285C69.1657 64.8285 68.9657 64.9285 68.8657 65.1285C68.8657 65.1285 68.8657 65.1285 68.7657 65.1285C68.8657 64.9285 68.9657 64.6285 68.9657 64.4285C69.0657 64.2285 69.0657 64.0285 69.1657 63.9285C69.6657 62.4285 70.0657 60.8285 70.3657 59.2285C70.7657 57.4285 71.1657 55.6285 71.4657 53.8285C71.6657 52.7285 71.8657 51.7285 72.0657 50.6285C72.3657 48.9285 72.8657 47.2285 73.4657 45.5285C73.5657 45.3285 73.6657 45.1285 73.6657 44.9285C73.6657 44.8285 73.7657 44.7285 73.7657 44.7285C73.8657 44.6285 73.8657 44.7285 73.9657 44.7285C74.8657 44.8285 75.7657 44.9285 76.6657 44.9285C77.4657 44.8285 78.3657 44.8285 79.1657 44.7285C79.1657 44.7285 79.2657 44.7285 79.3657 44.8285Z" fill="#393939"/>
</svg>
