<?xml version="1.0" encoding="utf-8"?>
<!-- Generator: Adobe Illustrator 21.0.0, SVG Export Plug-In . SVG Version: 6.00 Build 0)  -->
<svg version="1.1" id="Layer_2" xmlns="http://www.w3.org/2000/svg" xmlns:xlink="http://www.w3.org/1999/xlink" x="0px" y="0px"
	 viewBox="0 0 96 96" style="enable-background:new 0 0 96 96;" xml:space="preserve">
<path d="M73.3,48l17.5-17.5c4.3-4.3,4.3-11.4,0-15.7l-9.6-9.6c-4.3-4.3-11.4-4.3-15.7,0L48,22.7L30.5,5.2c-4.3-4.3-11.4-4.3-15.7,0
	l-9.6,9.6c-2,2.1-3.2,4.9-3.2,7.9s1.2,5.7,3.2,7.8L22.7,48L5.2,65.5c-2,2.1-3.2,4.9-3.2,7.8c0,3,1.2,5.7,3.2,7.8l9.6,9.6
	c2.1,2.1,4.9,3.2,7.8,3.2c2.9,0,5.7-1.2,7.8-3.2L48,73.3l17.5,17.5c2.1,2.1,4.9,3.2,7.8,3.2c2.9,0,5.8-1.2,7.8-3.2l9.6-9.6
	c4.3-4.3,4.3-11.4,0-15.7L73.3,48z M76.8,24.5c0.8-0.8,2.1-0.8,2.9,0s0.8,2.1,0,2.9c-0.4,0.4-0.9,0.6-1.4,0.6s-1-0.2-1.5-0.6
	C76,26.6,76,25.3,76.8,24.5z M72.5,20.2c0.8-0.8,2.1-0.8,2.9,0c0.8,0.8,0.8,2.1,0,2.9c-0.4,0.4-0.9,0.6-1.4,0.6s-1-0.2-1.5-0.6
	C71.7,22.3,71.7,21,72.5,20.2z M72.2,29.2c0.8-0.8,2.1-0.8,2.9,0c0.4,0.3,0.6,0.9,0.6,1.4s-0.2,1-0.6,1.4c-0.4,0.4-0.9,0.6-1.4,0.6
	s-1-0.2-1.5-0.6c-0.4-0.3-0.6-0.9-0.6-1.4S71.8,29.6,72.2,29.2z M67.9,15.6c0.8-0.8,2.1-0.8,2.9,0c0.4,0.3,0.6,0.9,0.6,1.4
	s-0.2,1-0.6,1.4c-0.4,0.4-0.9,0.6-1.4,0.6c-0.6,0-1.1-0.2-1.5-0.6c-0.4-0.3-0.6-0.9-0.6-1.4S67.5,16,67.9,15.6z M70.8,27.7
	c-0.4,0.4-0.9,0.6-1.4,0.6s-1-0.2-1.4-0.6c-0.8-0.8-0.8-2.1,0-2.9s2-0.8,2.8,0C71.6,25.6,71.6,26.9,70.8,27.7z M67.5,34
	c0.8-0.8,2.1-0.8,2.9,0c0.4,0.3,0.6,0.9,0.6,1.4s-0.2,1-0.6,1.4c-0.4,0.4-0.9,0.6-1.4,0.6s-1.1-0.2-1.5-0.6
	c-0.4-0.3-0.6-0.9-0.6-1.4S67.1,34.4,67.5,34z M63.2,20.2c0.8-0.8,2.1-0.8,2.9,0c0.4,0.3,0.6,0.9,0.6,1.4s-0.2,1-0.6,1.4
	c-0.4,0.4-0.9,0.6-1.4,0.6s-1-0.2-1.5-0.6c-0.4-0.3-0.6-0.9-0.6-1.4S62.8,20.6,63.2,20.2z M58.8,25.1c0.8-0.8,2.1-0.8,2.9,0
	c0.4,0.3,0.6,0.9,0.6,1.4s-0.2,1-0.6,1.4s-0.9,0.6-1.4,0.6s-1-0.2-1.5-0.6c-0.4-0.3-0.6-0.9-0.6-1.4S58.4,25.5,58.8,25.1z
	 M33.9,25.6c0.8-0.8,2.1-0.8,2.9,0c0.8,0.8,0.8,2.1,0,2.9c-0.3,0.4-0.9,0.6-1.4,0.6c-0.6,0-1.1-0.2-1.5-0.6
	C33.1,27.7,33.1,26.4,33.9,25.6z M29.1,20.8c0.8-0.8,2.1-0.8,2.9,0s0.8,2.1,0,2.9c-0.4,0.4-0.9,0.6-1.4,0.6s-1-0.2-1.5-0.6
	C28.3,22.9,28.3,21.6,29.1,20.8z M32.4,32.8c-0.4,0.4-0.9,0.6-1.4,0.6s-1-0.2-1.4-0.6c-0.8-0.8-0.8-2.1,0-2.9c0.8-0.8,2.1-0.8,2.8,0
	C33.2,30.7,33.2,32,32.4,32.8z M27.7,37.5c-0.3,0.4-0.9,0.6-1.4,0.6s-1-0.2-1.4-0.6c-0.8-0.8-0.8-2.1,0-2.9c0.8-0.8,2.2-0.8,2.8,0
	C28.5,35.4,28.5,36.7,27.7,37.5z M27.6,28.1c-0.4,0.4-0.9,0.6-1.4,0.6s-1-0.2-1.4-0.6c-0.8-0.8-0.8-2.1,0-2.9s2.1-0.8,2.8,0
	C28.4,26,28.4,27.3,27.6,28.1z M24.5,16.2c0.8-0.8,2.1-0.8,2.9,0c0.8,0.8,0.8,2.1,0,2.9c-0.4,0.4-0.9,0.6-1.4,0.6s-1-0.2-1.5-0.6
	C23.7,18.3,23.7,17,24.5,16.2z M20.2,20.5c0.8-0.8,2.1-0.8,2.9,0c0.8,0.8,0.8,2.1,0,2.9c-0.4,0.4-0.9,0.6-1.4,0.6
	c-0.6,0-1.1-0.2-1.5-0.6C19.4,22.6,19.4,21.3,20.2,20.5z M18.4,28.1c-0.4,0.4-0.9,0.6-1.4,0.6s-1-0.2-1.4-0.6
	c-0.8-0.8-0.8-2.1,0-2.9c0.8-0.8,2.1-0.8,2.8,0C19.2,26,19.2,27.3,18.4,28.1z M21.6,33.3c-0.5,0-1-0.2-1.5-0.6
	c-0.8-0.8-0.8-2.1,0-2.9c0.8-0.8,2.1-0.8,2.9,0s0.8,2.1,0,2.9C22.6,33.1,22.1,33.3,21.6,33.3z M19.7,69.5c-0.3,0.4-0.9,0.6-1.4,0.6
	s-1-0.2-1.4-0.6c-0.8-0.8-0.8-2.1,0-2.9c0.8-0.8,2.1-0.8,2.8,0C20.5,67.4,20.5,68.7,19.7,69.5z M24.4,74.1c-0.4,0.4-0.9,0.6-1.4,0.6
	s-1-0.2-1.4-0.6c-0.8-0.8-0.8-2.1,0-2.9c0.8-0.8,2.1-0.8,2.8,0C25.2,72,25.2,73.3,24.4,74.1z M24.5,64.7c-0.3,0.4-0.9,0.6-1.4,0.6
	s-1-0.2-1.4-0.6c-0.8-0.8-0.8-2.1,0-2.9s2.1-0.8,2.8,0C25.3,62.6,25.3,63.9,24.5,64.7z M28.7,78.4c-0.4,0.4-0.9,0.6-1.4,0.6
	s-1-0.2-1.4-0.6c-0.8-0.8-0.8-2.1,0-2.9c0.8-0.7,2.1-0.7,2.8,0C29.5,76.3,29.5,77.6,28.7,78.4z M29.1,69.3c-0.4,0.4-0.9,0.6-1.4,0.6
	s-1-0.2-1.4-0.6c-0.8-0.8-0.8-2.1,0-2.9c0.8-0.8,2.1-0.8,2.8,0C29.9,67.2,29.9,68.5,29.1,69.3z M29.1,60.1c-0.4,0.4-0.9,0.6-1.4,0.6
	s-1-0.2-1.5-0.6c-0.8-0.8-0.8-2.1,0-2.9s2.1-0.8,2.9,0C29.9,58,29.9,59.3,29.1,60.1z M33.5,73.7c-0.3,0.4-0.9,0.6-1.4,0.6
	s-1-0.2-1.4-0.6c-0.8-0.8-0.8-2.1,0-2.9s2.1-0.8,2.8,0C34.3,71.6,34.3,72.9,33.5,73.7z M33.8,64.7c-0.4,0.4-0.9,0.6-1.4,0.6
	s-1-0.2-1.4-0.6c-0.8-0.8-0.8-2.1,0-2.9c0.7-0.8,2-0.8,2.8,0S34.6,63.9,33.8,64.7z M38.1,69.1c-0.3,0.4-0.9,0.6-1.4,0.6
	s-1-0.2-1.4-0.6c-0.8-0.8-0.8-2.1,0-2.9s2.1-0.8,2.8,0C38.9,67,38.9,68.3,38.1,69.1z M46.1,57.5c-0.8,0.8-2.1,0.8-2.9,0l-4.7-4.7
	c-0.8-0.8-0.8-2.1,0-2.9l12.7-12.7c0.8-0.8,2.1-0.8,2.9,0l4.7,4.7c0.4,0.4,0.6,0.9,0.6,1.4s-0.2,1-0.6,1.4L46.1,57.5z M60,69.7
	c-0.4,0.4-0.9,0.6-1.4,0.6s-1-0.2-1.4-0.6c-0.8-0.8-0.8-2.1,0-2.9s2.1-0.8,2.8,0C60.8,67.6,60.8,68.9,60,69.7z M64.6,74.2
	c-0.4,0.4-0.9,0.6-1.4,0.6s-1-0.2-1.4-0.6c-0.4-0.3-0.6-0.9-0.6-1.4s0.2-1,0.6-1.4c0.8-0.8,2.1-0.8,2.8,0c0.4,0.3,0.6,0.9,0.6,1.4
	S65,73.8,64.6,74.2z M64.6,65c-0.3,0.4-0.9,0.6-1.4,0.6s-1-0.2-1.4-0.6c-0.4-0.3-0.6-0.9-0.6-1.4s0.2-1,0.6-1.4
	c0.8-0.8,2.1-0.8,2.8,0c0.4,0.3,0.6,0.9,0.6,1.4S65,64.6,64.6,65z M64.6,33.1c-0.5,0-1-0.2-1.5-0.6c-0.4-0.3-0.6-0.9-0.6-1.4
	s0.2-1,0.6-1.4c0.8-0.8,2.1-0.8,2.9,0c0.4,0.3,0.6,0.9,0.6,1.4s-0.2,1-0.6,1.4S65.1,33.1,64.6,33.1z M66.1,57.9
	c0.8-0.8,2.1-0.8,2.9,0c0.4,0.3,0.6,0.9,0.6,1.4s-0.2,1-0.6,1.4c-0.4,0.4-0.9,0.6-1.4,0.6s-1-0.2-1.5-0.6c-0.4-0.3-0.6-0.9-0.6-1.4
	S65.7,58.3,66.1,57.9z M66.4,66.8c0.8-0.8,2.1-0.8,2.9,0c0.4,0.3,0.6,0.9,0.6,1.4s-0.2,1-0.6,1.4c-0.4,0.4-0.9,0.6-1.4,0.6
	s-1.1-0.2-1.5-0.6c-0.4-0.3-0.6-0.9-0.6-1.4S66,67.2,66.4,66.8z M69.4,79c-0.4,0.4-0.9,0.6-1.4,0.6s-1-0.2-1.4-0.6
	c-0.4-0.3-0.6-0.9-0.6-1.4s0.2-1,0.6-1.4c0.8-0.8,2-0.8,2.8,0c0.4,0.3,0.6,0.9,0.6,1.4S69.8,78.6,69.4,79z M70.7,62.5
	c0.8-0.8,2.1-0.8,2.9,0c0.4,0.3,0.6,0.9,0.6,1.4s-0.2,1-0.6,1.4c-0.4,0.4-0.9,0.6-1.4,0.6s-1-0.2-1.5-0.6c-0.4-0.3-0.6-0.9-0.6-1.4
	S70.3,62.9,70.7,62.5z M74,74.4c-0.4,0.4-0.9,0.6-1.4,0.6s-1-0.2-1.4-0.6c-0.8-0.8-0.8-2.1,0-2.9s2.1-0.8,2.8,0
	C74.8,72.3,74.8,73.6,74,74.4z M78.4,70c-0.4,0.4-0.9,0.6-1.4,0.6s-1-0.2-1.4-0.6c-0.4-0.3-0.6-0.9-0.6-1.4s0.2-1,0.6-1.4
	c0.7-0.8,2-0.8,2.8,0c0.4,0.3,0.6,0.9,0.6,1.4S78.8,69.6,78.4,70z"/>
</svg>
