<?xml version="1.0" encoding="utf-8"?>
<!-- Generator: Adobe Illustrator 21.0.0, SVG Export Plug-In . SVG Version: 6.00 Build 0)  -->
<svg version="1.1" id="Layer_1" xmlns="http://www.w3.org/2000/svg" xmlns:xlink="http://www.w3.org/1999/xlink" x="0px" y="0px"
	 viewBox="0 0 480 480" style="enable-background:new 0 0 480 480;" xml:space="preserve">
<style type="text/css">
	.st0{fill:#424242;}
</style>
<path class="st0" d="M183.7,130.3l-0.3-25.8l-16,0.2l0.2,19.5l-18.9,4.7c-3.6,0.9-6.1,4.2-6.1,7.9l0.3,19.4l-18.9,4.7
	c-3.7,0.9-6.3,4.3-6.1,8.2l1,20l-16.2,11.7c-3.1,2.2-4.2,6.4-2.6,9.8l8.1,17.6L92.9,240c-3,2.3-4,6.3-2.4,9.7l8.1,17.6l-15.3,11.8
	l9.8,12.7l20.3-15.7c3-2.3,3.9-6.3,2.4-9.7l-8.1-17.6L123,237c2.9-2.3,3.9-6.3,2.4-9.7l-8-17.4l14.4-10.4c2.2-1.6,3.5-4.2,3.3-6.9
	l-0.9-17.8l18.6-4.6c3.6-0.9,6.1-4.2,6.1-7.9l-0.2-19.4l18.9-4.7C181.2,137.2,183.7,134,183.7,130.3z"/>
<path class="st0" d="M330.7,332.4l2.3-16l15.8,2.3l-2.3,16L330.7,332.4z"/>
<path class="st0" d="M335.2,300.4l20.6-144l15.8,2.3l-20.6,144L335.2,300.4z"/>
<path class="st0" d="M189.5,2.7l33.4,90l-32.3,46.2c-14.4,20.6-26.5,42.9-35.8,66.3L106.1,327l-9.9,2.5C82,332.8,72,345.6,72,360.3
	v5.8c0,6.1,1.4,12.2,4.2,17.7l35.8,71.7c1.1,2.1,2.4,4.2,3.9,6.1H32v16h448v-16h-73.5c1-2.6,1.5-5.3,1.5-8.1c0-13.3-10.7-24-24-24
	h-22.1L304.7,401l38.9-272.5l6.3-9.5c6.9-10.3,8.6-23.1,4.7-34.8L327.6,3 M223.3,309l-7.1,77.7l-20.5,30.8l-11.2-50.4L223.3,309z"/>
<path class="st0" d="M0,461.5h16v16H0V461.5z"/>
</svg>
