<svg width="94" height="68" viewBox="0 0 94 68" fill="none" xmlns="http://www.w3.org/2000/svg">
<path d="M31.4325 23.0629C29.846 24.2528 27.6646 24.2528 26.0781 23.0629C25.6815 22.8646 25.1857 22.9638 24.8882 23.3604C24.6899 23.757 24.7891 24.2528 25.1857 24.5503C27.3671 26.2359 30.3418 26.2359 32.3249 24.4511C32.7215 24.1536 32.9199 23.6579 32.6224 23.2612C32.3249 22.9638 31.8291 22.7655 31.4325 23.0629Z" fill="black"/>
<path d="M26.2764 16.5187C26.4747 16.0229 26.2764 15.5271 25.8798 15.3288C25.1857 14.9322 24.3925 14.7339 23.5992 14.7339C22.806 14.7339 21.9136 14.9322 21.3186 15.3288C20.922 15.5271 20.7237 16.1221 21.0212 16.5187C21.2195 16.9153 21.8144 17.1136 22.211 16.8162C22.7068 16.5187 23.2026 16.4195 23.6984 16.5187C24.2933 16.5187 24.6899 16.6179 25.1857 16.9153C25.5823 17.2128 26.0781 17.0145 26.2764 16.5187Z" fill="black"/>
<path d="M91.1246 30.9954C89.5381 28.814 87.3567 27.1283 84.2829 25.5418C83.7871 25.2444 83.2913 25.046 82.7955 24.8477C82.6964 24.7486 82.6964 24.7486 82.5972 24.7486C82.4981 24.6494 82.4981 24.6494 82.3989 24.6494C81.804 24.5503 81.3082 24.352 80.7133 24.1536C80.7133 23.9553 80.8124 23.757 80.8124 23.5587C81.6057 22.7655 82.1014 21.7739 82.4981 20.7823C82.7955 19.7908 82.7955 18.7001 82.6964 17.6093V17.5102C82.8947 16.6178 82.9938 15.7254 82.8947 14.833C82.7955 13.9406 82.6964 12.949 82.2998 12.0566C81.5065 9.77602 80.0192 7.79289 78.036 6.40471C78.631 5.5123 78.8293 4.42159 78.631 3.43003C78.3335 2.43847 77.5403 1.74438 76.2512 1.05028C74.3673 0.157879 72.1858 -0.139589 70.0044 0.0587233C68.1204 0.157879 66.3356 1.05028 64.9474 2.33931C64.3525 2.93425 64.1542 3.7275 64.1542 4.42159C64.1542 5.11568 64.3525 5.80977 64.65 6.40471C62.9643 7.59458 61.7745 9.28023 61.0804 11.1642C60.6837 12.1558 60.3863 13.1473 60.2871 14.1389C60.0888 15.3288 60.0888 16.5186 60.0888 17.6093V17.7085C59.9896 18.7001 60.188 19.7908 60.5846 20.7823C60.8821 21.5756 61.477 22.3688 62.2702 22.8646C62.3694 23.2612 62.3694 23.6579 62.4685 24.0545C61.1795 24.6494 59.8905 25.2444 58.6015 25.8393C57.3124 26.4342 56.0234 27.0292 54.7344 27.6241C56.6183 29.5081 58.0065 29.9047 58.9981 39.2254C59.4939 43.2908 59.3947 62.6262 59.2956 66.295C59.3947 66.295 93.5044 66.989 93.6035 66.989C93.8019 66.8899 94.0002 66.6916 94.0002 66.3941V64.8076V39.5228V39.4237C93.5044 35.854 92.7111 33.1768 91.1246 30.9954ZM65.8399 4.02496C67.0297 2.93425 68.4179 2.33931 70.0044 2.24016C71.8884 1.94269 73.7723 2.24016 75.458 3.0334C76.4495 3.52918 76.9453 4.02497 77.1436 4.6199C77.2428 5.21484 77.1436 5.90893 76.747 6.50387C74.9622 5.51231 72.9791 5.01653 71.0951 5.21484C69.2112 5.21484 67.3272 5.71062 65.6415 6.60302C65.4432 6.2064 65.3441 5.80977 65.3441 5.41315C65.4432 4.81821 65.6415 4.42159 65.8399 4.02496ZM61.477 15.3288C61.5761 14.3372 61.8736 13.4448 62.2702 12.5524C62.9643 10.7676 64.1542 9.28024 65.6415 8.18952C67.3272 7.0988 69.2112 6.50387 71.1943 6.50387C73.3757 6.40471 73.4749 7.0988 75.2597 8.28868C77.6394 8.88361 80.3166 11.2634 81.0107 13.2465C81.3082 14.0397 81.4073 14.833 81.5065 15.6262C81.5065 16.3203 81.4073 17.0144 81.4073 17.6093C79.7217 17.3119 76.2512 16.6178 75.0614 15.3288C73.6732 13.8414 72.5825 11.9574 71.9875 9.97433C71.8884 9.67686 71.6901 9.5777 71.3926 9.47855C70.996 9.37939 70.5993 9.67686 70.5993 10.0735C70.0044 12.1558 68.7154 13.9406 66.8314 15.1304C64.5508 16.5186 63.9559 17.3119 61.3778 17.6093C61.2787 16.7169 61.3778 16.0228 61.477 15.3288ZM79.4242 23.8562C79.1268 25.3435 78.5318 26.8309 77.6394 28.1199C77.0445 28.9131 76.0529 29.5081 75.0614 29.6072C74.9622 29.6072 74.7639 29.7064 74.6647 29.7064C73.6732 30.4996 72.4833 30.8963 71.2934 30.8963C70.1036 30.8963 68.9137 30.4005 67.9221 29.7064C67.823 29.6072 67.7238 29.6072 67.6247 29.6072C66.4348 29.3098 64.9474 28.4173 64.2534 27.4258C63.7576 26.8309 64.055 26.3351 63.8567 25.5418C63.8567 25.4427 63.7576 25.4427 63.7576 25.3435C63.5593 24.6494 63.4601 23.9553 63.4601 23.3604C63.361 23.1621 63.2618 22.9638 63.0635 22.7655C62.4685 22.468 61.9728 21.9722 61.7745 21.2781C61.477 20.4849 61.3778 19.7908 61.3778 19.0967C64.2534 18.7992 65.0466 17.9068 67.5255 16.3203C69.2112 15.3288 70.5002 13.9406 71.2934 12.2549C71.9875 13.7423 72.8799 15.2296 74.0698 16.4195C75.458 17.9068 79.3251 18.7992 81.4073 19.0967C81.5065 19.8899 81.4074 20.584 81.209 21.179C80.9116 22.0714 80.4158 22.8646 79.7217 23.5587C79.5234 23.6579 79.4242 23.757 79.4242 23.8562Z" fill="black"/>
<path d="M65.0464 18.7001C64.3523 18.7001 63.7573 19.295 63.7573 19.9891C63.7573 20.7823 64.3523 21.2781 65.0464 21.2781C65.8396 21.2781 66.3354 20.6832 66.3354 19.9891C66.4345 19.1959 65.8396 18.7001 65.0464 18.7001Z" fill="black"/>
<path d="M36.5888 15.4279C35.8947 15.0313 35.1014 14.833 34.3082 14.833C33.5149 14.833 32.6225 15.0313 32.0276 15.4279C31.631 15.6263 31.4327 16.2212 31.7301 16.6178C31.9285 17.0144 32.5234 17.2128 32.92 16.9153C33.4158 16.6178 33.9116 16.5187 34.4073 16.6178C35.0023 16.6178 35.3989 16.717 35.8947 17.0144C36.3905 17.2128 36.8863 17.1136 37.0846 16.6178C37.1837 16.122 36.9854 15.6263 36.5888 15.4279Z" fill="black"/>
<path d="M72.3841 25.641C71.7892 26.1368 71.0951 26.4343 70.3018 26.4343C69.5086 26.4343 68.6162 26.1368 68.0212 25.641C67.7238 25.4427 67.228 25.5419 67.0297 25.8393C66.8314 26.1368 66.9305 26.6326 67.228 26.8309C68.1204 27.4258 69.2111 27.8225 70.2027 27.9216C71.2934 27.8225 72.285 27.4258 73.1774 26.7317C73.4748 26.5334 73.574 26.0376 73.2765 25.7402C73.1774 25.4427 72.6816 25.4427 72.3841 25.641Z" fill="black"/>
<path d="M73.8716 18.7001C73.0783 18.7001 72.5825 19.295 72.5825 19.9891C72.5825 20.7823 73.1775 21.2781 73.8716 21.2781C74.6648 21.2781 75.1606 20.6832 75.1606 19.9891C75.1606 19.1959 74.5656 18.7001 73.8716 18.7001Z" fill="black"/>
<path d="M57.4113 40.2168C57.3122 37.6388 56.7172 35.1599 55.7257 32.8793C54.9324 31.0945 53.6434 29.508 52.1561 28.3181C52.0569 28.3181 52.0569 28.219 52.0569 28.219C50.0738 26.7316 47.9915 25.4426 46.1076 24.3519C44.1244 23.162 42.1413 22.0713 39.9599 20.9806L40.059 20.3856C41.0506 19.6915 41.7447 18.5017 41.943 17.3118C42.1413 15.9236 42.0422 14.5354 41.6455 13.2464C42.2405 11.1641 42.2405 8.88353 41.3481 6.90041C40.3565 5.01645 38.9683 3.62826 37.0844 2.6367C34.6055 1.14936 31.7299 0.256958 28.8544 0.256958C25.9789 0.256958 23.1034 1.05021 20.6245 2.6367H20.5253C18.6413 3.82657 17.154 5.61138 16.2616 7.79282C15.5675 9.67678 15.5675 11.7591 16.3607 13.643L16.2616 13.7422C15.6667 14.9321 15.3692 16.2211 15.5675 17.5101C15.7658 18.7 16.4599 19.6915 17.4515 20.2865L17.5506 20.7823C15.3692 21.873 13.4852 22.8645 11.4029 24.2527C9.32067 25.5417 7.33755 26.9299 5.35443 28.3181L5.25527 28.4173C3.76793 29.6071 2.4789 31.1936 1.68565 32.9784C0.694092 35.259 0 37.7379 0 40.2168V40.316V66.2949C0 66.6915 0.297468 67.0881 0.793248 67.0881L29.2015 67.0386L57.6097 66.989L57.4113 40.2168ZM9.51898 67.0881C9.32067 67.0881 8.42826 67.0881 8.42826 67.0881C8.42826 67.0881 8.62658 51.3223 8.62658 50.7274C8.62658 50.1324 9.51898 66.5923 9.51898 66.5923C9.51898 66.6915 9.61814 67.0881 9.51898 67.0881ZM39.8607 7.5945C40.4557 9.08184 40.654 10.6683 40.1582 12.1557C38.9683 11.3624 38.0759 10.2717 37.6793 9.08184C36.9852 7.5945 36.6877 5.90885 36.4894 4.2232C37.8776 5.01645 39.0675 6.20632 39.8607 7.5945ZM17.8481 8.38775C18.5422 6.90041 19.5337 5.61138 20.8228 4.61982C20.7236 6.00801 20.4261 7.39619 19.9304 8.78438C19.3354 10.0734 18.7405 11.3624 17.7489 12.354C17.3523 10.9658 17.4515 9.57762 17.8481 8.38775ZM29.251 47.6535C28.6561 47.6535 28.0612 47.1578 28.0612 46.4637C28.0612 45.8687 28.5569 45.2738 29.251 45.2738C29.9451 45.2738 30.4409 45.7696 30.4409 46.4637C30.4409 47.0586 29.846 47.6535 29.251 47.6535ZM29.251 43.2907C28.6561 43.2907 28.0612 42.7949 28.0612 42.1008C28.0612 41.5059 28.5569 40.9109 29.251 40.9109C29.9451 40.9109 30.4409 41.4067 30.4409 42.1008C30.4409 42.7949 29.846 43.2907 29.251 43.2907ZM29.251 39.027C28.6561 39.027 28.0612 38.5312 28.0612 37.8371C28.0612 37.143 28.5569 36.6472 29.251 36.6472C29.9451 36.6472 30.4409 37.143 30.4409 37.8371C30.4409 38.5312 29.846 39.027 29.251 39.027ZM38.77 19.1958C38.5717 19.2949 38.3734 19.4932 38.3734 19.7907L38.2742 21.278V21.3772C38.0759 24.3519 37.6793 28.0206 35.0021 29.2105C33.6139 29.8055 30.2426 31.0945 28.7552 31.1936C27.2679 31.2928 26.7721 30.5987 25.3839 30.1029C22.4093 28.9131 19.6329 24.5502 19.3354 21.3772L19.2363 19.8899C19.1371 19.5924 19.038 19.2949 18.7405 19.1958L18.5422 18.9974C17.8481 18.6008 17.4515 18.0059 17.3523 17.2126C17.2531 16.3202 17.3523 15.3287 17.8481 14.5354C17.9472 14.4363 18.0464 14.4363 18.1456 14.3371C19.6329 12.9489 20.7236 11.2633 21.5169 9.28016C22.3101 7.39619 22.6076 5.41307 22.6076 3.3308C24.5907 2.33924 26.7721 1.7443 28.9536 1.84345C31.0358 1.94261 33.019 2.43839 34.9029 3.3308C34.9029 5.61138 35.3987 7.79282 36.2911 9.87509C36.9852 11.6599 38.2742 13.1472 39.9599 14.0396C40.059 14.1388 40.1582 14.1388 40.2573 14.1388C40.4557 15.1304 40.5548 16.0228 40.3565 17.0143C40.1582 17.8076 39.6624 18.7 38.77 19.1958ZM51.6603 66.989H50.6687C50.6687 66.989 51.1645 51.5611 51.0654 51.0653L51.6603 66.6915C51.6603 66.6915 51.6603 66.8898 51.6603 66.989Z" fill="black"/>
</svg>
