<svg width="96" height="96" viewBox="0 0 96 96" fill="none" xmlns="http://www.w3.org/2000/svg">
<path d="M3.3 78.9505H1V72.6505V72.5505C1.2 70.4505 1.8 68.5505 2.9 66.9505C4 65.3505 5.6 63.9505 7.5 62.8505C7.5 62.8505 7.6 62.7505 7.7 62.7505L22.5 56.7505V52.4505C22.3 52.2505 22.2 52.2505 22.1 52.0505C20.1 50.0505 18.7 46.9505 18.3 42.4505L17.6 41.6505C17.4 41.4505 17.2 41.1505 17.2 40.8505V39.1505H19.5V40.4505L20.3 41.2505C20.5 41.4505 20.6 41.6505 20.6 41.8505C20.9 46.0505 22.1 48.7505 23.8 50.4505C25.5 52.0505 27.8 52.9505 30.5 53.3505C33.3 52.8505 35.5 51.7505 37.2 49.8505C38.9 47.8505 39.9 45.1505 40.3 41.7505C40.3 41.5505 40.4 41.3505 40.5 41.2505L41.2 40.3505V38.9505H43.5V40.6505C43.5 40.8505 43.4 41.1505 43.3 41.3505L42.6 42.2505C42.2 45.8505 41 48.9505 39.1 51.1505C38.8 51.4505 38.5 51.7505 38.2 52.0505V56.3505L53.5 62.6505C53.6 62.6505 53.6 62.6505 53.7 62.7505C55.7 63.8505 57.2 65.1505 58.3 66.8505C59.4 68.4505 60 70.3505 60.2 72.4505V78.7505H57.9M62.3 78.9505C62.3 78.9505 62.5 69.5505 61.4 66.3505C60.6 63.9505 54.1 59.5505 53 58.6505L57.6 56.7505V52.4505C57.4 52.2505 57.3 52.2505 57.2 52.0505C55.2 50.0505 53.8 46.9505 53.4 42.4505L52.7 41.6505C52.5 41.4505 52.3 41.1505 52.3 40.8505V39.1505H54.6V40.4505L55.4 41.2505C55.6 41.4505 55.7 41.6505 55.7 41.8505C56 46.0505 57.2 48.7505 58.9 50.4505C60.6 52.0505 62.9 52.9505 65.6 53.3505C68.4 52.8505 70.6 51.7505 72.3 49.8505C74 47.8505 75 45.1505 75.4 41.7505C75.4 41.5505 75.5 41.3505 75.6 41.2505L76.3 40.3505V38.9505H78.6V40.6505C78.6 40.8505 78.5 41.1505 78.4 41.3505L77.7 42.2505C77.3 45.8505 76.1 48.9505 74.2 51.1505C73.9 51.4505 73.6 51.7505 73.3 52.0505V56.3505L88.6 62.6505C88.7 62.6505 88.7 62.6505 88.8 62.7505C90.8 63.8505 92.3 65.1505 93.4 66.8505C94.5 68.4505 95.1 70.3505 95.3 72.4505V78.7505M60.8 21.3505C60.6 21.3505 60.6 21.3505 60.4 21.2505C57.1 22.7505 54.4 25.9505 53.7 31.3505C53.6 31.9505 53.1 32.3505 52.4 32.2505C51.8 32.1505 51.4 31.6505 51.5 30.9505C52.4 24.6505 55.6 20.8505 59.6 19.1505C61.6 18.2505 63.8 17.8505 65.9 18.0505C68 18.1505 70.2 18.7505 72.1 19.7505C76.2 21.8505 79.3 25.7505 79.5 31.0505C79.5 31.6505 79 32.1505 78.4 32.1505C77.8 32.1505 77.2 31.6505 77.2 31.1505C77 26.7505 74.4 23.4505 71 21.6505C70.8 21.5505 70.7 21.4505 70.5 21.4505C70.4 21.4505 70.3 21.5505 70.1 21.5505C69.1 21.5505 68.8 23.3505 68.8 25.7505C68.8 26.8505 68.8 28.0505 68.8 29.2505C68.8 30.1505 68.8 31.2505 68.8 31.9505C68.8 32.5505 68.3 33.0505 67.7 33.0505C67.1 33.0505 66.6 32.5505 66.6 31.9505C66.6 30.8505 66.6 30.0505 66.6 29.3505C66.6 28.0505 66.6 26.8505 66.6 25.7505C66.7 23.5505 66.9 21.6505 67.7 20.5505C67.1 20.3505 66.4 20.3505 65.7 20.2505C64.8 20.3505 63.9 20.3505 63.1 20.4505C63.8 21.6505 64.1 23.4505 64.1 25.6505C64.1 26.8505 64.1 28.0505 64.1 29.4505C64.1 30.2505 64.1 31.0505 64.1 32.1505C64.1 32.7505 63.6 33.2505 63 33.2505C62.4 33.2505 61.9 32.7505 61.9 32.1505C61.9 31.4505 61.9 30.4505 61.9 29.4505C61.9 28.1505 61.9 26.9505 61.9 25.7505C62 23.1505 61.7 21.3505 60.8 21.3505ZM60 53.9505V56.8505L65.6 62.9505L70.7 57.3505V53.8505C69.3 54.7505 67.6 55.2505 65.7 55.4505C65.6 55.4505 65.5 55.4505 65.3 55.4505C63.4 55.3505 61.6 54.8505 60 53.9505ZM51.6 32.5505C51.9 33.1505 52.5 33.7505 53.2 34.1505C55.7 35.7505 60.1 36.5505 64.6 36.5505C69.1 36.5505 73.8 35.8505 76.8 34.4505C78 33.9505 78.8 33.1505 79.3 32.4505L81.3 33.5505C80.6 34.6505 79.4 35.5505 77.9 36.2505C74.6 37.8505 69.5 38.5505 64.7 38.5505C59.8 38.5505 54.9 37.6505 52 35.8505C50.9 35.1505 50 34.2505 49.6 33.2505L51.6 32.5505ZM25.6 21.3505C25.4 21.3505 25.4 21.3505 25.2 21.2505C21.9 22.7505 19.2 25.9505 18.5 31.3505C18.4 31.9505 17.9 32.3505 17.2 32.2505C16.6 32.1505 16.2 31.6505 16.3 30.9505C17.2 24.6505 20.4 20.8505 24.4 19.1505C26.4 18.2505 28.6 17.8505 30.7 18.0505C32.8 18.1505 35 18.7505 36.9 19.7505C41 21.8505 44.1 25.7505 44.3 31.0505C44.3 31.6505 43.8 32.1505 43.2 32.1505C42.6 32.1505 42 31.6505 42 31.1505C41.8 26.7505 39.2 23.4505 35.8 21.6505C35.6 21.5505 35.5 21.4505 35.3 21.4505C35.2 21.4505 35.1 21.5505 34.9 21.5505C33.9 21.5505 33.6 23.3505 33.6 25.7505C33.6 26.8505 33.6 28.0505 33.6 29.2505C33.6 30.1505 33.6 31.2505 33.6 31.9505C33.6 32.5505 33.1 33.0505 32.5 33.0505C31.9 33.0505 31.4 32.5505 31.4 31.9505C31.4 30.8505 31.4 30.0505 31.4 29.3505C31.4 28.0505 31.4 26.8505 31.4 25.7505C31.5 23.5505 31.7 21.6505 32.5 20.5505C31.9 20.3505 31.2 20.3505 30.5 20.2505C29.6 20.2505 28.9 20.2505 28 20.3505C28.7 21.5505 29 23.3505 29 25.5505C29 26.7505 29 27.9505 29 29.3505C29 30.1505 29 30.9505 29 32.0505C29 32.6505 28.5 33.1505 27.9 33.1505C27.3 33.1505 26.8 32.6505 26.8 32.0505C26.8 31.3505 26.8 30.3505 26.8 29.3505C26.8 28.0505 26.8 26.8505 26.8 25.6505C26.9 23.1505 26.6 21.3505 25.6 21.3505ZM24.8 53.9505V56.8505L30.4 62.9505L35.5 57.3505V53.8505C34.1 54.7505 32.4 55.2505 30.5 55.4505C30.4 55.4505 30.3 55.4505 30.1 55.4505C28.3 55.3505 26.5 54.8505 24.8 53.9505ZM16.4 32.5505C16.7 33.1505 17.3 33.7505 18 34.1505C20.5 35.7505 24.9 36.5505 29.4 36.5505C33.9 36.5505 38.6 35.8505 41.6 34.4505C42.8 33.9505 43.6 33.1505 44.1 32.4505L46.1 33.5505C45.4 34.6505 44.2 35.5505 42.7 36.2505C39.4 37.8505 34.3 38.5505 29.5 38.5505C24.6 38.5505 19.7 37.6505 16.8 35.8505C15.7 35.1505 14.8 34.2505 14.4 33.2505L16.4 32.5505Z" fill="#0B53A1"/>
</svg>
