<?xml version="1.0" encoding="utf-8"?>
<!-- Generator: Adobe Illustrator 21.0.0, SVG Export Plug-In . SVG Version: 6.00 Build 0)  -->
<svg version="1.1" id="Layer_1" xmlns="http://www.w3.org/2000/svg" xmlns:xlink="http://www.w3.org/1999/xlink" x="0px" y="0px"
	 viewBox="0 0 96 96" style="enable-background:new 0 0 96 96;" xml:space="preserve">
<style type="text/css">
	.st0{fill:#424242;}
</style>
<g id="Layer_2">
</g>
<g>
	<path class="st0" d="M45.8,69.9V82c0,1.2,1.1,2.3,2.3,2.3c1.2,0,2.3-1.1,2.3-2.3V69.9c-0.8,0.1-1.5,0.3-2.3,0.3
		C47.3,70.2,46.6,70.1,45.8,69.9z"/>
	<path class="st0" d="M50.5,49.1V13.9c0-1.2-1.1-2.3-2.3-2.3s-2.3,1.1-2.3,2.3v35.2c0.8-0.1,1.5-0.3,2.3-0.3S49.7,48.9,50.5,49.1z"
		/>
	<path class="st0" d="M77.7,23.1v-9.2c0-1.2-1.1-2.3-2.3-2.3s-2.3,1.1-2.3,2.3v9.2c0.8-0.1,1.5-0.3,2.3-0.3
		C76.2,22.8,76.9,22.9,77.7,23.1z"/>
	<path class="st0" d="M18.6,51.7V82c0,1.2,1.1,2.3,2.3,2.3c1.2,0,2.3-1.1,2.3-2.3V51.7c-0.8,0.1-1.5,0.3-2.3,0.3
		C20.1,52,19.4,51.9,18.6,51.7z"/>
	<path class="st0" d="M20.9,33.8c-4.2,0-7.6,3.3-7.6,7.6c0,4.3,3.3,7.6,7.6,7.6c4.3,0,7.6-3.3,7.6-7.6
		C28.5,37.1,25.1,33.8,20.9,33.8z"/>
	<path class="st0" d="M87.4,1.1H8.8c-4.2,0-7.6,3.3-7.6,7.6v78.6c0,4.2,3.3,7.6,7.6,7.6h78.6c4.2,0,7.6-3.3,7.6-7.6V8.7
		C95,4.5,91.7,1.1,87.4,1.1z M26.2,50.5V82c0,2.9-2.4,5.3-5.3,5.3c-2.9,0-5.3-2.4-5.3-5.3V50.5c-3.2-1.8-5.3-5.4-5.3-9.2
		s2.1-7.3,5.3-9.1V13.9c0-2.9,2.4-5.3,5.3-5.3c2.9,0,5.3,2.4,5.3,5.3v18.2c3.2,1.9,5.3,5.3,5.3,9.2C31.5,45.2,29.4,48.7,26.2,50.5z
		 M53.4,68.7V82c0,2.9-2.4,5.3-5.3,5.3c-2.9,0-5.3-2.4-5.3-5.3V68.7c-3.1-1.8-5.3-5.3-5.3-9.2s2.1-7.4,5.3-9.2V13.9
		c0-2.9,2.4-5.3,5.3-5.3c2.9,0,5.3,2.4,5.3,5.3v36.4c3.2,1.9,5.3,5.3,5.3,9.2S56.6,66.9,53.4,68.7z M80.6,42.7V82
		c0,2.9-2.4,5.3-5.3,5.3c-2.9,0-5.3-2.4-5.3-5.3V42.7c-3.1-2-5.3-5.2-5.3-9.1c0-3.9,2.1-7.4,5.3-9.2V14c0-2.9,2.4-5.3,5.3-5.3
		c2.9,0,5.3,2.4,5.3,5.1v10.5c3.2,1.9,5.3,5.3,5.3,9.2S83.8,40.9,80.6,42.7z"/>
	<path class="st0" d="M23.2,31V13.9c0-1.2-1.1-2.3-2.3-2.3c-1.2,0-2.3,1.1-2.3,2.3V31c0.8-0.1,1.5-0.3,2.3-0.3
		C21.7,30.7,22.4,30.8,23.2,31z"/>
	<path class="st0" d="M73,43.7V82c0,1.2,1.1,2.3,2.3,2.3s2.3-1.1,2.3-2.3V43.7c-0.8,0.1-1.5,0.3-2.3,0.3S73.8,43.9,73,43.7z"/>
	<path class="st0" d="M75.3,25.9c-4.2,0-7.6,3.2-7.6,7.5c0,4.3,3.4,7.6,7.6,7.6c4.3,0,7.6-3.2,7.6-7.5S79.5,25.9,75.3,25.9z"/>
	<path class="st0" d="M48.1,51.9c-4.2,0-7.6,3.2-7.6,7.5c0,4.3,3.3,7.6,7.6,7.6c4.3,0,7.6-3.2,7.6-7.5S52.3,51.9,48.1,51.9z"/>
</g>
</svg>
