<svg enable-background="new 0 0 512 512" viewBox="0 0 512 512" xmlns="http://www.w3.org/2000/svg"><g id="_x31_8_Fast"><g><path d="m373.258 127.335v-25.233h.312c10.156 0 18.436-8.281 18.436-18.436v-21.249c0-10.156-8.281-18.436-18.436-18.436h-80.62c-10.156 0-18.436 8.281-18.436 18.436v21.249c0 10.156 8.281 18.436 18.436 18.436h.313v25.233c-76.012 18.124-132.727 86.558-132.727 168.037 0 95.229 77.496 172.647 172.802 172.647 95.229 0 172.647-77.418 172.647-172.647 0-81.479-56.716-149.991-132.727-168.037zm-15.624-25.232v22.264c-16.406-2.344-32.264-2.344-48.747 0v-22.264zm-24.296 350.292c-86.635 0-157.178-70.465-157.178-157.022 0-78.746 58.278-143.898 133.899-155.225h46.56c75.542 11.328 133.742 76.48 133.742 155.225 0 86.557-70.465 157.022-157.023 157.022z"/><path d="m333.338 166.396c-71.089 0-128.977 57.888-128.977 128.977 0 71.012 57.887 128.821 128.977 128.821 71.012 0 128.821-57.809 128.821-128.821 0-71.09-57.809-128.977-128.821-128.977zm56.637 172.802c-1.484 2.578-4.14 4.062-6.874 4.062-1.25 0-2.578-.312-3.75-1.016l-50.856-28.044c-2.5-1.407-4.062-3.984-4.062-6.875v-85.854c0-4.297 3.515-7.812 7.812-7.812s7.812 3.515 7.812 7.812v81.245l46.794 25.858c3.828 2.109 5.156 6.874 3.124 10.624z"/><path d="m13.827 303.128h90.3c4.318 0 7.812-3.498 7.812-7.812s-3.494-7.812-7.812-7.812h-90.3c-4.314 0-7.812 3.498-7.812 7.812s3.498 7.812 7.812 7.812z"/><path d="m141.99 228.914h-90.3c-4.314 0-7.812 3.498-7.812 7.812s3.498 7.812 7.812 7.812h90.3c4.318 0 7.812-3.498 7.812-7.812s-3.494-7.812-7.812-7.812z"/><path d="m187.665 178.132c0-4.314-3.494-7.812-7.812-7.812h-90.304c-4.318 0-7.812 3.498-7.812 7.812s3.494 7.812 7.812 7.812h90.304c4.318 0 7.812-3.498 7.812-7.812z"/><path d="m89.549 420.313h90.304c4.318 0 7.812-3.498 7.812-7.812s-3.494-7.812-7.812-7.812h-90.304c-4.318 0-7.812 3.498-7.812 7.812s3.494 7.812 7.812 7.812z"/><path d="m149.802 353.907c0-4.314-3.494-7.812-7.812-7.812h-90.3c-4.314 0-7.812 3.498-7.812 7.812s3.498 7.812 7.812 7.812h90.3c4.318 0 7.812-3.498 7.812-7.812z"/></g></g><g id="Layer_1"/></svg>