<svg width="96" height="96" viewBox="0 0 96 96" fill="none" xmlns="http://www.w3.org/2000/svg">
<rect width="96" height="96" fill="white"/>
<path d="M78.5827 74.0308C79.0823 74.2306 62.7977 69.9347 62.5979 70.5341C62.3981 71.0336 61.6987 71.3333 61.0993 71.1335C57.5027 69.535 55.105 66.438 53.5065 62.242C49.7101 59.9441 46.0136 58.7453 42.6168 58.7453C39.4199 58.7453 36.2229 59.7443 33.3256 61.6425C39.4199 54.9489 53.007 58.4456 53.8062 60.9432C54.006 61.4427 78.4828 68.2363 80.2811 77.2278C81.3801 83.322 78.9824 85.7197 78.7825 85.2202C77.8834 86.3191 73.6874 88.8168 36.8223 93.3125C18.8394 93.3125 19.9383 90.3153 15.2428 90.4152C14.6433 90.4152 15.3427 58.4456 15.3427 57.8461C15.3427 57.2467 15.8422 56.7472 16.4416 56.7472C21.4369 56.6473 25.7328 57.3466 29.3294 58.9451C30.0288 59.3447 30.828 59.6444 31.4274 60.1439C34.8242 57.6463 38.6206 56.4474 42.6168 56.4474C45.8138 56.4474 49.1107 57.4465 52.5075 59.045C52.4075 58.4455 52.1078 57.8461 52.0079 57.1468C50.909 52.3513 50.5093 46.4569 50.5093 40.3627C51.2087 39.8632 59.0013 26.7756 59.7006 26.276C67.9928 31.2713 73.3877 45.5578 74.4866 50.6529C75.7854 56.7472 79.0823 69.7348 78.5827 74.0308ZM36.7224 16.2855C37.9213 16.2855 39.0202 16.785 39.8195 17.5843C40.5188 18.2836 41.2181 19.3826 41.2181 20.5814C41.2181 21.7803 40.7186 22.8793 39.8195 23.5786C39.1201 24.2779 38.0212 24.8774 36.7224 24.8774C35.5235 24.8774 34.4246 24.3778 33.6253 23.5786C32.926 22.8793 32.2267 21.7803 32.2267 20.5814C32.2267 19.3826 32.7262 18.2836 33.6253 17.5843C34.4246 16.785 35.5235 16.2855 36.7224 16.2855ZM36.7224 8.09328C40.319 8.09328 43.516 9.49195 45.7139 11.6899C47.9118 13.8878 49.4104 17.0848 49.4104 20.4815C49.4104 23.8783 47.9118 27.0753 45.7139 29.2732C43.516 31.4711 40.2191 32.8698 36.7224 32.8698C33.3256 32.8698 29.9288 31.4711 27.7309 29.2732C25.533 27.0753 24.0344 23.8783 24.0344 20.4815C24.0344 17.0848 25.533 13.8878 27.7309 11.6899C29.9288 9.49195 33.3256 8.09328 36.7224 8.09328ZM44.3152 13.0885C42.3171 11.1903 39.6197 9.99148 36.7224 9.99148C33.8252 9.99148 31.0278 11.1903 29.1296 13.0885C27.1315 14.9867 25.9326 17.6842 25.9326 20.5814C25.9326 23.4787 27.1315 26.0762 29.1296 28.0743C31.1277 29.9725 33.8252 31.1714 36.7224 31.1714C39.6197 31.1714 42.417 29.9725 44.3152 28.0743C46.3133 26.1761 47.5122 23.4787 47.5122 20.5814C47.5122 17.6842 46.3133 14.9867 44.3152 13.0885ZM36.7224 1C47.8119 1 56.6036 9.79167 56.6036 20.4815C56.6036 31.1714 47.6121 39.9631 36.7224 39.9631C25.8327 39.9631 16.8413 31.1714 16.8413 20.4815C16.8413 15.0866 19.0392 10.2912 22.7357 6.6946C26.2324 3.19792 31.2276 1 36.7224 1ZM53.4066 20.4815C53.4066 11.4901 45.9137 4.09706 36.7224 4.09706C32.2267 4.09706 28.0306 5.89536 24.9336 8.89252C21.8365 11.8897 20.0382 15.8859 20.0382 20.3816C20.0382 29.3731 27.5311 36.7661 36.7224 36.7661C45.9137 36.7661 53.4066 29.473 53.4066 20.4815ZM38.3209 18.983C37.9213 18.5833 37.3218 18.3835 36.7224 18.3835C36.123 18.3835 35.6235 18.5833 35.1239 18.983C34.7243 19.3826 34.5245 19.982 34.5245 20.5814C34.5245 21.1809 34.7243 21.6804 35.1239 22.1799C35.5235 22.5795 36.123 22.7794 36.7224 22.7794C37.3218 22.7794 37.8214 22.5795 38.3209 22.1799C38.7205 21.7803 38.9203 21.1809 38.9203 20.5814C38.9203 19.8821 38.7205 19.3826 38.3209 18.983ZM60.6997 24.8774C66.0946 29.3731 69.2915 34.1686 72.3886 41.2618C76.185 50.0535 78.3829 60.6435 79.382 72.4323C81.0804 77.2277 81.8796 81.224 81.0804 83.9214C80.1812 87.0185 77.4838 88.7169 72.4885 89.1165C60.0004 92.2135 48.811 94.2117 39.3199 94.8111C29.729 95.4105 21.7366 94.6113 15.8422 92.0137C15.2428 91.8139 14.9431 91.2145 15.2428 90.6151C15.4426 90.0156 16.1419 89.8158 16.7413 90.0156C22.436 92.3134 30.0288 93.1127 39.3199 92.5133C48.6111 91.9138 59.7006 90.0156 72.1888 86.8187C72.2887 86.8187 72.2887 86.8187 72.3886 86.8187C76.4847 86.6188 78.4828 85.42 79.1822 83.2221C79.8815 80.8243 79.0823 77.3277 77.4838 72.9318C77.4838 72.8319 77.3839 72.732 77.3839 72.5322C76.3848 60.8433 74.2868 50.4531 70.4904 41.8613C67.793 35.767 64.3962 30.4721 59.8005 26.3759" fill="#0B53A1"/>
</svg>
