<svg width="96" height="96" viewBox="0 0 96 96" fill="none" xmlns="http://www.w3.org/2000/svg">
<path d="M15.3445 46.2645L12.6278 42.4611L21.8648 39.853L6.97689 38.6576L10.0197 42.4611L1 45.6125L15.3445 46.2645Z" fill="black"/>
<path d="M18.17 26.052L8.38965 23.7699L20.9954 32.4635L20.7781 27.5734L30.6671 30.2901L17.4093 20.9445L18.17 26.052Z" fill="black"/>
<path d="M13.3885 53.3282L18.3873 55.1756L11.3237 62.8912L25.3422 55.8276L20.8867 53.6542L28.2764 46.3733L13.3885 53.3282Z" fill="black"/>
<path d="M60.1167 46.2647C58.5953 43.8739 73.8092 44.7433 77.178 43.7652C87.9364 40.6138 95 35.3976 95 35.3976L77.0693 6.9259C76.852 6.27388 76.0913 5.8392 75.3306 6.05654L74.4612 6.27388C61.5294 10.512 49.6843 14.4242 41.9687 26.8126C41.6427 27.2473 41.3167 27.682 40.9907 28.1167C40.556 28.5514 40.23 28.8774 39.7953 29.2034C38.9259 29.8554 38.1652 30.3988 37.4045 30.8334C35.6658 31.8115 34.0358 32.6808 32.5144 35.0716C31.4277 36.8103 30.8843 38.7664 30.7756 41.0485C30.7756 43.2219 31.2103 45.504 32.0797 48.2207C33.7097 52.8936 38.2739 59.0878 43.7074 65.3907C51.8577 74.6277 62.1814 84.1907 67.941 89.2982C68.4843 89.8416 69.8971 89.1896 69.8971 89.1896C74.8959 88.8636 83.6982 88.2115 83.6982 88.2115C80.1121 80.1699 75.3306 66.8034 68.1583 55.2843C65.7676 51.4809 60.9861 47.6774 60.1167 46.2647ZM43.4901 42.0265C42.6207 43.2219 42.1861 44.3086 42.1861 45.2866C42.1861 46.3733 42.5121 47.5687 43.1641 48.5468C43.3814 48.9814 43.2728 49.5248 42.8381 49.8508C42.4034 50.0681 41.86 49.9595 41.534 49.5248C40.7733 48.1121 40.23 46.5907 40.3387 45.2866C40.23 43.8739 40.7733 42.3525 41.9687 40.9398C42.2947 40.5051 42.8381 40.3965 43.2728 40.7225C43.7074 41.0485 43.8161 41.5918 43.4901 42.0265ZM53.5965 35.2889C53.1618 35.941 52.2924 36.1583 51.6404 35.7236C50.9884 35.2889 50.771 34.4196 51.2057 33.7676C54.1398 28.8774 58.1606 24.9652 63.1595 21.9225C68.1583 18.9883 74.0265 16.9236 80.9815 15.9456C81.7422 15.8369 82.5029 16.3802 82.6115 17.1409C82.7202 17.9016 82.1768 18.6623 81.4162 18.771C74.8959 19.749 69.245 21.7051 64.5722 24.4219C60.008 27.1386 56.3132 30.7248 53.5965 35.2889Z" fill="black"/>
</svg>
