<?xml version="1.0" encoding="utf-8"?>
<svg version="1.1" id="Layer_1" xmlns="http://www.w3.org/2000/svg" xmlns:xlink="http://www.w3.org/1999/xlink" x="0px" y="0px"
	 viewBox="0 0 96 97.6" style="enable-background:new 0 0 96 97.6;" xml:space="preserve">
<g>
	<path d="M38,47.1c0-0.1-0.1-0.2-0.1-0.3c-0.2-1.6-0.4-3.3-0.5-4.8c-0.2-2.2-0.5-4.7-0.6-6.5c-0.1-1.2-0.5-2.3-1.1-3.2
		c-0.4-0.5-0.8-1-1.3-1.2c-0.4-0.1-0.8-0.2-1.3,0c-0.6,0.2-1.4,0.8-2.2,1.7c-0.7,0.8-1.3,1.9-1.7,3c-0.7,1.7-1,3.5-1.2,4.7
		c0,0.1,0,0.1,0,0.2l-4.5,25.3c-0.1,0.3-0.2,0.6-0.4,0.9c-1.5,1.9-2.4,3.6-2.7,4.9c-0.2,1,0,1.8,0.7,2.4l16.4,16.4
		c1,1,2.3,1.6,3.7,1.9c1.6,0.3,3.4,0.1,5.6-0.4c0,0,0.1,0,0.1,0c0.8-0.2,1.9-0.5,2.9-0.7c4.4-1.1,8.2-2,11.8-5.2l4.6-4.8
		c0-0.1,0.1-0.1,0.2-0.2s0.5-0.5,1.1-1.1c3.1-3.1,7-6.8,4.6-10.1l-1.8-1.8c-0.9,0.9-1.8,1.7-2.7,2.5c-0.8,0.7-1.6,1.4-2.3,2.1
		c-0.8,0.8-2,0.8-2.7,0c-0.8-0.8-0.8-2,0-2.7c0.7-0.7,1.6-1.5,2.5-2.3c3.1-2.7,6.7-5.9,4.7-8.6l-1.8-1.8c-0.1-0.1-0.2-0.2-0.3-0.3
		c-1,1.1-2.2,2.1-3.3,3.1c-0.8,0.7-1.6,1.4-2.3,2.1c-0.8,0.8-2,0.8-2.7,0c-0.8-0.8-0.8-2,0-2.7c0.7-0.7,1.6-1.5,2.5-2.3
		c3.1-2.7,6.7-5.9,4.7-8.6l-1.8-1.8c-0.1-0.1-0.2-0.3-0.3-0.4L59,51.6c-0.8,0.8-2,0.8-2.7,0s-0.8-2,0-2.7l14.3-14.3
		c2.4-2.4,2.9-4.9,2.3-6.8c-0.2-0.7-0.6-1.3-1.1-1.8c-0.5-0.5-1.1-0.9-1.8-1.1c-1.9-0.6-4.3,0-6.8,2.4l-25,25c-0.8,0.8-2,0.8-2.7,0
		c-0.8-0.8-0.8-2,0-2.7L38,47.1L38,47.1L38,47.1z M47.7,2.5l1.4,15.3l-4.3,0.4L43.4,2.9L47.7,2.5L47.7,2.5z M67.8,9.4l-9.9,11.9
		l-3.3-2.8l9.9-11.9L67.8,9.4L67.8,9.4z M28.8,11.6l11.8,9.8l-2.8,3.3L26,14.9L28.8,11.6L28.8,11.6z M67,43.6
		c0.1,0.1,0.3,0.2,0.4,0.3l1.9,1.9c0.1,0.1,0.2,0.2,0.3,0.3c2.1,2.9,1.8,5.5,0.3,7.9c0.3,0.1,0.5,0.2,0.7,0.4l1.9,1.9
		c0.1,0.1,0.2,0.2,0.3,0.3c2.3,3.1,1.7,5.9,0,8.4c0.1,0,0.1,0.1,0.2,0.2l1.9,1.9c0.1,0.1,0.2,0.2,0.3,0.3c4.4,6-0.8,11.1-5.1,15.2
		l-1.1,1.1l-4.7,4.9L64.2,89c-4.3,3.9-8.6,4.9-13.5,6.1c-0.8,0.2-1.7,0.4-2.8,0.7c0,0,0,0-0.1,0c-2.7,0.7-5.1,0.9-7.3,0.5
		c-2.2-0.4-4.1-1.4-5.7-2.9L18.5,77c-1.7-1.6-2.2-3.6-1.8-5.9c0.4-1.9,1.4-4,3.2-6.2l4.4-24.8V40c0.2-1.4,0.6-3.5,1.4-5.5
		c0.6-1.5,1.4-3,2.4-4.2c1.3-1.4,2.5-2.3,3.7-2.8c1.5-0.6,2.9-0.5,4.2,0c1.2,0.5,2.2,1.4,2.9,2.6c0.9,1.4,1.5,3.1,1.7,5
		c0.1,1.5,0.4,4,0.6,6.5l0.2,2l19-19c3.6-3.6,7.6-4.4,10.7-3.3c1.3,0.4,2.4,1.1,3.3,2c0.9,0.9,1.6,2,2,3.3c1,3.1,0.3,7.1-3.2,10.7
		L67,43.6L67,43.6L67,43.6z"/>
</g>
</svg>
