<?xml version="1.0" encoding="utf-8"?>
<!-- Generator: Adobe Illustrator 21.0.0, SVG Export Plug-In . SVG Version: 6.00 Build 0)  -->
<svg version="1.1" id="Layer_1" xmlns="http://www.w3.org/2000/svg" xmlns:xlink="http://www.w3.org/1999/xlink" x="0px" y="0px"
	 viewBox="0 0 512 512" style="enable-background:new 0 0 512 512;" xml:space="preserve">
<path d="M334.7,56.5c-67.1,0.1-121.4,54.4-121.5,121.5v156.1c0,19.1-15.5,34.6-34.6,34.6s-34.6-15.5-34.6-34.6V205.4l39,9
	c7.9,1.8,15.8-3.1,17.6-11c0.8-3.6,0.3-7.4-1.6-10.7L113.2,44.1c-2.6-4.6-7.5-7.4-12.7-7.4c-5.3,0-10.1,2.8-12.7,7.4L2,192.7
	c-4.1,7-1.7,16,5.4,20.1c3.2,1.9,7,2.4,10.7,1.6l39.1-9V334c0,67.1,54.4,121.5,121.5,121.5S300,401.1,300,334V177.9
	c0-19.1,15.5-34.6,34.6-34.6s34.6,15.5,34.6,34.6v129l-40.3-9.2c-7.9-1.8-15.8,3.1-17.6,11c-0.8,3.6-0.3,7.4,1.6,10.6l85.8,148.6
	c4.1,7,13.1,9.4,20.1,5.4c2.2-1.3,4.1-3.1,5.4-5.4L510,319.3c4.1-7,1.7-16-5.3-20.1c-3.2-1.9-7-2.4-10.7-1.6l-37.8,8.7V178
	C456.1,110.9,401.7,56.6,334.7,56.5L334.7,56.5z M17.3,198.1 M183.7,198.1"/>
</svg>
