<svg width="96" height="96" viewBox="0 0 96 96" fill="auto" xmlns="http://www.w3.org/2000/svg">
<path d="M82.8954 8.59528C83.098 7.88621 83.3006 7.37974 82.9967 6.97456C82.7941 6.77197 82.5915 6.67067 82.2876 6.77197C82.2876 6.67067 82.1863 6.67067 82.1863 6.56937C81.7812 5.86031 81.2747 4.94865 80.2617 5.45513C80.0591 5.55642 79.9578 5.65772 79.8565 5.75901C79.654 5.65772 79.3501 5.75901 79.0462 5.86031C78.0332 6.46808 77.5268 7.27844 77.6281 8.39269C77.6281 8.59528 77.5268 8.89916 77.3242 9.20308C77.0203 9.70955 76.7164 10.4186 76.919 11.1277C77.0203 11.5329 77.0203 12.0393 76.919 12.4445C76.8177 12.951 76.8177 13.4575 76.919 13.9639C77.1216 14.673 77.0203 15.7873 76.7164 16.9015C76.6151 17.408 76.5138 18.117 76.4125 18.7248C76.3112 19.6365 76.2099 20.6494 75.906 21.0546C75.7034 21.3585 75.5009 21.6624 75.2983 21.9663C75.2983 22.0676 75.197 22.0675 75.197 22.1688C75.0957 21.9663 74.8931 21.865 74.7918 21.6624C74.5892 21.3585 74.3866 21.0546 74.0827 20.7507C73.2724 19.8391 72.1581 19.2313 71.5504 19.0287C71.4491 19.0287 71.3478 18.9274 71.3478 18.9274C71.1452 18.7248 70.74 17.3067 70.6387 17.0028C70.8413 16.8002 71.0439 16.5976 71.2465 16.395C71.4491 16.1924 71.5504 16.0911 71.6516 15.9898C72.0568 15.686 72.1581 15.2808 72.1581 14.9769C72.2594 14.9769 72.2594 14.9769 72.3607 14.9769C72.8672 14.8756 73.2724 14.673 73.3737 14.3691C73.6775 13.7614 73.5762 13.0523 73.3737 12.1406V11.8367C73.2724 11.5329 73.475 11.229 73.7788 10.9251C73.8801 10.7225 74.0827 10.5199 74.0827 10.3173C74.184 9.91214 74.184 9.20308 74.184 8.69657C74.5892 8.59528 75.0957 8.29139 75.2983 7.78492C75.7034 6.67067 72.8672 3.32793 72.0568 2.72016C71.1452 2.0111 69.6257 1.60592 68.4102 1.30203C68.1063 1.20074 67.8024 1.20074 67.5998 1.09944C66.283 0.694261 64.2571 1.60592 63.4467 2.41628C62.7377 3.12534 61.5221 5.04995 60.7118 6.87326C60.4079 7.68362 60.2053 8.49398 60.104 9.30437C60.2053 9.20308 60.104 9.20308 60.0027 9.10175C59.1923 8.59528 58.4833 8.49398 57.9768 8.39269C57.7742 8.39269 57.5716 8.29139 57.4703 8.29139C57.0652 7.78492 54.938 6.36678 54.2289 6.16419C53.6211 5.9616 50.3797 5.04995 49.0628 4.54347C48.6577 4.44218 48.3538 4.23959 48.0499 4.037C47.4421 3.73311 46.9356 3.42923 46.1253 3.73311C45.6188 3.9357 45.1123 4.34088 44.5046 4.74606C43.8968 5.15124 43.1877 5.75901 42.1748 6.26549C40.1489 7.48103 38.123 8.89916 36.8061 10.216C36.401 10.6212 35.9958 11.0264 35.6919 11.4316C35.0841 12.1406 34.5777 12.6471 34.0712 12.7484C33.3621 12.8497 32.7543 13.2549 32.1466 13.5588C31.7414 13.7614 31.3362 14.0652 30.931 14.1665C31.0323 14.2678 30.8297 14.2678 30.5258 14.3691C30.222 14.4704 30.0194 14.4704 29.8168 14.673C29.5129 14.7743 29.3103 14.9769 29.1077 15.1795C28.9051 15.2808 28.7025 15.4834 28.3987 15.5847C27.7909 15.8886 27.3857 16.4963 27.1831 16.6989C26.9805 16.9015 26.8792 17.2054 26.8792 17.5093C26.8792 17.7119 26.7779 17.8132 26.6766 18.0157C26.5753 18.2183 26.474 18.5222 26.5753 18.7248C26.6766 19.0287 26.9805 19.2313 27.0818 19.3326C27.1831 19.3326 27.2844 19.4339 27.2844 19.4339C27.2844 19.5352 27.2844 19.6365 27.2844 19.7378C27.2844 20.2442 27.3857 20.3455 27.6896 20.852L27.8922 21.1559C28.1961 21.5611 28.4999 21.7637 28.8038 21.865C28.8038 21.9663 28.9051 22.1688 29.1077 22.2701C29.5129 22.574 29.6142 22.7766 29.6142 22.7766C29.6142 22.8779 29.7155 23.1818 30.0194 23.2831C30.931 23.7896 31.8427 22.7766 32.5517 22.1688C32.8556 21.865 33.0582 21.3585 33.3621 20.852C33.5647 20.5481 33.7673 20.0416 33.9699 19.7378C33.9699 19.9404 33.8686 20.0416 33.8686 20.2442C33.7673 21.1559 33.666 21.6624 34.1725 22.1688C34.3751 22.3714 34.6789 22.574 35.0841 22.4727C35.5906 22.3714 36.1984 22.0676 36.401 21.5611C36.9074 20.6494 36.8061 20.0416 36.8061 19.4339C36.8061 19.13 36.8061 18.8261 36.8061 18.4209V18.117C36.9074 17.3067 37.11 16.395 37.6165 15.8886C38.2243 15.3821 39.4398 14.4704 41.2631 13.2549C42.4787 12.4445 46.9356 10.7225 47.9486 10.4186C48.4551 10.216 48.5564 10.3173 49.1641 11.0264C49.5693 11.5329 50.6836 12.2419 51.6965 12.8497C52.1017 13.1536 52.6082 13.3562 52.9121 13.5588C52.8108 13.6601 52.7095 13.7614 52.7095 13.8627C52.5069 14.673 51.5952 16.9015 50.7849 17.6106C49.7719 18.5222 49.5693 18.8261 48.759 20.1429L48.1512 21.1559C47.4421 22.2701 46.8344 23.1818 46.2266 24.1947C45.6188 25.1064 45.011 26.1194 44.2007 27.5375C43.1877 29.0569 42.6813 30.0699 42.3774 30.6776C42.0735 31.1841 41.9722 31.488 41.6683 31.7919C41.3644 32.1971 41.0605 32.2984 40.4528 32.6022C39.9463 32.8048 39.4398 33.21 38.6295 33.7165C36.8061 34.932 36.6036 35.2359 35.9958 36.654V37.2618C35.0841 39.2877 35.2867 41.111 35.4893 42.5292C35.4893 42.7317 35.5906 43.0356 35.5906 43.2382C35.6919 44.2512 35.2867 44.9602 34.9828 45.6693C34.8815 45.8719 34.7802 45.9732 34.7802 46.1758C34.4764 46.7835 33.5647 48.2017 32.5517 49.5185C31.5388 50.7341 30.8297 52.5574 30.4246 54.7859C30.1207 56.6092 29.4116 58.1286 28.2974 59.648C27.6896 60.4584 26.9805 61.1674 26.2715 61.8765C25.6637 62.4843 24.9546 63.1933 24.3468 63.9024C22.8274 65.7257 22.2197 67.1439 21.9158 68.6633C21.7132 69.4736 21.308 70.284 20.9028 71.1957C20.5989 71.9047 20.1938 72.6138 19.8899 73.5254C19.2821 75.3488 18.1679 77.5772 17.1549 78.8941C16.6484 79.6031 16.6484 79.6031 16.2432 79.7044C15.9394 79.8057 15.5342 79.907 14.8251 80.3122C13.7109 80.92 13.1031 81.4265 13.0018 81.9329C13.0018 82.0342 13.0018 82.1355 13.0018 82.2368C13.0018 82.642 12.9005 84.4653 14.2173 86.1873C15.0277 87.2003 15.0277 87.9093 15.0277 88.7197C15.0277 89.2262 15.0277 89.6314 15.2303 90.1378C15.6355 91.0495 16.1419 92.265 17.1549 93.1767C17.3575 93.3793 17.5601 93.5819 17.7627 93.7845C18.3704 94.3922 18.9782 95 19.8899 95C19.9912 95 20.9028 95 21.6119 94.6961C21.9158 94.5948 22.1184 94.3922 22.3209 94.1896C22.5235 93.987 22.5235 93.6832 22.4222 93.4806C22.3209 93.1767 22.1184 92.9741 21.9158 92.8728C21.8145 92.7715 21.6119 92.6702 21.4093 92.0624C20.9028 90.8469 20.9028 90.0365 21.1054 88.4158C21.2067 87.8081 21.1054 87.2003 21.1054 86.5925C21.1054 85.7821 21.0041 84.9718 21.308 84.0601C21.8145 82.4394 23.1313 79.7044 23.9417 78.5902L24.5494 77.7798C25.5624 76.3617 27.3857 74.0319 28.1961 72.8164C28.6012 72.2086 29.0064 71.6008 29.5129 70.8918C30.222 69.8788 30.931 68.8659 31.5388 67.7516C32.4505 66.2322 33.2608 65.2192 34.0712 64.7128C34.9828 64.105 35.6919 63.3959 36.0971 62.5856L36.1984 62.2817C36.401 61.8765 36.5023 61.6739 37.2113 61.0661C38.0217 60.3571 38.7307 59.4454 39.7437 58.2299C40.0476 57.8247 40.3515 57.4195 40.6554 57.0143C41.6683 55.7988 42.2761 54.7859 42.8838 53.7729C43.1877 53.3677 43.4916 52.8613 43.6942 52.5574C43.9981 52.0509 44.6059 51.2405 45.1123 50.4302C45.5175 49.8224 46.024 49.012 46.2266 48.7082L46.5305 48.8094C47.2395 49.1133 48.3538 49.7211 49.7719 50.025C50.5823 50.2276 51.2913 50.4302 51.8991 50.6328C52.9121 50.9366 53.7224 51.2405 54.7354 51.3418C55.5457 51.3418 56.2548 51.4431 56.8626 51.5444C56.7613 51.6457 56.66 51.6457 56.5587 51.747C55.2418 52.8613 53.925 54.2794 52.8108 55.2923C52.1017 56.0014 51.3926 56.6092 50.9875 57.0143C49.3667 58.5338 46.4292 60.9649 45.9227 61.1674C45.7201 61.2687 45.4162 61.37 45.1123 61.37C44.2007 61.5726 43.1877 61.8765 42.6813 62.4843L42.4787 62.6869C41.4657 63.9024 40.5541 65.0167 40.9592 65.827C41.0605 65.9283 41.0605 66.0296 41.0605 66.2322C41.2631 66.7387 41.4657 67.4477 42.6813 68.0555C43.1877 68.3594 43.6942 68.4607 44.302 68.6633C45.011 68.8659 45.8214 69.1698 46.024 69.4736C46.1253 69.6762 46.3279 69.9801 46.5305 70.3853C47.5434 72.006 48.4551 73.4241 48.9615 73.9306C49.5693 74.4371 50.6836 74.8423 52.4056 75.1462C52.8108 75.2475 53.1146 75.1462 53.3172 75.0449C54.1276 74.741 54.2289 73.8293 54.3302 73.3229C54.4315 72.6138 53.925 72.006 53.4185 71.4995C53.2159 71.297 53.0134 71.0944 52.8108 70.8918C52.6082 70.6892 52.5069 70.4866 52.3043 70.284C51.8991 69.8788 51.7978 69.7775 51.4939 68.6633C51.4939 67.6503 51.0887 66.6374 50.7849 65.9283C50.6836 65.6244 50.5823 65.2192 50.5823 65.2192C50.5823 65.118 50.5823 65.1179 50.5823 65.0167C50.5823 65.0167 50.6836 64.8141 51.3926 64.3076C52.6082 63.3959 54.3302 62.1804 55.1405 61.8765C55.2418 61.7752 55.5457 61.7752 55.7483 61.6739C57.0652 61.1674 59.4962 60.2558 61.117 59.3441C62.9403 58.3312 64.9662 56.8118 66.6882 55.2923C67.0934 54.8872 67.4985 54.5833 67.8024 54.3807C68.6128 53.6716 69.2206 53.1651 69.6257 52.4561C70.2335 51.3418 70.6387 50.3289 69.3219 48.5056C68.1063 46.7835 65.3713 44.3525 64.0545 43.3395C62.7377 42.3266 60.5092 41.111 58.4833 39.9968L57.8755 39.6929C57.0652 39.2877 56.4574 38.8825 55.9509 38.5786C54.938 37.9709 54.3302 37.5657 53.7224 37.4644C53.3172 37.3631 53.0134 37.2618 52.7095 36.9579C52.8108 36.654 53.4185 35.7424 54.4315 35.0333C55.2418 34.4256 56.8626 33.0074 58.1794 31.7919C59.1923 30.8802 60.104 30.0699 60.6105 29.6647C60.9144 29.4621 61.3195 29.1582 61.6234 28.8543C62.839 28.044 64.1558 27.031 64.8649 26.1194C65.2701 25.6129 65.6752 25.0051 66.0804 24.3973C66.283 24.0935 66.4856 23.7896 66.6882 23.587C67.3973 24.296 69.3219 26.2206 70.5374 26.8284C71.7529 27.4362 73.3737 28.753 73.9814 29.2595L74.184 29.3608C74.6905 29.766 76.8177 30.5763 77.7293 30.2724H77.8306H77.9319C78.5397 30.0699 79.2488 29.6647 79.654 28.4491C79.8565 27.6388 80.1604 26.7271 80.363 25.7142C80.4643 25.2077 80.5656 24.8025 80.6669 24.296C80.9708 23.0805 80.9708 21.0546 80.8695 19.4339C80.8695 19.0287 80.8695 18.7248 80.8695 18.4209C80.8695 17.3067 80.9708 15.8886 81.4773 14.9769L81.5786 14.7743C82.085 13.8626 82.6928 12.8497 82.9967 11.938C83.3006 11.0264 83.1993 9.40567 82.8954 8.89916C82.7941 8.89916 82.8954 8.69657 82.8954 8.59528ZM74.4879 7.68362C74.3866 7.88621 73.9814 7.98751 73.8801 7.98751C73.5762 7.98751 73.3737 8.1901 73.3737 8.49398C73.3737 9.10175 73.3737 9.91214 73.3737 10.1147C73.3737 10.216 73.2724 10.3173 73.1711 10.4186C72.8672 10.8238 72.462 11.3303 72.6646 12.1406V12.4445C72.7659 12.951 72.8672 13.6601 72.7659 13.8627C72.5633 14.0652 72.1581 14.0652 72.0568 14.0652C71.8542 13.8627 71.5503 13.8626 71.3478 13.9639C71.1452 14.1665 71.0439 14.3691 71.1452 14.7743C71.2465 15.1795 71.2465 15.3821 71.2465 15.3821C71.0439 15.5847 70.8413 15.686 70.74 15.8886C70.3348 16.2937 69.8283 16.6989 69.4231 16.6989C68.7141 16.5976 67.9037 16.0911 67.296 15.1795C66.7895 14.4704 66.283 13.7614 65.7765 13.0523C65.5739 12.8497 65.2701 12.7484 65.0675 12.951C64.8649 13.1536 64.7636 13.4575 64.9662 13.6601C65.5739 14.3691 65.8778 14.8756 66.4856 15.7873L65.8778 19.13C65.8778 19.13 64.8649 16.0911 64.3584 14.673C64.2571 13.4575 63.7506 13.0523 63.0416 12.4445C62.9403 12.3432 62.7377 12.2419 62.6364 12.1406C62.2312 11.8367 62.0286 11.4316 61.7247 11.0264L61.6234 10.8238C61.9273 10.7225 62.2312 10.7225 62.839 10.8238C64.0545 10.9251 64.6623 11.0264 65.0675 10.6212C65.4726 10.216 65.6752 9.40567 66.1817 8.49398C66.5869 7.58233 66.9921 6.77196 67.5998 7.27844C68.2076 7.78492 68.4102 9.00046 68.7141 9.50696C69.1193 10.1147 68.9167 10.1147 69.8283 9.81085C70.74 9.40567 71.2465 8.69657 71.4491 8.1901C71.6516 7.68362 71.9555 6.26549 72.1581 6.26549C72.462 6.36678 73.475 7.48103 73.8801 7.37974C74.0827 7.37974 74.184 7.27844 74.3866 7.17715C74.3866 7.48103 74.4879 7.58233 74.4879 7.68362ZM51.4939 18.6235C52.6082 17.6106 53.5198 14.9769 53.7224 14.4704C54.4315 15.1795 55.3431 16.2937 55.647 16.6989C55.8496 16.9015 56.1535 16.9015 56.4574 16.8002C56.66 16.5976 56.66 16.2937 56.5587 16.0911C56.4574 15.9898 54.6341 13.6601 53.5198 12.951C53.1146 12.6471 52.7095 12.4445 52.3043 12.1406C51.4939 11.6342 50.3797 11.0264 50.0758 10.6212C49.468 9.91214 48.9615 9.20308 47.746 9.60826C46.9356 9.81085 42.0735 11.6342 40.7566 12.6471C39.5411 13.5588 37.8191 14.673 37.0087 15.3821C36.1984 16.0911 35.9958 17.2054 35.7932 18.2183V18.5222C35.6919 19.0287 35.6919 19.4339 35.7932 19.8391C35.7932 20.3455 35.8945 20.7507 35.4893 21.3585C35.388 21.5611 35.1854 21.6624 34.9828 21.7637C34.8815 21.6624 34.8815 21.4598 34.9828 20.7507C34.9828 20.5481 35.0841 20.4468 35.0841 20.2442C35.1854 19.6365 35.2867 19.0287 34.8815 18.7248C34.5777 18.5222 34.2738 18.5222 33.8686 18.7248C33.2608 19.0287 32.7543 19.9404 32.3492 20.7507C32.1466 21.1559 31.8427 21.6624 31.7414 21.865C31.1336 22.4727 30.8297 22.7766 30.6271 22.7766C30.5258 22.574 30.4246 22.3714 30.1207 22.0676C30.222 21.9663 30.222 21.865 30.222 21.7637C30.222 21.5611 30.1207 21.2572 29.9181 21.1559C29.5129 20.9533 29.209 20.9533 29.0064 21.0546H28.9051C28.9051 21.0546 28.8038 21.0546 28.6012 20.7507L28.4999 20.3455C28.3987 20.1429 28.2974 20.0416 28.2974 19.9404C28.2974 19.8391 28.2974 19.7378 28.2974 19.5352C28.2974 18.9274 27.8922 18.6235 27.6896 18.5222C27.7909 18.3196 27.8922 18.117 27.8922 17.8132C27.8922 17.6106 27.9935 17.5093 28.0948 17.408C28.1961 17.2054 28.4999 16.9015 28.8038 16.6989C29.209 16.4963 29.4116 16.395 29.6142 16.1924C29.8168 16.0911 30.0194 15.8886 30.3233 15.7873C30.5258 15.686 30.5258 15.686 30.8297 15.5847C31.0323 15.5847 31.2349 15.4834 31.5388 15.3821C32.0453 15.1795 32.4505 14.9769 32.9569 14.673C33.4634 14.3691 34.0712 14.0652 34.5777 13.9639C35.4893 13.7614 36.0971 13.1536 36.8061 12.2419C37.11 11.938 37.4139 11.5329 37.8191 11.1277C39.1359 9.81085 41.0605 8.39269 42.9851 7.27844C43.9981 6.67067 44.8085 6.16419 45.4162 5.65772C45.9227 5.25254 46.4292 4.94865 46.8344 4.74606C47.2395 4.64477 47.3408 4.64477 47.8473 4.94865C48.1512 5.15124 48.5564 5.35383 49.0628 5.55642C50.481 6.0629 53.7224 7.07585 54.3302 7.17715C54.8367 7.27844 56.7613 8.59528 56.9639 8.89916C57.2677 9.20308 57.6729 9.30437 58.0781 9.40567C58.5846 9.50696 59.0911 9.60826 59.6988 10.0134C60.3066 10.4186 60.6105 10.8238 61.0157 11.4316C61.3195 11.8367 61.6234 12.3432 62.1299 12.7484C62.3325 12.8497 62.4338 13.0523 62.5351 13.1536C63.0416 13.5588 63.3454 13.7614 63.4467 14.3691C63.4467 14.8756 63.548 16.395 63.7506 17.3067C63.9532 18.2183 63.1429 19.5352 62.4338 20.6494C61.7247 21.7637 61.0157 22.1688 59.3949 23.0805C57.7742 23.9922 56.5587 23.9922 55.2418 23.587C53.925 23.0805 52.5069 21.865 51.6965 21.0546C51.19 20.5481 50.8862 19.9404 50.6836 19.4339C50.8862 19.2313 51.19 18.9274 51.4939 18.6235ZM38.832 57.1156C37.9204 58.2299 37.2113 59.2428 36.5023 59.7493C35.5906 60.4584 35.4893 60.7623 35.1854 61.37L35.0841 61.6739C34.7802 62.2817 34.1725 62.8895 33.4634 63.3959C32.4505 64.105 31.5388 65.118 30.6271 66.84C30.0194 67.8529 29.3103 68.9672 28.6012 69.8788C28.0948 70.5879 27.6896 71.1957 27.2844 71.8034C26.474 73.019 24.752 75.3488 23.6378 76.7669L23.03 77.5772C22.1184 78.7928 20.8015 81.629 20.1938 83.2498C20.0925 83.6549 19.9912 83.9588 19.8899 84.364C19.2821 84.0601 18.4717 83.4524 18.0666 83.0472C17.6614 82.5407 17.0536 81.0213 16.7497 80.3122C17.1549 80.1096 17.3575 79.907 17.864 79.198C18.8769 77.6785 19.9912 75.45 20.7002 73.5254C21.0041 72.7151 21.308 72.006 21.6119 71.297C22.0171 70.3853 22.4222 69.4736 22.6248 68.562C22.9287 67.1439 23.4352 65.827 24.8533 64.2063C25.4611 63.4972 26.1702 62.7882 26.7779 62.1804C27.487 61.4713 28.1961 60.7623 28.9051 59.8506C30.222 58.2299 31.0323 56.4066 31.3362 54.482C31.4375 53.6716 31.6401 52.8613 31.8427 52.2535C32.1466 52.6587 32.653 53.1651 33.2608 53.6716C34.2738 54.6846 35.7932 54.482 37.4139 54.8872C38.4269 55.0897 39.3385 55.5962 39.7437 56.0014C39.5411 56.3053 39.1359 56.7105 38.832 57.1156ZM68.2076 48.8094C69.1193 50.1263 68.8154 50.7341 68.4102 51.5444C68.1063 52.1522 67.5998 52.4561 66.7895 53.1651C66.4856 53.469 66.0804 53.7729 65.6752 54.1781C64.0545 55.5962 62.0286 57.1156 60.3066 58.1286C58.7872 59.0403 56.3561 59.9519 55.1405 60.3571C54.8367 60.4584 54.6341 60.5597 54.5328 60.5597C53.5198 60.9649 51.4939 62.383 50.481 63.0921C49.6706 63.6998 49.3667 64.0037 49.2654 64.4089C48.8603 64.4089 48.4551 64.4089 48.0499 64.6115C47.3408 64.8141 45.7201 64.2063 45.1123 63.3959C44.8085 62.8895 44.7072 62.5856 44.7072 62.383L45.1123 62.2817C45.5175 62.1804 45.8214 62.0791 46.024 61.9778C47.0369 61.5726 51.3926 57.6221 51.3926 57.6221C51.8991 57.2169 52.5069 56.6092 53.2159 55.7988C54.3302 54.7859 55.647 53.469 56.8626 52.2535C58.7872 50.5315 60.8131 50.6328 60.8131 50.6328C61.117 50.6328 61.3195 50.4302 61.4208 50.1263C61.4208 49.8224 61.2183 49.6198 60.9144 49.5185C60.8131 49.5185 59.3949 49.4172 57.6729 50.3289C57.6729 50.3289 57.6729 50.3289 57.5716 50.3289C57.5716 50.3289 56.9639 50.2276 56.2548 50.1263C57.1665 49.3159 58.8885 47.6952 59.6988 47.0874C60.5092 46.3784 62.0286 44.5551 62.7377 43.7447C62.839 43.7447 62.839 43.846 62.9403 43.846C64.4597 44.8589 67.0934 47.1887 68.2076 48.8094ZM81.8824 8.29139C81.6799 8.79787 81.5786 9.10175 81.7812 9.40567C81.7812 9.50696 81.8824 9.50696 81.8824 9.50696C81.9837 9.81085 82.085 10.9251 81.8824 11.6342C81.6799 12.4445 81.0721 13.3562 80.5656 14.2678L80.4643 14.4704C79.7552 15.5847 79.654 17.1041 79.654 18.4209C79.654 18.7248 79.654 19.0287 79.654 19.4339C79.654 20.9533 79.654 22.9792 79.4514 23.9922C79.3501 24.4986 79.2488 24.9038 79.1475 25.4103C78.9449 26.3219 78.7423 27.3349 78.4384 28.044C78.2358 28.8543 77.8306 29.0569 77.2229 29.2595H77.1216C76.7164 29.3608 75.0957 28.8543 74.6905 28.5504L74.4879 28.4491C73.8801 27.9427 72.0568 26.5245 70.8413 25.8155C69.8283 25.309 68.005 23.4857 67.1947 22.6753C67.7011 21.9663 68.1063 21.2572 68.2076 20.5481C68.2076 20.4468 68.2076 20.4468 68.2076 20.3455C68.2076 20.2442 68.005 19.0287 67.5998 17.6106C67.4985 17.3067 67.3972 16.9015 67.296 16.4963C67.9037 17.0028 68.5115 17.3067 69.1193 17.3067C69.3219 17.3067 69.5244 17.3067 69.6257 17.3067C69.8283 17.9145 70.2335 19.4339 70.74 19.7378C70.8413 19.7378 70.9426 19.8391 71.1452 19.9404C71.6516 20.2442 72.6646 20.6494 73.2724 21.4598C73.5763 21.7637 73.7788 22.0676 73.9814 22.3714C74.4879 23.0805 74.8931 23.587 75.6022 23.3844C76.0073 23.1818 76.2099 22.9792 76.3112 22.6753C76.4125 22.4727 76.5138 22.2701 76.8177 21.865C77.3242 21.1559 77.4255 20.0416 77.5268 18.9274C77.628 18.3196 77.6281 17.7119 77.7293 17.3067C78.1345 15.8886 78.2358 14.5717 77.9319 13.6601C77.8306 13.3562 77.9319 13.0523 77.9319 12.5458C78.0332 12.0393 78.0332 11.4316 77.9319 10.8238C77.8306 10.4186 78.0332 10.0134 78.2358 9.60826C78.4384 9.20308 78.641 8.69657 78.641 8.1901C78.5397 7.78492 78.641 7.27844 79.3501 6.87326C79.4514 7.17715 79.5527 7.88621 80.2617 7.78492C80.4643 7.78492 80.6669 7.68362 80.7682 7.48103C80.9708 7.17715 80.8695 6.87326 80.7682 6.56937C80.8695 6.77196 80.9708 6.97456 81.0721 7.17715C81.2747 7.58233 81.5786 7.78492 81.8824 7.78492C81.9837 8.0888 81.8824 8.1901 81.8824 8.29139Z" />
</svg>
