<svg version="1.1" id="Layer_1" xmlns="http://www.w3.org/2000/svg" xmlns:xlink="http://www.w3.org/1999/xlink" x="0px" y="0px"
	 viewBox="0 0 96 96" style="enable-background:new 0 0 96 96;" xml:space="preserve">

<path class="st0" d="M65.9,82.4H31.3V71.9h34.6V82.4z"/>
		<path class="st0" d="M61.9,95.1H35.3c-2.2,0-3.9-1.7-3.9-3.8v-6.6h34.4v6.6C65.8,93.4,64.1,95.1,61.9,95.1z"/>
		<rect x="31.3" y="58" class="st0" width="34.6" height="10.5"/>
		<rect x="31.3" y="27.5" class="st0" width="34.6" height="10.5"/>
		<rect x="8" y="43.8" class="st0" width="20.5" height="8.5"/>
		<path class="st0" d="M65.9,11.2H31.3V4.6c0-2.1,1.7-3.8,3.9-3.8h26.7c2.1,0,3.9,1.7,4,3.8V11.2z"/>
		<rect x="68.8" y="44.3" class="st0" width="20.5" height="8.5"/>
		<path class="st0" d="M65.9,24.2H31.3V13.7h34.6V24.2z"/>
		<path class="st0" d="M65.9,55.4H31.3V41.5h34.6V55.4z M32.3,54.4h32.6V42.5v11.9H32.3z M33.3,53.4h30.6v-9.9H33.3V53.4z"/>
</svg>
