<svg height="512pt" viewBox="0 0 512.0002 512" width="512pt" xmlns="http://www.w3.org/2000/svg"><path d="m323.339844 84.742188 21-21.003907 104.5625 104.558594-21.003906 21.003906zm0 0"/><path d="m275.25 132.828125 26.898438-26.898437 104.558593 104.558593-26.894531 26.898438zm0 0"/><path d="m501.777344 115.425781c13.628906-13.632812 13.628906-35.808593 0-49.441406l-55.121094-55.121094c-13.632812-13.628906-35.808594-13.628906-49.4375 0l-31.6875 31.6875 104.5625 104.558594zm0 0"/><path d="m60.015625 348.0625 72.804687-72.808594 104.5625 104.558594-72.808593 72.808594zm0 0"/><path d="m.859375 491.414062c-1.917969 5.414063-.570313 11.449219 3.46875 15.535157 2.859375 2.894531 6.71875 4.449219 10.65625 4.449219 1.617187 0 3.25-.261719 4.835937-.800782l119.574219-40.78125-96.65625-96.65625zm0 0"/><path d="m104.441406 4.390625c-2.808594-2.8125-6.621094-4.390625-10.59375-4.390625s-7.785156 1.578125-10.59375 4.390625l-78.863281 78.863281c-5.851563 5.851563-5.851563 15.335938 0 21.1875l31.78125 31.785156 38.945313-38.945312c5.847656-5.851562 15.335937-5.851562 21.1875 0 5.851562 5.851562 5.851562 15.335938 0 21.1875l-38.945313 38.945312 31.78125 31.78125 26.71875-26.714843c5.847656-5.851563 15.335937-5.851563 21.1875 0 5.851563 5.851562 5.851563 15.335937 0 21.1875l-26.71875 26.714843 31.78125 31.78125 38.945313-38.945312c5.851562-5.851562 15.335937-5.851562 21.1875 0 5.851562 5.851562 5.851562 15.339844 0 21.191406l-38.941407 38.941406 31.78125 31.78125 26.714844-26.714843c5.851563-5.851563 15.335937-5.851563 21.1875 0 5.851563 5.851562 5.851563 15.335937 0 21.1875l-26.714844 26.714843 31.78125 31.785157 38.945313-38.945313c5.847656-5.851562 15.335937-5.851562 21.1875 0 5.851562 5.847656 5.851562 15.335938 0 21.1875l-38.945313 38.945313 31.78125 31.78125 26.714844-26.71875c5.851563-5.847657 15.339844-5.851563 21.1875 0 5.851563 5.851562 5.851563 15.335937 0 21.1875l-26.714844 26.714843 31.78125 31.785157 38.945313-38.945313c5.847656-5.851562 15.335937-5.851562 21.1875 0 5.851562 5.851563 5.851562 15.335938 0 21.1875l-38.945313 38.945313 31.785157 31.78125c2.808593 2.808593 6.617187 4.390625 10.59375 4.390625 3.972656 0 7.78125-1.582032 10.59375-4.390625l78.863281-78.863281c5.851562-5.851563 5.851562-15.339844 0-21.191407zm0 0"/></svg>